<?xml version="1.0" encoding="utf-8" standalone="no"?>
<!DOCTYPE svg PUBLIC "-//W3C//DTD SVG 1.1//EN"
  "http://www.w3.org/Graphics/SVG/1.1/DTD/svg11.dtd">
<svg height="576pt" version="1.1" viewBox="0 0 720 576" width="720pt" xmlns="http://www.w3.org/2000/svg" xmlns:xlink="http://www.w3.org/1999/xlink">
 <metadata>
  <rdf:RDF xmlns:cc="http://creativecommons.org/ns#" xmlns:dc="http://purl.org/dc/elements/1.1/" xmlns:rdf="http://www.w3.org/1999/02/22-rdf-syntax-ns#">
   <cc:Work>
    <dc:type rdf:resource="http://purl.org/dc/dcmitype/StillImage"/>
    <dc:date>2021-09-05T08:17:31.766917</dc:date>
    <dc:format>image/svg+xml</dc:format>
    <dc:creator>
     <cc:Agent>
      <dc:title>Matplotlib v3.4.3, https://matplotlib.org/</dc:title>
     </cc:Agent>
    </dc:creator>
   </cc:Work>
  </rdf:RDF>
 </metadata>
 <defs>
  <style type="text/css">*{stroke-linecap:butt;stroke-linejoin:round;}</style>
 </defs>
 <g id="figure_1">
  <g id="patch_1">
   <path d="M 0 576 
L 720 576 
L 720 0 
L 0 0 
z
" style="fill:none;"/>
  </g>
  <g id="axes_1">
   <g id="patch_2">
    <path d="M 69.21 516.75 
L 702.72 516.75 
L 702.72 37.869 
L 69.21 37.869 
z
" style="fill:#ffffff;"/>
   </g>
   <g id="PolyCollection_1">
    <defs>
     <path d="M 98.005909 -140.707658 
L 98.005909 -140.707658 
L 105.684818 -167.524994 
L 113.363727 -194.964875 
L 121.042636 -192.714135 
L 128.721545 -184.956263 
L 136.400455 -185.818248 
L 144.079364 -213.018689 
L 151.758273 -226.09214 
L 159.437182 -238.590935 
L 167.116091 -259.518034 
L 174.795 -278.242281 
L 182.473909 -313.918916 
L 190.152818 -344.040531 
L 197.831727 -361.854904 
L 205.510636 -380.10027 
L 213.189545 -389.199009 
L 220.868455 -403.134446 
L 228.547364 -412.759954 
L 236.226273 -425.162972 
L 243.905182 -428.706691 
L 251.584091 -440.199835 
L 259.263 -441.828031 
L 266.941909 -448.676029 
L 274.620818 -451.214098 
L 282.299727 -454.135273 
L 289.978636 -457.200111 
L 297.657545 -461.174823 
L 305.336455 -459.642404 
L 313.015364 -466.155186 
L 320.694273 -464.957983 
L 328.373182 -466.29885 
L 336.052091 -469.028472 
L 343.731 -466.921395 
L 351.409909 -476.259575 
L 359.088818 -473.290513 
L 366.767727 -474.822932 
L 374.446636 -479.372301 
L 382.125545 -478.558204 
L 389.804455 -478.845532 
L 397.483364 -477.073672 
L 405.162273 -479.180749 
L 412.841182 -480.856832 
L 420.520091 -481.862482 
L 428.199 -481.096273 
L 435.877909 -483.586454 
L 443.556818 -481.048385 
L 451.235727 -483.155461 
L 458.914636 -485.070985 
L 466.593545 -485.549866 
L 474.272455 -484.44844 
L 481.951364 -485.406202 
L 489.630273 -486.890733 
L 497.309182 -487.034397 
L 504.988091 -486.938621 
L 512.667 -485.741419 
L 520.345909 -488.087935 
L 528.024818 -488.279488 
L 535.703727 -488.566816 
L 543.382636 -487.22595 
L 551.061545 -486.555516 
L 558.740455 -489.907683 
L 566.419364 -489.045697 
L 574.098273 -489.141474 
L 581.777182 -490.338676 
L 589.456091 -491.344326 
L 597.135 -491.056998 
L 604.813909 -491.152774 
L 612.492818 -492.780969 
L 620.171727 -492.397864 
L 627.850636 -492.685193 
L 635.529545 -493.642955 
L 643.208455 -495.510591 
L 650.887364 -493.595067 
L 658.566273 -493.403515 
L 666.245182 -492.2542 
L 673.924091 -493.25985 
L 673.924091 -444.605541 
L 673.924091 -444.605541 
L 666.245182 -441.540702 
L 658.566273 -449.490127 
L 650.887364 -420.230498 
L 643.208455 -446.3774 
L 635.529545 -447.287274 
L 627.850636 -457.439551 
L 620.171727 -429.903894 
L 612.492818 -441.34915 
L 604.813909 -439.481514 
L 597.135 -446.473177 
L 589.456091 -468.262262 
L 581.777182 -439.864619 
L 574.098273 -448.292924 
L 566.419364 -441.397038 
L 558.740455 -446.13796 
L 551.061545 -447.90982 
L 543.382636 -449.107022 
L 535.703727 -409.407787 
L 528.024818 -438.523752 
L 520.345909 -440.056171 
L 512.667 -443.264674 
L 504.988091 -449.92112 
L 497.309182 -423.19956 
L 489.630273 -437.996983 
L 481.951364 -426.120734 
L 474.272455 -426.168622 
L 466.593545 -426.839056 
L 458.914636 -441.34915 
L 451.235727 -427.98837 
L 443.556818 -419.895281 
L 435.877909 -434.78848 
L 428.199 -414.052933 
L 420.520091 -442.929457 
L 412.841182 -430.670104 
L 405.162273 -423.582665 
L 397.483364 -424.779867 
L 389.804455 -402.176684 
L 382.125545 -426.695391 
L 374.446636 -422.577015 
L 366.767727 -418.937519 
L 359.088818 -406.007732 
L 351.409909 -429.041908 
L 343.731 -378.998844 
L 336.052091 -410.509213 
L 328.373182 -414.723366 
L 320.694273 -413.86138 
L 313.015364 -389.630002 
L 305.336455 -394.562476 
L 297.657545 -400.740041 
L 289.978636 -400.644265 
L 282.299727 -373.587488 
L 274.620818 -391.928631 
L 266.941909 -374.54525 
L 259.263 -366.50005 
L 251.584091 -352.325172 
L 243.905182 -342.316559 
L 236.226273 -320.479585 
L 228.547364 -320.144369 
L 220.868455 -301.563786 
L 213.189545 -293.231257 
L 205.510636 -264.40262 
L 197.831727 -250.658736 
L 190.152818 -234.472558 
L 182.473909 -214.742661 
L 174.795 -206.553796 
L 167.116091 -197.071952 
L 159.437182 -186.728122 
L 151.758273 -167.812323 
L 144.079364 -146.885223 
L 136.400455 -133.428667 
L 128.721545 -129.166626 
L 121.042636 -135.152639 
L 113.363727 -157.0375 
L 105.684818 -144.011937 
L 98.005909 -140.707658 
z
" id="m1773a94815" style="stroke:#800080;stroke-opacity:0.5;"/>
    </defs>
    <g clip-path="url(#p3438ca8a3b)">
     <use style="fill:#800080;fill-opacity:0.5;stroke:#800080;stroke-opacity:0.5;" x="0" xlink:href="#m1773a94815" y="576"/>
    </g>
   </g>
   <g id="matplotlib.axis_1">
    <g id="xtick_1">
     <g id="line2d_1">
      <path clip-path="url(#p3438ca8a3b)" d="M 98.005909 516.75 
L 98.005909 37.869 
" style="fill:none;stroke:#b0b0b0;stroke-linecap:square;stroke-width:0.8;"/>
     </g>
     <g id="line2d_2">
      <defs>
       <path d="M 0 0 
L 0 3.5 
" id="mfe99ff8b20" style="stroke:#000000;stroke-width:0.8;"/>
      </defs>
      <g>
       <use style="stroke:#000000;stroke-width:0.8;" x="98.005909" xlink:href="#mfe99ff8b20" y="516.75"/>
      </g>
     </g>
     <g id="text_1">
      <!-- 0 -->
      <g transform="translate(92.915909 535.9075)scale(0.16 -0.16)">
       <defs>
        <path d="M 2034 4250 
Q 1547 4250 1301 3770 
Q 1056 3291 1056 2328 
Q 1056 1369 1301 889 
Q 1547 409 2034 409 
Q 2525 409 2770 889 
Q 3016 1369 3016 2328 
Q 3016 3291 2770 3770 
Q 2525 4250 2034 4250 
z
M 2034 4750 
Q 2819 4750 3233 4129 
Q 3647 3509 3647 2328 
Q 3647 1150 3233 529 
Q 2819 -91 2034 -91 
Q 1250 -91 836 529 
Q 422 1150 422 2328 
Q 422 3509 836 4129 
Q 1250 4750 2034 4750 
z
" id="DejaVuSans-30" transform="scale(0.015625)"/>
       </defs>
       <use xlink:href="#DejaVuSans-30"/>
      </g>
     </g>
    </g>
    <g id="xtick_2">
     <g id="line2d_3">
      <path clip-path="url(#p3438ca8a3b)" d="M 174.795 516.75 
L 174.795 37.869 
" style="fill:none;stroke:#b0b0b0;stroke-linecap:square;stroke-width:0.8;"/>
     </g>
     <g id="line2d_4">
      <g>
       <use style="stroke:#000000;stroke-width:0.8;" x="174.795" xlink:href="#mfe99ff8b20" y="516.75"/>
      </g>
     </g>
     <g id="text_2">
      <!-- 200 -->
      <g transform="translate(159.525 535.9075)scale(0.16 -0.16)">
       <defs>
        <path d="M 1228 531 
L 3431 531 
L 3431 0 
L 469 0 
L 469 531 
Q 828 903 1448 1529 
Q 2069 2156 2228 2338 
Q 2531 2678 2651 2914 
Q 2772 3150 2772 3378 
Q 2772 3750 2511 3984 
Q 2250 4219 1831 4219 
Q 1534 4219 1204 4116 
Q 875 4013 500 3803 
L 500 4441 
Q 881 4594 1212 4672 
Q 1544 4750 1819 4750 
Q 2544 4750 2975 4387 
Q 3406 4025 3406 3419 
Q 3406 3131 3298 2873 
Q 3191 2616 2906 2266 
Q 2828 2175 2409 1742 
Q 1991 1309 1228 531 
z
" id="DejaVuSans-32" transform="scale(0.015625)"/>
       </defs>
       <use xlink:href="#DejaVuSans-32"/>
       <use x="63.623047" xlink:href="#DejaVuSans-30"/>
       <use x="127.246094" xlink:href="#DejaVuSans-30"/>
      </g>
     </g>
    </g>
    <g id="xtick_3">
     <g id="line2d_5">
      <path clip-path="url(#p3438ca8a3b)" d="M 251.584091 516.75 
L 251.584091 37.869 
" style="fill:none;stroke:#b0b0b0;stroke-linecap:square;stroke-width:0.8;"/>
     </g>
     <g id="line2d_6">
      <g>
       <use style="stroke:#000000;stroke-width:0.8;" x="251.584091" xlink:href="#mfe99ff8b20" y="516.75"/>
      </g>
     </g>
     <g id="text_3">
      <!-- 400 -->
      <g transform="translate(236.314091 535.9075)scale(0.16 -0.16)">
       <defs>
        <path d="M 2419 4116 
L 825 1625 
L 2419 1625 
L 2419 4116 
z
M 2253 4666 
L 3047 4666 
L 3047 1625 
L 3713 1625 
L 3713 1100 
L 3047 1100 
L 3047 0 
L 2419 0 
L 2419 1100 
L 313 1100 
L 313 1709 
L 2253 4666 
z
" id="DejaVuSans-34" transform="scale(0.015625)"/>
       </defs>
       <use xlink:href="#DejaVuSans-34"/>
       <use x="63.623047" xlink:href="#DejaVuSans-30"/>
       <use x="127.246094" xlink:href="#DejaVuSans-30"/>
      </g>
     </g>
    </g>
    <g id="xtick_4">
     <g id="line2d_7">
      <path clip-path="url(#p3438ca8a3b)" d="M 328.373182 516.75 
L 328.373182 37.869 
" style="fill:none;stroke:#b0b0b0;stroke-linecap:square;stroke-width:0.8;"/>
     </g>
     <g id="line2d_8">
      <g>
       <use style="stroke:#000000;stroke-width:0.8;" x="328.373182" xlink:href="#mfe99ff8b20" y="516.75"/>
      </g>
     </g>
     <g id="text_4">
      <!-- 600 -->
      <g transform="translate(313.103182 535.9075)scale(0.16 -0.16)">
       <defs>
        <path d="M 2113 2584 
Q 1688 2584 1439 2293 
Q 1191 2003 1191 1497 
Q 1191 994 1439 701 
Q 1688 409 2113 409 
Q 2538 409 2786 701 
Q 3034 994 3034 1497 
Q 3034 2003 2786 2293 
Q 2538 2584 2113 2584 
z
M 3366 4563 
L 3366 3988 
Q 3128 4100 2886 4159 
Q 2644 4219 2406 4219 
Q 1781 4219 1451 3797 
Q 1122 3375 1075 2522 
Q 1259 2794 1537 2939 
Q 1816 3084 2150 3084 
Q 2853 3084 3261 2657 
Q 3669 2231 3669 1497 
Q 3669 778 3244 343 
Q 2819 -91 2113 -91 
Q 1303 -91 875 529 
Q 447 1150 447 2328 
Q 447 3434 972 4092 
Q 1497 4750 2381 4750 
Q 2619 4750 2861 4703 
Q 3103 4656 3366 4563 
z
" id="DejaVuSans-36" transform="scale(0.015625)"/>
       </defs>
       <use xlink:href="#DejaVuSans-36"/>
       <use x="63.623047" xlink:href="#DejaVuSans-30"/>
       <use x="127.246094" xlink:href="#DejaVuSans-30"/>
      </g>
     </g>
    </g>
    <g id="xtick_5">
     <g id="line2d_9">
      <path clip-path="url(#p3438ca8a3b)" d="M 405.162273 516.75 
L 405.162273 37.869 
" style="fill:none;stroke:#b0b0b0;stroke-linecap:square;stroke-width:0.8;"/>
     </g>
     <g id="line2d_10">
      <g>
       <use style="stroke:#000000;stroke-width:0.8;" x="405.162273" xlink:href="#mfe99ff8b20" y="516.75"/>
      </g>
     </g>
     <g id="text_5">
      <!-- 800 -->
      <g transform="translate(389.892273 535.9075)scale(0.16 -0.16)">
       <defs>
        <path d="M 2034 2216 
Q 1584 2216 1326 1975 
Q 1069 1734 1069 1313 
Q 1069 891 1326 650 
Q 1584 409 2034 409 
Q 2484 409 2743 651 
Q 3003 894 3003 1313 
Q 3003 1734 2745 1975 
Q 2488 2216 2034 2216 
z
M 1403 2484 
Q 997 2584 770 2862 
Q 544 3141 544 3541 
Q 544 4100 942 4425 
Q 1341 4750 2034 4750 
Q 2731 4750 3128 4425 
Q 3525 4100 3525 3541 
Q 3525 3141 3298 2862 
Q 3072 2584 2669 2484 
Q 3125 2378 3379 2068 
Q 3634 1759 3634 1313 
Q 3634 634 3220 271 
Q 2806 -91 2034 -91 
Q 1263 -91 848 271 
Q 434 634 434 1313 
Q 434 1759 690 2068 
Q 947 2378 1403 2484 
z
M 1172 3481 
Q 1172 3119 1398 2916 
Q 1625 2713 2034 2713 
Q 2441 2713 2670 2916 
Q 2900 3119 2900 3481 
Q 2900 3844 2670 4047 
Q 2441 4250 2034 4250 
Q 1625 4250 1398 4047 
Q 1172 3844 1172 3481 
z
" id="DejaVuSans-38" transform="scale(0.015625)"/>
       </defs>
       <use xlink:href="#DejaVuSans-38"/>
       <use x="63.623047" xlink:href="#DejaVuSans-30"/>
       <use x="127.246094" xlink:href="#DejaVuSans-30"/>
      </g>
     </g>
    </g>
    <g id="xtick_6">
     <g id="line2d_11">
      <path clip-path="url(#p3438ca8a3b)" d="M 481.951364 516.75 
L 481.951364 37.869 
" style="fill:none;stroke:#b0b0b0;stroke-linecap:square;stroke-width:0.8;"/>
     </g>
     <g id="line2d_12">
      <g>
       <use style="stroke:#000000;stroke-width:0.8;" x="481.951364" xlink:href="#mfe99ff8b20" y="516.75"/>
      </g>
     </g>
     <g id="text_6">
      <!-- 1000 -->
      <g transform="translate(461.591364 535.9075)scale(0.16 -0.16)">
       <defs>
        <path d="M 794 531 
L 1825 531 
L 1825 4091 
L 703 3866 
L 703 4441 
L 1819 4666 
L 2450 4666 
L 2450 531 
L 3481 531 
L 3481 0 
L 794 0 
L 794 531 
z
" id="DejaVuSans-31" transform="scale(0.015625)"/>
       </defs>
       <use xlink:href="#DejaVuSans-31"/>
       <use x="63.623047" xlink:href="#DejaVuSans-30"/>
       <use x="127.246094" xlink:href="#DejaVuSans-30"/>
       <use x="190.869141" xlink:href="#DejaVuSans-30"/>
      </g>
     </g>
    </g>
    <g id="xtick_7">
     <g id="line2d_13">
      <path clip-path="url(#p3438ca8a3b)" d="M 558.740455 516.75 
L 558.740455 37.869 
" style="fill:none;stroke:#b0b0b0;stroke-linecap:square;stroke-width:0.8;"/>
     </g>
     <g id="line2d_14">
      <g>
       <use style="stroke:#000000;stroke-width:0.8;" x="558.740455" xlink:href="#mfe99ff8b20" y="516.75"/>
      </g>
     </g>
     <g id="text_7">
      <!-- 1200 -->
      <g transform="translate(538.380455 535.9075)scale(0.16 -0.16)">
       <use xlink:href="#DejaVuSans-31"/>
       <use x="63.623047" xlink:href="#DejaVuSans-32"/>
       <use x="127.246094" xlink:href="#DejaVuSans-30"/>
       <use x="190.869141" xlink:href="#DejaVuSans-30"/>
      </g>
     </g>
    </g>
    <g id="xtick_8">
     <g id="line2d_15">
      <path clip-path="url(#p3438ca8a3b)" d="M 635.529545 516.75 
L 635.529545 37.869 
" style="fill:none;stroke:#b0b0b0;stroke-linecap:square;stroke-width:0.8;"/>
     </g>
     <g id="line2d_16">
      <g>
       <use style="stroke:#000000;stroke-width:0.8;" x="635.529545" xlink:href="#mfe99ff8b20" y="516.75"/>
      </g>
     </g>
     <g id="text_8">
      <!-- 1400 -->
      <g transform="translate(615.169545 535.9075)scale(0.16 -0.16)">
       <use xlink:href="#DejaVuSans-31"/>
       <use x="63.623047" xlink:href="#DejaVuSans-34"/>
       <use x="127.246094" xlink:href="#DejaVuSans-30"/>
       <use x="190.869141" xlink:href="#DejaVuSans-30"/>
      </g>
     </g>
    </g>
    <g id="text_9">
     <!-- Communication Round -->
     <g transform="translate(295.05625 555.3925)scale(0.16 -0.16)">
      <defs>
       <path d="M 4122 4306 
L 4122 3641 
Q 3803 3938 3442 4084 
Q 3081 4231 2675 4231 
Q 1875 4231 1450 3742 
Q 1025 3253 1025 2328 
Q 1025 1406 1450 917 
Q 1875 428 2675 428 
Q 3081 428 3442 575 
Q 3803 722 4122 1019 
L 4122 359 
Q 3791 134 3420 21 
Q 3050 -91 2638 -91 
Q 1578 -91 968 557 
Q 359 1206 359 2328 
Q 359 3453 968 4101 
Q 1578 4750 2638 4750 
Q 3056 4750 3426 4639 
Q 3797 4528 4122 4306 
z
" id="DejaVuSans-43" transform="scale(0.015625)"/>
       <path d="M 1959 3097 
Q 1497 3097 1228 2736 
Q 959 2375 959 1747 
Q 959 1119 1226 758 
Q 1494 397 1959 397 
Q 2419 397 2687 759 
Q 2956 1122 2956 1747 
Q 2956 2369 2687 2733 
Q 2419 3097 1959 3097 
z
M 1959 3584 
Q 2709 3584 3137 3096 
Q 3566 2609 3566 1747 
Q 3566 888 3137 398 
Q 2709 -91 1959 -91 
Q 1206 -91 779 398 
Q 353 888 353 1747 
Q 353 2609 779 3096 
Q 1206 3584 1959 3584 
z
" id="DejaVuSans-6f" transform="scale(0.015625)"/>
       <path d="M 3328 2828 
Q 3544 3216 3844 3400 
Q 4144 3584 4550 3584 
Q 5097 3584 5394 3201 
Q 5691 2819 5691 2113 
L 5691 0 
L 5113 0 
L 5113 2094 
Q 5113 2597 4934 2840 
Q 4756 3084 4391 3084 
Q 3944 3084 3684 2787 
Q 3425 2491 3425 1978 
L 3425 0 
L 2847 0 
L 2847 2094 
Q 2847 2600 2669 2842 
Q 2491 3084 2119 3084 
Q 1678 3084 1418 2786 
Q 1159 2488 1159 1978 
L 1159 0 
L 581 0 
L 581 3500 
L 1159 3500 
L 1159 2956 
Q 1356 3278 1631 3431 
Q 1906 3584 2284 3584 
Q 2666 3584 2933 3390 
Q 3200 3197 3328 2828 
z
" id="DejaVuSans-6d" transform="scale(0.015625)"/>
       <path d="M 544 1381 
L 544 3500 
L 1119 3500 
L 1119 1403 
Q 1119 906 1312 657 
Q 1506 409 1894 409 
Q 2359 409 2629 706 
Q 2900 1003 2900 1516 
L 2900 3500 
L 3475 3500 
L 3475 0 
L 2900 0 
L 2900 538 
Q 2691 219 2414 64 
Q 2138 -91 1772 -91 
Q 1169 -91 856 284 
Q 544 659 544 1381 
z
M 1991 3584 
L 1991 3584 
z
" id="DejaVuSans-75" transform="scale(0.015625)"/>
       <path d="M 3513 2113 
L 3513 0 
L 2938 0 
L 2938 2094 
Q 2938 2591 2744 2837 
Q 2550 3084 2163 3084 
Q 1697 3084 1428 2787 
Q 1159 2491 1159 1978 
L 1159 0 
L 581 0 
L 581 3500 
L 1159 3500 
L 1159 2956 
Q 1366 3272 1645 3428 
Q 1925 3584 2291 3584 
Q 2894 3584 3203 3211 
Q 3513 2838 3513 2113 
z
" id="DejaVuSans-6e" transform="scale(0.015625)"/>
       <path d="M 603 3500 
L 1178 3500 
L 1178 0 
L 603 0 
L 603 3500 
z
M 603 4863 
L 1178 4863 
L 1178 4134 
L 603 4134 
L 603 4863 
z
" id="DejaVuSans-69" transform="scale(0.015625)"/>
       <path d="M 3122 3366 
L 3122 2828 
Q 2878 2963 2633 3030 
Q 2388 3097 2138 3097 
Q 1578 3097 1268 2742 
Q 959 2388 959 1747 
Q 959 1106 1268 751 
Q 1578 397 2138 397 
Q 2388 397 2633 464 
Q 2878 531 3122 666 
L 3122 134 
Q 2881 22 2623 -34 
Q 2366 -91 2075 -91 
Q 1284 -91 818 406 
Q 353 903 353 1747 
Q 353 2603 823 3093 
Q 1294 3584 2113 3584 
Q 2378 3584 2631 3529 
Q 2884 3475 3122 3366 
z
" id="DejaVuSans-63" transform="scale(0.015625)"/>
       <path d="M 2194 1759 
Q 1497 1759 1228 1600 
Q 959 1441 959 1056 
Q 959 750 1161 570 
Q 1363 391 1709 391 
Q 2188 391 2477 730 
Q 2766 1069 2766 1631 
L 2766 1759 
L 2194 1759 
z
M 3341 1997 
L 3341 0 
L 2766 0 
L 2766 531 
Q 2569 213 2275 61 
Q 1981 -91 1556 -91 
Q 1019 -91 701 211 
Q 384 513 384 1019 
Q 384 1609 779 1909 
Q 1175 2209 1959 2209 
L 2766 2209 
L 2766 2266 
Q 2766 2663 2505 2880 
Q 2244 3097 1772 3097 
Q 1472 3097 1187 3025 
Q 903 2953 641 2809 
L 641 3341 
Q 956 3463 1253 3523 
Q 1550 3584 1831 3584 
Q 2591 3584 2966 3190 
Q 3341 2797 3341 1997 
z
" id="DejaVuSans-61" transform="scale(0.015625)"/>
       <path d="M 1172 4494 
L 1172 3500 
L 2356 3500 
L 2356 3053 
L 1172 3053 
L 1172 1153 
Q 1172 725 1289 603 
Q 1406 481 1766 481 
L 2356 481 
L 2356 0 
L 1766 0 
Q 1100 0 847 248 
Q 594 497 594 1153 
L 594 3053 
L 172 3053 
L 172 3500 
L 594 3500 
L 594 4494 
L 1172 4494 
z
" id="DejaVuSans-74" transform="scale(0.015625)"/>
       <path id="DejaVuSans-20" transform="scale(0.015625)"/>
       <path d="M 2841 2188 
Q 3044 2119 3236 1894 
Q 3428 1669 3622 1275 
L 4263 0 
L 3584 0 
L 2988 1197 
Q 2756 1666 2539 1819 
Q 2322 1972 1947 1972 
L 1259 1972 
L 1259 0 
L 628 0 
L 628 4666 
L 2053 4666 
Q 2853 4666 3247 4331 
Q 3641 3997 3641 3322 
Q 3641 2881 3436 2590 
Q 3231 2300 2841 2188 
z
M 1259 4147 
L 1259 2491 
L 2053 2491 
Q 2509 2491 2742 2702 
Q 2975 2913 2975 3322 
Q 2975 3731 2742 3939 
Q 2509 4147 2053 4147 
L 1259 4147 
z
" id="DejaVuSans-52" transform="scale(0.015625)"/>
       <path d="M 2906 2969 
L 2906 4863 
L 3481 4863 
L 3481 0 
L 2906 0 
L 2906 525 
Q 2725 213 2448 61 
Q 2172 -91 1784 -91 
Q 1150 -91 751 415 
Q 353 922 353 1747 
Q 353 2572 751 3078 
Q 1150 3584 1784 3584 
Q 2172 3584 2448 3432 
Q 2725 3281 2906 2969 
z
M 947 1747 
Q 947 1113 1208 752 
Q 1469 391 1925 391 
Q 2381 391 2643 752 
Q 2906 1113 2906 1747 
Q 2906 2381 2643 2742 
Q 2381 3103 1925 3103 
Q 1469 3103 1208 2742 
Q 947 2381 947 1747 
z
" id="DejaVuSans-64" transform="scale(0.015625)"/>
      </defs>
      <use xlink:href="#DejaVuSans-43"/>
      <use x="69.824219" xlink:href="#DejaVuSans-6f"/>
      <use x="131.005859" xlink:href="#DejaVuSans-6d"/>
      <use x="228.417969" xlink:href="#DejaVuSans-6d"/>
      <use x="325.830078" xlink:href="#DejaVuSans-75"/>
      <use x="389.208984" xlink:href="#DejaVuSans-6e"/>
      <use x="452.587891" xlink:href="#DejaVuSans-69"/>
      <use x="480.371094" xlink:href="#DejaVuSans-63"/>
      <use x="535.351562" xlink:href="#DejaVuSans-61"/>
      <use x="596.630859" xlink:href="#DejaVuSans-74"/>
      <use x="635.839844" xlink:href="#DejaVuSans-69"/>
      <use x="663.623047" xlink:href="#DejaVuSans-6f"/>
      <use x="724.804688" xlink:href="#DejaVuSans-6e"/>
      <use x="788.183594" xlink:href="#DejaVuSans-20"/>
      <use x="819.970703" xlink:href="#DejaVuSans-52"/>
      <use x="884.953125" xlink:href="#DejaVuSans-6f"/>
      <use x="946.134766" xlink:href="#DejaVuSans-75"/>
      <use x="1009.513672" xlink:href="#DejaVuSans-6e"/>
      <use x="1072.892578" xlink:href="#DejaVuSans-64"/>
     </g>
    </g>
   </g>
   <g id="matplotlib.axis_2">
    <g id="ytick_1">
     <g id="line2d_17">
      <path clip-path="url(#p3438ca8a3b)" d="M 69.21 516.75 
L 702.72 516.75 
" style="fill:none;stroke:#b0b0b0;stroke-linecap:square;stroke-width:0.8;"/>
     </g>
     <g id="line2d_18">
      <defs>
       <path d="M 0 0 
L -3.5 0 
" id="mc103d1ed36" style="stroke:#000000;stroke-width:0.8;"/>
      </defs>
      <g>
       <use style="stroke:#000000;stroke-width:0.8;" x="69.21" xlink:href="#mc103d1ed36" y="516.75"/>
      </g>
     </g>
     <g id="text_10">
      <!-- 0.0 -->
      <g transform="translate(36.765 522.82875)scale(0.16 -0.16)">
       <defs>
        <path d="M 684 794 
L 1344 794 
L 1344 0 
L 684 0 
L 684 794 
z
" id="DejaVuSans-2e" transform="scale(0.015625)"/>
       </defs>
       <use xlink:href="#DejaVuSans-30"/>
       <use x="63.623047" xlink:href="#DejaVuSans-2e"/>
       <use x="95.410156" xlink:href="#DejaVuSans-30"/>
      </g>
     </g>
    </g>
    <g id="ytick_2">
     <g id="line2d_19">
      <path clip-path="url(#p3438ca8a3b)" d="M 69.21 420.9738 
L 702.72 420.9738 
" style="fill:none;stroke:#b0b0b0;stroke-linecap:square;stroke-width:0.8;"/>
     </g>
     <g id="line2d_20">
      <g>
       <use style="stroke:#000000;stroke-width:0.8;" x="69.21" xlink:href="#mc103d1ed36" y="420.9738"/>
      </g>
     </g>
     <g id="text_11">
      <!-- 0.2 -->
      <g transform="translate(36.765 427.05255)scale(0.16 -0.16)">
       <use xlink:href="#DejaVuSans-30"/>
       <use x="63.623047" xlink:href="#DejaVuSans-2e"/>
       <use x="95.410156" xlink:href="#DejaVuSans-32"/>
      </g>
     </g>
    </g>
    <g id="ytick_3">
     <g id="line2d_21">
      <path clip-path="url(#p3438ca8a3b)" d="M 69.21 325.1976 
L 702.72 325.1976 
" style="fill:none;stroke:#b0b0b0;stroke-linecap:square;stroke-width:0.8;"/>
     </g>
     <g id="line2d_22">
      <g>
       <use style="stroke:#000000;stroke-width:0.8;" x="69.21" xlink:href="#mc103d1ed36" y="325.1976"/>
      </g>
     </g>
     <g id="text_12">
      <!-- 0.4 -->
      <g transform="translate(36.765 331.27635)scale(0.16 -0.16)">
       <use xlink:href="#DejaVuSans-30"/>
       <use x="63.623047" xlink:href="#DejaVuSans-2e"/>
       <use x="95.410156" xlink:href="#DejaVuSans-34"/>
      </g>
     </g>
    </g>
    <g id="ytick_4">
     <g id="line2d_23">
      <path clip-path="url(#p3438ca8a3b)" d="M 69.21 229.4214 
L 702.72 229.4214 
" style="fill:none;stroke:#b0b0b0;stroke-linecap:square;stroke-width:0.8;"/>
     </g>
     <g id="line2d_24">
      <g>
       <use style="stroke:#000000;stroke-width:0.8;" x="69.21" xlink:href="#mc103d1ed36" y="229.4214"/>
      </g>
     </g>
     <g id="text_13">
      <!-- 0.6 -->
      <g transform="translate(36.765 235.50015)scale(0.16 -0.16)">
       <use xlink:href="#DejaVuSans-30"/>
       <use x="63.623047" xlink:href="#DejaVuSans-2e"/>
       <use x="95.410156" xlink:href="#DejaVuSans-36"/>
      </g>
     </g>
    </g>
    <g id="ytick_5">
     <g id="line2d_25">
      <path clip-path="url(#p3438ca8a3b)" d="M 69.21 133.6452 
L 702.72 133.6452 
" style="fill:none;stroke:#b0b0b0;stroke-linecap:square;stroke-width:0.8;"/>
     </g>
     <g id="line2d_26">
      <g>
       <use style="stroke:#000000;stroke-width:0.8;" x="69.21" xlink:href="#mc103d1ed36" y="133.6452"/>
      </g>
     </g>
     <g id="text_14">
      <!-- 0.8 -->
      <g transform="translate(36.765 139.72395)scale(0.16 -0.16)">
       <use xlink:href="#DejaVuSans-30"/>
       <use x="63.623047" xlink:href="#DejaVuSans-2e"/>
       <use x="95.410156" xlink:href="#DejaVuSans-38"/>
      </g>
     </g>
    </g>
    <g id="ytick_6">
     <g id="line2d_27">
      <path clip-path="url(#p3438ca8a3b)" d="M 69.21 37.869 
L 702.72 37.869 
" style="fill:none;stroke:#b0b0b0;stroke-linecap:square;stroke-width:0.8;"/>
     </g>
     <g id="line2d_28">
      <g>
       <use style="stroke:#000000;stroke-width:0.8;" x="69.21" xlink:href="#mc103d1ed36" y="37.869"/>
      </g>
     </g>
     <g id="text_15">
      <!-- 1.0 -->
      <g transform="translate(36.765 43.94775)scale(0.16 -0.16)">
       <use xlink:href="#DejaVuSans-31"/>
       <use x="63.623047" xlink:href="#DejaVuSans-2e"/>
       <use x="95.410156" xlink:href="#DejaVuSans-30"/>
      </g>
     </g>
    </g>
    <g id="text_16">
     <!-- Top1 Accuracy -->
     <g transform="translate(29.4375 334.967)rotate(-90)scale(0.16 -0.16)">
      <defs>
       <path d="M -19 4666 
L 3928 4666 
L 3928 4134 
L 2272 4134 
L 2272 0 
L 1638 0 
L 1638 4134 
L -19 4134 
L -19 4666 
z
" id="DejaVuSans-54" transform="scale(0.015625)"/>
       <path d="M 1159 525 
L 1159 -1331 
L 581 -1331 
L 581 3500 
L 1159 3500 
L 1159 2969 
Q 1341 3281 1617 3432 
Q 1894 3584 2278 3584 
Q 2916 3584 3314 3078 
Q 3713 2572 3713 1747 
Q 3713 922 3314 415 
Q 2916 -91 2278 -91 
Q 1894 -91 1617 61 
Q 1341 213 1159 525 
z
M 3116 1747 
Q 3116 2381 2855 2742 
Q 2594 3103 2138 3103 
Q 1681 3103 1420 2742 
Q 1159 2381 1159 1747 
Q 1159 1113 1420 752 
Q 1681 391 2138 391 
Q 2594 391 2855 752 
Q 3116 1113 3116 1747 
z
" id="DejaVuSans-70" transform="scale(0.015625)"/>
       <path d="M 2188 4044 
L 1331 1722 
L 3047 1722 
L 2188 4044 
z
M 1831 4666 
L 2547 4666 
L 4325 0 
L 3669 0 
L 3244 1197 
L 1141 1197 
L 716 0 
L 50 0 
L 1831 4666 
z
" id="DejaVuSans-41" transform="scale(0.015625)"/>
       <path d="M 2631 2963 
Q 2534 3019 2420 3045 
Q 2306 3072 2169 3072 
Q 1681 3072 1420 2755 
Q 1159 2438 1159 1844 
L 1159 0 
L 581 0 
L 581 3500 
L 1159 3500 
L 1159 2956 
Q 1341 3275 1631 3429 
Q 1922 3584 2338 3584 
Q 2397 3584 2469 3576 
Q 2541 3569 2628 3553 
L 2631 2963 
z
" id="DejaVuSans-72" transform="scale(0.015625)"/>
       <path d="M 2059 -325 
Q 1816 -950 1584 -1140 
Q 1353 -1331 966 -1331 
L 506 -1331 
L 506 -850 
L 844 -850 
Q 1081 -850 1212 -737 
Q 1344 -625 1503 -206 
L 1606 56 
L 191 3500 
L 800 3500 
L 1894 763 
L 2988 3500 
L 3597 3500 
L 2059 -325 
z
" id="DejaVuSans-79" transform="scale(0.015625)"/>
      </defs>
      <use xlink:href="#DejaVuSans-54"/>
      <use x="44.083984" xlink:href="#DejaVuSans-6f"/>
      <use x="105.265625" xlink:href="#DejaVuSans-70"/>
      <use x="168.742188" xlink:href="#DejaVuSans-31"/>
      <use x="232.365234" xlink:href="#DejaVuSans-20"/>
      <use x="264.152344" xlink:href="#DejaVuSans-41"/>
      <use x="330.810547" xlink:href="#DejaVuSans-63"/>
      <use x="385.791016" xlink:href="#DejaVuSans-63"/>
      <use x="440.771484" xlink:href="#DejaVuSans-75"/>
      <use x="504.150391" xlink:href="#DejaVuSans-72"/>
      <use x="545.263672" xlink:href="#DejaVuSans-61"/>
      <use x="606.542969" xlink:href="#DejaVuSans-63"/>
      <use x="661.523438" xlink:href="#DejaVuSans-79"/>
     </g>
    </g>
   </g>
   <g id="PolyCollection_2">
    <defs>
     <path d="M 98.005909 -140.707658 
L 98.005909 -140.707658 
L 105.684818 -184.190053 
L 113.363727 -211.869375 
L 121.042636 -245.965702 
L 128.721545 -357.305534 
L 136.400455 -434.165935 
L 144.079364 -459.690292 
L 151.758273 -471.949646 
L 159.437182 -479.803294 
L 167.116091 -484.496328 
L 174.795 -487.417502 
L 182.473909 -490.2429 
L 190.152818 -492.637305 
L 197.831727 -493.930284 
L 205.510636 -494.313388 
L 213.189545 -495.414815 
L 220.868455 -496.181024 
L 228.547364 -497.282451 
L 236.226273 -490.961221 
L 243.905182 -493.116186 
L 251.584091 -498.479653 
L 259.263 -498.81487 
L 266.941909 -499.581079 
L 274.620818 -498.383877 
L 282.299727 -501.352939 
L 289.978636 -501.879708 
L 297.657545 -492.924634 
L 305.336455 -500.395177 
L 313.015364 -502.167037 
L 320.694273 -501.640268 
L 328.373182 -500.778282 
L 336.052091 -494.02606 
L 343.731 -504.369889 
L 351.409909 -504.226225 
L 359.088818 -503.029023 
L 366.767727 -502.310701 
L 374.446636 -503.938897 
L 382.125545 -497.904996 
L 389.804455 -504.752994 
L 397.483364 -505.231875 
L 405.162273 -504.274113 
L 412.841182 -503.316351 
L 420.520091 -499.724744 
L 428.199 -504.84877 
L 435.877909 -506.572742 
L 443.556818 -507.243175 
L 451.235727 -507.578392 
L 458.914636 -507.530504 
L 466.593545 -508.344602 
L 474.272455 -507.817833 
L 481.951364 -506.333302 
L 489.630273 -508.248826 
L 497.309182 -508.727707 
L 504.988091 -507.338952 
L 512.667 -509.015035 
L 520.345909 -425.641853 
L 528.024818 -507.099511 
L 535.703727 -509.302364 
L 543.382636 -509.493916 
L 551.061545 -509.015035 
L 558.740455 -509.110811 
L 566.419364 -508.919259 
L 574.098273 -510.930559 
L 581.777182 -510.882671 
L 589.456091 -509.63758 
L 597.135 -510.930559 
L 604.813909 -510.499566 
L 612.492818 -510.930559 
L 620.171727 -510.882671 
L 627.850636 -511.361552 
L 635.529545 -509.829133 
L 643.208455 -511.17 
L 650.887364 -512.223538 
L 658.566273 -511.888321 
L 666.245182 -512.079874 
L 673.924091 -512.367202 
L 673.924091 -510.739007 
L 673.924091 -510.739007 
L 666.245182 -501.209275 
L 658.566273 -510.691119 
L 650.887364 -501.59238 
L 643.208455 -510.451678 
L 635.529545 -497.713444 
L 627.850636 -507.817833 
L 620.171727 -497.665555 
L 612.492818 -508.296714 
L 604.813909 -483.251237 
L 597.135 -507.38684 
L 589.456091 -480.282175 
L 581.777182 -505.279763 
L 574.098273 -509.877021 
L 566.419364 -500.490953 
L 558.740455 -505.231875 
L 551.061545 -507.674168 
L 543.382636 -508.536154 
L 535.703727 -506.860071 
L 528.024818 -505.950197 
L 520.345909 -324.885291 
L 512.667 -493.930284 
L 504.988091 -497.761332 
L 497.309182 -494.600717 
L 489.630273 -505.61498 
L 481.951364 -494.2655 
L 474.272455 -503.699456 
L 466.593545 -506.62063 
L 458.914636 -504.800882 
L 451.235727 -506.141749 
L 443.556818 -506.524854 
L 435.877909 -505.998085 
L 428.199 -504.322001 
L 420.520091 -497.713444 
L 412.841182 -488.710481 
L 405.162273 -495.319039 
L 397.483364 -493.068298 
L 389.804455 -492.397864 
L 382.125545 -424.875643 
L 374.446636 -492.2542 
L 366.767727 -491.583767 
L 359.088818 -496.995122 
L 351.409909 -498.431765 
L 343.731 -502.167037 
L 336.052091 -303.383534 
L 328.373182 -484.065335 
L 320.694273 -480.66528 
L 313.015364 -500.778282 
L 305.336455 -496.420465 
L 297.657545 -359.077394 
L 289.978636 -458.684642 
L 282.299727 -493.355626 
L 274.620818 -480.521616 
L 266.941909 -498.144436 
L 259.263 -494.073948 
L 251.584091 -485.645642 
L 243.905182 -454.326825 
L 236.226273 -471.231324 
L 228.547364 -488.949921 
L 220.868455 -493.451403 
L 213.189545 -490.386564 
L 205.510636 -492.158424 
L 197.831727 -492.2542 
L 190.152818 -491.487991 
L 182.473909 -489.285138 
L 174.795 -486.316076 
L 167.116091 -483.299125 
L 159.437182 -479.276525 
L 151.758273 -471.039772 
L 144.079364 -459.163523 
L 136.400455 -431.723642 
L 128.721545 -351.989955 
L 121.042636 -243.092416 
L 113.363727 -211.103165 
L 105.684818 -181.316767 
L 98.005909 -140.707658 
z
" id="md739898d83" style="stroke:#32cd32;stroke-opacity:0.5;"/>
    </defs>
    <g clip-path="url(#p3438ca8a3b)">
     <use style="fill:#32cd32;fill-opacity:0.5;stroke:#32cd32;stroke-opacity:0.5;" x="0" xlink:href="#md739898d83" y="576"/>
    </g>
   </g>
   <g id="line2d_29">
    <path clip-path="url(#p3438ca8a3b)" d="M 98.005909 45.052208 
L 105.684818 45.052208 
L 113.363727 45.052208 
L 121.042636 45.052208 
L 128.721545 45.052208 
L 136.400455 45.052208 
L 144.079364 45.052208 
L 151.758273 45.052208 
L 159.437182 45.052208 
L 167.116091 45.052208 
L 174.795 45.052208 
L 182.473909 45.052208 
L 190.152818 45.052208 
L 197.831727 45.052208 
L 205.510636 45.052208 
L 213.189545 45.052208 
L 220.868455 45.052208 
L 228.547364 45.052208 
L 236.226273 45.052208 
L 243.905182 45.052208 
L 251.584091 45.052208 
L 259.263 45.052208 
L 266.941909 45.052208 
L 274.620818 45.052208 
L 282.299727 45.052208 
L 289.978636 45.052208 
L 297.657545 45.052208 
L 305.336455 45.052208 
L 313.015364 45.052208 
L 320.694273 45.052208 
L 328.373182 45.052208 
L 336.052091 45.052208 
L 343.731 45.052208 
L 351.409909 45.052208 
L 359.088818 45.052208 
L 366.767727 45.052208 
L 374.446636 45.052208 
L 382.125545 45.052208 
L 389.804455 45.052208 
L 397.483364 45.052208 
L 405.162273 45.052208 
L 412.841182 45.052208 
L 420.520091 45.052208 
L 428.199 45.052208 
L 435.877909 45.052208 
L 443.556818 45.052208 
L 451.235727 45.052208 
L 458.914636 45.052208 
L 466.593545 45.052208 
L 474.272455 45.052208 
L 481.951364 45.052208 
L 489.630273 45.052208 
L 497.309182 45.052208 
L 504.988091 45.052208 
L 512.667 45.052208 
L 520.345909 45.052208 
L 528.024818 45.052208 
L 535.703727 45.052208 
L 543.382636 45.052208 
L 551.061545 45.052208 
L 558.740455 45.052208 
L 566.419364 45.052208 
L 574.098273 45.052208 
L 581.777182 45.052208 
L 589.456091 45.052208 
L 597.135 45.052208 
L 604.813909 45.052208 
L 612.492818 45.052208 
L 620.171727 45.052208 
L 627.850636 45.052208 
L 635.529545 45.052208 
L 643.208455 45.052208 
L 650.887364 45.052208 
L 658.566273 45.052208 
L 666.245182 45.052208 
L 673.924091 45.052208 
" style="fill:none;stroke:#4b0082;stroke-dasharray:2,3.3;stroke-dashoffset:0;stroke-width:2;"/>
   </g>
   <g id="line2d_30">
    <path clip-path="url(#p3438ca8a3b)" d="M 98.005909 469.819662 
L 105.684818 469.819662 
L 113.363727 469.819662 
L 121.042636 469.819662 
L 128.721545 469.819662 
L 136.400455 469.819662 
L 144.079364 469.819662 
L 151.758273 469.819662 
L 159.437182 469.819662 
L 167.116091 469.819662 
L 174.795 469.819662 
L 182.473909 469.819662 
L 190.152818 469.819662 
L 197.831727 469.819662 
L 205.510636 469.819662 
L 213.189545 469.819662 
L 220.868455 469.819662 
L 228.547364 469.819662 
L 236.226273 469.819662 
L 243.905182 469.819662 
L 251.584091 469.819662 
L 259.263 469.819662 
L 266.941909 469.819662 
L 274.620818 469.819662 
L 282.299727 469.819662 
L 289.978636 469.819662 
L 297.657545 469.819662 
L 305.336455 469.819662 
L 313.015364 469.819662 
L 320.694273 469.819662 
L 328.373182 469.819662 
L 336.052091 469.819662 
L 343.731 469.819662 
L 351.409909 469.819662 
L 359.088818 469.819662 
L 366.767727 469.819662 
L 374.446636 469.819662 
L 382.125545 469.819662 
L 389.804455 469.819662 
L 397.483364 469.819662 
L 405.162273 469.819662 
L 412.841182 469.819662 
L 420.520091 469.819662 
L 428.199 469.819662 
L 435.877909 469.819662 
L 443.556818 469.819662 
L 451.235727 469.819662 
L 458.914636 469.819662 
L 466.593545 469.819662 
L 474.272455 469.819662 
L 481.951364 469.819662 
L 489.630273 469.819662 
L 497.309182 469.819662 
L 504.988091 469.819662 
L 512.667 469.819662 
L 520.345909 469.819662 
L 528.024818 469.819662 
L 535.703727 469.819662 
L 543.382636 469.819662 
L 551.061545 469.819662 
L 558.740455 469.819662 
L 566.419364 469.819662 
L 574.098273 469.819662 
L 581.777182 469.819662 
L 589.456091 469.819662 
L 597.135 469.819662 
L 604.813909 469.819662 
L 612.492818 469.819662 
L 620.171727 469.819662 
L 627.850636 469.819662 
L 635.529545 469.819662 
L 643.208455 469.819662 
L 650.887364 469.819662 
L 658.566273 469.819662 
L 666.245182 469.819662 
L 673.924091 469.819662 
" style="fill:none;stroke:#6495ed;stroke-dasharray:2,3.3;stroke-dashoffset:0;stroke-width:2;"/>
   </g>
   <g id="line2d_31">
    <path clip-path="url(#p3438ca8a3b)" d="M 98.005909 462.397006 
L 105.684818 462.397006 
L 113.363727 462.397006 
L 121.042636 462.397006 
L 128.721545 462.397006 
L 136.400455 462.397006 
L 144.079364 462.397006 
L 151.758273 462.397006 
L 159.437182 462.397006 
L 167.116091 462.397006 
L 174.795 462.397006 
L 182.473909 462.397006 
L 190.152818 462.397006 
L 197.831727 462.397006 
L 205.510636 462.397006 
L 213.189545 462.397006 
L 220.868455 462.397006 
L 228.547364 462.397006 
L 236.226273 462.397006 
L 243.905182 462.397006 
L 251.584091 462.397006 
L 259.263 462.397006 
L 266.941909 462.397006 
L 274.620818 462.397006 
L 282.299727 462.397006 
L 289.978636 462.397006 
L 297.657545 462.397006 
L 305.336455 462.397006 
L 313.015364 462.397006 
L 320.694273 462.397006 
L 328.373182 462.397006 
L 336.052091 462.397006 
L 343.731 462.397006 
L 351.409909 462.397006 
L 359.088818 462.397006 
L 366.767727 462.397006 
L 374.446636 462.397006 
L 382.125545 462.397006 
L 389.804455 462.397006 
L 397.483364 462.397006 
L 405.162273 462.397006 
L 412.841182 462.397006 
L 420.520091 462.397006 
L 428.199 462.397006 
L 435.877909 462.397006 
L 443.556818 462.397006 
L 451.235727 462.397006 
L 458.914636 462.397006 
L 466.593545 462.397006 
L 474.272455 462.397006 
L 481.951364 462.397006 
L 489.630273 462.397006 
L 497.309182 462.397006 
L 504.988091 462.397006 
L 512.667 462.397006 
L 520.345909 462.397006 
L 528.024818 462.397006 
L 535.703727 462.397006 
L 543.382636 462.397006 
L 551.061545 462.397006 
L 558.740455 462.397006 
L 566.419364 462.397006 
L 574.098273 462.397006 
L 581.777182 462.397006 
L 589.456091 462.397006 
L 597.135 462.397006 
L 604.813909 462.397006 
L 612.492818 462.397006 
L 620.171727 462.397006 
L 627.850636 462.397006 
L 635.529545 462.397006 
L 643.208455 462.397006 
L 650.887364 462.397006 
L 658.566273 462.397006 
L 666.245182 462.397006 
L 673.924091 462.397006 
" style="fill:none;stroke:#6495ed;stroke-dasharray:2,3.3;stroke-dashoffset:0;stroke-width:2;"/>
   </g>
   <g id="line2d_32">
    <path clip-path="url(#p3438ca8a3b)" d="M 98.005909 467.329481 
L 105.684818 467.329481 
L 113.363727 467.329481 
L 121.042636 467.329481 
L 128.721545 467.329481 
L 136.400455 467.329481 
L 144.079364 467.329481 
L 151.758273 467.329481 
L 159.437182 467.329481 
L 167.116091 467.329481 
L 174.795 467.329481 
L 182.473909 467.329481 
L 190.152818 467.329481 
L 197.831727 467.329481 
L 205.510636 467.329481 
L 213.189545 467.329481 
L 220.868455 467.329481 
L 228.547364 467.329481 
L 236.226273 467.329481 
L 243.905182 467.329481 
L 251.584091 467.329481 
L 259.263 467.329481 
L 266.941909 467.329481 
L 274.620818 467.329481 
L 282.299727 467.329481 
L 289.978636 467.329481 
L 297.657545 467.329481 
L 305.336455 467.329481 
L 313.015364 467.329481 
L 320.694273 467.329481 
L 328.373182 467.329481 
L 336.052091 467.329481 
L 343.731 467.329481 
L 351.409909 467.329481 
L 359.088818 467.329481 
L 366.767727 467.329481 
L 374.446636 467.329481 
L 382.125545 467.329481 
L 389.804455 467.329481 
L 397.483364 467.329481 
L 405.162273 467.329481 
L 412.841182 467.329481 
L 420.520091 467.329481 
L 428.199 467.329481 
L 435.877909 467.329481 
L 443.556818 467.329481 
L 451.235727 467.329481 
L 458.914636 467.329481 
L 466.593545 467.329481 
L 474.272455 467.329481 
L 481.951364 467.329481 
L 489.630273 467.329481 
L 497.309182 467.329481 
L 504.988091 467.329481 
L 512.667 467.329481 
L 520.345909 467.329481 
L 528.024818 467.329481 
L 535.703727 467.329481 
L 543.382636 467.329481 
L 551.061545 467.329481 
L 558.740455 467.329481 
L 566.419364 467.329481 
L 574.098273 467.329481 
L 581.777182 467.329481 
L 589.456091 467.329481 
L 597.135 467.329481 
L 604.813909 467.329481 
L 612.492818 467.329481 
L 620.171727 467.329481 
L 627.850636 467.329481 
L 635.529545 467.329481 
L 643.208455 467.329481 
L 650.887364 467.329481 
L 658.566273 467.329481 
L 666.245182 467.329481 
L 673.924091 467.329481 
" style="fill:none;stroke:#6495ed;stroke-dasharray:2,3.3;stroke-dashoffset:0;stroke-width:2;"/>
   </g>
   <g id="line2d_33">
    <path clip-path="url(#p3438ca8a3b)" d="M 98.005909 468.383019 
L 105.684818 468.383019 
L 113.363727 468.383019 
L 121.042636 468.383019 
L 128.721545 468.383019 
L 136.400455 468.383019 
L 144.079364 468.383019 
L 151.758273 468.383019 
L 159.437182 468.383019 
L 167.116091 468.383019 
L 174.795 468.383019 
L 182.473909 468.383019 
L 190.152818 468.383019 
L 197.831727 468.383019 
L 205.510636 468.383019 
L 213.189545 468.383019 
L 220.868455 468.383019 
L 228.547364 468.383019 
L 236.226273 468.383019 
L 243.905182 468.383019 
L 251.584091 468.383019 
L 259.263 468.383019 
L 266.941909 468.383019 
L 274.620818 468.383019 
L 282.299727 468.383019 
L 289.978636 468.383019 
L 297.657545 468.383019 
L 305.336455 468.383019 
L 313.015364 468.383019 
L 320.694273 468.383019 
L 328.373182 468.383019 
L 336.052091 468.383019 
L 343.731 468.383019 
L 351.409909 468.383019 
L 359.088818 468.383019 
L 366.767727 468.383019 
L 374.446636 468.383019 
L 382.125545 468.383019 
L 389.804455 468.383019 
L 397.483364 468.383019 
L 405.162273 468.383019 
L 412.841182 468.383019 
L 420.520091 468.383019 
L 428.199 468.383019 
L 435.877909 468.383019 
L 443.556818 468.383019 
L 451.235727 468.383019 
L 458.914636 468.383019 
L 466.593545 468.383019 
L 474.272455 468.383019 
L 481.951364 468.383019 
L 489.630273 468.383019 
L 497.309182 468.383019 
L 504.988091 468.383019 
L 512.667 468.383019 
L 520.345909 468.383019 
L 528.024818 468.383019 
L 535.703727 468.383019 
L 543.382636 468.383019 
L 551.061545 468.383019 
L 558.740455 468.383019 
L 566.419364 468.383019 
L 574.098273 468.383019 
L 581.777182 468.383019 
L 589.456091 468.383019 
L 597.135 468.383019 
L 604.813909 468.383019 
L 612.492818 468.383019 
L 620.171727 468.383019 
L 627.850636 468.383019 
L 635.529545 468.383019 
L 643.208455 468.383019 
L 650.887364 468.383019 
L 658.566273 468.383019 
L 666.245182 468.383019 
L 673.924091 468.383019 
" style="fill:none;stroke:#6495ed;stroke-dasharray:2,3.3;stroke-dashoffset:0;stroke-width:2;"/>
   </g>
   <g id="line2d_34">
    <path clip-path="url(#p3438ca8a3b)" d="M 98.005909 469.723886 
L 105.684818 469.723886 
L 113.363727 469.723886 
L 121.042636 469.723886 
L 128.721545 469.723886 
L 136.400455 469.723886 
L 144.079364 469.723886 
L 151.758273 469.723886 
L 159.437182 469.723886 
L 167.116091 469.723886 
L 174.795 469.723886 
L 182.473909 469.723886 
L 190.152818 469.723886 
L 197.831727 469.723886 
L 205.510636 469.723886 
L 213.189545 469.723886 
L 220.868455 469.723886 
L 228.547364 469.723886 
L 236.226273 469.723886 
L 243.905182 469.723886 
L 251.584091 469.723886 
L 259.263 469.723886 
L 266.941909 469.723886 
L 274.620818 469.723886 
L 282.299727 469.723886 
L 289.978636 469.723886 
L 297.657545 469.723886 
L 305.336455 469.723886 
L 313.015364 469.723886 
L 320.694273 469.723886 
L 328.373182 469.723886 
L 336.052091 469.723886 
L 343.731 469.723886 
L 351.409909 469.723886 
L 359.088818 469.723886 
L 366.767727 469.723886 
L 374.446636 469.723886 
L 382.125545 469.723886 
L 389.804455 469.723886 
L 397.483364 469.723886 
L 405.162273 469.723886 
L 412.841182 469.723886 
L 420.520091 469.723886 
L 428.199 469.723886 
L 435.877909 469.723886 
L 443.556818 469.723886 
L 451.235727 469.723886 
L 458.914636 469.723886 
L 466.593545 469.723886 
L 474.272455 469.723886 
L 481.951364 469.723886 
L 489.630273 469.723886 
L 497.309182 469.723886 
L 504.988091 469.723886 
L 512.667 469.723886 
L 520.345909 469.723886 
L 528.024818 469.723886 
L 535.703727 469.723886 
L 543.382636 469.723886 
L 551.061545 469.723886 
L 558.740455 469.723886 
L 566.419364 469.723886 
L 574.098273 469.723886 
L 581.777182 469.723886 
L 589.456091 469.723886 
L 597.135 469.723886 
L 604.813909 469.723886 
L 612.492818 469.723886 
L 620.171727 469.723886 
L 627.850636 469.723886 
L 635.529545 469.723886 
L 643.208455 469.723886 
L 650.887364 469.723886 
L 658.566273 469.723886 
L 666.245182 469.723886 
L 673.924091 469.723886 
" style="fill:none;stroke:#6495ed;stroke-dasharray:2,3.3;stroke-dashoffset:0;stroke-width:2;"/>
   </g>
   <g id="line2d_35">
    <path clip-path="url(#p3438ca8a3b)" d="M 98.005909 474.033815 
L 105.684818 474.033815 
L 113.363727 474.033815 
L 121.042636 474.033815 
L 128.721545 474.033815 
L 136.400455 474.033815 
L 144.079364 474.033815 
L 151.758273 474.033815 
L 159.437182 474.033815 
L 167.116091 474.033815 
L 174.795 474.033815 
L 182.473909 474.033815 
L 190.152818 474.033815 
L 197.831727 474.033815 
L 205.510636 474.033815 
L 213.189545 474.033815 
L 220.868455 474.033815 
L 228.547364 474.033815 
L 236.226273 474.033815 
L 243.905182 474.033815 
L 251.584091 474.033815 
L 259.263 474.033815 
L 266.941909 474.033815 
L 274.620818 474.033815 
L 282.299727 474.033815 
L 289.978636 474.033815 
L 297.657545 474.033815 
L 305.336455 474.033815 
L 313.015364 474.033815 
L 320.694273 474.033815 
L 328.373182 474.033815 
L 336.052091 474.033815 
L 343.731 474.033815 
L 351.409909 474.033815 
L 359.088818 474.033815 
L 366.767727 474.033815 
L 374.446636 474.033815 
L 382.125545 474.033815 
L 389.804455 474.033815 
L 397.483364 474.033815 
L 405.162273 474.033815 
L 412.841182 474.033815 
L 420.520091 474.033815 
L 428.199 474.033815 
L 435.877909 474.033815 
L 443.556818 474.033815 
L 451.235727 474.033815 
L 458.914636 474.033815 
L 466.593545 474.033815 
L 474.272455 474.033815 
L 481.951364 474.033815 
L 489.630273 474.033815 
L 497.309182 474.033815 
L 504.988091 474.033815 
L 512.667 474.033815 
L 520.345909 474.033815 
L 528.024818 474.033815 
L 535.703727 474.033815 
L 543.382636 474.033815 
L 551.061545 474.033815 
L 558.740455 474.033815 
L 566.419364 474.033815 
L 574.098273 474.033815 
L 581.777182 474.033815 
L 589.456091 474.033815 
L 597.135 474.033815 
L 604.813909 474.033815 
L 612.492818 474.033815 
L 620.171727 474.033815 
L 627.850636 474.033815 
L 635.529545 474.033815 
L 643.208455 474.033815 
L 650.887364 474.033815 
L 658.566273 474.033815 
L 666.245182 474.033815 
L 673.924091 474.033815 
" style="fill:none;stroke:#6495ed;stroke-dasharray:2,3.3;stroke-dashoffset:0;stroke-width:2;"/>
   </g>
   <g id="line2d_36">
    <path clip-path="url(#p3438ca8a3b)" d="M 98.005909 470.8732 
L 105.684818 470.8732 
L 113.363727 470.8732 
L 121.042636 470.8732 
L 128.721545 470.8732 
L 136.400455 470.8732 
L 144.079364 470.8732 
L 151.758273 470.8732 
L 159.437182 470.8732 
L 167.116091 470.8732 
L 174.795 470.8732 
L 182.473909 470.8732 
L 190.152818 470.8732 
L 197.831727 470.8732 
L 205.510636 470.8732 
L 213.189545 470.8732 
L 220.868455 470.8732 
L 228.547364 470.8732 
L 236.226273 470.8732 
L 243.905182 470.8732 
L 251.584091 470.8732 
L 259.263 470.8732 
L 266.941909 470.8732 
L 274.620818 470.8732 
L 282.299727 470.8732 
L 289.978636 470.8732 
L 297.657545 470.8732 
L 305.336455 470.8732 
L 313.015364 470.8732 
L 320.694273 470.8732 
L 328.373182 470.8732 
L 336.052091 470.8732 
L 343.731 470.8732 
L 351.409909 470.8732 
L 359.088818 470.8732 
L 366.767727 470.8732 
L 374.446636 470.8732 
L 382.125545 470.8732 
L 389.804455 470.8732 
L 397.483364 470.8732 
L 405.162273 470.8732 
L 412.841182 470.8732 
L 420.520091 470.8732 
L 428.199 470.8732 
L 435.877909 470.8732 
L 443.556818 470.8732 
L 451.235727 470.8732 
L 458.914636 470.8732 
L 466.593545 470.8732 
L 474.272455 470.8732 
L 481.951364 470.8732 
L 489.630273 470.8732 
L 497.309182 470.8732 
L 504.988091 470.8732 
L 512.667 470.8732 
L 520.345909 470.8732 
L 528.024818 470.8732 
L 535.703727 470.8732 
L 543.382636 470.8732 
L 551.061545 470.8732 
L 558.740455 470.8732 
L 566.419364 470.8732 
L 574.098273 470.8732 
L 581.777182 470.8732 
L 589.456091 470.8732 
L 597.135 470.8732 
L 604.813909 470.8732 
L 612.492818 470.8732 
L 620.171727 470.8732 
L 627.850636 470.8732 
L 635.529545 470.8732 
L 643.208455 470.8732 
L 650.887364 470.8732 
L 658.566273 470.8732 
L 666.245182 470.8732 
L 673.924091 470.8732 
" style="fill:none;stroke:#6495ed;stroke-dasharray:2,3.3;stroke-dashoffset:0;stroke-width:2;"/>
   </g>
   <g id="line2d_37">
    <path clip-path="url(#p3438ca8a3b)" d="M 98.005909 467.521033 
L 105.684818 467.521033 
L 113.363727 467.521033 
L 121.042636 467.521033 
L 128.721545 467.521033 
L 136.400455 467.521033 
L 144.079364 467.521033 
L 151.758273 467.521033 
L 159.437182 467.521033 
L 167.116091 467.521033 
L 174.795 467.521033 
L 182.473909 467.521033 
L 190.152818 467.521033 
L 197.831727 467.521033 
L 205.510636 467.521033 
L 213.189545 467.521033 
L 220.868455 467.521033 
L 228.547364 467.521033 
L 236.226273 467.521033 
L 243.905182 467.521033 
L 251.584091 467.521033 
L 259.263 467.521033 
L 266.941909 467.521033 
L 274.620818 467.521033 
L 282.299727 467.521033 
L 289.978636 467.521033 
L 297.657545 467.521033 
L 305.336455 467.521033 
L 313.015364 467.521033 
L 320.694273 467.521033 
L 328.373182 467.521033 
L 336.052091 467.521033 
L 343.731 467.521033 
L 351.409909 467.521033 
L 359.088818 467.521033 
L 366.767727 467.521033 
L 374.446636 467.521033 
L 382.125545 467.521033 
L 389.804455 467.521033 
L 397.483364 467.521033 
L 405.162273 467.521033 
L 412.841182 467.521033 
L 420.520091 467.521033 
L 428.199 467.521033 
L 435.877909 467.521033 
L 443.556818 467.521033 
L 451.235727 467.521033 
L 458.914636 467.521033 
L 466.593545 467.521033 
L 474.272455 467.521033 
L 481.951364 467.521033 
L 489.630273 467.521033 
L 497.309182 467.521033 
L 504.988091 467.521033 
L 512.667 467.521033 
L 520.345909 467.521033 
L 528.024818 467.521033 
L 535.703727 467.521033 
L 543.382636 467.521033 
L 551.061545 467.521033 
L 558.740455 467.521033 
L 566.419364 467.521033 
L 574.098273 467.521033 
L 581.777182 467.521033 
L 589.456091 467.521033 
L 597.135 467.521033 
L 604.813909 467.521033 
L 612.492818 467.521033 
L 620.171727 467.521033 
L 627.850636 467.521033 
L 635.529545 467.521033 
L 643.208455 467.521033 
L 650.887364 467.521033 
L 658.566273 467.521033 
L 666.245182 467.521033 
L 673.924091 467.521033 
" style="fill:none;stroke:#6495ed;stroke-dasharray:2,3.3;stroke-dashoffset:0;stroke-width:2;"/>
   </g>
   <g id="line2d_38">
    <path clip-path="url(#p3438ca8a3b)" d="M 98.005909 470.106991 
L 105.684818 470.106991 
L 113.363727 470.106991 
L 121.042636 470.106991 
L 128.721545 470.106991 
L 136.400455 470.106991 
L 144.079364 470.106991 
L 151.758273 470.106991 
L 159.437182 470.106991 
L 167.116091 470.106991 
L 174.795 470.106991 
L 182.473909 470.106991 
L 190.152818 470.106991 
L 197.831727 470.106991 
L 205.510636 470.106991 
L 213.189545 470.106991 
L 220.868455 470.106991 
L 228.547364 470.106991 
L 236.226273 470.106991 
L 243.905182 470.106991 
L 251.584091 470.106991 
L 259.263 470.106991 
L 266.941909 470.106991 
L 274.620818 470.106991 
L 282.299727 470.106991 
L 289.978636 470.106991 
L 297.657545 470.106991 
L 305.336455 470.106991 
L 313.015364 470.106991 
L 320.694273 470.106991 
L 328.373182 470.106991 
L 336.052091 470.106991 
L 343.731 470.106991 
L 351.409909 470.106991 
L 359.088818 470.106991 
L 366.767727 470.106991 
L 374.446636 470.106991 
L 382.125545 470.106991 
L 389.804455 470.106991 
L 397.483364 470.106991 
L 405.162273 470.106991 
L 412.841182 470.106991 
L 420.520091 470.106991 
L 428.199 470.106991 
L 435.877909 470.106991 
L 443.556818 470.106991 
L 451.235727 470.106991 
L 458.914636 470.106991 
L 466.593545 470.106991 
L 474.272455 470.106991 
L 481.951364 470.106991 
L 489.630273 470.106991 
L 497.309182 470.106991 
L 504.988091 470.106991 
L 512.667 470.106991 
L 520.345909 470.106991 
L 528.024818 470.106991 
L 535.703727 470.106991 
L 543.382636 470.106991 
L 551.061545 470.106991 
L 558.740455 470.106991 
L 566.419364 470.106991 
L 574.098273 470.106991 
L 581.777182 470.106991 
L 589.456091 470.106991 
L 597.135 470.106991 
L 604.813909 470.106991 
L 612.492818 470.106991 
L 620.171727 470.106991 
L 627.850636 470.106991 
L 635.529545 470.106991 
L 643.208455 470.106991 
L 650.887364 470.106991 
L 658.566273 470.106991 
L 666.245182 470.106991 
L 673.924091 470.106991 
" style="fill:none;stroke:#6495ed;stroke-dasharray:2,3.3;stroke-dashoffset:0;stroke-width:2;"/>
   </g>
   <g id="line2d_39">
    <path clip-path="url(#p3438ca8a3b)" d="M 98.005909 468.430907 
L 105.684818 468.430907 
L 113.363727 468.430907 
L 121.042636 468.430907 
L 128.721545 468.430907 
L 136.400455 468.430907 
L 144.079364 468.430907 
L 151.758273 468.430907 
L 159.437182 468.430907 
L 167.116091 468.430907 
L 174.795 468.430907 
L 182.473909 468.430907 
L 190.152818 468.430907 
L 197.831727 468.430907 
L 205.510636 468.430907 
L 213.189545 468.430907 
L 220.868455 468.430907 
L 228.547364 468.430907 
L 236.226273 468.430907 
L 243.905182 468.430907 
L 251.584091 468.430907 
L 259.263 468.430907 
L 266.941909 468.430907 
L 274.620818 468.430907 
L 282.299727 468.430907 
L 289.978636 468.430907 
L 297.657545 468.430907 
L 305.336455 468.430907 
L 313.015364 468.430907 
L 320.694273 468.430907 
L 328.373182 468.430907 
L 336.052091 468.430907 
L 343.731 468.430907 
L 351.409909 468.430907 
L 359.088818 468.430907 
L 366.767727 468.430907 
L 374.446636 468.430907 
L 382.125545 468.430907 
L 389.804455 468.430907 
L 397.483364 468.430907 
L 405.162273 468.430907 
L 412.841182 468.430907 
L 420.520091 468.430907 
L 428.199 468.430907 
L 435.877909 468.430907 
L 443.556818 468.430907 
L 451.235727 468.430907 
L 458.914636 468.430907 
L 466.593545 468.430907 
L 474.272455 468.430907 
L 481.951364 468.430907 
L 489.630273 468.430907 
L 497.309182 468.430907 
L 504.988091 468.430907 
L 512.667 468.430907 
L 520.345909 468.430907 
L 528.024818 468.430907 
L 535.703727 468.430907 
L 543.382636 468.430907 
L 551.061545 468.430907 
L 558.740455 468.430907 
L 566.419364 468.430907 
L 574.098273 468.430907 
L 581.777182 468.430907 
L 589.456091 468.430907 
L 597.135 468.430907 
L 604.813909 468.430907 
L 612.492818 468.430907 
L 620.171727 468.430907 
L 627.850636 468.430907 
L 635.529545 468.430907 
L 643.208455 468.430907 
L 650.887364 468.430907 
L 658.566273 468.430907 
L 666.245182 468.430907 
L 673.924091 468.430907 
" style="fill:none;stroke:#6495ed;stroke-dasharray:2,3.3;stroke-dashoffset:0;stroke-width:2;"/>
   </g>
   <g id="line2d_40">
    <path clip-path="url(#p3438ca8a3b)" d="M 98.005909 435.292342 
L 105.684818 346.718512 
L 113.363727 238.055624 
L 121.042636 253.7294 
L 128.721545 223.114537 
L 136.400455 208.288381 
L 144.079364 160.266195 
L 151.758273 144.491855 
L 159.437182 143.558037 
L 167.116091 131.523757 
L 174.795 140.996023 
L 182.473909 122.583049 
L 190.152818 107.234913 
L 197.831727 88.730951 
L 205.510636 83.104099 
L 213.189545 80.800682 
L 220.868455 75.796375 
L 228.547364 76.682305 
L 236.226273 71.965327 
L 243.905182 69.877406 
L 251.584091 70.179101 
L 259.263 67.832584 
L 266.941909 79.536436 
L 274.620818 70.614883 
L 282.299727 63.015041 
L 289.978636 62.842644 
L 297.657545 74.704527 
L 305.336455 62.976731 
L 313.015364 63.532233 
L 320.694273 67.875683 
L 328.373182 59.993302 
L 336.052091 59.351602 
L 343.731 56.94283 
L 351.409909 58.43215 
L 359.088818 56.253242 
L 366.767727 56.305919 
L 374.446636 56.607614 
L 382.125545 56.329863 
L 389.804455 56.382539 
L 397.483364 54.256308 
L 405.162273 54.289829 
L 412.841182 54.079122 
L 420.520091 52.819665 
L 428.199 52.666423 
L 435.877909 52.613746 
L 443.556818 52.35515 
L 451.235727 52.096555 
L 458.914636 51.63204 
L 466.593545 51.153159 
L 474.272455 51.397388 
L 481.951364 50.774843 
L 489.630273 51.062172 
L 497.309182 50.884986 
L 504.988091 50.214552 
L 512.667 50.257651 
L 520.345909 50.200186 
L 528.024818 49.917646 
L 535.703727 49.726094 
L 543.382636 49.529752 
L 551.061545 49.568063 
L 558.740455 49.352566 
L 566.419364 49.333411 
L 574.098273 48.945518 
L 581.777182 49.079604 
L 589.456091 48.864108 
L 597.135 48.945518 
L 604.813909 49.031716 
L 612.492818 48.691711 
L 620.171727 48.758754 
L 627.850636 48.423537 
L 635.529545 48.682133 
L 643.208455 48.591146 
L 650.887364 48.246351 
L 658.566273 48.337339 
L 666.245182 48.595934 
L 673.924091 48.227196 
" style="fill:none;stroke:#ff8c00;stroke-linecap:square;stroke-width:2;"/>
   </g>
   <g id="line2d_41">
    <path clip-path="url(#p3438ca8a3b)" d="M 98.005909 435.292342 
L 105.684818 393.222646 
L 113.363727 364.552041 
L 121.042636 331.212345 
L 128.721545 221.342678 
L 136.400455 142.806194 
L 144.079364 116.635347 
L 151.758273 104.495714 
L 159.437182 96.426569 
L 167.116091 91.858044 
L 174.795 89.032646 
L 182.473909 86.135416 
L 190.152818 84.095383 
L 197.831727 82.955646 
L 205.510636 82.596485 
L 213.189545 82.141548 
L 220.868455 80.838992 
L 228.547364 82.088872 
L 236.226273 92.973837 
L 243.905182 100.827485 
L 251.584091 81.351395 
L 259.263 79.043188 
L 266.941909 76.979211 
L 274.620818 83.640446 
L 282.299727 76.921746 
L 289.978636 90.148439 
L 297.657545 132.23729 
L 305.336455 77.10372 
L 313.015364 74.311844 
L 320.694273 79.206008 
L 328.373182 81.121532 
L 336.052091 138.252035 
L 343.731 72.726748 
L 351.409909 73.406759 
L 359.088818 75.748487 
L 366.767727 77.022311 
L 374.446636 75.125942 
L 382.125545 101.507496 
L 389.804455 75.29355 
L 397.483364 73.617467 
L 405.162273 74.589595 
L 412.841182 77.917818 
L 420.520091 77.079776 
L 428.199 71.400248 
L 435.877909 69.834307 
L 443.556818 69.144718 
L 451.235727 69.010631 
L 458.914636 69.652332 
L 466.593545 68.507806 
L 474.272455 68.924433 
L 481.951364 73.737187 
L 489.630273 68.85739 
L 497.309182 72.793791 
L 504.988091 71.740253 
L 512.667 71.898284 
L 520.345909 205.530027 
L 528.024818 69.336271 
L 535.703727 67.660187 
L 543.382636 66.989754 
L 551.061545 67.573988 
L 558.740455 68.550906 
L 566.419364 69.858251 
L 574.098273 65.567477 
L 581.777182 66.908344 
L 589.456091 75.01101 
L 597.135 66.261854 
L 604.813909 71.850396 
L 612.492818 66.003259 
L 620.171727 68.440763 
L 627.850636 66.051147 
L 635.529545 70.595728 
L 643.208455 65.122118 
L 650.887364 67.483001 
L 658.566273 64.71028 
L 666.245182 66.76468 
L 673.924091 64.466051 
" style="fill:none;stroke:#32cd32;stroke-linecap:square;stroke-width:2;"/>
   </g>
   <g id="line2d_42">
    <path clip-path="url(#p3438ca8a3b)" d="M 98.005909 435.292342 
L 105.684818 417.856285 
L 113.363727 399.979657 
L 121.042636 411.788862 
L 128.721545 415.509768 
L 136.400455 405.740595 
L 144.079364 387.140857 
L 151.758273 366.103615 
L 159.437182 352.354942 
L 167.116091 341.833926 
L 174.795 327.189745 
L 182.473909 308.408032 
L 190.152818 286.504015 
L 197.831727 265.892977 
L 205.510636 244.15178 
L 213.189545 224.129765 
L 220.868455 209.705869 
L 228.547364 196.469598 
L 236.226273 188.036504 
L 243.905182 176.524205 
L 251.584091 166.659256 
L 259.263 161.85608 
L 266.941909 155.338509 
L 274.620818 149.204044 
L 282.299727 148.873616 
L 289.978636 140.761372 
L 297.657545 136.475387 
L 305.336455 136.801026 
L 313.015364 132.47673 
L 320.694273 133.903796 
L 328.373182 131.303472 
L 336.052091 127.232983 
L 343.731 131.380093 
L 351.409909 121.831206 
L 359.088818 125.67662 
L 366.767727 123.698842 
L 374.446636 118.689746 
L 382.125545 116.434217 
L 389.804455 121.97487 
L 397.483364 115.193915 
L 405.162273 121.026686 
L 412.841182 115.500399 
L 420.520091 109.035505 
L 428.199 115.371101 
L 435.877909 110.678067 
L 443.556818 114.600103 
L 451.235727 111.880059 
L 458.914636 110.654123 
L 466.593545 108.843953 
L 474.272455 109.365933 
L 481.951364 108.068166 
L 489.630273 105.424743 
L 497.309182 107.249279 
L 504.988091 104.936284 
L 512.667 105.922779 
L 520.345909 107.632384 
L 528.024818 106.478281 
L 535.703727 110.338062 
L 543.382636 103.111747 
L 551.061545 102.924984 
L 558.740455 102.503569 
L 566.419364 105.156569 
L 574.098273 103.456542 
L 581.777182 101.162702 
L 589.456091 96.771363 
L 597.135 105.563618 
L 604.813909 98.495335 
L 612.492818 102.33596 
L 620.171727 103.490063 
L 627.850636 94.951615 
L 635.529545 102.968083 
L 643.208455 94.846261 
L 650.887364 101.483552 
L 658.566273 103.035126 
L 666.245182 96.551078 
L 673.924091 102.05342 
" style="fill:none;stroke:#800080;stroke-linecap:square;stroke-width:2;"/>
   </g>
   <g id="patch_3">
    <path d="M 69.21 516.75 
L 69.21 37.869 
" style="fill:none;stroke:#000000;stroke-linecap:square;stroke-linejoin:miter;stroke-width:0.8;"/>
   </g>
   <g id="patch_4">
    <path d="M 702.72 516.75 
L 702.72 37.869 
" style="fill:none;stroke:#000000;stroke-linecap:square;stroke-linejoin:miter;stroke-width:0.8;"/>
   </g>
   <g id="patch_5">
    <path d="M 69.21 516.75 
L 702.72 516.75 
" style="fill:none;stroke:#000000;stroke-linecap:square;stroke-linejoin:miter;stroke-width:0.8;"/>
   </g>
   <g id="patch_6">
    <path d="M 69.21 37.869 
L 702.72 37.869 
" style="fill:none;stroke:#000000;stroke-linecap:square;stroke-linejoin:miter;stroke-width:0.8;"/>
   </g>
   <g id="PolyCollection_3">
    <defs>
     <path d="M 98.005909 -140.707658 
L 98.005909 -140.707658 
L 105.684818 -335.660113 
L 113.363727 -427.748929 
L 121.042636 -408.83313 
L 128.721545 -429.089796 
L 136.400455 -444.222436 
L 144.079364 -465.197424 
L 151.758273 -478.510315 
L 159.437182 -482.628692 
L 167.116091 -479.132861 
L 174.795 -490.051348 
L 182.473909 -496.707793 
L 190.152818 -497.521891 
L 197.831727 -500.82617 
L 205.510636 -502.119149 
L 213.189545 -503.891008 
L 220.868455 -506.285413 
L 228.547364 -509.015035 
L 236.226273 -508.440378 
L 243.905182 -510.355902 
L 251.584091 -511.457328 
L 259.263 -511.553104 
L 266.941909 -507.722056 
L 274.620818 -510.020685 
L 282.299727 -515.479929 
L 289.978636 -515.479929 
L 297.657545 -515.096824 
L 305.336455 -517.634893 
L 313.015364 -517.539117 
L 320.694273 -517.299677 
L 328.373182 -518.257439 
L 336.052091 -519.598305 
L 343.731 -520.220851 
L 351.409909 -521.034948 
L 359.088818 -521.418053 
L 366.767727 -521.370165 
L 374.446636 -521.082836 
L 382.125545 -521.561717 
L 389.804455 -521.561717 
L 397.483364 -522.854696 
L 405.162273 -523.477241 
L 412.841182 -523.716682 
L 420.520091 -523.716682 
L 428.199 -524.339227 
L 435.877909 -524.099787 
L 443.556818 -524.482892 
L 451.235727 -524.482892 
L 458.914636 -525.344877 
L 466.593545 -525.296989 
L 474.272455 -525.488542 
L 481.951364 -526.015311 
L 489.630273 -525.632206 
L 497.309182 -526.158975 
L 504.988091 -526.494192 
L 512.667 -526.446304 
L 520.345909 -526.158975 
L 528.024818 -526.398416 
L 535.703727 -526.829408 
L 543.382636 -526.685744 
L 551.061545 -526.877297 
L 558.740455 -527.020961 
L 566.419364 -527.260401 
L 574.098273 -527.691394 
L 581.777182 -527.308289 
L 589.456091 -527.451954 
L 597.135 -527.691394 
L 604.813909 -527.499842 
L 612.492818 -527.691394 
L 620.171727 -527.595618 
L 627.850636 -528.026611 
L 635.529545 -527.643506 
L 643.208455 -527.930835 
L 650.887364 -528.170275 
L 658.566273 -528.122387 
L 666.245182 -527.78717 
L 673.924091 -528.026611 
L 673.924091 -527.451954 
L 673.924091 -527.451954 
L 666.245182 -526.54208 
L 658.566273 -527.212513 
L 650.887364 -527.356178 
L 643.208455 -526.637856 
L 635.529545 -526.829408 
L 627.850636 -527.212513 
L 620.171727 -526.829408 
L 612.492818 -526.925185 
L 604.813909 -526.54208 
L 597.135 -526.685744 
L 589.456091 -526.589968 
L 581.777182 -526.637856 
L 574.098273 -526.637856 
L 566.419364 -525.871646 
L 558.740455 -526.015311 
L 551.061545 -525.680094 
L 543.382636 -526.158975 
L 535.703727 -525.680094 
L 528.024818 -525.727982 
L 520.345909 -525.057549 
L 512.667 -524.77022 
L 504.988091 -524.961773 
L 497.309182 -523.908234 
L 489.630273 -523.573018 
L 481.951364 -524.243451 
L 474.272455 -522.854696 
L 466.593545 -524.482892 
L 458.914636 -523.668794 
L 451.235727 -522.136375 
L 443.556818 -521.082836 
L 435.877909 -522.423703 
L 428.199 -521.99271 
L 420.520091 -521.944822 
L 412.841182 -517.922222 
L 405.162273 -515.527817 
L 397.483364 -519.933522 
L 389.804455 -514.282726 
L 382.125545 -517.395453 
L 374.446636 -516.772907 
L 366.767727 -514.809495 
L 359.088818 -517.778558 
L 351.409909 -509.781245 
L 343.731 -517.682781 
L 336.052091 -513.229188 
L 328.373182 -510.547454 
L 320.694273 -489.045697 
L 313.015364 -504.561442 
L 305.336455 -505.710756 
L 297.657545 -456.577566 
L 289.978636 -511.026335 
L 282.299727 -508.823483 
L 274.620818 -494.648605 
L 266.941909 -461.605816 
L 259.263 -500.443065 
L 251.584091 -500.107849 
L 243.905182 -502.693806 
L 236.226273 -489.811907 
L 228.547364 -474.822932 
L 220.868455 -489.572467 
L 213.189545 -480.856832 
L 205.510636 -482.963909 
L 197.831727 -474.008834 
L 190.152818 -381.441137 
L 182.473909 -381.87213 
L 174.795 -388.097583 
L 167.116091 -405.959844 
L 159.437182 -353.618151 
L 151.758273 -366.547938 
L 144.079364 -367.697252 
L 136.400455 -257.410958 
L 128.721545 -235.047215 
L 121.042636 -169.488406 
L 113.363727 -243.858626 
L 105.684818 -119.972111 
L 98.005909 -140.707658 
z
" id="me8a7b24a6d" style="stroke:#ff8c00;stroke-opacity:0.5;"/>
    </defs>
    <g clip-path="url(#p3438ca8a3b)">
     <use style="fill:#ff8c00;fill-opacity:0.5;stroke:#ff8c00;stroke-opacity:0.5;" x="0" xlink:href="#me8a7b24a6d" y="576"/>
    </g>
   </g>
   <g id="text_17">
    <!-- Validation Set Top1 Accuracy -->
    <g transform="translate(247.503 31.869)scale(0.192 -0.192)">
     <defs>
      <path d="M 1831 0 
L 50 4666 
L 709 4666 
L 2188 738 
L 3669 4666 
L 4325 4666 
L 2547 0 
L 1831 0 
z
" id="DejaVuSans-56" transform="scale(0.015625)"/>
      <path d="M 603 4863 
L 1178 4863 
L 1178 0 
L 603 0 
L 603 4863 
z
" id="DejaVuSans-6c" transform="scale(0.015625)"/>
      <path d="M 3425 4513 
L 3425 3897 
Q 3066 4069 2747 4153 
Q 2428 4238 2131 4238 
Q 1616 4238 1336 4038 
Q 1056 3838 1056 3469 
Q 1056 3159 1242 3001 
Q 1428 2844 1947 2747 
L 2328 2669 
Q 3034 2534 3370 2195 
Q 3706 1856 3706 1288 
Q 3706 609 3251 259 
Q 2797 -91 1919 -91 
Q 1588 -91 1214 -16 
Q 841 59 441 206 
L 441 856 
Q 825 641 1194 531 
Q 1563 422 1919 422 
Q 2459 422 2753 634 
Q 3047 847 3047 1241 
Q 3047 1584 2836 1778 
Q 2625 1972 2144 2069 
L 1759 2144 
Q 1053 2284 737 2584 
Q 422 2884 422 3419 
Q 422 4038 858 4394 
Q 1294 4750 2059 4750 
Q 2388 4750 2728 4690 
Q 3069 4631 3425 4513 
z
" id="DejaVuSans-53" transform="scale(0.015625)"/>
      <path d="M 3597 1894 
L 3597 1613 
L 953 1613 
Q 991 1019 1311 708 
Q 1631 397 2203 397 
Q 2534 397 2845 478 
Q 3156 559 3463 722 
L 3463 178 
Q 3153 47 2828 -22 
Q 2503 -91 2169 -91 
Q 1331 -91 842 396 
Q 353 884 353 1716 
Q 353 2575 817 3079 
Q 1281 3584 2069 3584 
Q 2775 3584 3186 3129 
Q 3597 2675 3597 1894 
z
M 3022 2063 
Q 3016 2534 2758 2815 
Q 2500 3097 2075 3097 
Q 1594 3097 1305 2825 
Q 1016 2553 972 2059 
L 3022 2063 
z
" id="DejaVuSans-65" transform="scale(0.015625)"/>
     </defs>
     <use xlink:href="#DejaVuSans-56"/>
     <use x="60.658203" xlink:href="#DejaVuSans-61"/>
     <use x="121.9375" xlink:href="#DejaVuSans-6c"/>
     <use x="149.720703" xlink:href="#DejaVuSans-69"/>
     <use x="177.503906" xlink:href="#DejaVuSans-64"/>
     <use x="240.980469" xlink:href="#DejaVuSans-61"/>
     <use x="302.259766" xlink:href="#DejaVuSans-74"/>
     <use x="341.46875" xlink:href="#DejaVuSans-69"/>
     <use x="369.251953" xlink:href="#DejaVuSans-6f"/>
     <use x="430.433594" xlink:href="#DejaVuSans-6e"/>
     <use x="493.8125" xlink:href="#DejaVuSans-20"/>
     <use x="525.599609" xlink:href="#DejaVuSans-53"/>
     <use x="589.076172" xlink:href="#DejaVuSans-65"/>
     <use x="650.599609" xlink:href="#DejaVuSans-74"/>
     <use x="689.808594" xlink:href="#DejaVuSans-20"/>
     <use x="721.595703" xlink:href="#DejaVuSans-54"/>
     <use x="765.679688" xlink:href="#DejaVuSans-6f"/>
     <use x="826.861328" xlink:href="#DejaVuSans-70"/>
     <use x="890.337891" xlink:href="#DejaVuSans-31"/>
     <use x="953.960938" xlink:href="#DejaVuSans-20"/>
     <use x="985.748047" xlink:href="#DejaVuSans-41"/>
     <use x="1052.40625" xlink:href="#DejaVuSans-63"/>
     <use x="1107.386719" xlink:href="#DejaVuSans-63"/>
     <use x="1162.367188" xlink:href="#DejaVuSans-75"/>
     <use x="1225.746094" xlink:href="#DejaVuSans-72"/>
     <use x="1266.859375" xlink:href="#DejaVuSans-61"/>
     <use x="1328.138672" xlink:href="#DejaVuSans-63"/>
     <use x="1383.119141" xlink:href="#DejaVuSans-79"/>
    </g>
   </g>
   <g id="legend_1">
    <g id="patch_7">
     <path d="M 549.2175 338.422 
L 691.52 338.422 
Q 694.72 338.422 694.72 335.222 
L 694.72 219.397 
Q 694.72 216.197 691.52 216.197 
L 549.2175 216.197 
Q 546.0175 216.197 546.0175 219.397 
L 546.0175 335.222 
Q 546.0175 338.422 549.2175 338.422 
z
" style="fill:#ffffff;opacity:0.8;stroke:#cccccc;stroke-linejoin:miter;"/>
    </g>
    <g id="line2d_43">
     <path d="M 552.4175 229.1545 
L 584.4175 229.1545 
" style="fill:none;stroke:#4b0082;stroke-dasharray:2,3.3;stroke-dashoffset:0;stroke-width:2;"/>
    </g>
    <g id="line2d_44"/>
    <g id="text_18">
     <!-- Centralized -->
     <g transform="translate(597.2175 234.7545)scale(0.16 -0.16)">
      <defs>
       <path d="M 353 3500 
L 3084 3500 
L 3084 2975 
L 922 459 
L 3084 459 
L 3084 0 
L 275 0 
L 275 525 
L 2438 3041 
L 353 3041 
L 353 3500 
z
" id="DejaVuSans-7a" transform="scale(0.015625)"/>
      </defs>
      <use xlink:href="#DejaVuSans-43"/>
      <use x="69.824219" xlink:href="#DejaVuSans-65"/>
      <use x="131.347656" xlink:href="#DejaVuSans-6e"/>
      <use x="194.726562" xlink:href="#DejaVuSans-74"/>
      <use x="233.935547" xlink:href="#DejaVuSans-72"/>
      <use x="275.048828" xlink:href="#DejaVuSans-61"/>
      <use x="336.328125" xlink:href="#DejaVuSans-6c"/>
      <use x="364.111328" xlink:href="#DejaVuSans-69"/>
      <use x="391.894531" xlink:href="#DejaVuSans-7a"/>
      <use x="444.384766" xlink:href="#DejaVuSans-65"/>
      <use x="505.908203" xlink:href="#DejaVuSans-64"/>
     </g>
    </g>
    <g id="line2d_45">
     <path d="M 552.4175 252.6395 
L 584.4175 252.6395 
" style="fill:none;stroke:#6495ed;stroke-dasharray:2,3.3;stroke-dashoffset:0;stroke-width:2;"/>
    </g>
    <g id="line2d_46"/>
    <g id="text_19">
     <!-- Individual -->
     <g transform="translate(597.2175 258.2395)scale(0.16 -0.16)">
      <defs>
       <path d="M 628 4666 
L 1259 4666 
L 1259 0 
L 628 0 
L 628 4666 
z
" id="DejaVuSans-49" transform="scale(0.015625)"/>
       <path d="M 191 3500 
L 800 3500 
L 1894 563 
L 2988 3500 
L 3597 3500 
L 2284 0 
L 1503 0 
L 191 3500 
z
" id="DejaVuSans-76" transform="scale(0.015625)"/>
      </defs>
      <use xlink:href="#DejaVuSans-49"/>
      <use x="29.492188" xlink:href="#DejaVuSans-6e"/>
      <use x="92.871094" xlink:href="#DejaVuSans-64"/>
      <use x="156.347656" xlink:href="#DejaVuSans-69"/>
      <use x="184.130859" xlink:href="#DejaVuSans-76"/>
      <use x="243.310547" xlink:href="#DejaVuSans-69"/>
      <use x="271.09375" xlink:href="#DejaVuSans-64"/>
      <use x="334.570312" xlink:href="#DejaVuSans-75"/>
      <use x="397.949219" xlink:href="#DejaVuSans-61"/>
      <use x="459.228516" xlink:href="#DejaVuSans-6c"/>
     </g>
    </g>
    <g id="line2d_47">
     <path d="M 552.4175 276.1245 
L 584.4175 276.1245 
" style="fill:none;stroke:#ff8c00;stroke-linecap:square;stroke-width:2;"/>
    </g>
    <g id="line2d_48"/>
    <g id="text_20">
     <!-- CADMM -->
     <g transform="translate(597.2175 281.7245)scale(0.16 -0.16)">
      <defs>
       <path d="M 1259 4147 
L 1259 519 
L 2022 519 
Q 2988 519 3436 956 
Q 3884 1394 3884 2338 
Q 3884 3275 3436 3711 
Q 2988 4147 2022 4147 
L 1259 4147 
z
M 628 4666 
L 1925 4666 
Q 3281 4666 3915 4102 
Q 4550 3538 4550 2338 
Q 4550 1131 3912 565 
Q 3275 0 1925 0 
L 628 0 
L 628 4666 
z
" id="DejaVuSans-44" transform="scale(0.015625)"/>
       <path d="M 628 4666 
L 1569 4666 
L 2759 1491 
L 3956 4666 
L 4897 4666 
L 4897 0 
L 4281 0 
L 4281 4097 
L 3078 897 
L 2444 897 
L 1241 4097 
L 1241 0 
L 628 0 
L 628 4666 
z
" id="DejaVuSans-4d" transform="scale(0.015625)"/>
      </defs>
      <use xlink:href="#DejaVuSans-43"/>
      <use x="69.824219" xlink:href="#DejaVuSans-41"/>
      <use x="138.232422" xlink:href="#DejaVuSans-44"/>
      <use x="215.234375" xlink:href="#DejaVuSans-4d"/>
      <use x="301.513672" xlink:href="#DejaVuSans-4d"/>
     </g>
    </g>
    <g id="line2d_49">
     <path d="M 552.4175 299.6095 
L 584.4175 299.6095 
" style="fill:none;stroke:#32cd32;stroke-linecap:square;stroke-width:2;"/>
    </g>
    <g id="line2d_50"/>
    <g id="text_21">
     <!-- DSGT -->
     <g transform="translate(597.2175 305.2095)scale(0.16 -0.16)">
      <defs>
       <path d="M 3809 666 
L 3809 1919 
L 2778 1919 
L 2778 2438 
L 4434 2438 
L 4434 434 
Q 4069 175 3628 42 
Q 3188 -91 2688 -91 
Q 1594 -91 976 548 
Q 359 1188 359 2328 
Q 359 3472 976 4111 
Q 1594 4750 2688 4750 
Q 3144 4750 3555 4637 
Q 3966 4525 4313 4306 
L 4313 3634 
Q 3963 3931 3569 4081 
Q 3175 4231 2741 4231 
Q 1884 4231 1454 3753 
Q 1025 3275 1025 2328 
Q 1025 1384 1454 906 
Q 1884 428 2741 428 
Q 3075 428 3337 486 
Q 3600 544 3809 666 
z
" id="DejaVuSans-47" transform="scale(0.015625)"/>
      </defs>
      <use xlink:href="#DejaVuSans-44"/>
      <use x="77.001953" xlink:href="#DejaVuSans-53"/>
      <use x="140.478516" xlink:href="#DejaVuSans-47"/>
      <use x="214.34375" xlink:href="#DejaVuSans-54"/>
     </g>
    </g>
    <g id="line2d_51">
     <path d="M 552.4175 323.0945 
L 584.4175 323.0945 
" style="fill:none;stroke:#800080;stroke-linecap:square;stroke-width:2;"/>
    </g>
    <g id="line2d_52"/>
    <g id="text_22">
     <!-- DSGD -->
     <g transform="translate(597.2175 328.6945)scale(0.16 -0.16)">
      <use xlink:href="#DejaVuSans-44"/>
      <use x="77.001953" xlink:href="#DejaVuSans-53"/>
      <use x="140.478516" xlink:href="#DejaVuSans-47"/>
      <use x="217.96875" xlink:href="#DejaVuSans-44"/>
     </g>
    </g>
   </g>
  </g>
 </g>
 <defs>
  <clipPath id="p3438ca8a3b">
   <rect height="478.881" width="633.51" x="69.21" y="37.869"/>
  </clipPath>
 </defs>
</svg>
