<?xml version="1.0" encoding="utf-8" standalone="no"?>
<!DOCTYPE svg PUBLIC "-//W3C//DTD SVG 1.1//EN"
  "http://www.w3.org/Graphics/SVG/1.1/DTD/svg11.dtd">
<svg height="576pt" version="1.1" viewBox="0 0 720 576" width="720pt" xmlns="http://www.w3.org/2000/svg" xmlns:xlink="http://www.w3.org/1999/xlink">
 <metadata>
  <rdf:RDF xmlns:cc="http://creativecommons.org/ns#" xmlns:dc="http://purl.org/dc/elements/1.1/" xmlns:rdf="http://www.w3.org/1999/02/22-rdf-syntax-ns#">
   <cc:Work>
    <dc:type rdf:resource="http://purl.org/dc/dcmitype/StillImage"/>
    <dc:date>2021-09-05T15:16:41.087101</dc:date>
    <dc:format>image/svg+xml</dc:format>
    <dc:creator>
     <cc:Agent>
      <dc:title>Matplotlib v3.4.3, https://matplotlib.org/</dc:title>
     </cc:Agent>
    </dc:creator>
   </cc:Work>
  </rdf:RDF>
 </metadata>
 <defs>
  <style type="text/css">*{stroke-linecap:butt;stroke-linejoin:round;}</style>
 </defs>
 <g id="figure_1">
  <g id="patch_1">
   <path d="M 0 576 
L 720 576 
L 720 0 
L 0 0 
z
" style="fill:none;"/>
  </g>
  <g id="axes_1">
   <g id="patch_2">
    <path d="M 69.21 516.75 
L 702.72 516.75 
L 702.72 37.869 
L 69.21 37.869 
z
" style="fill:#ffffff;"/>
   </g>
   <g id="PolyCollection_1">
    <defs>
     <path d="M 98.005909 -99.811221 
L 98.005909 -99.811221 
L 103.765091 -133.237115 
L 109.524273 -154.02055 
L 115.283455 -133.332891 
L 121.042636 -122.653844 
L 126.801818 -132.039912 
L 132.561 -175.330754 
L 138.320182 -276.901414 
L 144.079364 -328.381122 
L 149.838545 -324.789514 
L 155.597727 -320.766914 
L 161.356909 -322.63455 
L 167.116091 -333.505149 
L 172.875273 -343.226433 
L 178.634455 -355.677339 
L 184.393636 -361.328135 
L 190.152818 -363.435211 
L 195.912 -376.652327 
L 201.671182 -380.674927 
L 207.430364 -388.001806 
L 213.189545 -394.370924 
L 218.948727 -393.796267 
L 224.707909 -390.4441 
L 230.467091 -401.02737 
L 236.226273 -401.410474 
L 241.985455 -404.140096 
L 247.744636 -400.740041 
L 253.503818 -407.444375 
L 259.263 -412.85573 
L 265.022182 -408.306361 
L 270.781364 -414.38815 
L 276.540545 -418.698079 
L 282.299727 -409.07257 
L 288.058909 -420.038945 
L 293.818091 -421.4277 
L 299.577273 -428.084146 
L 305.336455 -433.112397 
L 311.095636 -411.897968 
L 316.854818 -429.233461 
L 322.614 -416.782555 
L 328.373182 -428.275699 
L 334.132364 -433.351837 
L 339.891545 -432.202523 
L 345.650727 -426.408063 
L 351.409909 -436.943445 
L 357.169091 -428.084146 
L 362.928273 -418.65019 
L 368.687455 -439.912507 
L 374.446636 -434.357487 
L 380.205818 -442.833681 
L 385.965 -434.884256 
L 391.724182 -439.816731 
L 397.483364 -443.36045 
L 403.242545 -431.196873 
L 409.001727 -436.991333 
L 414.760909 -442.690017 
L 420.520091 -442.642129 
L 426.279273 -435.937795 
L 432.038455 -441.253374 
L 437.797636 -446.521065 
L 443.556818 -431.148985 
L 449.316 -436.991333 
L 455.075182 -445.659079 
L 460.834364 -437.949095 
L 466.593545 -429.472901 
L 472.352727 -426.791167 
L 478.111909 -437.470214 
L 483.871091 -436.033571 
L 489.630273 -432.441963 
L 495.389455 -423.008008 
L 501.148636 -418.889631 
L 506.907818 -429.856006 
L 512.667 -420.278386 
L 518.426182 -423.917881 
L 524.185364 -420.18261 
L 529.944545 -418.027645 
L 535.703727 -411.083871 
L 541.462909 -416.447338 
L 547.222091 -419.799505 
L 552.981273 -405.768292 
L 558.740455 -425.641853 
L 564.499636 -412.137409 
L 570.258818 -423.582665 
L 576.018 -421.092484 
L 581.777182 -421.762917 
L 587.536364 -422.912231 
L 593.295545 -415.681128 
L 599.054727 -408.641578 
L 604.813909 -408.06692 
L 610.573091 -415.345912 
L 616.332273 -414.340261 
L 622.091455 -416.543114 
L 627.850636 -417.069883 
L 633.609818 -413.909269 
L 639.369 -415.824793 
L 645.128182 -406.630277 
L 650.887364 -419.272736 
L 656.646545 -417.64454 
L 662.405727 -423.774217 
L 668.164909 -413.957157 
L 673.924091 -414.531814 
L 673.924091 -254.777112 
L 673.924091 -254.777112 
L 668.164909 -255.447546 
L 662.405727 -296.774976 
L 656.646545 -277.859176 
L 650.887364 -266.222368 
L 645.128182 -325.459948 
L 639.369 -272.304157 
L 633.609818 -276.709862 
L 627.850636 -303.766639 
L 622.091455 -331.924841 
L 616.332273 -303.670862 
L 610.573091 -324.023305 
L 604.813909 -327.040255 
L 599.054727 -302.138443 
L 593.295545 -301.899003 
L 587.536364 -326.41771 
L 581.777182 -339.443273 
L 576.018 -317.989404 
L 570.258818 -341.310909 
L 564.499636 -320.575362 
L 558.740455 -354.38436 
L 552.981273 -349.882879 
L 547.222091 -338.629175 
L 541.462909 -336.282658 
L 535.703727 -350.265984 
L 529.944545 -310.949854 
L 524.185364 -312.242832 
L 518.426182 -319.282383 
L 512.667 -346.626488 
L 506.907818 -334.175582 
L 501.148636 -326.896591 
L 495.389455 -348.35046 
L 489.630273 -348.158907 
L 483.871091 -346.434936 
L 478.111909 -347.680026 
L 472.352727 -358.598513 
L 466.593545 -324.40641 
L 460.834364 -356.539325 
L 455.075182 -351.989955 
L 449.316 -314.82879 
L 443.556818 -357.16187 
L 437.797636 -365.829616 
L 432.038455 -334.510799 
L 426.279273 -356.682989 
L 420.520091 -344.663076 
L 414.760909 -344.232083 
L 409.001727 -354.719577 
L 403.242545 -316.983754 
L 397.483364 -374.162146 
L 391.724182 -380.818591 
L 385.965 -332.547387 
L 380.205818 -358.550625 
L 374.446636 -347.009593 
L 368.687455 -335.324896 
L 362.928273 -348.158907 
L 357.169091 -359.316835 
L 351.409909 -355.006906 
L 345.650727 -350.936417 
L 339.891545 -331.350184 
L 334.132364 -367.888804 
L 328.373182 -364.680302 
L 322.614 -344.327859 
L 316.854818 -357.497087 
L 311.095636 -345.81239 
L 305.336455 -360.035156 
L 299.577273 -360.274597 
L 293.818091 -348.494124 
L 288.058909 -355.102682 
L 282.299727 -353.522375 
L 276.540545 -336.713651 
L 270.781364 -353.187158 
L 265.022182 -359.93938 
L 259.263 -338.437623 
L 253.503818 -343.130657 
L 247.744636 -342.02923 
L 241.985455 -331.589625 
L 236.226273 -346.81804 
L 230.467091 -349.308222 
L 224.707909 -319.090831 
L 218.948727 -320.719026 
L 213.189545 -335.755889 
L 207.430364 -320.240145 
L 201.671182 -328.093793 
L 195.912 -307.885015 
L 190.152818 -318.803502 
L 184.393636 -284.707175 
L 178.634455 -299.600374 
L 172.875273 -282.504322 
L 167.116091 -269.766088 
L 161.356909 -253.771462 
L 155.597727 -244.960052 
L 149.838545 -225.565371 
L 144.079364 -191.900037 
L 138.320182 -140.133001 
L 132.561 -109.053624 
L 126.801818 -107.712757 
L 121.042636 -107.664869 
L 115.283455 -108.239526 
L 109.524273 -112.93256 
L 103.765091 -110.490267 
L 98.005909 -99.811221 
z
" id="m8a72038809" style="stroke:#800080;stroke-opacity:0.5;"/>
    </defs>
    <g clip-path="url(#p0f408b8e2e)">
     <use style="fill:#800080;fill-opacity:0.5;stroke:#800080;stroke-opacity:0.5;" x="0" xlink:href="#m8a72038809" y="576"/>
    </g>
   </g>
   <g id="matplotlib.axis_1">
    <g id="xtick_1">
     <g id="line2d_1">
      <path clip-path="url(#p0f408b8e2e)" d="M 98.005909 516.75 
L 98.005909 37.869 
" style="fill:none;stroke:#b0b0b0;stroke-linecap:square;stroke-width:0.8;"/>
     </g>
     <g id="line2d_2">
      <defs>
       <path d="M 0 0 
L 0 3.5 
" id="m5f161d4c8b" style="stroke:#000000;stroke-width:0.8;"/>
      </defs>
      <g>
       <use style="stroke:#000000;stroke-width:0.8;" x="98.005909" xlink:href="#m5f161d4c8b" y="516.75"/>
      </g>
     </g>
     <g id="text_1">
      <!-- 0 -->
      <g transform="translate(92.915909 535.9075)scale(0.16 -0.16)">
       <defs>
        <path d="M 2034 4250 
Q 1547 4250 1301 3770 
Q 1056 3291 1056 2328 
Q 1056 1369 1301 889 
Q 1547 409 2034 409 
Q 2525 409 2770 889 
Q 3016 1369 3016 2328 
Q 3016 3291 2770 3770 
Q 2525 4250 2034 4250 
z
M 2034 4750 
Q 2819 4750 3233 4129 
Q 3647 3509 3647 2328 
Q 3647 1150 3233 529 
Q 2819 -91 2034 -91 
Q 1250 -91 836 529 
Q 422 1150 422 2328 
Q 422 3509 836 4129 
Q 1250 4750 2034 4750 
z
" id="DejaVuSans-30" transform="scale(0.015625)"/>
       </defs>
       <use xlink:href="#DejaVuSans-30"/>
      </g>
     </g>
    </g>
    <g id="xtick_2">
     <g id="line2d_3">
      <path clip-path="url(#p0f408b8e2e)" d="M 169.995682 516.75 
L 169.995682 37.869 
" style="fill:none;stroke:#b0b0b0;stroke-linecap:square;stroke-width:0.8;"/>
     </g>
     <g id="line2d_4">
      <g>
       <use style="stroke:#000000;stroke-width:0.8;" x="169.995682" xlink:href="#m5f161d4c8b" y="516.75"/>
      </g>
     </g>
     <g id="text_2">
      <!-- 250 -->
      <g transform="translate(154.725682 535.9075)scale(0.16 -0.16)">
       <defs>
        <path d="M 1228 531 
L 3431 531 
L 3431 0 
L 469 0 
L 469 531 
Q 828 903 1448 1529 
Q 2069 2156 2228 2338 
Q 2531 2678 2651 2914 
Q 2772 3150 2772 3378 
Q 2772 3750 2511 3984 
Q 2250 4219 1831 4219 
Q 1534 4219 1204 4116 
Q 875 4013 500 3803 
L 500 4441 
Q 881 4594 1212 4672 
Q 1544 4750 1819 4750 
Q 2544 4750 2975 4387 
Q 3406 4025 3406 3419 
Q 3406 3131 3298 2873 
Q 3191 2616 2906 2266 
Q 2828 2175 2409 1742 
Q 1991 1309 1228 531 
z
" id="DejaVuSans-32" transform="scale(0.015625)"/>
        <path d="M 691 4666 
L 3169 4666 
L 3169 4134 
L 1269 4134 
L 1269 2991 
Q 1406 3038 1543 3061 
Q 1681 3084 1819 3084 
Q 2600 3084 3056 2656 
Q 3513 2228 3513 1497 
Q 3513 744 3044 326 
Q 2575 -91 1722 -91 
Q 1428 -91 1123 -41 
Q 819 9 494 109 
L 494 744 
Q 775 591 1075 516 
Q 1375 441 1709 441 
Q 2250 441 2565 725 
Q 2881 1009 2881 1497 
Q 2881 1984 2565 2268 
Q 2250 2553 1709 2553 
Q 1456 2553 1204 2497 
Q 953 2441 691 2322 
L 691 4666 
z
" id="DejaVuSans-35" transform="scale(0.015625)"/>
       </defs>
       <use xlink:href="#DejaVuSans-32"/>
       <use x="63.623047" xlink:href="#DejaVuSans-35"/>
       <use x="127.246094" xlink:href="#DejaVuSans-30"/>
      </g>
     </g>
    </g>
    <g id="xtick_3">
     <g id="line2d_5">
      <path clip-path="url(#p0f408b8e2e)" d="M 241.985455 516.75 
L 241.985455 37.869 
" style="fill:none;stroke:#b0b0b0;stroke-linecap:square;stroke-width:0.8;"/>
     </g>
     <g id="line2d_6">
      <g>
       <use style="stroke:#000000;stroke-width:0.8;" x="241.985455" xlink:href="#m5f161d4c8b" y="516.75"/>
      </g>
     </g>
     <g id="text_3">
      <!-- 500 -->
      <g transform="translate(226.715455 535.9075)scale(0.16 -0.16)">
       <use xlink:href="#DejaVuSans-35"/>
       <use x="63.623047" xlink:href="#DejaVuSans-30"/>
       <use x="127.246094" xlink:href="#DejaVuSans-30"/>
      </g>
     </g>
    </g>
    <g id="xtick_4">
     <g id="line2d_7">
      <path clip-path="url(#p0f408b8e2e)" d="M 313.975227 516.75 
L 313.975227 37.869 
" style="fill:none;stroke:#b0b0b0;stroke-linecap:square;stroke-width:0.8;"/>
     </g>
     <g id="line2d_8">
      <g>
       <use style="stroke:#000000;stroke-width:0.8;" x="313.975227" xlink:href="#m5f161d4c8b" y="516.75"/>
      </g>
     </g>
     <g id="text_4">
      <!-- 750 -->
      <g transform="translate(298.705227 535.9075)scale(0.16 -0.16)">
       <defs>
        <path d="M 525 4666 
L 3525 4666 
L 3525 4397 
L 1831 0 
L 1172 0 
L 2766 4134 
L 525 4134 
L 525 4666 
z
" id="DejaVuSans-37" transform="scale(0.015625)"/>
       </defs>
       <use xlink:href="#DejaVuSans-37"/>
       <use x="63.623047" xlink:href="#DejaVuSans-35"/>
       <use x="127.246094" xlink:href="#DejaVuSans-30"/>
      </g>
     </g>
    </g>
    <g id="xtick_5">
     <g id="line2d_9">
      <path clip-path="url(#p0f408b8e2e)" d="M 385.965 516.75 
L 385.965 37.869 
" style="fill:none;stroke:#b0b0b0;stroke-linecap:square;stroke-width:0.8;"/>
     </g>
     <g id="line2d_10">
      <g>
       <use style="stroke:#000000;stroke-width:0.8;" x="385.965" xlink:href="#m5f161d4c8b" y="516.75"/>
      </g>
     </g>
     <g id="text_5">
      <!-- 1000 -->
      <g transform="translate(365.605 535.9075)scale(0.16 -0.16)">
       <defs>
        <path d="M 794 531 
L 1825 531 
L 1825 4091 
L 703 3866 
L 703 4441 
L 1819 4666 
L 2450 4666 
L 2450 531 
L 3481 531 
L 3481 0 
L 794 0 
L 794 531 
z
" id="DejaVuSans-31" transform="scale(0.015625)"/>
       </defs>
       <use xlink:href="#DejaVuSans-31"/>
       <use x="63.623047" xlink:href="#DejaVuSans-30"/>
       <use x="127.246094" xlink:href="#DejaVuSans-30"/>
       <use x="190.869141" xlink:href="#DejaVuSans-30"/>
      </g>
     </g>
    </g>
    <g id="xtick_6">
     <g id="line2d_11">
      <path clip-path="url(#p0f408b8e2e)" d="M 457.954773 516.75 
L 457.954773 37.869 
" style="fill:none;stroke:#b0b0b0;stroke-linecap:square;stroke-width:0.8;"/>
     </g>
     <g id="line2d_12">
      <g>
       <use style="stroke:#000000;stroke-width:0.8;" x="457.954773" xlink:href="#m5f161d4c8b" y="516.75"/>
      </g>
     </g>
     <g id="text_6">
      <!-- 1250 -->
      <g transform="translate(437.594773 535.9075)scale(0.16 -0.16)">
       <use xlink:href="#DejaVuSans-31"/>
       <use x="63.623047" xlink:href="#DejaVuSans-32"/>
       <use x="127.246094" xlink:href="#DejaVuSans-35"/>
       <use x="190.869141" xlink:href="#DejaVuSans-30"/>
      </g>
     </g>
    </g>
    <g id="xtick_7">
     <g id="line2d_13">
      <path clip-path="url(#p0f408b8e2e)" d="M 529.944545 516.75 
L 529.944545 37.869 
" style="fill:none;stroke:#b0b0b0;stroke-linecap:square;stroke-width:0.8;"/>
     </g>
     <g id="line2d_14">
      <g>
       <use style="stroke:#000000;stroke-width:0.8;" x="529.944545" xlink:href="#m5f161d4c8b" y="516.75"/>
      </g>
     </g>
     <g id="text_7">
      <!-- 1500 -->
      <g transform="translate(509.584545 535.9075)scale(0.16 -0.16)">
       <use xlink:href="#DejaVuSans-31"/>
       <use x="63.623047" xlink:href="#DejaVuSans-35"/>
       <use x="127.246094" xlink:href="#DejaVuSans-30"/>
       <use x="190.869141" xlink:href="#DejaVuSans-30"/>
      </g>
     </g>
    </g>
    <g id="xtick_8">
     <g id="line2d_15">
      <path clip-path="url(#p0f408b8e2e)" d="M 601.934318 516.75 
L 601.934318 37.869 
" style="fill:none;stroke:#b0b0b0;stroke-linecap:square;stroke-width:0.8;"/>
     </g>
     <g id="line2d_16">
      <g>
       <use style="stroke:#000000;stroke-width:0.8;" x="601.934318" xlink:href="#m5f161d4c8b" y="516.75"/>
      </g>
     </g>
     <g id="text_8">
      <!-- 1750 -->
      <g transform="translate(581.574318 535.9075)scale(0.16 -0.16)">
       <use xlink:href="#DejaVuSans-31"/>
       <use x="63.623047" xlink:href="#DejaVuSans-37"/>
       <use x="127.246094" xlink:href="#DejaVuSans-35"/>
       <use x="190.869141" xlink:href="#DejaVuSans-30"/>
      </g>
     </g>
    </g>
    <g id="xtick_9">
     <g id="line2d_17">
      <path clip-path="url(#p0f408b8e2e)" d="M 673.924091 516.75 
L 673.924091 37.869 
" style="fill:none;stroke:#b0b0b0;stroke-linecap:square;stroke-width:0.8;"/>
     </g>
     <g id="line2d_18">
      <g>
       <use style="stroke:#000000;stroke-width:0.8;" x="673.924091" xlink:href="#m5f161d4c8b" y="516.75"/>
      </g>
     </g>
     <g id="text_9">
      <!-- 2000 -->
      <g transform="translate(653.564091 535.9075)scale(0.16 -0.16)">
       <use xlink:href="#DejaVuSans-32"/>
       <use x="63.623047" xlink:href="#DejaVuSans-30"/>
       <use x="127.246094" xlink:href="#DejaVuSans-30"/>
       <use x="190.869141" xlink:href="#DejaVuSans-30"/>
      </g>
     </g>
    </g>
    <g id="text_10">
     <!-- Communication Round -->
     <g transform="translate(295.05625 555.3925)scale(0.16 -0.16)">
      <defs>
       <path d="M 4122 4306 
L 4122 3641 
Q 3803 3938 3442 4084 
Q 3081 4231 2675 4231 
Q 1875 4231 1450 3742 
Q 1025 3253 1025 2328 
Q 1025 1406 1450 917 
Q 1875 428 2675 428 
Q 3081 428 3442 575 
Q 3803 722 4122 1019 
L 4122 359 
Q 3791 134 3420 21 
Q 3050 -91 2638 -91 
Q 1578 -91 968 557 
Q 359 1206 359 2328 
Q 359 3453 968 4101 
Q 1578 4750 2638 4750 
Q 3056 4750 3426 4639 
Q 3797 4528 4122 4306 
z
" id="DejaVuSans-43" transform="scale(0.015625)"/>
       <path d="M 1959 3097 
Q 1497 3097 1228 2736 
Q 959 2375 959 1747 
Q 959 1119 1226 758 
Q 1494 397 1959 397 
Q 2419 397 2687 759 
Q 2956 1122 2956 1747 
Q 2956 2369 2687 2733 
Q 2419 3097 1959 3097 
z
M 1959 3584 
Q 2709 3584 3137 3096 
Q 3566 2609 3566 1747 
Q 3566 888 3137 398 
Q 2709 -91 1959 -91 
Q 1206 -91 779 398 
Q 353 888 353 1747 
Q 353 2609 779 3096 
Q 1206 3584 1959 3584 
z
" id="DejaVuSans-6f" transform="scale(0.015625)"/>
       <path d="M 3328 2828 
Q 3544 3216 3844 3400 
Q 4144 3584 4550 3584 
Q 5097 3584 5394 3201 
Q 5691 2819 5691 2113 
L 5691 0 
L 5113 0 
L 5113 2094 
Q 5113 2597 4934 2840 
Q 4756 3084 4391 3084 
Q 3944 3084 3684 2787 
Q 3425 2491 3425 1978 
L 3425 0 
L 2847 0 
L 2847 2094 
Q 2847 2600 2669 2842 
Q 2491 3084 2119 3084 
Q 1678 3084 1418 2786 
Q 1159 2488 1159 1978 
L 1159 0 
L 581 0 
L 581 3500 
L 1159 3500 
L 1159 2956 
Q 1356 3278 1631 3431 
Q 1906 3584 2284 3584 
Q 2666 3584 2933 3390 
Q 3200 3197 3328 2828 
z
" id="DejaVuSans-6d" transform="scale(0.015625)"/>
       <path d="M 544 1381 
L 544 3500 
L 1119 3500 
L 1119 1403 
Q 1119 906 1312 657 
Q 1506 409 1894 409 
Q 2359 409 2629 706 
Q 2900 1003 2900 1516 
L 2900 3500 
L 3475 3500 
L 3475 0 
L 2900 0 
L 2900 538 
Q 2691 219 2414 64 
Q 2138 -91 1772 -91 
Q 1169 -91 856 284 
Q 544 659 544 1381 
z
M 1991 3584 
L 1991 3584 
z
" id="DejaVuSans-75" transform="scale(0.015625)"/>
       <path d="M 3513 2113 
L 3513 0 
L 2938 0 
L 2938 2094 
Q 2938 2591 2744 2837 
Q 2550 3084 2163 3084 
Q 1697 3084 1428 2787 
Q 1159 2491 1159 1978 
L 1159 0 
L 581 0 
L 581 3500 
L 1159 3500 
L 1159 2956 
Q 1366 3272 1645 3428 
Q 1925 3584 2291 3584 
Q 2894 3584 3203 3211 
Q 3513 2838 3513 2113 
z
" id="DejaVuSans-6e" transform="scale(0.015625)"/>
       <path d="M 603 3500 
L 1178 3500 
L 1178 0 
L 603 0 
L 603 3500 
z
M 603 4863 
L 1178 4863 
L 1178 4134 
L 603 4134 
L 603 4863 
z
" id="DejaVuSans-69" transform="scale(0.015625)"/>
       <path d="M 3122 3366 
L 3122 2828 
Q 2878 2963 2633 3030 
Q 2388 3097 2138 3097 
Q 1578 3097 1268 2742 
Q 959 2388 959 1747 
Q 959 1106 1268 751 
Q 1578 397 2138 397 
Q 2388 397 2633 464 
Q 2878 531 3122 666 
L 3122 134 
Q 2881 22 2623 -34 
Q 2366 -91 2075 -91 
Q 1284 -91 818 406 
Q 353 903 353 1747 
Q 353 2603 823 3093 
Q 1294 3584 2113 3584 
Q 2378 3584 2631 3529 
Q 2884 3475 3122 3366 
z
" id="DejaVuSans-63" transform="scale(0.015625)"/>
       <path d="M 2194 1759 
Q 1497 1759 1228 1600 
Q 959 1441 959 1056 
Q 959 750 1161 570 
Q 1363 391 1709 391 
Q 2188 391 2477 730 
Q 2766 1069 2766 1631 
L 2766 1759 
L 2194 1759 
z
M 3341 1997 
L 3341 0 
L 2766 0 
L 2766 531 
Q 2569 213 2275 61 
Q 1981 -91 1556 -91 
Q 1019 -91 701 211 
Q 384 513 384 1019 
Q 384 1609 779 1909 
Q 1175 2209 1959 2209 
L 2766 2209 
L 2766 2266 
Q 2766 2663 2505 2880 
Q 2244 3097 1772 3097 
Q 1472 3097 1187 3025 
Q 903 2953 641 2809 
L 641 3341 
Q 956 3463 1253 3523 
Q 1550 3584 1831 3584 
Q 2591 3584 2966 3190 
Q 3341 2797 3341 1997 
z
" id="DejaVuSans-61" transform="scale(0.015625)"/>
       <path d="M 1172 4494 
L 1172 3500 
L 2356 3500 
L 2356 3053 
L 1172 3053 
L 1172 1153 
Q 1172 725 1289 603 
Q 1406 481 1766 481 
L 2356 481 
L 2356 0 
L 1766 0 
Q 1100 0 847 248 
Q 594 497 594 1153 
L 594 3053 
L 172 3053 
L 172 3500 
L 594 3500 
L 594 4494 
L 1172 4494 
z
" id="DejaVuSans-74" transform="scale(0.015625)"/>
       <path id="DejaVuSans-20" transform="scale(0.015625)"/>
       <path d="M 2841 2188 
Q 3044 2119 3236 1894 
Q 3428 1669 3622 1275 
L 4263 0 
L 3584 0 
L 2988 1197 
Q 2756 1666 2539 1819 
Q 2322 1972 1947 1972 
L 1259 1972 
L 1259 0 
L 628 0 
L 628 4666 
L 2053 4666 
Q 2853 4666 3247 4331 
Q 3641 3997 3641 3322 
Q 3641 2881 3436 2590 
Q 3231 2300 2841 2188 
z
M 1259 4147 
L 1259 2491 
L 2053 2491 
Q 2509 2491 2742 2702 
Q 2975 2913 2975 3322 
Q 2975 3731 2742 3939 
Q 2509 4147 2053 4147 
L 1259 4147 
z
" id="DejaVuSans-52" transform="scale(0.015625)"/>
       <path d="M 2906 2969 
L 2906 4863 
L 3481 4863 
L 3481 0 
L 2906 0 
L 2906 525 
Q 2725 213 2448 61 
Q 2172 -91 1784 -91 
Q 1150 -91 751 415 
Q 353 922 353 1747 
Q 353 2572 751 3078 
Q 1150 3584 1784 3584 
Q 2172 3584 2448 3432 
Q 2725 3281 2906 2969 
z
M 947 1747 
Q 947 1113 1208 752 
Q 1469 391 1925 391 
Q 2381 391 2643 752 
Q 2906 1113 2906 1747 
Q 2906 2381 2643 2742 
Q 2381 3103 1925 3103 
Q 1469 3103 1208 2742 
Q 947 2381 947 1747 
z
" id="DejaVuSans-64" transform="scale(0.015625)"/>
      </defs>
      <use xlink:href="#DejaVuSans-43"/>
      <use x="69.824219" xlink:href="#DejaVuSans-6f"/>
      <use x="131.005859" xlink:href="#DejaVuSans-6d"/>
      <use x="228.417969" xlink:href="#DejaVuSans-6d"/>
      <use x="325.830078" xlink:href="#DejaVuSans-75"/>
      <use x="389.208984" xlink:href="#DejaVuSans-6e"/>
      <use x="452.587891" xlink:href="#DejaVuSans-69"/>
      <use x="480.371094" xlink:href="#DejaVuSans-63"/>
      <use x="535.351562" xlink:href="#DejaVuSans-61"/>
      <use x="596.630859" xlink:href="#DejaVuSans-74"/>
      <use x="635.839844" xlink:href="#DejaVuSans-69"/>
      <use x="663.623047" xlink:href="#DejaVuSans-6f"/>
      <use x="724.804688" xlink:href="#DejaVuSans-6e"/>
      <use x="788.183594" xlink:href="#DejaVuSans-20"/>
      <use x="819.970703" xlink:href="#DejaVuSans-52"/>
      <use x="884.953125" xlink:href="#DejaVuSans-6f"/>
      <use x="946.134766" xlink:href="#DejaVuSans-75"/>
      <use x="1009.513672" xlink:href="#DejaVuSans-6e"/>
      <use x="1072.892578" xlink:href="#DejaVuSans-64"/>
     </g>
    </g>
   </g>
   <g id="matplotlib.axis_2">
    <g id="ytick_1">
     <g id="line2d_19">
      <path clip-path="url(#p0f408b8e2e)" d="M 69.21 516.75 
L 702.72 516.75 
" style="fill:none;stroke:#b0b0b0;stroke-linecap:square;stroke-width:0.8;"/>
     </g>
     <g id="line2d_20">
      <defs>
       <path d="M 0 0 
L -3.5 0 
" id="m18df05082b" style="stroke:#000000;stroke-width:0.8;"/>
      </defs>
      <g>
       <use style="stroke:#000000;stroke-width:0.8;" x="69.21" xlink:href="#m18df05082b" y="516.75"/>
      </g>
     </g>
     <g id="text_11">
      <!-- 0.0 -->
      <g transform="translate(36.765 522.82875)scale(0.16 -0.16)">
       <defs>
        <path d="M 684 794 
L 1344 794 
L 1344 0 
L 684 0 
L 684 794 
z
" id="DejaVuSans-2e" transform="scale(0.015625)"/>
       </defs>
       <use xlink:href="#DejaVuSans-30"/>
       <use x="63.623047" xlink:href="#DejaVuSans-2e"/>
       <use x="95.410156" xlink:href="#DejaVuSans-30"/>
      </g>
     </g>
    </g>
    <g id="ytick_2">
     <g id="line2d_21">
      <path clip-path="url(#p0f408b8e2e)" d="M 69.21 420.9738 
L 702.72 420.9738 
" style="fill:none;stroke:#b0b0b0;stroke-linecap:square;stroke-width:0.8;"/>
     </g>
     <g id="line2d_22">
      <g>
       <use style="stroke:#000000;stroke-width:0.8;" x="69.21" xlink:href="#m18df05082b" y="420.9738"/>
      </g>
     </g>
     <g id="text_12">
      <!-- 0.2 -->
      <g transform="translate(36.765 427.05255)scale(0.16 -0.16)">
       <use xlink:href="#DejaVuSans-30"/>
       <use x="63.623047" xlink:href="#DejaVuSans-2e"/>
       <use x="95.410156" xlink:href="#DejaVuSans-32"/>
      </g>
     </g>
    </g>
    <g id="ytick_3">
     <g id="line2d_23">
      <path clip-path="url(#p0f408b8e2e)" d="M 69.21 325.1976 
L 702.72 325.1976 
" style="fill:none;stroke:#b0b0b0;stroke-linecap:square;stroke-width:0.8;"/>
     </g>
     <g id="line2d_24">
      <g>
       <use style="stroke:#000000;stroke-width:0.8;" x="69.21" xlink:href="#m18df05082b" y="325.1976"/>
      </g>
     </g>
     <g id="text_13">
      <!-- 0.4 -->
      <g transform="translate(36.765 331.27635)scale(0.16 -0.16)">
       <defs>
        <path d="M 2419 4116 
L 825 1625 
L 2419 1625 
L 2419 4116 
z
M 2253 4666 
L 3047 4666 
L 3047 1625 
L 3713 1625 
L 3713 1100 
L 3047 1100 
L 3047 0 
L 2419 0 
L 2419 1100 
L 313 1100 
L 313 1709 
L 2253 4666 
z
" id="DejaVuSans-34" transform="scale(0.015625)"/>
       </defs>
       <use xlink:href="#DejaVuSans-30"/>
       <use x="63.623047" xlink:href="#DejaVuSans-2e"/>
       <use x="95.410156" xlink:href="#DejaVuSans-34"/>
      </g>
     </g>
    </g>
    <g id="ytick_4">
     <g id="line2d_25">
      <path clip-path="url(#p0f408b8e2e)" d="M 69.21 229.4214 
L 702.72 229.4214 
" style="fill:none;stroke:#b0b0b0;stroke-linecap:square;stroke-width:0.8;"/>
     </g>
     <g id="line2d_26">
      <g>
       <use style="stroke:#000000;stroke-width:0.8;" x="69.21" xlink:href="#m18df05082b" y="229.4214"/>
      </g>
     </g>
     <g id="text_14">
      <!-- 0.6 -->
      <g transform="translate(36.765 235.50015)scale(0.16 -0.16)">
       <defs>
        <path d="M 2113 2584 
Q 1688 2584 1439 2293 
Q 1191 2003 1191 1497 
Q 1191 994 1439 701 
Q 1688 409 2113 409 
Q 2538 409 2786 701 
Q 3034 994 3034 1497 
Q 3034 2003 2786 2293 
Q 2538 2584 2113 2584 
z
M 3366 4563 
L 3366 3988 
Q 3128 4100 2886 4159 
Q 2644 4219 2406 4219 
Q 1781 4219 1451 3797 
Q 1122 3375 1075 2522 
Q 1259 2794 1537 2939 
Q 1816 3084 2150 3084 
Q 2853 3084 3261 2657 
Q 3669 2231 3669 1497 
Q 3669 778 3244 343 
Q 2819 -91 2113 -91 
Q 1303 -91 875 529 
Q 447 1150 447 2328 
Q 447 3434 972 4092 
Q 1497 4750 2381 4750 
Q 2619 4750 2861 4703 
Q 3103 4656 3366 4563 
z
" id="DejaVuSans-36" transform="scale(0.015625)"/>
       </defs>
       <use xlink:href="#DejaVuSans-30"/>
       <use x="63.623047" xlink:href="#DejaVuSans-2e"/>
       <use x="95.410156" xlink:href="#DejaVuSans-36"/>
      </g>
     </g>
    </g>
    <g id="ytick_5">
     <g id="line2d_27">
      <path clip-path="url(#p0f408b8e2e)" d="M 69.21 133.6452 
L 702.72 133.6452 
" style="fill:none;stroke:#b0b0b0;stroke-linecap:square;stroke-width:0.8;"/>
     </g>
     <g id="line2d_28">
      <g>
       <use style="stroke:#000000;stroke-width:0.8;" x="69.21" xlink:href="#m18df05082b" y="133.6452"/>
      </g>
     </g>
     <g id="text_15">
      <!-- 0.8 -->
      <g transform="translate(36.765 139.72395)scale(0.16 -0.16)">
       <defs>
        <path d="M 2034 2216 
Q 1584 2216 1326 1975 
Q 1069 1734 1069 1313 
Q 1069 891 1326 650 
Q 1584 409 2034 409 
Q 2484 409 2743 651 
Q 3003 894 3003 1313 
Q 3003 1734 2745 1975 
Q 2488 2216 2034 2216 
z
M 1403 2484 
Q 997 2584 770 2862 
Q 544 3141 544 3541 
Q 544 4100 942 4425 
Q 1341 4750 2034 4750 
Q 2731 4750 3128 4425 
Q 3525 4100 3525 3541 
Q 3525 3141 3298 2862 
Q 3072 2584 2669 2484 
Q 3125 2378 3379 2068 
Q 3634 1759 3634 1313 
Q 3634 634 3220 271 
Q 2806 -91 2034 -91 
Q 1263 -91 848 271 
Q 434 634 434 1313 
Q 434 1759 690 2068 
Q 947 2378 1403 2484 
z
M 1172 3481 
Q 1172 3119 1398 2916 
Q 1625 2713 2034 2713 
Q 2441 2713 2670 2916 
Q 2900 3119 2900 3481 
Q 2900 3844 2670 4047 
Q 2441 4250 2034 4250 
Q 1625 4250 1398 4047 
Q 1172 3844 1172 3481 
z
" id="DejaVuSans-38" transform="scale(0.015625)"/>
       </defs>
       <use xlink:href="#DejaVuSans-30"/>
       <use x="63.623047" xlink:href="#DejaVuSans-2e"/>
       <use x="95.410156" xlink:href="#DejaVuSans-38"/>
      </g>
     </g>
    </g>
    <g id="ytick_6">
     <g id="line2d_29">
      <path clip-path="url(#p0f408b8e2e)" d="M 69.21 37.869 
L 702.72 37.869 
" style="fill:none;stroke:#b0b0b0;stroke-linecap:square;stroke-width:0.8;"/>
     </g>
     <g id="line2d_30">
      <g>
       <use style="stroke:#000000;stroke-width:0.8;" x="69.21" xlink:href="#m18df05082b" y="37.869"/>
      </g>
     </g>
     <g id="text_16">
      <!-- 1.0 -->
      <g transform="translate(36.765 43.94775)scale(0.16 -0.16)">
       <use xlink:href="#DejaVuSans-31"/>
       <use x="63.623047" xlink:href="#DejaVuSans-2e"/>
       <use x="95.410156" xlink:href="#DejaVuSans-30"/>
      </g>
     </g>
    </g>
    <g id="text_17">
     <!-- Top1 Accuracy -->
     <g transform="translate(29.4375 334.967)rotate(-90)scale(0.16 -0.16)">
      <defs>
       <path d="M -19 4666 
L 3928 4666 
L 3928 4134 
L 2272 4134 
L 2272 0 
L 1638 0 
L 1638 4134 
L -19 4134 
L -19 4666 
z
" id="DejaVuSans-54" transform="scale(0.015625)"/>
       <path d="M 1159 525 
L 1159 -1331 
L 581 -1331 
L 581 3500 
L 1159 3500 
L 1159 2969 
Q 1341 3281 1617 3432 
Q 1894 3584 2278 3584 
Q 2916 3584 3314 3078 
Q 3713 2572 3713 1747 
Q 3713 922 3314 415 
Q 2916 -91 2278 -91 
Q 1894 -91 1617 61 
Q 1341 213 1159 525 
z
M 3116 1747 
Q 3116 2381 2855 2742 
Q 2594 3103 2138 3103 
Q 1681 3103 1420 2742 
Q 1159 2381 1159 1747 
Q 1159 1113 1420 752 
Q 1681 391 2138 391 
Q 2594 391 2855 752 
Q 3116 1113 3116 1747 
z
" id="DejaVuSans-70" transform="scale(0.015625)"/>
       <path d="M 2188 4044 
L 1331 1722 
L 3047 1722 
L 2188 4044 
z
M 1831 4666 
L 2547 4666 
L 4325 0 
L 3669 0 
L 3244 1197 
L 1141 1197 
L 716 0 
L 50 0 
L 1831 4666 
z
" id="DejaVuSans-41" transform="scale(0.015625)"/>
       <path d="M 2631 2963 
Q 2534 3019 2420 3045 
Q 2306 3072 2169 3072 
Q 1681 3072 1420 2755 
Q 1159 2438 1159 1844 
L 1159 0 
L 581 0 
L 581 3500 
L 1159 3500 
L 1159 2956 
Q 1341 3275 1631 3429 
Q 1922 3584 2338 3584 
Q 2397 3584 2469 3576 
Q 2541 3569 2628 3553 
L 2631 2963 
z
" id="DejaVuSans-72" transform="scale(0.015625)"/>
       <path d="M 2059 -325 
Q 1816 -950 1584 -1140 
Q 1353 -1331 966 -1331 
L 506 -1331 
L 506 -850 
L 844 -850 
Q 1081 -850 1212 -737 
Q 1344 -625 1503 -206 
L 1606 56 
L 191 3500 
L 800 3500 
L 1894 763 
L 2988 3500 
L 3597 3500 
L 2059 -325 
z
" id="DejaVuSans-79" transform="scale(0.015625)"/>
      </defs>
      <use xlink:href="#DejaVuSans-54"/>
      <use x="44.083984" xlink:href="#DejaVuSans-6f"/>
      <use x="105.265625" xlink:href="#DejaVuSans-70"/>
      <use x="168.742188" xlink:href="#DejaVuSans-31"/>
      <use x="232.365234" xlink:href="#DejaVuSans-20"/>
      <use x="264.152344" xlink:href="#DejaVuSans-41"/>
      <use x="330.810547" xlink:href="#DejaVuSans-63"/>
      <use x="385.791016" xlink:href="#DejaVuSans-63"/>
      <use x="440.771484" xlink:href="#DejaVuSans-75"/>
      <use x="504.150391" xlink:href="#DejaVuSans-72"/>
      <use x="545.263672" xlink:href="#DejaVuSans-61"/>
      <use x="606.542969" xlink:href="#DejaVuSans-63"/>
      <use x="661.523438" xlink:href="#DejaVuSans-79"/>
     </g>
    </g>
   </g>
   <g id="PolyCollection_2">
    <defs>
     <path d="M 98.005909 -99.811221 
L 98.005909 -99.811221 
L 103.765091 -145.304916 
L 109.524273 -168.770085 
L 115.283455 -382.207346 
L 121.042636 -442.450576 
L 126.801818 -464.52699 
L 132.561 -475.828582 
L 138.320182 -483.44279 
L 144.079364 -486.890733 
L 149.838545 -489.955571 
L 155.597727 -492.302088 
L 161.356909 -494.361277 
L 167.116091 -496.133136 
L 172.875273 -495.510591 
L 178.634455 -498.335989 
L 184.393636 -498.383877 
L 190.152818 -497.474003 
L 195.912 -499.150087 
L 201.671182 -500.443065 
L 207.430364 -501.688156 
L 213.189545 -502.59803 
L 218.948727 -503.124799 
L 224.707909 -503.84312 
L 230.467091 -499.150087 
L 236.226273 -504.369889 
L 241.985455 -505.950197 
L 247.744636 -506.237525 
L 253.503818 -505.950197 
L 259.263 -505.519204 
L 265.022182 -506.429078 
L 270.781364 -507.051623 
L 276.540545 -508.775595 
L 282.299727 -503.891008 
L 288.058909 -508.536154 
L 293.818091 -510.212238 
L 299.577273 -510.739007 
L 305.336455 -510.020685 
L 311.095636 -507.769945 
L 316.854818 -511.17 
L 322.614 -511.17 
L 328.373182 -512.127762 
L 334.132364 -508.63193 
L 339.891545 -510.643231 
L 345.650727 -511.17 
L 351.409909 -512.989748 
L 357.169091 -512.367202 
L 362.928273 -509.63758 
L 368.687455 -513.1813 
L 374.446636 -512.893971 
L 380.205818 -512.798195 
L 385.965 -513.899621 
L 391.724182 -512.750307 
L 397.483364 -506.476966 
L 403.242545 -514.043286 
L 409.001727 -514.282726 
L 414.760909 -514.18695 
L 420.520091 -515.240488 
L 426.279273 -515.240488 
L 432.038455 -514.474279 
L 437.797636 -513.324964 
L 443.556818 -511.505216 
L 449.316 -514.857383 
L 455.075182 -515.767257 
L 460.834364 -515.1926 
L 466.593545 -516.485579 
L 472.352727 -509.589692 
L 478.111909 -514.617943 
L 483.871091 -514.809495 
L 489.630273 -515.623593 
L 495.389455 -515.863034 
L 501.148636 -516.437691 
L 506.907818 -516.581355 
L 512.667 -515.623593 
L 518.426182 -515.767257 
L 524.185364 -516.533467 
L 529.944545 -517.012348 
L 535.703727 -517.156012 
L 541.462909 -517.108124 
L 547.222091 -518.113774 
L 552.981273 -517.2039 
L 558.740455 -504.513554 
L 564.499636 -513.755957 
L 570.258818 -517.2039 
L 576.018 -517.108124 
L 581.777182 -516.725019 
L 587.536364 -517.778558 
L 593.295545 -517.347565 
L 599.054727 -517.108124 
L 604.813909 -517.587005 
L 610.573091 -514.043286 
L 616.332273 -517.922222 
L 622.091455 -518.20955 
L 627.850636 -517.443341 
L 633.609818 -517.730669 
L 639.369 -518.161662 
L 645.128182 -517.347565 
L 650.887364 -515.815145 
L 656.646545 -512.271426 
L 662.405727 -518.113774 
L 668.164909 -518.353215 
L 673.924091 -518.496879 
L 673.924091 -514.234838 
L 673.924091 -514.234838 
L 668.164909 -516.772907 
L 662.405727 -516.246138 
L 656.646545 -430.526439 
L 650.887364 -472.428527 
L 645.128182 -513.229188 
L 639.369 -515.1926 
L 633.609818 -514.570055 
L 627.850636 -498.335989 
L 622.091455 -516.102474 
L 616.332273 -515.336264 
L 610.573091 -492.637305 
L 604.813909 -506.045973 
L 599.054727 -513.899621 
L 593.295545 -514.330614 
L 587.536364 -516.054586 
L 581.777182 -514.809495 
L 576.018 -514.043286 
L 570.258818 -514.713719 
L 564.499636 -475.445477 
L 558.740455 -456.72123 
L 552.981273 -510.882671 
L 547.222091 -494.361277 
L 541.462909 -516.341915 
L 535.703727 -513.037636 
L 529.944545 -515.240488 
L 524.185364 -513.133412 
L 518.426182 -511.17 
L 512.667 -491.00911 
L 506.907818 -513.755957 
L 501.148636 -501.783932 
L 495.389455 -514.474279 
L 489.630273 -512.941859 
L 483.871091 -514.18695 
L 478.111909 -512.750307 
L 472.352727 -455.763468 
L 466.593545 -514.570055 
L 460.834364 -511.553104 
L 455.075182 -512.223538 
L 449.316 -512.893971 
L 443.556818 -458.924083 
L 437.797636 -476.690568 
L 432.038455 -509.254476 
L 426.279273 -512.079874 
L 420.520091 -510.595342 
L 414.760909 -510.691119 
L 409.001727 -511.792545 
L 403.242545 -513.277076 
L 397.483364 -470.656667 
L 391.724182 -501.305051 
L 385.965 -510.40379 
L 380.205818 -503.507904 
L 374.446636 -508.871371 
L 368.687455 -508.488266 
L 362.928273 -485.645642 
L 357.169091 -494.217612 
L 351.409909 -502.981135 
L 345.650727 -469.842569 
L 339.891545 -495.893696 
L 334.132364 -502.789582 
L 328.373182 -509.015035 
L 322.614 -509.685469 
L 316.854818 -508.871371 
L 311.095636 -494.935934 
L 305.336455 -482.149811 
L 299.577273 -503.938897 
L 293.818091 -505.471316 
L 288.058909 -504.705106 
L 282.299727 -423.869993 
L 276.540545 -502.885358 
L 270.781364 -503.412127 
L 265.022182 -502.933246 
L 259.263 -456.290237 
L 253.503818 -492.302088 
L 247.744636 -499.437415 
L 241.985455 -501.496603 
L 236.226273 -494.744381 
L 230.467091 -450.208448 
L 224.707909 -493.451403 
L 218.948727 -499.05431 
L 213.189545 -495.175374 
L 207.430364 -471.518653 
L 201.671182 -475.397589 
L 195.912 -445.228086 
L 190.152818 -453.608503 
L 184.393636 -496.564129 
L 178.634455 -494.935934 
L 172.875273 -431.484201 
L 167.116091 -492.110536 
L 161.356909 -486.076635 
L 155.597727 -483.251237 
L 149.838545 -472.524303 
L 144.079364 -452.69863 
L 138.320182 -461.893145 
L 132.561 -461.605816 
L 126.801818 -460.456502 
L 121.042636 -436.129347 
L 115.283455 -371.384636 
L 109.524273 -159.096688 
L 103.765091 -142.718958 
L 98.005909 -99.811221 
z
" id="m687d3203bb" style="stroke:#32cd32;stroke-opacity:0.5;"/>
    </defs>
    <g clip-path="url(#p0f408b8e2e)">
     <use style="fill:#32cd32;fill-opacity:0.5;stroke:#32cd32;stroke-opacity:0.5;" x="0" xlink:href="#m687d3203bb" y="576"/>
    </g>
   </g>
   <g id="line2d_31">
    <path clip-path="url(#p0f408b8e2e)" d="M 98.005909 45.052208 
L 103.765091 45.052208 
L 109.524273 45.052208 
L 115.283455 45.052208 
L 121.042636 45.052208 
L 126.801818 45.052208 
L 132.561 45.052208 
L 138.320182 45.052208 
L 144.079364 45.052208 
L 149.838545 45.052208 
L 155.597727 45.052208 
L 161.356909 45.052208 
L 167.116091 45.052208 
L 172.875273 45.052208 
L 178.634455 45.052208 
L 184.393636 45.052208 
L 190.152818 45.052208 
L 195.912 45.052208 
L 201.671182 45.052208 
L 207.430364 45.052208 
L 213.189545 45.052208 
L 218.948727 45.052208 
L 224.707909 45.052208 
L 230.467091 45.052208 
L 236.226273 45.052208 
L 241.985455 45.052208 
L 247.744636 45.052208 
L 253.503818 45.052208 
L 259.263 45.052208 
L 265.022182 45.052208 
L 270.781364 45.052208 
L 276.540545 45.052208 
L 282.299727 45.052208 
L 288.058909 45.052208 
L 293.818091 45.052208 
L 299.577273 45.052208 
L 305.336455 45.052208 
L 311.095636 45.052208 
L 316.854818 45.052208 
L 322.614 45.052208 
L 328.373182 45.052208 
L 334.132364 45.052208 
L 339.891545 45.052208 
L 345.650727 45.052208 
L 351.409909 45.052208 
L 357.169091 45.052208 
L 362.928273 45.052208 
L 368.687455 45.052208 
L 374.446636 45.052208 
L 380.205818 45.052208 
L 385.965 45.052208 
L 391.724182 45.052208 
L 397.483364 45.052208 
L 403.242545 45.052208 
L 409.001727 45.052208 
L 414.760909 45.052208 
L 420.520091 45.052208 
L 426.279273 45.052208 
L 432.038455 45.052208 
L 437.797636 45.052208 
L 443.556818 45.052208 
L 449.316 45.052208 
L 455.075182 45.052208 
L 460.834364 45.052208 
L 466.593545 45.052208 
L 472.352727 45.052208 
L 478.111909 45.052208 
L 483.871091 45.052208 
L 489.630273 45.052208 
L 495.389455 45.052208 
L 501.148636 45.052208 
L 506.907818 45.052208 
L 512.667 45.052208 
L 518.426182 45.052208 
L 524.185364 45.052208 
L 529.944545 45.052208 
L 535.703727 45.052208 
L 541.462909 45.052208 
L 547.222091 45.052208 
L 552.981273 45.052208 
L 558.740455 45.052208 
L 564.499636 45.052208 
L 570.258818 45.052208 
L 576.018 45.052208 
L 581.777182 45.052208 
L 587.536364 45.052208 
L 593.295545 45.052208 
L 599.054727 45.052208 
L 604.813909 45.052208 
L 610.573091 45.052208 
L 616.332273 45.052208 
L 622.091455 45.052208 
L 627.850636 45.052208 
L 633.609818 45.052208 
L 639.369 45.052208 
L 645.128182 45.052208 
L 650.887364 45.052208 
L 656.646545 45.052208 
L 662.405727 45.052208 
L 668.164909 45.052208 
L 673.924091 45.052208 
" style="fill:none;stroke:#4b0082;stroke-dasharray:2,3.3;stroke-dashoffset:0;stroke-width:2;"/>
   </g>
   <g id="line2d_32">
    <path clip-path="url(#p0f408b8e2e)" d="M 98.005909 469.819662 
L 103.765091 469.819662 
L 109.524273 469.819662 
L 115.283455 469.819662 
L 121.042636 469.819662 
L 126.801818 469.819662 
L 132.561 469.819662 
L 138.320182 469.819662 
L 144.079364 469.819662 
L 149.838545 469.819662 
L 155.597727 469.819662 
L 161.356909 469.819662 
L 167.116091 469.819662 
L 172.875273 469.819662 
L 178.634455 469.819662 
L 184.393636 469.819662 
L 190.152818 469.819662 
L 195.912 469.819662 
L 201.671182 469.819662 
L 207.430364 469.819662 
L 213.189545 469.819662 
L 218.948727 469.819662 
L 224.707909 469.819662 
L 230.467091 469.819662 
L 236.226273 469.819662 
L 241.985455 469.819662 
L 247.744636 469.819662 
L 253.503818 469.819662 
L 259.263 469.819662 
L 265.022182 469.819662 
L 270.781364 469.819662 
L 276.540545 469.819662 
L 282.299727 469.819662 
L 288.058909 469.819662 
L 293.818091 469.819662 
L 299.577273 469.819662 
L 305.336455 469.819662 
L 311.095636 469.819662 
L 316.854818 469.819662 
L 322.614 469.819662 
L 328.373182 469.819662 
L 334.132364 469.819662 
L 339.891545 469.819662 
L 345.650727 469.819662 
L 351.409909 469.819662 
L 357.169091 469.819662 
L 362.928273 469.819662 
L 368.687455 469.819662 
L 374.446636 469.819662 
L 380.205818 469.819662 
L 385.965 469.819662 
L 391.724182 469.819662 
L 397.483364 469.819662 
L 403.242545 469.819662 
L 409.001727 469.819662 
L 414.760909 469.819662 
L 420.520091 469.819662 
L 426.279273 469.819662 
L 432.038455 469.819662 
L 437.797636 469.819662 
L 443.556818 469.819662 
L 449.316 469.819662 
L 455.075182 469.819662 
L 460.834364 469.819662 
L 466.593545 469.819662 
L 472.352727 469.819662 
L 478.111909 469.819662 
L 483.871091 469.819662 
L 489.630273 469.819662 
L 495.389455 469.819662 
L 501.148636 469.819662 
L 506.907818 469.819662 
L 512.667 469.819662 
L 518.426182 469.819662 
L 524.185364 469.819662 
L 529.944545 469.819662 
L 535.703727 469.819662 
L 541.462909 469.819662 
L 547.222091 469.819662 
L 552.981273 469.819662 
L 558.740455 469.819662 
L 564.499636 469.819662 
L 570.258818 469.819662 
L 576.018 469.819662 
L 581.777182 469.819662 
L 587.536364 469.819662 
L 593.295545 469.819662 
L 599.054727 469.819662 
L 604.813909 469.819662 
L 610.573091 469.819662 
L 616.332273 469.819662 
L 622.091455 469.819662 
L 627.850636 469.819662 
L 633.609818 469.819662 
L 639.369 469.819662 
L 645.128182 469.819662 
L 650.887364 469.819662 
L 656.646545 469.819662 
L 662.405727 469.819662 
L 668.164909 469.819662 
L 673.924091 469.819662 
" style="fill:none;stroke:#6495ed;stroke-dasharray:2,3.3;stroke-dashoffset:0;stroke-width:2;"/>
   </g>
   <g id="line2d_33">
    <path clip-path="url(#p0f408b8e2e)" d="M 98.005909 462.397006 
L 103.765091 462.397006 
L 109.524273 462.397006 
L 115.283455 462.397006 
L 121.042636 462.397006 
L 126.801818 462.397006 
L 132.561 462.397006 
L 138.320182 462.397006 
L 144.079364 462.397006 
L 149.838545 462.397006 
L 155.597727 462.397006 
L 161.356909 462.397006 
L 167.116091 462.397006 
L 172.875273 462.397006 
L 178.634455 462.397006 
L 184.393636 462.397006 
L 190.152818 462.397006 
L 195.912 462.397006 
L 201.671182 462.397006 
L 207.430364 462.397006 
L 213.189545 462.397006 
L 218.948727 462.397006 
L 224.707909 462.397006 
L 230.467091 462.397006 
L 236.226273 462.397006 
L 241.985455 462.397006 
L 247.744636 462.397006 
L 253.503818 462.397006 
L 259.263 462.397006 
L 265.022182 462.397006 
L 270.781364 462.397006 
L 276.540545 462.397006 
L 282.299727 462.397006 
L 288.058909 462.397006 
L 293.818091 462.397006 
L 299.577273 462.397006 
L 305.336455 462.397006 
L 311.095636 462.397006 
L 316.854818 462.397006 
L 322.614 462.397006 
L 328.373182 462.397006 
L 334.132364 462.397006 
L 339.891545 462.397006 
L 345.650727 462.397006 
L 351.409909 462.397006 
L 357.169091 462.397006 
L 362.928273 462.397006 
L 368.687455 462.397006 
L 374.446636 462.397006 
L 380.205818 462.397006 
L 385.965 462.397006 
L 391.724182 462.397006 
L 397.483364 462.397006 
L 403.242545 462.397006 
L 409.001727 462.397006 
L 414.760909 462.397006 
L 420.520091 462.397006 
L 426.279273 462.397006 
L 432.038455 462.397006 
L 437.797636 462.397006 
L 443.556818 462.397006 
L 449.316 462.397006 
L 455.075182 462.397006 
L 460.834364 462.397006 
L 466.593545 462.397006 
L 472.352727 462.397006 
L 478.111909 462.397006 
L 483.871091 462.397006 
L 489.630273 462.397006 
L 495.389455 462.397006 
L 501.148636 462.397006 
L 506.907818 462.397006 
L 512.667 462.397006 
L 518.426182 462.397006 
L 524.185364 462.397006 
L 529.944545 462.397006 
L 535.703727 462.397006 
L 541.462909 462.397006 
L 547.222091 462.397006 
L 552.981273 462.397006 
L 558.740455 462.397006 
L 564.499636 462.397006 
L 570.258818 462.397006 
L 576.018 462.397006 
L 581.777182 462.397006 
L 587.536364 462.397006 
L 593.295545 462.397006 
L 599.054727 462.397006 
L 604.813909 462.397006 
L 610.573091 462.397006 
L 616.332273 462.397006 
L 622.091455 462.397006 
L 627.850636 462.397006 
L 633.609818 462.397006 
L 639.369 462.397006 
L 645.128182 462.397006 
L 650.887364 462.397006 
L 656.646545 462.397006 
L 662.405727 462.397006 
L 668.164909 462.397006 
L 673.924091 462.397006 
" style="fill:none;stroke:#6495ed;stroke-dasharray:2,3.3;stroke-dashoffset:0;stroke-width:2;"/>
   </g>
   <g id="line2d_34">
    <path clip-path="url(#p0f408b8e2e)" d="M 98.005909 467.329481 
L 103.765091 467.329481 
L 109.524273 467.329481 
L 115.283455 467.329481 
L 121.042636 467.329481 
L 126.801818 467.329481 
L 132.561 467.329481 
L 138.320182 467.329481 
L 144.079364 467.329481 
L 149.838545 467.329481 
L 155.597727 467.329481 
L 161.356909 467.329481 
L 167.116091 467.329481 
L 172.875273 467.329481 
L 178.634455 467.329481 
L 184.393636 467.329481 
L 190.152818 467.329481 
L 195.912 467.329481 
L 201.671182 467.329481 
L 207.430364 467.329481 
L 213.189545 467.329481 
L 218.948727 467.329481 
L 224.707909 467.329481 
L 230.467091 467.329481 
L 236.226273 467.329481 
L 241.985455 467.329481 
L 247.744636 467.329481 
L 253.503818 467.329481 
L 259.263 467.329481 
L 265.022182 467.329481 
L 270.781364 467.329481 
L 276.540545 467.329481 
L 282.299727 467.329481 
L 288.058909 467.329481 
L 293.818091 467.329481 
L 299.577273 467.329481 
L 305.336455 467.329481 
L 311.095636 467.329481 
L 316.854818 467.329481 
L 322.614 467.329481 
L 328.373182 467.329481 
L 334.132364 467.329481 
L 339.891545 467.329481 
L 345.650727 467.329481 
L 351.409909 467.329481 
L 357.169091 467.329481 
L 362.928273 467.329481 
L 368.687455 467.329481 
L 374.446636 467.329481 
L 380.205818 467.329481 
L 385.965 467.329481 
L 391.724182 467.329481 
L 397.483364 467.329481 
L 403.242545 467.329481 
L 409.001727 467.329481 
L 414.760909 467.329481 
L 420.520091 467.329481 
L 426.279273 467.329481 
L 432.038455 467.329481 
L 437.797636 467.329481 
L 443.556818 467.329481 
L 449.316 467.329481 
L 455.075182 467.329481 
L 460.834364 467.329481 
L 466.593545 467.329481 
L 472.352727 467.329481 
L 478.111909 467.329481 
L 483.871091 467.329481 
L 489.630273 467.329481 
L 495.389455 467.329481 
L 501.148636 467.329481 
L 506.907818 467.329481 
L 512.667 467.329481 
L 518.426182 467.329481 
L 524.185364 467.329481 
L 529.944545 467.329481 
L 535.703727 467.329481 
L 541.462909 467.329481 
L 547.222091 467.329481 
L 552.981273 467.329481 
L 558.740455 467.329481 
L 564.499636 467.329481 
L 570.258818 467.329481 
L 576.018 467.329481 
L 581.777182 467.329481 
L 587.536364 467.329481 
L 593.295545 467.329481 
L 599.054727 467.329481 
L 604.813909 467.329481 
L 610.573091 467.329481 
L 616.332273 467.329481 
L 622.091455 467.329481 
L 627.850636 467.329481 
L 633.609818 467.329481 
L 639.369 467.329481 
L 645.128182 467.329481 
L 650.887364 467.329481 
L 656.646545 467.329481 
L 662.405727 467.329481 
L 668.164909 467.329481 
L 673.924091 467.329481 
" style="fill:none;stroke:#6495ed;stroke-dasharray:2,3.3;stroke-dashoffset:0;stroke-width:2;"/>
   </g>
   <g id="line2d_35">
    <path clip-path="url(#p0f408b8e2e)" d="M 98.005909 468.383019 
L 103.765091 468.383019 
L 109.524273 468.383019 
L 115.283455 468.383019 
L 121.042636 468.383019 
L 126.801818 468.383019 
L 132.561 468.383019 
L 138.320182 468.383019 
L 144.079364 468.383019 
L 149.838545 468.383019 
L 155.597727 468.383019 
L 161.356909 468.383019 
L 167.116091 468.383019 
L 172.875273 468.383019 
L 178.634455 468.383019 
L 184.393636 468.383019 
L 190.152818 468.383019 
L 195.912 468.383019 
L 201.671182 468.383019 
L 207.430364 468.383019 
L 213.189545 468.383019 
L 218.948727 468.383019 
L 224.707909 468.383019 
L 230.467091 468.383019 
L 236.226273 468.383019 
L 241.985455 468.383019 
L 247.744636 468.383019 
L 253.503818 468.383019 
L 259.263 468.383019 
L 265.022182 468.383019 
L 270.781364 468.383019 
L 276.540545 468.383019 
L 282.299727 468.383019 
L 288.058909 468.383019 
L 293.818091 468.383019 
L 299.577273 468.383019 
L 305.336455 468.383019 
L 311.095636 468.383019 
L 316.854818 468.383019 
L 322.614 468.383019 
L 328.373182 468.383019 
L 334.132364 468.383019 
L 339.891545 468.383019 
L 345.650727 468.383019 
L 351.409909 468.383019 
L 357.169091 468.383019 
L 362.928273 468.383019 
L 368.687455 468.383019 
L 374.446636 468.383019 
L 380.205818 468.383019 
L 385.965 468.383019 
L 391.724182 468.383019 
L 397.483364 468.383019 
L 403.242545 468.383019 
L 409.001727 468.383019 
L 414.760909 468.383019 
L 420.520091 468.383019 
L 426.279273 468.383019 
L 432.038455 468.383019 
L 437.797636 468.383019 
L 443.556818 468.383019 
L 449.316 468.383019 
L 455.075182 468.383019 
L 460.834364 468.383019 
L 466.593545 468.383019 
L 472.352727 468.383019 
L 478.111909 468.383019 
L 483.871091 468.383019 
L 489.630273 468.383019 
L 495.389455 468.383019 
L 501.148636 468.383019 
L 506.907818 468.383019 
L 512.667 468.383019 
L 518.426182 468.383019 
L 524.185364 468.383019 
L 529.944545 468.383019 
L 535.703727 468.383019 
L 541.462909 468.383019 
L 547.222091 468.383019 
L 552.981273 468.383019 
L 558.740455 468.383019 
L 564.499636 468.383019 
L 570.258818 468.383019 
L 576.018 468.383019 
L 581.777182 468.383019 
L 587.536364 468.383019 
L 593.295545 468.383019 
L 599.054727 468.383019 
L 604.813909 468.383019 
L 610.573091 468.383019 
L 616.332273 468.383019 
L 622.091455 468.383019 
L 627.850636 468.383019 
L 633.609818 468.383019 
L 639.369 468.383019 
L 645.128182 468.383019 
L 650.887364 468.383019 
L 656.646545 468.383019 
L 662.405727 468.383019 
L 668.164909 468.383019 
L 673.924091 468.383019 
" style="fill:none;stroke:#6495ed;stroke-dasharray:2,3.3;stroke-dashoffset:0;stroke-width:2;"/>
   </g>
   <g id="line2d_36">
    <path clip-path="url(#p0f408b8e2e)" d="M 98.005909 469.723886 
L 103.765091 469.723886 
L 109.524273 469.723886 
L 115.283455 469.723886 
L 121.042636 469.723886 
L 126.801818 469.723886 
L 132.561 469.723886 
L 138.320182 469.723886 
L 144.079364 469.723886 
L 149.838545 469.723886 
L 155.597727 469.723886 
L 161.356909 469.723886 
L 167.116091 469.723886 
L 172.875273 469.723886 
L 178.634455 469.723886 
L 184.393636 469.723886 
L 190.152818 469.723886 
L 195.912 469.723886 
L 201.671182 469.723886 
L 207.430364 469.723886 
L 213.189545 469.723886 
L 218.948727 469.723886 
L 224.707909 469.723886 
L 230.467091 469.723886 
L 236.226273 469.723886 
L 241.985455 469.723886 
L 247.744636 469.723886 
L 253.503818 469.723886 
L 259.263 469.723886 
L 265.022182 469.723886 
L 270.781364 469.723886 
L 276.540545 469.723886 
L 282.299727 469.723886 
L 288.058909 469.723886 
L 293.818091 469.723886 
L 299.577273 469.723886 
L 305.336455 469.723886 
L 311.095636 469.723886 
L 316.854818 469.723886 
L 322.614 469.723886 
L 328.373182 469.723886 
L 334.132364 469.723886 
L 339.891545 469.723886 
L 345.650727 469.723886 
L 351.409909 469.723886 
L 357.169091 469.723886 
L 362.928273 469.723886 
L 368.687455 469.723886 
L 374.446636 469.723886 
L 380.205818 469.723886 
L 385.965 469.723886 
L 391.724182 469.723886 
L 397.483364 469.723886 
L 403.242545 469.723886 
L 409.001727 469.723886 
L 414.760909 469.723886 
L 420.520091 469.723886 
L 426.279273 469.723886 
L 432.038455 469.723886 
L 437.797636 469.723886 
L 443.556818 469.723886 
L 449.316 469.723886 
L 455.075182 469.723886 
L 460.834364 469.723886 
L 466.593545 469.723886 
L 472.352727 469.723886 
L 478.111909 469.723886 
L 483.871091 469.723886 
L 489.630273 469.723886 
L 495.389455 469.723886 
L 501.148636 469.723886 
L 506.907818 469.723886 
L 512.667 469.723886 
L 518.426182 469.723886 
L 524.185364 469.723886 
L 529.944545 469.723886 
L 535.703727 469.723886 
L 541.462909 469.723886 
L 547.222091 469.723886 
L 552.981273 469.723886 
L 558.740455 469.723886 
L 564.499636 469.723886 
L 570.258818 469.723886 
L 576.018 469.723886 
L 581.777182 469.723886 
L 587.536364 469.723886 
L 593.295545 469.723886 
L 599.054727 469.723886 
L 604.813909 469.723886 
L 610.573091 469.723886 
L 616.332273 469.723886 
L 622.091455 469.723886 
L 627.850636 469.723886 
L 633.609818 469.723886 
L 639.369 469.723886 
L 645.128182 469.723886 
L 650.887364 469.723886 
L 656.646545 469.723886 
L 662.405727 469.723886 
L 668.164909 469.723886 
L 673.924091 469.723886 
" style="fill:none;stroke:#6495ed;stroke-dasharray:2,3.3;stroke-dashoffset:0;stroke-width:2;"/>
   </g>
   <g id="line2d_37">
    <path clip-path="url(#p0f408b8e2e)" d="M 98.005909 474.033815 
L 103.765091 474.033815 
L 109.524273 474.033815 
L 115.283455 474.033815 
L 121.042636 474.033815 
L 126.801818 474.033815 
L 132.561 474.033815 
L 138.320182 474.033815 
L 144.079364 474.033815 
L 149.838545 474.033815 
L 155.597727 474.033815 
L 161.356909 474.033815 
L 167.116091 474.033815 
L 172.875273 474.033815 
L 178.634455 474.033815 
L 184.393636 474.033815 
L 190.152818 474.033815 
L 195.912 474.033815 
L 201.671182 474.033815 
L 207.430364 474.033815 
L 213.189545 474.033815 
L 218.948727 474.033815 
L 224.707909 474.033815 
L 230.467091 474.033815 
L 236.226273 474.033815 
L 241.985455 474.033815 
L 247.744636 474.033815 
L 253.503818 474.033815 
L 259.263 474.033815 
L 265.022182 474.033815 
L 270.781364 474.033815 
L 276.540545 474.033815 
L 282.299727 474.033815 
L 288.058909 474.033815 
L 293.818091 474.033815 
L 299.577273 474.033815 
L 305.336455 474.033815 
L 311.095636 474.033815 
L 316.854818 474.033815 
L 322.614 474.033815 
L 328.373182 474.033815 
L 334.132364 474.033815 
L 339.891545 474.033815 
L 345.650727 474.033815 
L 351.409909 474.033815 
L 357.169091 474.033815 
L 362.928273 474.033815 
L 368.687455 474.033815 
L 374.446636 474.033815 
L 380.205818 474.033815 
L 385.965 474.033815 
L 391.724182 474.033815 
L 397.483364 474.033815 
L 403.242545 474.033815 
L 409.001727 474.033815 
L 414.760909 474.033815 
L 420.520091 474.033815 
L 426.279273 474.033815 
L 432.038455 474.033815 
L 437.797636 474.033815 
L 443.556818 474.033815 
L 449.316 474.033815 
L 455.075182 474.033815 
L 460.834364 474.033815 
L 466.593545 474.033815 
L 472.352727 474.033815 
L 478.111909 474.033815 
L 483.871091 474.033815 
L 489.630273 474.033815 
L 495.389455 474.033815 
L 501.148636 474.033815 
L 506.907818 474.033815 
L 512.667 474.033815 
L 518.426182 474.033815 
L 524.185364 474.033815 
L 529.944545 474.033815 
L 535.703727 474.033815 
L 541.462909 474.033815 
L 547.222091 474.033815 
L 552.981273 474.033815 
L 558.740455 474.033815 
L 564.499636 474.033815 
L 570.258818 474.033815 
L 576.018 474.033815 
L 581.777182 474.033815 
L 587.536364 474.033815 
L 593.295545 474.033815 
L 599.054727 474.033815 
L 604.813909 474.033815 
L 610.573091 474.033815 
L 616.332273 474.033815 
L 622.091455 474.033815 
L 627.850636 474.033815 
L 633.609818 474.033815 
L 639.369 474.033815 
L 645.128182 474.033815 
L 650.887364 474.033815 
L 656.646545 474.033815 
L 662.405727 474.033815 
L 668.164909 474.033815 
L 673.924091 474.033815 
" style="fill:none;stroke:#6495ed;stroke-dasharray:2,3.3;stroke-dashoffset:0;stroke-width:2;"/>
   </g>
   <g id="line2d_38">
    <path clip-path="url(#p0f408b8e2e)" d="M 98.005909 470.8732 
L 103.765091 470.8732 
L 109.524273 470.8732 
L 115.283455 470.8732 
L 121.042636 470.8732 
L 126.801818 470.8732 
L 132.561 470.8732 
L 138.320182 470.8732 
L 144.079364 470.8732 
L 149.838545 470.8732 
L 155.597727 470.8732 
L 161.356909 470.8732 
L 167.116091 470.8732 
L 172.875273 470.8732 
L 178.634455 470.8732 
L 184.393636 470.8732 
L 190.152818 470.8732 
L 195.912 470.8732 
L 201.671182 470.8732 
L 207.430364 470.8732 
L 213.189545 470.8732 
L 218.948727 470.8732 
L 224.707909 470.8732 
L 230.467091 470.8732 
L 236.226273 470.8732 
L 241.985455 470.8732 
L 247.744636 470.8732 
L 253.503818 470.8732 
L 259.263 470.8732 
L 265.022182 470.8732 
L 270.781364 470.8732 
L 276.540545 470.8732 
L 282.299727 470.8732 
L 288.058909 470.8732 
L 293.818091 470.8732 
L 299.577273 470.8732 
L 305.336455 470.8732 
L 311.095636 470.8732 
L 316.854818 470.8732 
L 322.614 470.8732 
L 328.373182 470.8732 
L 334.132364 470.8732 
L 339.891545 470.8732 
L 345.650727 470.8732 
L 351.409909 470.8732 
L 357.169091 470.8732 
L 362.928273 470.8732 
L 368.687455 470.8732 
L 374.446636 470.8732 
L 380.205818 470.8732 
L 385.965 470.8732 
L 391.724182 470.8732 
L 397.483364 470.8732 
L 403.242545 470.8732 
L 409.001727 470.8732 
L 414.760909 470.8732 
L 420.520091 470.8732 
L 426.279273 470.8732 
L 432.038455 470.8732 
L 437.797636 470.8732 
L 443.556818 470.8732 
L 449.316 470.8732 
L 455.075182 470.8732 
L 460.834364 470.8732 
L 466.593545 470.8732 
L 472.352727 470.8732 
L 478.111909 470.8732 
L 483.871091 470.8732 
L 489.630273 470.8732 
L 495.389455 470.8732 
L 501.148636 470.8732 
L 506.907818 470.8732 
L 512.667 470.8732 
L 518.426182 470.8732 
L 524.185364 470.8732 
L 529.944545 470.8732 
L 535.703727 470.8732 
L 541.462909 470.8732 
L 547.222091 470.8732 
L 552.981273 470.8732 
L 558.740455 470.8732 
L 564.499636 470.8732 
L 570.258818 470.8732 
L 576.018 470.8732 
L 581.777182 470.8732 
L 587.536364 470.8732 
L 593.295545 470.8732 
L 599.054727 470.8732 
L 604.813909 470.8732 
L 610.573091 470.8732 
L 616.332273 470.8732 
L 622.091455 470.8732 
L 627.850636 470.8732 
L 633.609818 470.8732 
L 639.369 470.8732 
L 645.128182 470.8732 
L 650.887364 470.8732 
L 656.646545 470.8732 
L 662.405727 470.8732 
L 668.164909 470.8732 
L 673.924091 470.8732 
" style="fill:none;stroke:#6495ed;stroke-dasharray:2,3.3;stroke-dashoffset:0;stroke-width:2;"/>
   </g>
   <g id="line2d_39">
    <path clip-path="url(#p0f408b8e2e)" d="M 98.005909 467.521033 
L 103.765091 467.521033 
L 109.524273 467.521033 
L 115.283455 467.521033 
L 121.042636 467.521033 
L 126.801818 467.521033 
L 132.561 467.521033 
L 138.320182 467.521033 
L 144.079364 467.521033 
L 149.838545 467.521033 
L 155.597727 467.521033 
L 161.356909 467.521033 
L 167.116091 467.521033 
L 172.875273 467.521033 
L 178.634455 467.521033 
L 184.393636 467.521033 
L 190.152818 467.521033 
L 195.912 467.521033 
L 201.671182 467.521033 
L 207.430364 467.521033 
L 213.189545 467.521033 
L 218.948727 467.521033 
L 224.707909 467.521033 
L 230.467091 467.521033 
L 236.226273 467.521033 
L 241.985455 467.521033 
L 247.744636 467.521033 
L 253.503818 467.521033 
L 259.263 467.521033 
L 265.022182 467.521033 
L 270.781364 467.521033 
L 276.540545 467.521033 
L 282.299727 467.521033 
L 288.058909 467.521033 
L 293.818091 467.521033 
L 299.577273 467.521033 
L 305.336455 467.521033 
L 311.095636 467.521033 
L 316.854818 467.521033 
L 322.614 467.521033 
L 328.373182 467.521033 
L 334.132364 467.521033 
L 339.891545 467.521033 
L 345.650727 467.521033 
L 351.409909 467.521033 
L 357.169091 467.521033 
L 362.928273 467.521033 
L 368.687455 467.521033 
L 374.446636 467.521033 
L 380.205818 467.521033 
L 385.965 467.521033 
L 391.724182 467.521033 
L 397.483364 467.521033 
L 403.242545 467.521033 
L 409.001727 467.521033 
L 414.760909 467.521033 
L 420.520091 467.521033 
L 426.279273 467.521033 
L 432.038455 467.521033 
L 437.797636 467.521033 
L 443.556818 467.521033 
L 449.316 467.521033 
L 455.075182 467.521033 
L 460.834364 467.521033 
L 466.593545 467.521033 
L 472.352727 467.521033 
L 478.111909 467.521033 
L 483.871091 467.521033 
L 489.630273 467.521033 
L 495.389455 467.521033 
L 501.148636 467.521033 
L 506.907818 467.521033 
L 512.667 467.521033 
L 518.426182 467.521033 
L 524.185364 467.521033 
L 529.944545 467.521033 
L 535.703727 467.521033 
L 541.462909 467.521033 
L 547.222091 467.521033 
L 552.981273 467.521033 
L 558.740455 467.521033 
L 564.499636 467.521033 
L 570.258818 467.521033 
L 576.018 467.521033 
L 581.777182 467.521033 
L 587.536364 467.521033 
L 593.295545 467.521033 
L 599.054727 467.521033 
L 604.813909 467.521033 
L 610.573091 467.521033 
L 616.332273 467.521033 
L 622.091455 467.521033 
L 627.850636 467.521033 
L 633.609818 467.521033 
L 639.369 467.521033 
L 645.128182 467.521033 
L 650.887364 467.521033 
L 656.646545 467.521033 
L 662.405727 467.521033 
L 668.164909 467.521033 
L 673.924091 467.521033 
" style="fill:none;stroke:#6495ed;stroke-dasharray:2,3.3;stroke-dashoffset:0;stroke-width:2;"/>
   </g>
   <g id="line2d_40">
    <path clip-path="url(#p0f408b8e2e)" d="M 98.005909 470.106991 
L 103.765091 470.106991 
L 109.524273 470.106991 
L 115.283455 470.106991 
L 121.042636 470.106991 
L 126.801818 470.106991 
L 132.561 470.106991 
L 138.320182 470.106991 
L 144.079364 470.106991 
L 149.838545 470.106991 
L 155.597727 470.106991 
L 161.356909 470.106991 
L 167.116091 470.106991 
L 172.875273 470.106991 
L 178.634455 470.106991 
L 184.393636 470.106991 
L 190.152818 470.106991 
L 195.912 470.106991 
L 201.671182 470.106991 
L 207.430364 470.106991 
L 213.189545 470.106991 
L 218.948727 470.106991 
L 224.707909 470.106991 
L 230.467091 470.106991 
L 236.226273 470.106991 
L 241.985455 470.106991 
L 247.744636 470.106991 
L 253.503818 470.106991 
L 259.263 470.106991 
L 265.022182 470.106991 
L 270.781364 470.106991 
L 276.540545 470.106991 
L 282.299727 470.106991 
L 288.058909 470.106991 
L 293.818091 470.106991 
L 299.577273 470.106991 
L 305.336455 470.106991 
L 311.095636 470.106991 
L 316.854818 470.106991 
L 322.614 470.106991 
L 328.373182 470.106991 
L 334.132364 470.106991 
L 339.891545 470.106991 
L 345.650727 470.106991 
L 351.409909 470.106991 
L 357.169091 470.106991 
L 362.928273 470.106991 
L 368.687455 470.106991 
L 374.446636 470.106991 
L 380.205818 470.106991 
L 385.965 470.106991 
L 391.724182 470.106991 
L 397.483364 470.106991 
L 403.242545 470.106991 
L 409.001727 470.106991 
L 414.760909 470.106991 
L 420.520091 470.106991 
L 426.279273 470.106991 
L 432.038455 470.106991 
L 437.797636 470.106991 
L 443.556818 470.106991 
L 449.316 470.106991 
L 455.075182 470.106991 
L 460.834364 470.106991 
L 466.593545 470.106991 
L 472.352727 470.106991 
L 478.111909 470.106991 
L 483.871091 470.106991 
L 489.630273 470.106991 
L 495.389455 470.106991 
L 501.148636 470.106991 
L 506.907818 470.106991 
L 512.667 470.106991 
L 518.426182 470.106991 
L 524.185364 470.106991 
L 529.944545 470.106991 
L 535.703727 470.106991 
L 541.462909 470.106991 
L 547.222091 470.106991 
L 552.981273 470.106991 
L 558.740455 470.106991 
L 564.499636 470.106991 
L 570.258818 470.106991 
L 576.018 470.106991 
L 581.777182 470.106991 
L 587.536364 470.106991 
L 593.295545 470.106991 
L 599.054727 470.106991 
L 604.813909 470.106991 
L 610.573091 470.106991 
L 616.332273 470.106991 
L 622.091455 470.106991 
L 627.850636 470.106991 
L 633.609818 470.106991 
L 639.369 470.106991 
L 645.128182 470.106991 
L 650.887364 470.106991 
L 656.646545 470.106991 
L 662.405727 470.106991 
L 668.164909 470.106991 
L 673.924091 470.106991 
" style="fill:none;stroke:#6495ed;stroke-dasharray:2,3.3;stroke-dashoffset:0;stroke-width:2;"/>
   </g>
   <g id="line2d_41">
    <path clip-path="url(#p0f408b8e2e)" d="M 98.005909 468.430907 
L 103.765091 468.430907 
L 109.524273 468.430907 
L 115.283455 468.430907 
L 121.042636 468.430907 
L 126.801818 468.430907 
L 132.561 468.430907 
L 138.320182 468.430907 
L 144.079364 468.430907 
L 149.838545 468.430907 
L 155.597727 468.430907 
L 161.356909 468.430907 
L 167.116091 468.430907 
L 172.875273 468.430907 
L 178.634455 468.430907 
L 184.393636 468.430907 
L 190.152818 468.430907 
L 195.912 468.430907 
L 201.671182 468.430907 
L 207.430364 468.430907 
L 213.189545 468.430907 
L 218.948727 468.430907 
L 224.707909 468.430907 
L 230.467091 468.430907 
L 236.226273 468.430907 
L 241.985455 468.430907 
L 247.744636 468.430907 
L 253.503818 468.430907 
L 259.263 468.430907 
L 265.022182 468.430907 
L 270.781364 468.430907 
L 276.540545 468.430907 
L 282.299727 468.430907 
L 288.058909 468.430907 
L 293.818091 468.430907 
L 299.577273 468.430907 
L 305.336455 468.430907 
L 311.095636 468.430907 
L 316.854818 468.430907 
L 322.614 468.430907 
L 328.373182 468.430907 
L 334.132364 468.430907 
L 339.891545 468.430907 
L 345.650727 468.430907 
L 351.409909 468.430907 
L 357.169091 468.430907 
L 362.928273 468.430907 
L 368.687455 468.430907 
L 374.446636 468.430907 
L 380.205818 468.430907 
L 385.965 468.430907 
L 391.724182 468.430907 
L 397.483364 468.430907 
L 403.242545 468.430907 
L 409.001727 468.430907 
L 414.760909 468.430907 
L 420.520091 468.430907 
L 426.279273 468.430907 
L 432.038455 468.430907 
L 437.797636 468.430907 
L 443.556818 468.430907 
L 449.316 468.430907 
L 455.075182 468.430907 
L 460.834364 468.430907 
L 466.593545 468.430907 
L 472.352727 468.430907 
L 478.111909 468.430907 
L 483.871091 468.430907 
L 489.630273 468.430907 
L 495.389455 468.430907 
L 501.148636 468.430907 
L 506.907818 468.430907 
L 512.667 468.430907 
L 518.426182 468.430907 
L 524.185364 468.430907 
L 529.944545 468.430907 
L 535.703727 468.430907 
L 541.462909 468.430907 
L 547.222091 468.430907 
L 552.981273 468.430907 
L 558.740455 468.430907 
L 564.499636 468.430907 
L 570.258818 468.430907 
L 576.018 468.430907 
L 581.777182 468.430907 
L 587.536364 468.430907 
L 593.295545 468.430907 
L 599.054727 468.430907 
L 604.813909 468.430907 
L 610.573091 468.430907 
L 616.332273 468.430907 
L 622.091455 468.430907 
L 627.850636 468.430907 
L 633.609818 468.430907 
L 639.369 468.430907 
L 645.128182 468.430907 
L 650.887364 468.430907 
L 656.646545 468.430907 
L 662.405727 468.430907 
L 668.164909 468.430907 
L 673.924091 468.430907 
" style="fill:none;stroke:#6495ed;stroke-dasharray:2,3.3;stroke-dashoffset:0;stroke-width:2;"/>
   </g>
   <g id="line2d_42">
    <path clip-path="url(#p0f408b8e2e)" d="M 98.005909 476.188779 
L 103.765091 441.225677 
L 109.524273 407.756684 
L 115.283455 401.181648 
L 121.042636 381.935421 
L 126.801818 326.184095 
L 132.561 326.337337 
L 138.320182 333.300267 
L 144.079364 299.333237 
L 149.838545 269.154157 
L 155.597727 269.360075 
L 161.356909 291.297614 
L 167.116091 273.047459 
L 172.875273 244.094314 
L 178.634455 246.914923 
L 184.393636 267.8516 
L 190.152818 258.743284 
L 195.912 272.214206 
L 201.671182 260.342746 
L 207.430364 235.153606 
L 213.189545 234.344297 
L 218.948727 210.721097 
L 224.707909 180.230744 
L 230.467091 200.88967 
L 236.226273 172.635691 
L 241.985455 186.427464 
L 247.744636 178.109301 
L 253.503818 169.13986 
L 259.263 143.984241 
L 265.022182 132.289967 
L 270.781364 127.314393 
L 276.540545 124.273499 
L 282.299727 130.795858 
L 288.058909 140.076572 
L 293.818091 110.879197 
L 299.577273 109.370722 
L 305.336455 107.40731 
L 311.095636 104.51008 
L 316.854818 118.206077 
L 322.614 115.763783 
L 328.373182 95.626837 
L 334.132364 107.680272 
L 339.891545 96.029097 
L 345.650727 89.142789 
L 351.409909 85.383573 
L 357.169091 76.936112 
L 362.928273 82.591697 
L 368.687455 88.510666 
L 374.446636 81.236463 
L 380.205818 78.123737 
L 385.965 71.084186 
L 391.724182 65.706353 
L 397.483364 74.642272 
L 403.242545 67.60751 
L 409.001727 69.518245 
L 414.760909 70.590939 
L 420.520091 62.239254 
L 426.279273 62.952787 
L 432.038455 65.399869 
L 437.797636 66.276221 
L 443.556818 61.176138 
L 449.316 62.430806 
L 455.075182 60.749934 
L 460.834364 61.961503 
L 466.593545 59.782595 
L 472.352727 59.744284 
L 478.111909 58.939764 
L 483.871091 58.317219 
L 489.630273 56.30113 
L 495.389455 58.83441 
L 501.148636 56.899731 
L 506.907818 55.874926 
L 512.667 55.185337 
L 518.426182 55.463088 
L 524.185364 56.827899 
L 529.944545 55.798305 
L 535.703727 56.023379 
L 541.462909 55.09435 
L 547.222091 53.504465 
L 552.981273 54.926741 
L 558.740455 54.629835 
L 564.499636 52.795721 
L 570.258818 53.083049 
L 576.018 53.394322 
L 581.777182 53.408688 
L 587.536364 52.992062 
L 593.295545 52.23543 
L 599.054727 52.819665 
L 604.813909 52.192331 
L 610.573091 52.077399 
L 616.332273 51.71345 
L 622.091455 51.732605 
L 627.850636 51.244146 
L 633.609818 52.187542 
L 639.369 51.402177 
L 645.128182 51.799648 
L 650.887364 51.095693 
L 656.646545 50.722166 
L 662.405727 50.774843 
L 668.164909 50.631179 
L 673.924091 51.009495 
" style="fill:none;stroke:#ff8c00;stroke-linecap:square;stroke-width:2;"/>
   </g>
   <g id="line2d_43">
    <path clip-path="url(#p0f408b8e2e)" d="M 98.005909 476.188779 
L 103.765091 431.968908 
L 109.524273 411.496745 
L 115.283455 197.633279 
L 121.042636 136.930324 
L 126.801818 113.173037 
L 132.561 104.466981 
L 138.320182 101.162702 
L 144.079364 97.772224 
L 149.838545 90.962536 
L 155.597727 86.312602 
L 161.356909 85.369206 
L 167.116091 81.859009 
L 172.875273 95.459229 
L 178.634455 79.756721 
L 184.393636 78.492475 
L 190.152818 88.620808 
L 195.912 86.101894 
L 201.671182 85.105822 
L 207.430364 82.146337 
L 213.189545 77.137242 
L 218.948727 74.273534 
L 224.707909 75.01101 
L 230.467091 94.300337 
L 236.226273 73.526479 
L 241.985455 71.654055 
L 247.744636 71.927017 
L 253.503818 74.556073 
L 259.263 83.54467 
L 265.022182 71.031509 
L 270.781364 70.370653 
L 276.540545 69.652332 
L 282.299727 92.07354 
L 288.058909 69.230917 
L 293.818091 67.92836 
L 299.577273 68.378509 
L 305.336455 76.09807 
L 311.095636 72.180824 
L 316.854818 65.859594 
L 322.614 65.409446 
L 328.373182 65.577055 
L 334.132364 69.542189 
L 339.891545 70.629249 
L 345.650727 74.867346 
L 351.409909 67.075952 
L 357.169091 70.389809 
L 362.928273 73.943106 
L 368.687455 64.988031 
L 374.446636 64.504361 
L 380.205818 66.223544 
L 385.965 64.1883 
L 391.724182 67.621877 
L 397.483364 82.160704 
L 403.242545 62.397285 
L 409.001727 62.61757 
L 414.760909 62.871377 
L 420.520091 62.311086 
L 426.279273 62.267987 
L 432.038455 63.38378 
L 437.797636 71.668421 
L 443.556818 74.105925 
L 449.316 62.119534 
L 455.075182 62.109956 
L 460.834364 62.066857 
L 466.593545 60.567959 
L 472.352727 92.193261 
L 478.111909 62.086012 
L 483.871091 61.463467 
L 489.630273 61.281492 
L 495.389455 60.706835 
L 501.148636 64.001536 
L 506.907818 60.788245 
L 512.667 67.411169 
L 518.426182 62.287142 
L 524.185364 60.922331 
L 529.944545 59.667663 
L 535.703727 60.745145 
L 541.462909 59.35639 
L 547.222091 65.725508 
L 552.981273 61.204871 
L 558.740455 89.736601 
L 564.499636 75.465947 
L 570.258818 59.825694 
L 576.018 59.92147 
L 581.777182 60.199221 
L 587.536364 58.949342 
L 593.295545 59.816116 
L 599.054727 60.491338 
L 604.813909 62.181788 
L 610.573091 66.11819 
L 616.332273 59.375546 
L 622.091455 58.762578 
L 627.850636 62.267987 
L 633.609818 59.409067 
L 639.369 59.107372 
L 645.128182 60.036401 
L 650.887364 78.564307 
L 656.646545 88.707007 
L 662.405727 58.824833 
L 668.164909 58.662013 
L 673.924091 59.207937 
" style="fill:none;stroke:#32cd32;stroke-linecap:square;stroke-width:2;"/>
   </g>
   <g id="line2d_44">
    <path clip-path="url(#p0f408b8e2e)" d="M 98.005909 476.188779 
L 103.765091 454.49547 
L 109.524273 442.006254 
L 115.283455 454.318284 
L 121.042636 460.189365 
L 126.801818 454.078844 
L 132.561 420.399143 
L 138.320182 359.710554 
L 144.079364 322.554177 
L 149.838545 304.9553 
L 155.597727 292.097345 
L 161.356909 280.36955 
L 167.116091 267.080602 
L 172.875273 255.582669 
L 178.634455 246.08167 
L 184.393636 242.801335 
L 190.152818 233.985136 
L 195.912 228.621669 
L 201.671182 221.764093 
L 207.430364 219.427154 
L 213.189545 213.963121 
L 218.948727 212.603099 
L 224.707909 210.58701 
L 230.467091 207.637103 
L 236.226273 202.877026 
L 241.985455 201.488271 
L 247.744636 202.570542 
L 253.503818 202.680685 
L 259.263 198.648507 
L 265.022182 196.172692 
L 270.781364 197.513559 
L 276.540545 199.735567 
L 282.299727 189.58329 
L 288.058909 188.309466 
L 293.818091 191.259373 
L 299.577273 189.722165 
L 305.336455 190.148369 
L 311.095636 191.575435 
L 316.854818 185.522379 
L 322.614 193.783076 
L 328.373182 187.629455 
L 334.132364 184.34912 
L 339.891545 189.449203 
L 345.650727 189.530613 
L 351.409909 186.326899 
L 357.169091 182.347398 
L 362.928273 184.483207 
L 368.687455 189.511457 
L 374.446636 187.131419 
L 380.205818 183.027409 
L 385.965 193.716033 
L 391.724182 178.300853 
L 397.483364 179.617776 
L 403.242545 193.754343 
L 409.001727 186.293377 
L 414.760909 187.629455 
L 420.520091 186.140135 
L 426.279273 184.933355 
L 432.038455 187.107475 
L 437.797636 180.604271 
L 443.556818 187.102686 
L 449.316 194.214069 
L 455.075182 184.856734 
L 460.834364 188.261578 
L 466.593545 189.808364 
L 472.352727 181.672175 
L 478.111909 186.183235 
L 483.871091 187.294238 
L 489.630273 184.464052 
L 495.389455 193.251518 
L 501.148636 192.700805 
L 506.907818 189.305539 
L 512.667 193.960262 
L 518.426182 191.446137 
L 524.185364 207.938798 
L 529.944545 192.260234 
L 535.703727 189.856252 
L 541.462909 197.566236 
L 547.222091 182.246833 
L 552.981273 194.487031 
L 558.740455 193.428704 
L 564.499636 199.309363 
L 570.258818 195.119154 
L 576.018 194.357733 
L 581.777182 196.029028 
L 587.536364 202.757306 
L 593.295545 208.09204 
L 599.054727 198.380334 
L 604.813909 200.659807 
L 610.573091 195.387327 
L 616.332273 201.335029 
L 622.091455 193.562791 
L 627.850636 208.25486 
L 633.609818 211.041947 
L 639.369 206.128628 
L 645.128182 198.567097 
L 650.887364 210.007564 
L 656.646545 210.816873 
L 662.405727 211.707592 
L 668.164909 212.617466 
L 673.924091 208.355425 
" style="fill:none;stroke:#800080;stroke-linecap:square;stroke-width:2;"/>
   </g>
   <g id="patch_3">
    <path d="M 69.21 516.75 
L 69.21 37.869 
" style="fill:none;stroke:#000000;stroke-linecap:square;stroke-linejoin:miter;stroke-width:0.8;"/>
   </g>
   <g id="patch_4">
    <path d="M 702.72 516.75 
L 702.72 37.869 
" style="fill:none;stroke:#000000;stroke-linecap:square;stroke-linejoin:miter;stroke-width:0.8;"/>
   </g>
   <g id="patch_5">
    <path d="M 69.21 516.75 
L 702.72 516.75 
" style="fill:none;stroke:#000000;stroke-linecap:square;stroke-linejoin:miter;stroke-width:0.8;"/>
   </g>
   <g id="patch_6">
    <path d="M 69.21 37.869 
L 702.72 37.869 
" style="fill:none;stroke:#000000;stroke-linecap:square;stroke-linejoin:miter;stroke-width:0.8;"/>
   </g>
   <g id="PolyCollection_3">
    <defs>
     <path d="M 98.005909 -99.811221 
L 98.005909 -99.811221 
L 103.765091 -161.922086 
L 109.524273 -205.787586 
L 115.283455 -233.131691 
L 121.042636 -264.498397 
L 126.801818 -331.97273 
L 132.561 -315.690775 
L 138.320182 -379.33406 
L 144.079364 -390.108883 
L 149.838545 -350.888529 
L 155.597727 -379.477725 
L 161.356909 -374.30581 
L 167.116091 -345.764502 
L 172.875273 -412.807842 
L 178.634455 -383.548213 
L 184.393636 -404.04432 
L 190.152818 -451.740868 
L 195.912 -407.923256 
L 201.671182 -429.281349 
L 207.430364 -447.478827 
L 213.189545 -447.526715 
L 218.948727 -443.216786 
L 224.707909 -460.456502 
L 230.467091 -448.91547 
L 236.226273 -471.422877 
L 241.985455 -451.501427 
L 247.744636 -480.377951 
L 253.503818 -479.994847 
L 259.263 -482.724468 
L 265.022182 -493.547179 
L 270.781364 -497.80922 
L 276.540545 -488.423152 
L 282.299727 -488.854145 
L 288.058909 -473.003184 
L 293.818091 -508.344602 
L 299.577273 -507.338952 
L 305.336455 -499.05431 
L 311.095636 -500.682506 
L 316.854818 -496.947234 
L 322.614 -498.623317 
L 328.373182 -508.105161 
L 334.132364 -504.082561 
L 339.891545 -516.006698 
L 345.650727 -507.769945 
L 351.409909 -510.978447 
L 357.169091 -515.575705 
L 362.928273 -510.308014 
L 368.687455 -511.744657 
L 374.446636 -510.499566 
L 380.205818 -515.1926 
L 385.965 -517.060236 
L 391.724182 -516.868684 
L 397.483364 -514.426391 
L 403.242545 -516.485579 
L 409.001727 -518.640543 
L 414.760909 -517.443341 
L 420.520091 -521.513829 
L 426.279273 -519.358865 
L 432.038455 -520.795508 
L 437.797636 -521.178613 
L 443.556818 -520.412403 
L 449.316 -520.795508 
L 455.075182 -520.077186 
L 460.834364 -522.75892 
L 466.593545 -522.280039 
L 472.352727 -521.082836 
L 478.111909 -520.98706 
L 483.871091 -523.620906 
L 489.630273 -521.657494 
L 495.389455 -521.944822 
L 501.148636 -523.908234 
L 506.907818 -522.75892 
L 512.667 -523.477241 
L 518.426182 -522.854696 
L 524.185364 -523.668794 
L 529.944545 -524.387115 
L 535.703727 -523.860346 
L 541.462909 -523.76457 
L 547.222091 -524.004011 
L 552.981273 -523.189913 
L 558.740455 -524.004011 
L 564.499636 -524.818108 
L 570.258818 -524.722332 
L 576.018 -525.249101 
L 581.777182 -525.105437 
L 587.536364 -524.482892 
L 593.295545 -525.344877 
L 599.054727 -524.626556 
L 604.813909 -525.249101 
L 610.573091 -525.296989 
L 616.332273 -525.823758 
L 622.091455 -525.249101 
L 627.850636 -525.392765 
L 633.609818 -525.057549 
L 639.369 -525.488542 
L 645.128182 -525.392765 
L 650.887364 -525.632206 
L 656.646545 -526.015311 
L 662.405727 -526.302639 
L 668.164909 -526.350527 
L 673.924091 -526.111087 
L 673.924091 -523.52513 
L 673.924091 -523.52513 
L 668.164909 -523.76457 
L 662.405727 -523.716682 
L 656.646545 -524.435003 
L 650.887364 -524.051899 
L 645.128182 -521.944822 
L 639.369 -523.381465 
L 633.609818 -520.939172 
L 627.850636 -523.620906 
L 622.091455 -521.849046 
L 616.332273 -521.705382 
L 610.573091 -522.519479 
L 604.813909 -522.423703 
L 599.054727 -521.849046 
L 593.295545 -522.711032 
L 587.536364 -519.646193 
L 581.777182 -520.029298 
L 576.018 -519.550417 
L 570.258818 -520.412403 
L 564.499636 -521.082836 
L 558.740455 -517.060236 
L 552.981273 -514.761607 
L 547.222091 -518.257439 
L 541.462909 -516.772907 
L 535.703727 -511.217888 
L 529.944545 -515.575705 
L 524.185364 -515.767257 
L 518.426182 -515.144712 
L 512.667 -516.916572 
L 506.907818 -516.581355 
L 501.148636 -515.719369 
L 495.389455 -502.406477 
L 489.630273 -516.868684 
L 483.871091 -506.812183 
L 478.111909 -509.493916 
L 472.352727 -504.705106 
L 466.593545 -508.105161 
L 460.834364 -494.457053 
L 455.075182 -505.567092 
L 449.316 -501.640268 
L 443.556818 -506.429078 
L 437.797636 -501.975484 
L 432.038455 -496.755682 
L 426.279273 -491.200662 
L 420.520091 -506.668518 
L 414.760909 -488.518928 
L 409.001727 -478.701868 
L 403.242545 -495.079598 
L 397.483364 -484.161111 
L 391.724182 -504.561442 
L 385.965 -465.341088 
L 380.205818 -463.712893 
L 374.446636 -455.188811 
L 368.687455 -452.123972 
L 362.928273 -464.766431 
L 357.169091 -482.772356 
L 351.409909 -474.631379 
L 345.650727 -451.501427 
L 339.891545 -437.039221 
L 334.132364 -392.072295 
L 328.373182 -454.278937 
L 322.614 -382.015794 
L 316.854818 -372.198733 
L 311.095636 -426.98272 
L 305.336455 -423.582665 
L 299.577273 -399.830167 
L 293.818091 -396.478 
L 288.058909 -360.466149 
L 282.299727 -390.013107 
L 276.540545 -428.323587 
L 270.781364 -377.035432 
L 265.022182 -400.117496 
L 259.263 -333.744589 
L 253.503818 -273.405583 
L 247.744636 -253.723574 
L 241.985455 -283.31842 
L 236.226273 -269.095654 
L 230.467091 -289.017104 
L 224.707909 -340.975692 
L 218.948727 -267.323795 
L 213.189545 -176.096964 
L 207.430364 -174.803985 
L 201.671182 -157.995262 
L 195.912 -126.389116 
L 190.152818 -130.651157 
L 184.393636 -127.107438 
L 178.634455 -252.622148 
L 172.875273 -258.129279 
L 167.116091 -253.292581 
L 161.356909 -111.256477 
L 155.597727 -201.477657 
L 149.838545 -200.376231 
L 144.079364 -190.176065 
L 138.320182 -161.682646 
L 132.561 -169.823623 
L 126.801818 -131.704695 
L 121.042636 -119.349566 
L 115.283455 -116.667832 
L 109.524273 -106.611331 
L 103.765091 -101.966185 
L 98.005909 -99.811221 
z
" id="m54458c14a2" style="stroke:#ff8c00;stroke-opacity:0.5;"/>
    </defs>
    <g clip-path="url(#p0f408b8e2e)">
     <use style="fill:#ff8c00;fill-opacity:0.5;stroke:#ff8c00;stroke-opacity:0.5;" x="0" xlink:href="#m54458c14a2" y="576"/>
    </g>
   </g>
   <g id="text_18">
    <!-- Validation Set Top1 Accuracy -->
    <g transform="translate(247.503 31.869)scale(0.192 -0.192)">
     <defs>
      <path d="M 1831 0 
L 50 4666 
L 709 4666 
L 2188 738 
L 3669 4666 
L 4325 4666 
L 2547 0 
L 1831 0 
z
" id="DejaVuSans-56" transform="scale(0.015625)"/>
      <path d="M 603 4863 
L 1178 4863 
L 1178 0 
L 603 0 
L 603 4863 
z
" id="DejaVuSans-6c" transform="scale(0.015625)"/>
      <path d="M 3425 4513 
L 3425 3897 
Q 3066 4069 2747 4153 
Q 2428 4238 2131 4238 
Q 1616 4238 1336 4038 
Q 1056 3838 1056 3469 
Q 1056 3159 1242 3001 
Q 1428 2844 1947 2747 
L 2328 2669 
Q 3034 2534 3370 2195 
Q 3706 1856 3706 1288 
Q 3706 609 3251 259 
Q 2797 -91 1919 -91 
Q 1588 -91 1214 -16 
Q 841 59 441 206 
L 441 856 
Q 825 641 1194 531 
Q 1563 422 1919 422 
Q 2459 422 2753 634 
Q 3047 847 3047 1241 
Q 3047 1584 2836 1778 
Q 2625 1972 2144 2069 
L 1759 2144 
Q 1053 2284 737 2584 
Q 422 2884 422 3419 
Q 422 4038 858 4394 
Q 1294 4750 2059 4750 
Q 2388 4750 2728 4690 
Q 3069 4631 3425 4513 
z
" id="DejaVuSans-53" transform="scale(0.015625)"/>
      <path d="M 3597 1894 
L 3597 1613 
L 953 1613 
Q 991 1019 1311 708 
Q 1631 397 2203 397 
Q 2534 397 2845 478 
Q 3156 559 3463 722 
L 3463 178 
Q 3153 47 2828 -22 
Q 2503 -91 2169 -91 
Q 1331 -91 842 396 
Q 353 884 353 1716 
Q 353 2575 817 3079 
Q 1281 3584 2069 3584 
Q 2775 3584 3186 3129 
Q 3597 2675 3597 1894 
z
M 3022 2063 
Q 3016 2534 2758 2815 
Q 2500 3097 2075 3097 
Q 1594 3097 1305 2825 
Q 1016 2553 972 2059 
L 3022 2063 
z
" id="DejaVuSans-65" transform="scale(0.015625)"/>
     </defs>
     <use xlink:href="#DejaVuSans-56"/>
     <use x="60.658203" xlink:href="#DejaVuSans-61"/>
     <use x="121.9375" xlink:href="#DejaVuSans-6c"/>
     <use x="149.720703" xlink:href="#DejaVuSans-69"/>
     <use x="177.503906" xlink:href="#DejaVuSans-64"/>
     <use x="240.980469" xlink:href="#DejaVuSans-61"/>
     <use x="302.259766" xlink:href="#DejaVuSans-74"/>
     <use x="341.46875" xlink:href="#DejaVuSans-69"/>
     <use x="369.251953" xlink:href="#DejaVuSans-6f"/>
     <use x="430.433594" xlink:href="#DejaVuSans-6e"/>
     <use x="493.8125" xlink:href="#DejaVuSans-20"/>
     <use x="525.599609" xlink:href="#DejaVuSans-53"/>
     <use x="589.076172" xlink:href="#DejaVuSans-65"/>
     <use x="650.599609" xlink:href="#DejaVuSans-74"/>
     <use x="689.808594" xlink:href="#DejaVuSans-20"/>
     <use x="721.595703" xlink:href="#DejaVuSans-54"/>
     <use x="765.679688" xlink:href="#DejaVuSans-6f"/>
     <use x="826.861328" xlink:href="#DejaVuSans-70"/>
     <use x="890.337891" xlink:href="#DejaVuSans-31"/>
     <use x="953.960938" xlink:href="#DejaVuSans-20"/>
     <use x="985.748047" xlink:href="#DejaVuSans-41"/>
     <use x="1052.40625" xlink:href="#DejaVuSans-63"/>
     <use x="1107.386719" xlink:href="#DejaVuSans-63"/>
     <use x="1162.367188" xlink:href="#DejaVuSans-75"/>
     <use x="1225.746094" xlink:href="#DejaVuSans-72"/>
     <use x="1266.859375" xlink:href="#DejaVuSans-61"/>
     <use x="1328.138672" xlink:href="#DejaVuSans-63"/>
     <use x="1383.119141" xlink:href="#DejaVuSans-79"/>
    </g>
   </g>
   <g id="legend_1">
    <g id="patch_7">
     <path d="M 549.2175 508.75 
L 691.52 508.75 
Q 694.72 508.75 694.72 505.55 
L 694.72 389.725 
Q 694.72 386.525 691.52 386.525 
L 549.2175 386.525 
Q 546.0175 386.525 546.0175 389.725 
L 546.0175 505.55 
Q 546.0175 508.75 549.2175 508.75 
z
" style="fill:#ffffff;opacity:0.8;stroke:#cccccc;stroke-linejoin:miter;"/>
    </g>
    <g id="line2d_45">
     <path d="M 552.4175 399.4825 
L 584.4175 399.4825 
" style="fill:none;stroke:#4b0082;stroke-dasharray:2,3.3;stroke-dashoffset:0;stroke-width:2;"/>
    </g>
    <g id="line2d_46"/>
    <g id="text_19">
     <!-- Centralized -->
     <g transform="translate(597.2175 405.0825)scale(0.16 -0.16)">
      <defs>
       <path d="M 353 3500 
L 3084 3500 
L 3084 2975 
L 922 459 
L 3084 459 
L 3084 0 
L 275 0 
L 275 525 
L 2438 3041 
L 353 3041 
L 353 3500 
z
" id="DejaVuSans-7a" transform="scale(0.015625)"/>
      </defs>
      <use xlink:href="#DejaVuSans-43"/>
      <use x="69.824219" xlink:href="#DejaVuSans-65"/>
      <use x="131.347656" xlink:href="#DejaVuSans-6e"/>
      <use x="194.726562" xlink:href="#DejaVuSans-74"/>
      <use x="233.935547" xlink:href="#DejaVuSans-72"/>
      <use x="275.048828" xlink:href="#DejaVuSans-61"/>
      <use x="336.328125" xlink:href="#DejaVuSans-6c"/>
      <use x="364.111328" xlink:href="#DejaVuSans-69"/>
      <use x="391.894531" xlink:href="#DejaVuSans-7a"/>
      <use x="444.384766" xlink:href="#DejaVuSans-65"/>
      <use x="505.908203" xlink:href="#DejaVuSans-64"/>
     </g>
    </g>
    <g id="line2d_47">
     <path d="M 552.4175 422.9675 
L 584.4175 422.9675 
" style="fill:none;stroke:#6495ed;stroke-dasharray:2,3.3;stroke-dashoffset:0;stroke-width:2;"/>
    </g>
    <g id="line2d_48"/>
    <g id="text_20">
     <!-- Individual -->
     <g transform="translate(597.2175 428.5675)scale(0.16 -0.16)">
      <defs>
       <path d="M 628 4666 
L 1259 4666 
L 1259 0 
L 628 0 
L 628 4666 
z
" id="DejaVuSans-49" transform="scale(0.015625)"/>
       <path d="M 191 3500 
L 800 3500 
L 1894 563 
L 2988 3500 
L 3597 3500 
L 2284 0 
L 1503 0 
L 191 3500 
z
" id="DejaVuSans-76" transform="scale(0.015625)"/>
      </defs>
      <use xlink:href="#DejaVuSans-49"/>
      <use x="29.492188" xlink:href="#DejaVuSans-6e"/>
      <use x="92.871094" xlink:href="#DejaVuSans-64"/>
      <use x="156.347656" xlink:href="#DejaVuSans-69"/>
      <use x="184.130859" xlink:href="#DejaVuSans-76"/>
      <use x="243.310547" xlink:href="#DejaVuSans-69"/>
      <use x="271.09375" xlink:href="#DejaVuSans-64"/>
      <use x="334.570312" xlink:href="#DejaVuSans-75"/>
      <use x="397.949219" xlink:href="#DejaVuSans-61"/>
      <use x="459.228516" xlink:href="#DejaVuSans-6c"/>
     </g>
    </g>
    <g id="line2d_49">
     <path d="M 552.4175 446.4525 
L 584.4175 446.4525 
" style="fill:none;stroke:#ff8c00;stroke-linecap:square;stroke-width:2;"/>
    </g>
    <g id="line2d_50"/>
    <g id="text_21">
     <!-- CADMM -->
     <g transform="translate(597.2175 452.0525)scale(0.16 -0.16)">
      <defs>
       <path d="M 1259 4147 
L 1259 519 
L 2022 519 
Q 2988 519 3436 956 
Q 3884 1394 3884 2338 
Q 3884 3275 3436 3711 
Q 2988 4147 2022 4147 
L 1259 4147 
z
M 628 4666 
L 1925 4666 
Q 3281 4666 3915 4102 
Q 4550 3538 4550 2338 
Q 4550 1131 3912 565 
Q 3275 0 1925 0 
L 628 0 
L 628 4666 
z
" id="DejaVuSans-44" transform="scale(0.015625)"/>
       <path d="M 628 4666 
L 1569 4666 
L 2759 1491 
L 3956 4666 
L 4897 4666 
L 4897 0 
L 4281 0 
L 4281 4097 
L 3078 897 
L 2444 897 
L 1241 4097 
L 1241 0 
L 628 0 
L 628 4666 
z
" id="DejaVuSans-4d" transform="scale(0.015625)"/>
      </defs>
      <use xlink:href="#DejaVuSans-43"/>
      <use x="69.824219" xlink:href="#DejaVuSans-41"/>
      <use x="138.232422" xlink:href="#DejaVuSans-44"/>
      <use x="215.234375" xlink:href="#DejaVuSans-4d"/>
      <use x="301.513672" xlink:href="#DejaVuSans-4d"/>
     </g>
    </g>
    <g id="line2d_51">
     <path d="M 552.4175 469.9375 
L 584.4175 469.9375 
" style="fill:none;stroke:#32cd32;stroke-linecap:square;stroke-width:2;"/>
    </g>
    <g id="line2d_52"/>
    <g id="text_22">
     <!-- DSGT -->
     <g transform="translate(597.2175 475.5375)scale(0.16 -0.16)">
      <defs>
       <path d="M 3809 666 
L 3809 1919 
L 2778 1919 
L 2778 2438 
L 4434 2438 
L 4434 434 
Q 4069 175 3628 42 
Q 3188 -91 2688 -91 
Q 1594 -91 976 548 
Q 359 1188 359 2328 
Q 359 3472 976 4111 
Q 1594 4750 2688 4750 
Q 3144 4750 3555 4637 
Q 3966 4525 4313 4306 
L 4313 3634 
Q 3963 3931 3569 4081 
Q 3175 4231 2741 4231 
Q 1884 4231 1454 3753 
Q 1025 3275 1025 2328 
Q 1025 1384 1454 906 
Q 1884 428 2741 428 
Q 3075 428 3337 486 
Q 3600 544 3809 666 
z
" id="DejaVuSans-47" transform="scale(0.015625)"/>
      </defs>
      <use xlink:href="#DejaVuSans-44"/>
      <use x="77.001953" xlink:href="#DejaVuSans-53"/>
      <use x="140.478516" xlink:href="#DejaVuSans-47"/>
      <use x="214.34375" xlink:href="#DejaVuSans-54"/>
     </g>
    </g>
    <g id="line2d_53">
     <path d="M 552.4175 493.4225 
L 584.4175 493.4225 
" style="fill:none;stroke:#800080;stroke-linecap:square;stroke-width:2;"/>
    </g>
    <g id="line2d_54"/>
    <g id="text_23">
     <!-- DSGD -->
     <g transform="translate(597.2175 499.0225)scale(0.16 -0.16)">
      <use xlink:href="#DejaVuSans-44"/>
      <use x="77.001953" xlink:href="#DejaVuSans-53"/>
      <use x="140.478516" xlink:href="#DejaVuSans-47"/>
      <use x="217.96875" xlink:href="#DejaVuSans-44"/>
     </g>
    </g>
   </g>
  </g>
 </g>
 <defs>
  <clipPath id="p0f408b8e2e">
   <rect height="478.881" width="633.51" x="69.21" y="37.869"/>
  </clipPath>
 </defs>
</svg>
