<?xml version="1.0" encoding="utf-8" standalone="no"?>
<!DOCTYPE svg PUBLIC "-//W3C//DTD SVG 1.1//EN"
  "http://www.w3.org/Graphics/SVG/1.1/DTD/svg11.dtd">
<svg height="432pt" version="1.1" viewBox="0 0 720 432" width="720pt" xmlns="http://www.w3.org/2000/svg" xmlns:xlink="http://www.w3.org/1999/xlink">
 <metadata>
  <rdf:RDF xmlns:cc="http://creativecommons.org/ns#" xmlns:dc="http://purl.org/dc/elements/1.1/" xmlns:rdf="http://www.w3.org/1999/02/22-rdf-syntax-ns#">
   <cc:Work>
    <dc:type rdf:resource="http://purl.org/dc/dcmitype/StillImage"/>
    <dc:date>2021-09-09T16:35:28.802262</dc:date>
    <dc:format>image/svg+xml</dc:format>
    <dc:creator>
     <cc:Agent>
      <dc:title>Matplotlib v3.4.3, https://matplotlib.org/</dc:title>
     </cc:Agent>
    </dc:creator>
   </cc:Work>
  </rdf:RDF>
 </metadata>
 <defs>
  <style type="text/css">*{stroke-linecap:butt;stroke-linejoin:round;}</style>
 </defs>
 <g id="figure_1">
  <g id="patch_1">
   <path d="M 0 432 
L 720 432 
L 720 0 
L 0 0 
z
" style="fill:none;"/>
  </g>
  <g id="axes_1">
   <g id="patch_2">
    <path d="M 64.125 372.75 
L 702.72 372.75 
L 702.72 21.192304 
L 64.125 21.192304 
z
" style="fill:#ffffff;"/>
   </g>
   <g id="PolyCollection_1">
    <defs>
     <path d="M 93.152045 -394.8278 
L 93.152045 -394.8278 
L 96.05475 -130.348506 
L 98.957455 -128.475001 
L 101.860159 -127.978245 
L 104.762864 -127.505688 
L 107.665568 -126.874234 
L 110.568273 -127.983328 
L 113.470977 -126.773767 
L 116.373682 -126.608129 
L 119.276386 -126.254833 
L 122.179091 -125.370727 
L 125.081795 -125.486615 
L 127.9845 -124.493139 
L 130.887205 -124.390775 
L 133.789909 -123.134158 
L 136.692614 -124.041732 
L 139.595318 -121.508807 
L 142.498023 -123.165668 
L 145.400727 -122.356973 
L 148.303432 -121.381296 
L 151.206136 -121.379499 
L 154.108841 -118.636733 
L 157.011545 -123.21561 
L 159.91425 -121.468236 
L 162.816955 -119.657558 
L 165.719659 -120.441037 
L 168.622364 -117.452946 
L 171.525068 -116.820869 
L 174.427773 -119.541747 
L 177.330477 -116.977955 
L 180.233182 -116.718331 
L 183.135886 -118.978927 
L 186.038591 -116.649475 
L 188.941295 -116.572171 
L 191.844 -117.145635 
L 194.746705 -117.83552 
L 197.649409 -114.143054 
L 200.552114 -115.680609 
L 203.454818 -114.634378 
L 206.357523 -114.903589 
L 209.260227 -114.208877 
L 212.162932 -114.541835 
L 215.065636 -112.495007 
L 217.968341 -114.408751 
L 220.871045 -111.43516 
L 223.77375 -107.878931 
L 226.676455 -115.134612 
L 229.579159 -108.535338 
L 232.481864 -110.514718 
L 235.384568 -107.04894 
L 238.287273 -115.277 
L 241.189977 -109.749984 
L 244.092682 -112.613261 
L 246.995386 -106.943039 
L 249.898091 -105.658888 
L 252.800795 -107.928469 
L 255.7035 -107.442445 
L 258.606205 -104.841793 
L 261.508909 -109.636539 
L 264.411614 -103.367397 
L 267.314318 -106.828428 
L 270.217023 -104.705738 
L 273.119727 -111.672259 
L 276.022432 -102.818092 
L 278.925136 -101.746587 
L 281.827841 -100.985887 
L 284.730545 -101.202161 
L 287.63325 -103.252953 
L 290.535955 -105.99769 
L 293.438659 -100.86411 
L 296.341364 -104.249962 
L 299.244068 -100.837107 
L 302.146773 -103.618524 
L 305.049477 -96.887389 
L 307.952182 -99.05499 
L 310.854886 -97.113064 
L 313.757591 -98.666854 
L 316.660295 -98.79496 
L 319.563 -104.303059 
L 322.465705 -100.873774 
L 325.368409 -98.226261 
L 328.271114 -94.854416 
L 331.173818 -97.190334 
L 334.076523 -99.233193 
L 336.979227 -95.19405 
L 339.881932 -94.775004 
L 342.784636 -102.90877 
L 345.687341 -94.579334 
L 348.590045 -93.153201 
L 351.49275 -98.888694 
L 354.395455 -94.507067 
L 357.298159 -96.264632 
L 360.200864 -94.740275 
L 363.103568 -97.309177 
L 366.006273 -91.661756 
L 368.908977 -93.642904 
L 371.811682 -95.066641 
L 374.714386 -92.972636 
L 377.617091 -94.134896 
L 380.519795 -94.082351 
L 383.4225 -97.967644 
L 386.325205 -95.762296 
L 389.227909 -94.744598 
L 392.130614 -92.531064 
L 395.033318 -94.040564 
L 397.936023 -92.844445 
L 400.838727 -97.350413 
L 403.741432 -99.767672 
L 406.644136 -98.75823 
L 409.546841 -92.479529 
L 412.449545 -89.506588 
L 415.35225 -93.253588 
L 418.254955 -92.957268 
L 421.157659 -92.229371 
L 424.060364 -89.133295 
L 426.963068 -88.507239 
L 429.865773 -90.795516 
L 432.768477 -90.877786 
L 435.671182 -85.337717 
L 438.573886 -90.762445 
L 441.476591 -85.776575 
L 444.379295 -85.050693 
L 447.282 -87.940401 
L 450.184705 -91.924014 
L 453.087409 -90.112668 
L 455.990114 -89.511845 
L 458.892818 -86.435738 
L 461.795523 -82.937519 
L 464.698227 -87.272675 
L 467.600932 -88.09757 
L 470.503636 -86.930128 
L 473.406341 -92.462878 
L 476.309045 -88.779993 
L 479.21175 -86.540025 
L 482.114455 -86.514835 
L 485.017159 -93.537583 
L 487.919864 -82.519066 
L 490.822568 -92.041543 
L 493.725273 -85.015128 
L 496.627977 -83.800958 
L 499.530682 -84.654996 
L 502.433386 -85.728942 
L 505.336091 -88.641572 
L 508.238795 -86.880944 
L 511.1415 -87.440128 
L 514.044205 -84.941178 
L 516.946909 -82.070287 
L 519.849614 -84.337586 
L 522.752318 -82.480778 
L 525.655023 -89.016267 
L 528.557727 -86.118966 
L 531.460432 -80.936208 
L 534.363136 -83.758642 
L 537.265841 -83.783703 
L 540.168545 -86.69207 
L 543.07125 -83.480615 
L 545.973955 -87.954525 
L 548.876659 -85.418448 
L 551.779364 -79.743446 
L 554.682068 -85.210727 
L 557.584773 -83.330464 
L 560.487477 -84.609554 
L 563.390182 -80.711514 
L 566.292886 -83.871319 
L 569.195591 -81.2781 
L 572.098295 -82.21904 
L 575.001 -82.964556 
L 577.903705 -81.764089 
L 580.806409 -79.065977 
L 583.709114 -86.576481 
L 586.611818 -86.089987 
L 589.514523 -82.834451 
L 592.417227 -87.777299 
L 595.319932 -78.463151 
L 598.222636 -82.221459 
L 601.125341 -78.590918 
L 604.028045 -79.965917 
L 606.93075 -83.775185 
L 609.833455 -85.470853 
L 612.736159 -83.078508 
L 615.638864 -82.30599 
L 618.541568 -81.311031 
L 621.444273 -80.347315 
L 624.346977 -77.222312 
L 627.249682 -82.084563 
L 630.152386 -76.917117 
L 633.055091 -80.979184 
L 635.957795 -79.887539 
L 638.8605 -76.255417 
L 641.763205 -82.5351 
L 644.665909 -80.881585 
L 647.568614 -76.166504 
L 650.471318 -80.998257 
L 653.374023 -77.98666 
L 656.276727 -76.359397 
L 659.179432 -76.420302 
L 662.082136 -78.501057 
L 664.984841 -77.156564 
L 667.887545 -76.96551 
L 670.79025 -77.996629 
L 673.692955 -75.229895 
L 673.692955 -93.334901 
L 673.692955 -93.334901 
L 670.79025 -90.528956 
L 667.887545 -91.650457 
L 664.984841 -82.992371 
L 662.082136 -89.663361 
L 659.179432 -88.416417 
L 656.276727 -85.048656 
L 653.374023 -87.719758 
L 650.471318 -90.266198 
L 647.568614 -91.255855 
L 644.665909 -92.268344 
L 641.763205 -96.470206 
L 638.8605 -92.386581 
L 635.957795 -92.430256 
L 633.055091 -93.581374 
L 630.152386 -79.878701 
L 627.249682 -99.99203 
L 624.346977 -94.981094 
L 621.444273 -93.229872 
L 618.541568 -90.878005 
L 615.638864 -91.912472 
L 612.736159 -94.761528 
L 609.833455 -95.77418 
L 606.93075 -100.833695 
L 604.028045 -92.611456 
L 601.125341 -85.813237 
L 598.222636 -96.278307 
L 595.319932 -90.991325 
L 592.417227 -94.094764 
L 589.514523 -104.930839 
L 586.611818 -95.511965 
L 583.709114 -100.515668 
L 580.806409 -95.193717 
L 577.903705 -88.419083 
L 575.001 -95.9388 
L 572.098295 -87.618835 
L 569.195591 -89.481944 
L 566.292886 -90.752452 
L 563.390182 -93.10142 
L 560.487477 -96.340997 
L 557.584773 -98.564498 
L 554.682068 -95.610167 
L 551.779364 -86.55131 
L 548.876659 -97.546103 
L 545.973955 -101.121498 
L 543.07125 -102.930967 
L 540.168545 -100.571352 
L 537.265841 -91.627419 
L 534.363136 -94.098612 
L 531.460432 -99.742211 
L 528.557727 -104.54735 
L 525.655023 -110.299996 
L 522.752318 -91.988663 
L 519.849614 -94.659463 
L 516.946909 -89.755152 
L 514.044205 -97.716272 
L 511.1415 -106.52258 
L 508.238795 -114.711865 
L 505.336091 -97.351498 
L 502.433386 -89.831321 
L 499.530682 -97.081194 
L 496.627977 -97.332254 
L 493.725273 -97.407051 
L 490.822568 -112.328781 
L 487.919864 -98.026312 
L 485.017159 -113.122813 
L 482.114455 -99.256025 
L 479.21175 -104.560254 
L 476.309045 -103.730105 
L 473.406341 -108.179833 
L 470.503636 -103.333506 
L 467.600932 -103.461896 
L 464.698227 -109.444551 
L 461.795523 -103.458559 
L 458.892818 -92.875516 
L 455.990114 -94.528734 
L 453.087409 -96.608215 
L 450.184705 -103.586663 
L 447.282 -98.559597 
L 444.379295 -95.459253 
L 441.476591 -98.403515 
L 438.573886 -100.90051 
L 435.671182 -101.569954 
L 432.768477 -118.453788 
L 429.865773 -110.399159 
L 426.963068 -100.500431 
L 424.060364 -98.661605 
L 421.157659 -100.561041 
L 418.254955 -109.101707 
L 415.35225 -111.476191 
L 412.449545 -113.393138 
L 409.546841 -104.501167 
L 406.644136 -114.243539 
L 403.741432 -111.982679 
L 400.838727 -118.216506 
L 397.936023 -114.654954 
L 395.033318 -108.901285 
L 392.130614 -102.509176 
L 389.227909 -103.68796 
L 386.325205 -114.686336 
L 383.4225 -117.105042 
L 380.519795 -114.36286 
L 377.617091 -105.044392 
L 374.714386 -100.762902 
L 371.811682 -130.870187 
L 368.908977 -105.230191 
L 366.006273 -113.862359 
L 363.103568 -103.042464 
L 360.200864 -114.126587 
L 357.298159 -107.73606 
L 354.395455 -108.671293 
L 351.49275 -104.953473 
L 348.590045 -107.519223 
L 345.687341 -107.261166 
L 342.784636 -123.361489 
L 339.881932 -101.434511 
L 336.979227 -112.488888 
L 334.076523 -119.278105 
L 331.173818 -109.254951 
L 328.271114 -110.054774 
L 325.368409 -107.35509 
L 322.465705 -123.519174 
L 319.563 -123.363314 
L 316.660295 -110.293136 
L 313.757591 -108.254217 
L 310.854886 -114.607043 
L 307.952182 -112.025331 
L 305.049477 -113.487815 
L 302.146773 -111.394948 
L 299.244068 -111.797034 
L 296.341364 -113.788307 
L 293.438659 -110.592891 
L 290.535955 -124.1855 
L 287.63325 -115.32367 
L 284.730545 -114.515424 
L 281.827841 -111.266823 
L 278.925136 -112.121435 
L 276.022432 -108.078314 
L 273.119727 -120.343508 
L 270.217023 -114.49834 
L 267.314318 -111.857397 
L 264.411614 -115.819053 
L 261.508909 -119.791189 
L 258.606205 -122.605172 
L 255.7035 -131.743292 
L 252.800795 -134.977791 
L 249.898091 -110.956578 
L 246.995386 -118.989134 
L 244.092682 -125.153129 
L 241.189977 -125.540115 
L 238.287273 -127.476265 
L 235.384568 -124.627338 
L 232.481864 -120.59185 
L 229.579159 -119.997941 
L 226.676455 -135.910834 
L 223.77375 -120.843573 
L 220.871045 -119.77798 
L 217.968341 -137.686806 
L 215.065636 -124.950311 
L 212.162932 -119.705438 
L 209.260227 -121.925914 
L 206.357523 -122.43247 
L 203.454818 -121.791291 
L 200.552114 -128.488387 
L 197.649409 -122.795673 
L 194.746705 -125.12612 
L 191.844 -132.71275 
L 188.941295 -125.419858 
L 186.038591 -124.374695 
L 183.135886 -128.362436 
L 180.233182 -121.345198 
L 177.330477 -124.620956 
L 174.427773 -130.91258 
L 171.525068 -134.548681 
L 168.622364 -124.472637 
L 165.719659 -123.86437 
L 162.816955 -128.90256 
L 159.91425 -125.153977 
L 157.011545 -143.372149 
L 154.108841 -123.902364 
L 151.206136 -127.647366 
L 148.303432 -130.313016 
L 145.400727 -126.674124 
L 142.498023 -129.067681 
L 139.595318 -127.149937 
L 136.692614 -132.354774 
L 133.789909 -128.427192 
L 130.887205 -126.537486 
L 127.9845 -130.809199 
L 125.081795 -130.791374 
L 122.179091 -126.798081 
L 119.276386 -126.993723 
L 116.373682 -127.183113 
L 113.470977 -130.722447 
L 110.568273 -130.521481 
L 107.665568 -128.027619 
L 104.762864 -127.760744 
L 101.860159 -128.498434 
L 98.957455 -129.293609 
L 96.05475 -134.650464 
L 93.152045 -394.8278 
z
" id="mf1d57e4ffd" style="stroke:#ff8c00;stroke-opacity:0.5;"/>
    </defs>
    <g clip-path="url(#pead9facb01)">
     <use style="fill:#ff8c00;fill-opacity:0.5;stroke:#ff8c00;stroke-opacity:0.5;" x="0" xlink:href="#mf1d57e4ffd" y="432"/>
    </g>
   </g>
   <g id="PolyCollection_2">
    <defs>
     <path d="M 93.152045 -394.8278 
L 93.152045 -394.8278 
L 96.05475 -388.420999 
L 98.957455 -382.426309 
L 101.860159 -376.583736 
L 104.762864 -371.002824 
L 107.665568 -365.595262 
L 110.568273 -360.257703 
L 113.470977 -355.08282 
L 116.373682 -350.003673 
L 119.276386 -344.929026 
L 122.179091 -339.932106 
L 125.081795 -334.962224 
L 127.9845 -329.950051 
L 130.887205 -324.921127 
L 133.789909 -319.847658 
L 136.692614 -314.668845 
L 139.595318 -309.394455 
L 142.498023 -303.990839 
L 145.400727 -298.410549 
L 148.303432 -292.653337 
L 151.206136 -286.719782 
L 154.108841 -280.586884 
L 157.011545 -274.226716 
L 159.91425 -267.633587 
L 162.816955 -260.833315 
L 165.719659 -253.755411 
L 168.622364 -246.40468 
L 171.525068 -238.911217 
L 174.427773 -231.16604 
L 177.330477 -223.216345 
L 180.233182 -215.360723 
L 183.135886 -207.428823 
L 186.038591 -199.516701 
L 188.941295 -192.072268 
L 191.844 -184.840464 
L 194.746705 -177.930624 
L 197.649409 -171.828776 
L 200.552114 -166.130099 
L 203.454818 -160.90682 
L 206.357523 -156.575207 
L 209.260227 -152.628225 
L 212.162932 -149.143613 
L 215.065636 -146.39673 
L 217.968341 -143.921042 
L 220.871045 -141.787124 
L 223.77375 -140.181541 
L 226.676455 -138.704215 
L 229.579159 -137.45558 
L 232.481864 -136.552815 
L 235.384568 -135.684795 
L 238.287273 -134.964765 
L 241.189977 -134.461515 
L 244.092682 -133.943659 
L 246.995386 -133.525544 
L 249.898091 -133.246894 
L 252.800795 -132.928196 
L 255.7035 -132.679269 
L 258.606205 -132.518884 
L 261.508909 -132.310749 
L 264.411614 -132.157265 
L 267.314318 -132.065199 
L 270.217023 -131.913695 
L 273.119727 -131.814228 
L 276.022432 -131.759196 
L 278.925136 -131.640141 
L 281.827841 -131.568723 
L 284.730545 -131.531871 
L 287.63325 -131.434331 
L 290.535955 -131.379093 
L 293.438659 -131.353408 
L 296.341364 -131.268054 
L 299.244068 -131.222658 
L 302.146773 -131.203283 
L 305.049477 -131.125986 
L 307.952182 -131.085639 
L 310.854886 -131.070984 
L 313.757591 -131.001333 
L 316.660295 -130.962928 
L 319.563 -130.95153 
L 322.465705 -130.88614 
L 325.368409 -130.849216 
L 328.271114 -130.840011 
L 331.173818 -130.779477 
L 334.076523 -130.743289 
L 336.979227 -130.735676 
L 339.881932 -130.681256 
L 342.784636 -130.645782 
L 345.687341 -130.640908 
L 348.590045 -130.589902 
L 351.49275 -130.555283 
L 354.395455 -130.552181 
L 357.298159 -130.50707 
L 360.200864 -130.473008 
L 363.103568 -130.47252 
L 366.006273 -130.432248 
L 368.908977 -130.398045 
L 371.811682 -130.399643 
L 374.714386 -130.364667 
L 377.617091 -130.330229 
L 380.519795 -130.335128 
L 383.4225 -130.304985 
L 386.325205 -130.270023 
L 389.227909 -130.277166 
L 392.130614 -130.252566 
L 395.033318 -130.216914 
L 397.936023 -130.227962 
L 400.838727 -130.208008 
L 403.741432 -130.172815 
L 406.644136 -130.184845 
L 409.546841 -130.170162 
L 412.449545 -130.133618 
L 415.35225 -130.146684 
L 418.254955 -130.136096 
L 421.157659 -130.098002 
L 424.060364 -130.112575 
L 426.963068 -130.105306 
L 429.865773 -130.067112 
L 432.768477 -130.082138 
L 435.671182 -130.078304 
L 438.573886 -130.039228 
L 441.476591 -130.053153 
L 444.379295 -130.051709 
L 447.282 -130.012598 
L 450.184705 -130.027121 
L 453.087409 -130.029434 
L 455.990114 -129.993924 
L 458.892818 -130.005276 
L 461.795523 -130.006987 
L 464.698227 -129.976253 
L 467.600932 -129.986962 
L 470.503636 -129.988134 
L 473.406341 -129.963475 
L 476.309045 -129.973567 
L 479.21175 -129.974548 
L 482.114455 -129.9548 
L 485.017159 -129.963964 
L 487.919864 -129.963203 
L 490.822568 -129.94733 
L 493.725273 -129.958858 
L 496.627977 -129.955201 
L 499.530682 -129.945036 
L 502.433386 -129.95465 
L 505.336091 -129.949483 
L 508.238795 -129.942688 
L 511.1415 -129.955262 
L 514.044205 -129.948041 
L 516.946909 -129.942142 
L 519.849614 -129.958832 
L 522.752318 -129.949253 
L 525.655023 -129.948584 
L 528.557727 -129.970703 
L 531.460432 -129.958723 
L 534.363136 -129.960348 
L 537.265841 -129.983556 
L 540.168545 -129.9697 
L 543.07125 -129.972302 
L 545.973955 -129.999071 
L 548.876659 -129.981707 
L 551.779364 -129.985726 
L 554.682068 -130.015588 
L 557.584773 -129.99574 
L 560.487477 -129.999098 
L 563.390182 -130.03679 
L 566.292886 -130.011593 
L 569.195591 -130.014713 
L 572.098295 -130.061491 
L 575.001 -130.029894 
L 577.903705 -130.032429 
L 580.806409 -130.091507 
L 583.709114 -130.051746 
L 586.611818 -130.053159 
L 589.514523 -130.118714 
L 592.417227 -130.072799 
L 595.319932 -130.072098 
L 598.222636 -130.154343 
L 601.125341 -130.100712 
L 604.028045 -130.097348 
L 606.93075 -130.188647 
L 609.833455 -130.128133 
L 612.736159 -130.121659 
L 615.638864 -130.228875 
L 618.541568 -130.160051 
L 621.444273 -130.147872 
L 624.346977 -130.265407 
L 627.249682 -130.192204 
L 630.152386 -130.17703 
L 633.055091 -130.302291 
L 635.957795 -130.22855 
L 638.8605 -130.209352 
L 641.763205 -130.335004 
L 644.665909 -130.262733 
L 647.568614 -130.241491 
L 650.471318 -130.370565 
L 653.374023 -130.304603 
L 656.276727 -130.279226 
L 659.179432 -130.41003 
L 662.082136 -130.347309 
L 664.984841 -130.317348 
L 667.887545 -130.448557 
L 670.79025 -130.393182 
L 673.692955 -130.358399 
L 673.692955 -130.359412 
L 673.692955 -130.359412 
L 670.79025 -130.399795 
L 667.887545 -130.463081 
L 664.984841 -130.317811 
L 662.082136 -130.353195 
L 659.179432 -130.423505 
L 656.276727 -130.279528 
L 653.374023 -130.309545 
L 650.471318 -130.385749 
L 647.568614 -130.241687 
L 644.665909 -130.266674 
L 641.763205 -130.344154 
L 638.8605 -130.209582 
L 635.957795 -130.231957 
L 633.055091 -130.315429 
L 630.152386 -130.177163 
L 627.249682 -130.194936 
L 624.346977 -130.277444 
L 621.444273 -130.150369 
L 618.541568 -130.162587 
L 615.638864 -130.235707 
L 612.736159 -130.123579 
L 609.833455 -130.130266 
L 606.93075 -130.192261 
L 604.028045 -130.098995 
L 601.125341 -130.102568 
L 598.222636 -130.157394 
L 595.319932 -130.073154 
L 592.417227 -130.074281 
L 589.514523 -130.120359 
L 586.611818 -130.054887 
L 583.709114 -130.052983 
L 580.806409 -130.09216 
L 577.903705 -130.034299 
L 575.001 -130.030851 
L 572.098295 -130.06259 
L 569.195591 -130.01577 
L 566.292886 -130.012303 
L 563.390182 -130.038059 
L 560.487477 -130.000616 
L 557.584773 -129.99629 
L 554.682068 -130.018725 
L 551.779364 -129.986775 
L 548.876659 -129.982159 
L 545.973955 -129.999825 
L 543.07125 -129.972794 
L 540.168545 -129.970064 
L 537.265841 -129.98496 
L 534.363136 -129.961431 
L 531.460432 -129.959002 
L 528.557727 -129.971039 
L 525.655023 -129.948976 
L 522.752318 -129.949398 
L 519.849614 -129.959051 
L 516.946909 -129.942329 
L 514.044205 -129.948117 
L 511.1415 -129.955562 
L 508.238795 -129.942981 
L 505.336091 -129.949612 
L 502.433386 -129.954734 
L 499.530682 -129.94572 
L 496.627977 -129.955364 
L 493.725273 -129.959988 
L 490.822568 -129.948317 
L 487.919864 -129.963473 
L 485.017159 -129.965216 
L 482.114455 -129.956111 
L 479.21175 -129.97485 
L 476.309045 -129.975121 
L 473.406341 -129.964756 
L 470.503636 -129.988368 
L 467.600932 -129.987087 
L 464.698227 -129.978244 
L 461.795523 -130.007124 
L 458.892818 -130.006089 
L 455.990114 -129.996054 
L 453.087409 -130.029512 
L 450.184705 -130.028948 
L 447.282 -130.014742 
L 444.379295 -130.053908 
L 441.476591 -130.054128 
L 438.573886 -130.039962 
L 435.671182 -130.081376 
L 432.768477 -130.083697 
L 429.865773 -130.067378 
L 426.963068 -130.109163 
L 424.060364 -130.114264 
L 421.157659 -130.09813 
L 418.254955 -130.139779 
L 415.35225 -130.148093 
L 412.449545 -130.133741 
L 409.546841 -130.17386 
L 406.644136 -130.186143 
L 403.741432 -130.172941 
L 400.838727 -130.211881 
L 397.936023 -130.229254 
L 395.033318 -130.217103 
L 392.130614 -130.256385 
L 389.227909 -130.27739 
L 386.325205 -130.27031 
L 383.4225 -130.309333 
L 380.519795 -130.335366 
L 377.617091 -130.330631 
L 374.714386 -130.369028 
L 371.811682 -130.400126 
L 368.908977 -130.398534 
L 366.006273 -130.436539 
L 363.103568 -130.47295 
L 360.200864 -130.473693 
L 357.298159 -130.511503 
L 354.395455 -130.552851 
L 351.49275 -130.556237 
L 348.590045 -130.594242 
L 345.687341 -130.641085 
L 342.784636 -130.646987 
L 339.881932 -130.685718 
L 336.979227 -130.736323 
L 334.076523 -130.744777 
L 331.173818 -130.784236 
L 328.271114 -130.840277 
L 325.368409 -130.850769 
L 322.465705 -130.891179 
L 319.563 -130.952194 
L 316.660295 -130.9646 
L 313.757591 -131.005893 
L 310.854886 -131.072232 
L 307.952182 -131.087515 
L 305.049477 -131.131251 
L 302.146773 -131.204979 
L 299.244068 -131.224783 
L 296.341364 -131.273508 
L 293.438659 -131.355406 
L 290.535955 -131.381995 
L 287.63325 -131.440445 
L 284.730545 -131.535262 
L 281.827841 -131.572801 
L 278.925136 -131.647765 
L 276.022432 -131.762958 
L 273.119727 -131.82025 
L 270.217023 -131.923389 
L 267.314318 -132.072441 
L 264.411614 -132.166674 
L 261.508909 -132.323498 
L 258.606205 -132.530192 
L 255.7035 -132.694763 
L 252.800795 -132.948909 
L 249.898091 -133.265335 
L 246.995386 -133.551757 
L 244.092682 -133.978021 
L 241.189977 -134.493602 
L 238.287273 -135.010227 
L 235.384568 -135.743012 
L 232.481864 -136.609303 
L 229.579159 -137.53448 
L 226.676455 -138.802743 
L 223.77375 -140.280443 
L 220.871045 -141.923081 
L 217.968341 -144.086562 
L 215.065636 -146.569166 
L 212.162932 -149.368875 
L 209.260227 -152.893853 
L 206.357523 -156.848402 
L 203.454818 -161.251139 
L 200.552114 -166.519584 
L 197.649409 -172.226241 
L 194.746705 -178.39777 
L 191.844 -185.3437 
L 188.941295 -192.575398 
L 186.038591 -200.063813 
L 183.135886 -207.989463 
L 180.233182 -215.903203 
L 177.330477 -223.774948 
L 174.427773 -231.718444 
L 171.525068 -239.440127 
L 168.622364 -246.92562 
L 165.719659 -254.261321 
L 162.816955 -261.314248 
L 159.91425 -268.101387 
L 157.011545 -274.679479 
L 154.108841 -281.024348 
L 151.206136 -287.140157 
L 148.303432 -293.061361 
L 145.400727 -298.807329 
L 142.498023 -304.373511 
L 139.595318 -309.766493 
L 136.692614 -315.034528 
L 133.789909 -320.204268 
L 130.887205 -325.273485 
L 127.9845 -330.301265 
L 125.081795 -335.309904 
L 122.179091 -340.279681 
L 119.276386 -345.284478 
L 116.373682 -350.35712 
L 113.470977 -355.440828 
L 110.568273 -360.628413 
L 107.665568 -365.969229 
L 104.762864 -371.387138 
L 101.860159 -376.986325 
L 98.957455 -382.838487 
L 96.05475 -388.850338 
L 93.152045 -394.8278 
z
" id="m8257243b0b" style="stroke:#32cd32;stroke-opacity:0.5;"/>
    </defs>
    <g clip-path="url(#pead9facb01)">
     <use style="fill:#32cd32;fill-opacity:0.5;stroke:#32cd32;stroke-opacity:0.5;" x="0" xlink:href="#m8257243b0b" y="432"/>
    </g>
   </g>
   <g id="PolyCollection_3">
    <defs>
     <path d="M 93.152045 -394.8278 
L 93.152045 -394.8278 
L 96.05475 -391.2738 
L 98.957455 -387.793485 
L 101.860159 -384.348565 
L 104.762864 -380.986903 
L 107.665568 -377.68358 
L 110.568273 -374.408394 
L 113.470977 -371.203192 
L 116.373682 -368.048338 
L 119.276386 -364.917065 
L 122.179091 -361.843237 
L 125.081795 -358.814501 
L 127.9845 -355.804422 
L 130.887205 -352.843309 
L 133.789909 -349.919656 
L 136.692614 -347.010103 
L 139.595318 -344.141887 
L 142.498023 -341.304914 
L 145.400727 -338.483753 
L 148.303432 -335.691637 
L 151.206136 -332.928445 
L 154.108841 -330.181576 
L 157.011545 -327.454297 
L 159.91425 -324.751503 
L 162.816955 -322.0643 
L 165.719659 -319.393569 
L 168.622364 -316.743543 
L 171.525068 -314.109705 
L 174.427773 -311.487065 
L 177.330477 -308.881276 
L 180.233182 -306.290576 
L 183.135886 -303.708126 
L 186.038591 -301.138578 
L 188.941295 -298.585497 
L 191.844 -296.039343 
L 194.746705 -293.499378 
L 197.649409 -290.975947 
L 200.552114 -288.456584 
L 203.454818 -285.935066 
L 206.357523 -283.430192 
L 209.260227 -280.931701 
L 212.162932 -278.426438 
L 215.065636 -275.937837 
L 217.968341 -273.457885 
L 220.871045 -270.967469 
L 223.77375 -268.490379 
L 226.676455 -266.026612 
L 229.579159 -263.548102 
L 232.481864 -261.082752 
L 235.384568 -258.628682 
L 238.287273 -256.158228 
L 241.189977 -253.700026 
L 244.092682 -251.263615 
L 246.995386 -248.8036 
L 249.898091 -246.355492 
L 252.800795 -243.93591 
L 255.7035 -241.486472 
L 258.606205 -239.04731 
L 261.508909 -236.652002 
L 264.411614 -234.21789 
L 267.314318 -231.79593 
L 270.217023 -229.429549 
L 273.119727 -227.014445 
L 276.022432 -224.612199 
L 278.925136 -222.280423 
L 281.827841 -219.897598 
L 284.730545 -217.529346 
L 287.63325 -215.232606 
L 290.535955 -212.893876 
L 293.438659 -210.570963 
L 296.341364 -208.323665 
L 299.244068 -206.039694 
L 302.146773 -203.774016 
L 305.049477 -201.582548 
L 307.952182 -199.370144 
L 310.854886 -197.173999 
L 313.757591 -195.05532 
L 316.660295 -192.920423 
L 319.563 -190.806869 
L 322.465705 -188.773711 
L 325.368409 -186.732956 
L 328.271114 -184.718421 
L 331.173818 -182.78392 
L 334.076523 -180.850119 
L 336.979227 -178.948449 
L 339.881932 -177.122364 
L 342.784636 -175.310541 
L 345.687341 -173.534499 
L 348.590045 -171.826844 
L 351.49275 -170.145558 
L 354.395455 -168.50324 
L 357.298159 -166.922956 
L 360.200864 -165.380069 
L 363.103568 -163.87261 
L 366.006273 -162.425714 
L 368.908977 -161.018262 
L 371.811682 -159.64866 
L 374.714386 -158.333599 
L 377.617091 -157.067635 
L 380.519795 -155.831256 
L 383.4225 -154.652646 
L 386.325205 -153.517686 
L 389.227909 -152.41442 
L 392.130614 -151.363434 
L 395.033318 -150.353287 
L 397.936023 -149.377123 
L 400.838727 -148.448773 
L 403.741432 -147.556409 
L 406.644136 -146.699408 
L 409.546841 -145.882086 
L 412.449545 -145.099105 
L 415.35225 -144.352796 
L 418.254955 -143.63898 
L 421.157659 -142.957022 
L 424.060364 -142.310079 
L 426.963068 -141.690972 
L 429.865773 -141.097451 
L 432.768477 -140.539634 
L 435.671182 -140.006528 
L 438.573886 -139.495369 
L 441.476591 -139.018272 
L 444.379295 -138.562839 
L 447.282 -138.12126 
L 450.184705 -137.713152 
L 453.087409 -137.323434 
L 455.990114 -136.946586 
L 458.892818 -136.598444 
L 461.795523 -136.267533 
L 464.698227 -135.947463 
L 467.600932 -135.652172 
L 470.503636 -135.372195 
L 473.406341 -135.097859 
L 476.309045 -134.849695 
L 479.21175 -134.613632 
L 482.114455 -134.381752 
L 485.017159 -134.172159 
L 487.919864 -133.973925 
L 490.822568 -133.775703 
L 493.725273 -133.600886 
L 496.627977 -133.434996 
L 499.530682 -133.268776 
L 502.433386 -133.120991 
L 505.336091 -132.982843 
L 508.238795 -132.843101 
L 511.1415 -132.719367 
L 514.044205 -132.604908 
L 516.946909 -132.48935 
L 519.849614 -132.384882 
L 522.752318 -132.290996 
L 525.655023 -132.192977 
L 528.557727 -132.106224 
L 531.460432 -132.028505 
L 534.363136 -131.947546 
L 537.265841 -131.875568 
L 540.168545 -131.811358 
L 543.07125 -131.745606 
L 545.973955 -131.685614 
L 548.876659 -131.632489 
L 551.779364 -131.578864 
L 554.682068 -131.529173 
L 557.584773 -131.484924 
L 560.487477 -131.441817 
L 563.390182 -131.400615 
L 566.292886 -131.364645 
L 569.195591 -131.329558 
L 572.098295 -131.295231 
L 575.001 -131.266067 
L 577.903705 -131.238001 
L 580.806409 -131.209498 
L 583.709114 -131.186105 
L 586.611818 -131.163836 
L 589.514523 -131.140076 
L 592.417227 -131.121489 
L 595.319932 -131.103778 
L 598.222636 -131.08428 
L 601.125341 -131.069318 
L 604.028045 -131.055554 
L 606.93075 -131.039301 
L 609.833455 -131.027203 
L 612.736159 -131.016483 
L 615.638864 -131.003187 
L 618.541568 -130.99321 
L 621.444273 -130.984698 
L 624.346977 -130.974685 
L 627.249682 -130.966027 
L 630.152386 -130.958673 
L 633.055091 -130.950659 
L 635.957795 -130.944067 
L 638.8605 -130.938163 
L 641.763205 -130.931234 
L 644.665909 -130.92624 
L 647.568614 -130.921124 
L 650.471318 -130.915597 
L 653.374023 -130.91161 
L 656.276727 -130.90722 
L 659.179432 -130.902412 
L 662.082136 -130.899225 
L 664.984841 -130.89558 
L 667.887545 -130.891419 
L 670.79025 -130.88881 
L 673.692955 -130.885734 
L 673.692955 -130.888024 
L 673.692955 -130.888024 
L 670.79025 -130.890886 
L 667.887545 -130.894772 
L 664.984841 -130.897589 
L 662.082136 -130.901015 
L 659.179432 -130.905502 
L 656.276727 -130.90904 
L 653.374023 -130.913098 
L 650.471318 -130.917856 
L 647.568614 -130.922602 
L 644.665909 -130.927616 
L 641.763205 -130.932966 
L 638.8605 -130.939637 
L 635.957795 -130.945745 
L 633.055091 -130.951742 
L 630.152386 -130.960506 
L 627.249682 -130.968038 
L 624.346977 -130.975385 
L 621.444273 -130.985724 
L 618.541568 -130.995515 
L 615.638864 -131.005265 
L 612.736159 -131.01798 
L 609.833455 -131.029926 
L 606.93075 -131.042118 
L 604.028045 -131.057828 
L 601.125341 -131.07268 
L 598.222636 -131.08789 
L 595.319932 -131.107192 
L 592.417227 -131.12556 
L 589.514523 -131.14447 
L 586.611818 -131.168353 
L 583.709114 -131.191176 
L 580.806409 -131.214707 
L 577.903705 -131.243728 
L 575.001 -131.272234 
L 572.098295 -131.301335 
L 569.195591 -131.336591 
L 566.292886 -131.372003 
L 563.390182 -131.407734 
L 560.487477 -131.450296 
L 557.584773 -131.493525 
L 554.682068 -131.537423 
L 551.779364 -131.588272 
L 548.876659 -131.641419 
L 545.973955 -131.695384 
L 543.07125 -131.7567 
L 540.168545 -131.821176 
L 537.265841 -131.886761 
L 534.363136 -131.960662 
L 531.460432 -132.039422 
L 528.557727 -132.118889 
L 525.655023 -132.208029 
L 522.752318 -132.303176 
L 519.849614 -132.399119 
L 516.946909 -132.505283 
L 514.044205 -132.619172 
L 511.1415 -132.734437 
L 508.238795 -132.861392 
L 505.336091 -132.998924 
L 502.433386 -133.137425 
L 499.530682 -133.289615 
L 496.627977 -133.452843 
L 493.725273 -133.618821 
L 490.822568 -133.798277 
L 487.919864 -133.993535 
L 485.017159 -134.191693 
L 482.114455 -134.405876 
L 479.21175 -134.635851 
L 476.309045 -134.871335 
L 473.406341 -135.123572 
L 470.503636 -135.396514 
L 467.600932 -135.675885 
L 464.698227 -135.97429 
L 461.795523 -136.293834 
L 458.892818 -136.624054 
L 455.990114 -136.975542 
L 453.087409 -137.351594 
L 450.184705 -137.740462 
L 447.282 -138.153473 
L 444.379295 -138.592034 
L 441.476591 -139.047108 
L 438.573886 -139.526874 
L 435.671182 -140.038565 
L 432.768477 -140.569841 
L 429.865773 -141.128208 
L 426.963068 -141.724304 
L 424.060364 -142.34133 
L 421.157659 -142.988922 
L 418.254955 -143.674491 
L 415.35225 -144.384831 
L 412.449545 -145.131052 
L 409.546841 -145.91688 
L 406.644136 -146.734223 
L 403.741432 -147.588045 
L 400.838727 -148.484281 
L 397.936023 -149.41244 
L 395.033318 -150.384209 
L 392.130614 -151.397756 
L 389.227909 -152.449428 
L 386.325205 -153.547658 
L 383.4225 -154.686694 
L 380.519795 -155.865197 
L 377.617091 -157.096682 
L 374.714386 -158.366296 
L 371.811682 -159.678194 
L 368.908977 -161.046719 
L 366.006273 -162.453192 
L 363.103568 -163.900591 
L 360.200864 -165.407266 
L 357.298159 -166.947735 
L 354.395455 -168.528871 
L 351.49275 -170.1727 
L 348.590045 -171.852194 
L 345.687341 -173.559723 
L 342.784636 -175.33601 
L 339.881932 -177.144901 
L 336.979227 -178.9727 
L 334.076523 -180.873308 
L 331.173818 -182.802036 
L 328.271114 -184.740789 
L 325.368409 -186.753156 
L 322.465705 -188.788522 
L 319.563 -190.826812 
L 316.660295 -192.937688 
L 313.757591 -195.070527 
L 310.854886 -197.191255 
L 307.952182 -199.385845 
L 305.049477 -201.596213 
L 302.146773 -203.789351 
L 299.244068 -206.055836 
L 296.341364 -208.335631 
L 293.438659 -210.586437 
L 290.535955 -212.909603 
L 287.63325 -215.24459 
L 284.730545 -217.545225 
L 281.827841 -219.913575 
L 278.925136 -222.290975 
L 276.022432 -224.628478 
L 273.119727 -227.030782 
L 270.217023 -229.441397 
L 267.314318 -231.806284 
L 264.411614 -234.234704 
L 261.508909 -236.669889 
L 258.606205 -239.058615 
L 255.7035 -241.50331 
L 252.800795 -243.952734 
L 249.898091 -246.365502 
L 246.995386 -248.820254 
L 244.092682 -251.280092 
L 241.189977 -253.71133 
L 238.287273 -256.174658 
L 235.384568 -258.644956 
L 232.481864 -261.093058 
L 229.579159 -263.564742 
L 226.676455 -266.041845 
L 223.77375 -268.502582 
L 220.871045 -270.983666 
L 217.968341 -273.472694 
L 215.065636 -275.94896 
L 212.162932 -278.442081 
L 209.260227 -280.94608 
L 206.357523 -283.440317 
L 203.454818 -285.950511 
L 200.552114 -288.470747 
L 197.649409 -290.986476 
L 194.746705 -293.513682 
L 191.844 -296.053765 
L 188.941295 -298.596507 
L 186.038591 -301.152848 
L 183.135886 -303.721725 
L 180.233182 -306.30359 
L 177.330477 -308.894808 
L 174.427773 -311.499659 
L 171.525068 -314.121831 
L 168.622364 -316.75635 
L 165.719659 -319.405545 
L 162.816955 -322.077822 
L 159.91425 -324.764116 
L 157.011545 -327.466038 
L 154.108841 -330.19449 
L 151.206136 -332.940509 
L 148.303432 -335.702772 
L 145.400727 -338.496955 
L 142.498023 -341.316503 
L 139.595318 -344.152426 
L 136.692614 -347.024194 
L 133.789909 -349.930592 
L 130.887205 -352.853278 
L 127.9845 -355.817607 
L 125.081795 -358.824324 
L 122.179091 -361.853617 
L 119.276386 -364.929308 
L 116.373682 -368.05829 
L 113.470977 -371.213999 
L 110.568273 -374.421195 
L 107.665568 -377.693703 
L 104.762864 -380.998295 
L 101.860159 -384.361556 
L 98.957455 -387.803697 
L 96.05475 -391.285701 
L 93.152045 -394.8278 
z
" id="m0a12eebfb9" style="stroke:#800080;stroke-opacity:0.5;"/>
    </defs>
    <g clip-path="url(#pead9facb01)">
     <use style="fill:#800080;fill-opacity:0.5;stroke:#800080;stroke-opacity:0.5;" x="0" xlink:href="#m0a12eebfb9" y="432"/>
    </g>
   </g>
   <g id="matplotlib.axis_1">
    <g id="xtick_1">
     <g id="line2d_1">
      <path clip-path="url(#pead9facb01)" d="M 93.152045 372.75 
L 93.152045 21.192304 
" style="fill:none;stroke:#b0b0b0;stroke-linecap:square;stroke-width:0.8;"/>
     </g>
     <g id="line2d_2">
      <defs>
       <path d="M 0 0 
L 0 3.5 
" id="mc579e160c0" style="stroke:#000000;stroke-width:0.8;"/>
      </defs>
      <g>
       <use style="stroke:#000000;stroke-width:0.8;" x="93.152045" xlink:href="#mc579e160c0" y="372.75"/>
      </g>
     </g>
     <g id="text_1">
      <!-- 0 -->
      <g transform="translate(88.062045 391.9075)scale(0.16 -0.16)">
       <defs>
        <path d="M 2034 4250 
Q 1547 4250 1301 3770 
Q 1056 3291 1056 2328 
Q 1056 1369 1301 889 
Q 1547 409 2034 409 
Q 2525 409 2770 889 
Q 3016 1369 3016 2328 
Q 3016 3291 2770 3770 
Q 2525 4250 2034 4250 
z
M 2034 4750 
Q 2819 4750 3233 4129 
Q 3647 3509 3647 2328 
Q 3647 1150 3233 529 
Q 2819 -91 2034 -91 
Q 1250 -91 836 529 
Q 422 1150 422 2328 
Q 422 3509 836 4129 
Q 1250 4750 2034 4750 
z
" id="DejaVuSans-30" transform="scale(0.015625)"/>
       </defs>
       <use xlink:href="#DejaVuSans-30"/>
      </g>
     </g>
    </g>
    <g id="xtick_2">
     <g id="line2d_3">
      <path clip-path="url(#pead9facb01)" d="M 165.719659 372.75 
L 165.719659 21.192304 
" style="fill:none;stroke:#b0b0b0;stroke-linecap:square;stroke-width:0.8;"/>
     </g>
     <g id="line2d_4">
      <g>
       <use style="stroke:#000000;stroke-width:0.8;" x="165.719659" xlink:href="#mc579e160c0" y="372.75"/>
      </g>
     </g>
     <g id="text_2">
      <!-- 500 -->
      <g transform="translate(150.449659 391.9075)scale(0.16 -0.16)">
       <defs>
        <path d="M 691 4666 
L 3169 4666 
L 3169 4134 
L 1269 4134 
L 1269 2991 
Q 1406 3038 1543 3061 
Q 1681 3084 1819 3084 
Q 2600 3084 3056 2656 
Q 3513 2228 3513 1497 
Q 3513 744 3044 326 
Q 2575 -91 1722 -91 
Q 1428 -91 1123 -41 
Q 819 9 494 109 
L 494 744 
Q 775 591 1075 516 
Q 1375 441 1709 441 
Q 2250 441 2565 725 
Q 2881 1009 2881 1497 
Q 2881 1984 2565 2268 
Q 2250 2553 1709 2553 
Q 1456 2553 1204 2497 
Q 953 2441 691 2322 
L 691 4666 
z
" id="DejaVuSans-35" transform="scale(0.015625)"/>
       </defs>
       <use xlink:href="#DejaVuSans-35"/>
       <use x="63.623047" xlink:href="#DejaVuSans-30"/>
       <use x="127.246094" xlink:href="#DejaVuSans-30"/>
      </g>
     </g>
    </g>
    <g id="xtick_3">
     <g id="line2d_5">
      <path clip-path="url(#pead9facb01)" d="M 238.287273 372.75 
L 238.287273 21.192304 
" style="fill:none;stroke:#b0b0b0;stroke-linecap:square;stroke-width:0.8;"/>
     </g>
     <g id="line2d_6">
      <g>
       <use style="stroke:#000000;stroke-width:0.8;" x="238.287273" xlink:href="#mc579e160c0" y="372.75"/>
      </g>
     </g>
     <g id="text_3">
      <!-- 1000 -->
      <g transform="translate(217.927273 391.9075)scale(0.16 -0.16)">
       <defs>
        <path d="M 794 531 
L 1825 531 
L 1825 4091 
L 703 3866 
L 703 4441 
L 1819 4666 
L 2450 4666 
L 2450 531 
L 3481 531 
L 3481 0 
L 794 0 
L 794 531 
z
" id="DejaVuSans-31" transform="scale(0.015625)"/>
       </defs>
       <use xlink:href="#DejaVuSans-31"/>
       <use x="63.623047" xlink:href="#DejaVuSans-30"/>
       <use x="127.246094" xlink:href="#DejaVuSans-30"/>
       <use x="190.869141" xlink:href="#DejaVuSans-30"/>
      </g>
     </g>
    </g>
    <g id="xtick_4">
     <g id="line2d_7">
      <path clip-path="url(#pead9facb01)" d="M 310.854886 372.75 
L 310.854886 21.192304 
" style="fill:none;stroke:#b0b0b0;stroke-linecap:square;stroke-width:0.8;"/>
     </g>
     <g id="line2d_8">
      <g>
       <use style="stroke:#000000;stroke-width:0.8;" x="310.854886" xlink:href="#mc579e160c0" y="372.75"/>
      </g>
     </g>
     <g id="text_4">
      <!-- 1500 -->
      <g transform="translate(290.494886 391.9075)scale(0.16 -0.16)">
       <use xlink:href="#DejaVuSans-31"/>
       <use x="63.623047" xlink:href="#DejaVuSans-35"/>
       <use x="127.246094" xlink:href="#DejaVuSans-30"/>
       <use x="190.869141" xlink:href="#DejaVuSans-30"/>
      </g>
     </g>
    </g>
    <g id="xtick_5">
     <g id="line2d_9">
      <path clip-path="url(#pead9facb01)" d="M 383.4225 372.75 
L 383.4225 21.192304 
" style="fill:none;stroke:#b0b0b0;stroke-linecap:square;stroke-width:0.8;"/>
     </g>
     <g id="line2d_10">
      <g>
       <use style="stroke:#000000;stroke-width:0.8;" x="383.4225" xlink:href="#mc579e160c0" y="372.75"/>
      </g>
     </g>
     <g id="text_5">
      <!-- 2000 -->
      <g transform="translate(363.0625 391.9075)scale(0.16 -0.16)">
       <defs>
        <path d="M 1228 531 
L 3431 531 
L 3431 0 
L 469 0 
L 469 531 
Q 828 903 1448 1529 
Q 2069 2156 2228 2338 
Q 2531 2678 2651 2914 
Q 2772 3150 2772 3378 
Q 2772 3750 2511 3984 
Q 2250 4219 1831 4219 
Q 1534 4219 1204 4116 
Q 875 4013 500 3803 
L 500 4441 
Q 881 4594 1212 4672 
Q 1544 4750 1819 4750 
Q 2544 4750 2975 4387 
Q 3406 4025 3406 3419 
Q 3406 3131 3298 2873 
Q 3191 2616 2906 2266 
Q 2828 2175 2409 1742 
Q 1991 1309 1228 531 
z
" id="DejaVuSans-32" transform="scale(0.015625)"/>
       </defs>
       <use xlink:href="#DejaVuSans-32"/>
       <use x="63.623047" xlink:href="#DejaVuSans-30"/>
       <use x="127.246094" xlink:href="#DejaVuSans-30"/>
       <use x="190.869141" xlink:href="#DejaVuSans-30"/>
      </g>
     </g>
    </g>
    <g id="xtick_6">
     <g id="line2d_11">
      <path clip-path="url(#pead9facb01)" d="M 455.990114 372.75 
L 455.990114 21.192304 
" style="fill:none;stroke:#b0b0b0;stroke-linecap:square;stroke-width:0.8;"/>
     </g>
     <g id="line2d_12">
      <g>
       <use style="stroke:#000000;stroke-width:0.8;" x="455.990114" xlink:href="#mc579e160c0" y="372.75"/>
      </g>
     </g>
     <g id="text_6">
      <!-- 2500 -->
      <g transform="translate(435.630114 391.9075)scale(0.16 -0.16)">
       <use xlink:href="#DejaVuSans-32"/>
       <use x="63.623047" xlink:href="#DejaVuSans-35"/>
       <use x="127.246094" xlink:href="#DejaVuSans-30"/>
       <use x="190.869141" xlink:href="#DejaVuSans-30"/>
      </g>
     </g>
    </g>
    <g id="xtick_7">
     <g id="line2d_13">
      <path clip-path="url(#pead9facb01)" d="M 528.557727 372.75 
L 528.557727 21.192304 
" style="fill:none;stroke:#b0b0b0;stroke-linecap:square;stroke-width:0.8;"/>
     </g>
     <g id="line2d_14">
      <g>
       <use style="stroke:#000000;stroke-width:0.8;" x="528.557727" xlink:href="#mc579e160c0" y="372.75"/>
      </g>
     </g>
     <g id="text_7">
      <!-- 3000 -->
      <g transform="translate(508.197727 391.9075)scale(0.16 -0.16)">
       <defs>
        <path d="M 2597 2516 
Q 3050 2419 3304 2112 
Q 3559 1806 3559 1356 
Q 3559 666 3084 287 
Q 2609 -91 1734 -91 
Q 1441 -91 1130 -33 
Q 819 25 488 141 
L 488 750 
Q 750 597 1062 519 
Q 1375 441 1716 441 
Q 2309 441 2620 675 
Q 2931 909 2931 1356 
Q 2931 1769 2642 2001 
Q 2353 2234 1838 2234 
L 1294 2234 
L 1294 2753 
L 1863 2753 
Q 2328 2753 2575 2939 
Q 2822 3125 2822 3475 
Q 2822 3834 2567 4026 
Q 2313 4219 1838 4219 
Q 1578 4219 1281 4162 
Q 984 4106 628 3988 
L 628 4550 
Q 988 4650 1302 4700 
Q 1616 4750 1894 4750 
Q 2613 4750 3031 4423 
Q 3450 4097 3450 3541 
Q 3450 3153 3228 2886 
Q 3006 2619 2597 2516 
z
" id="DejaVuSans-33" transform="scale(0.015625)"/>
       </defs>
       <use xlink:href="#DejaVuSans-33"/>
       <use x="63.623047" xlink:href="#DejaVuSans-30"/>
       <use x="127.246094" xlink:href="#DejaVuSans-30"/>
       <use x="190.869141" xlink:href="#DejaVuSans-30"/>
      </g>
     </g>
    </g>
    <g id="xtick_8">
     <g id="line2d_15">
      <path clip-path="url(#pead9facb01)" d="M 601.125341 372.75 
L 601.125341 21.192304 
" style="fill:none;stroke:#b0b0b0;stroke-linecap:square;stroke-width:0.8;"/>
     </g>
     <g id="line2d_16">
      <g>
       <use style="stroke:#000000;stroke-width:0.8;" x="601.125341" xlink:href="#mc579e160c0" y="372.75"/>
      </g>
     </g>
     <g id="text_8">
      <!-- 3500 -->
      <g transform="translate(580.765341 391.9075)scale(0.16 -0.16)">
       <use xlink:href="#DejaVuSans-33"/>
       <use x="63.623047" xlink:href="#DejaVuSans-35"/>
       <use x="127.246094" xlink:href="#DejaVuSans-30"/>
       <use x="190.869141" xlink:href="#DejaVuSans-30"/>
      </g>
     </g>
    </g>
    <g id="xtick_9">
     <g id="line2d_17">
      <path clip-path="url(#pead9facb01)" d="M 673.692955 372.75 
L 673.692955 21.192304 
" style="fill:none;stroke:#b0b0b0;stroke-linecap:square;stroke-width:0.8;"/>
     </g>
     <g id="line2d_18">
      <g>
       <use style="stroke:#000000;stroke-width:0.8;" x="673.692955" xlink:href="#mc579e160c0" y="372.75"/>
      </g>
     </g>
     <g id="text_9">
      <!-- 4000 -->
      <g transform="translate(653.332955 391.9075)scale(0.16 -0.16)">
       <defs>
        <path d="M 2419 4116 
L 825 1625 
L 2419 1625 
L 2419 4116 
z
M 2253 4666 
L 3047 4666 
L 3047 1625 
L 3713 1625 
L 3713 1100 
L 3047 1100 
L 3047 0 
L 2419 0 
L 2419 1100 
L 313 1100 
L 313 1709 
L 2253 4666 
z
" id="DejaVuSans-34" transform="scale(0.015625)"/>
       </defs>
       <use xlink:href="#DejaVuSans-34"/>
       <use x="63.623047" xlink:href="#DejaVuSans-30"/>
       <use x="127.246094" xlink:href="#DejaVuSans-30"/>
       <use x="190.869141" xlink:href="#DejaVuSans-30"/>
      </g>
     </g>
    </g>
    <g id="text_10">
     <!-- Communication Round -->
     <g transform="translate(292.51375 411.3925)scale(0.16 -0.16)">
      <defs>
       <path d="M 4122 4306 
L 4122 3641 
Q 3803 3938 3442 4084 
Q 3081 4231 2675 4231 
Q 1875 4231 1450 3742 
Q 1025 3253 1025 2328 
Q 1025 1406 1450 917 
Q 1875 428 2675 428 
Q 3081 428 3442 575 
Q 3803 722 4122 1019 
L 4122 359 
Q 3791 134 3420 21 
Q 3050 -91 2638 -91 
Q 1578 -91 968 557 
Q 359 1206 359 2328 
Q 359 3453 968 4101 
Q 1578 4750 2638 4750 
Q 3056 4750 3426 4639 
Q 3797 4528 4122 4306 
z
" id="DejaVuSans-43" transform="scale(0.015625)"/>
       <path d="M 1959 3097 
Q 1497 3097 1228 2736 
Q 959 2375 959 1747 
Q 959 1119 1226 758 
Q 1494 397 1959 397 
Q 2419 397 2687 759 
Q 2956 1122 2956 1747 
Q 2956 2369 2687 2733 
Q 2419 3097 1959 3097 
z
M 1959 3584 
Q 2709 3584 3137 3096 
Q 3566 2609 3566 1747 
Q 3566 888 3137 398 
Q 2709 -91 1959 -91 
Q 1206 -91 779 398 
Q 353 888 353 1747 
Q 353 2609 779 3096 
Q 1206 3584 1959 3584 
z
" id="DejaVuSans-6f" transform="scale(0.015625)"/>
       <path d="M 3328 2828 
Q 3544 3216 3844 3400 
Q 4144 3584 4550 3584 
Q 5097 3584 5394 3201 
Q 5691 2819 5691 2113 
L 5691 0 
L 5113 0 
L 5113 2094 
Q 5113 2597 4934 2840 
Q 4756 3084 4391 3084 
Q 3944 3084 3684 2787 
Q 3425 2491 3425 1978 
L 3425 0 
L 2847 0 
L 2847 2094 
Q 2847 2600 2669 2842 
Q 2491 3084 2119 3084 
Q 1678 3084 1418 2786 
Q 1159 2488 1159 1978 
L 1159 0 
L 581 0 
L 581 3500 
L 1159 3500 
L 1159 2956 
Q 1356 3278 1631 3431 
Q 1906 3584 2284 3584 
Q 2666 3584 2933 3390 
Q 3200 3197 3328 2828 
z
" id="DejaVuSans-6d" transform="scale(0.015625)"/>
       <path d="M 544 1381 
L 544 3500 
L 1119 3500 
L 1119 1403 
Q 1119 906 1312 657 
Q 1506 409 1894 409 
Q 2359 409 2629 706 
Q 2900 1003 2900 1516 
L 2900 3500 
L 3475 3500 
L 3475 0 
L 2900 0 
L 2900 538 
Q 2691 219 2414 64 
Q 2138 -91 1772 -91 
Q 1169 -91 856 284 
Q 544 659 544 1381 
z
M 1991 3584 
L 1991 3584 
z
" id="DejaVuSans-75" transform="scale(0.015625)"/>
       <path d="M 3513 2113 
L 3513 0 
L 2938 0 
L 2938 2094 
Q 2938 2591 2744 2837 
Q 2550 3084 2163 3084 
Q 1697 3084 1428 2787 
Q 1159 2491 1159 1978 
L 1159 0 
L 581 0 
L 581 3500 
L 1159 3500 
L 1159 2956 
Q 1366 3272 1645 3428 
Q 1925 3584 2291 3584 
Q 2894 3584 3203 3211 
Q 3513 2838 3513 2113 
z
" id="DejaVuSans-6e" transform="scale(0.015625)"/>
       <path d="M 603 3500 
L 1178 3500 
L 1178 0 
L 603 0 
L 603 3500 
z
M 603 4863 
L 1178 4863 
L 1178 4134 
L 603 4134 
L 603 4863 
z
" id="DejaVuSans-69" transform="scale(0.015625)"/>
       <path d="M 3122 3366 
L 3122 2828 
Q 2878 2963 2633 3030 
Q 2388 3097 2138 3097 
Q 1578 3097 1268 2742 
Q 959 2388 959 1747 
Q 959 1106 1268 751 
Q 1578 397 2138 397 
Q 2388 397 2633 464 
Q 2878 531 3122 666 
L 3122 134 
Q 2881 22 2623 -34 
Q 2366 -91 2075 -91 
Q 1284 -91 818 406 
Q 353 903 353 1747 
Q 353 2603 823 3093 
Q 1294 3584 2113 3584 
Q 2378 3584 2631 3529 
Q 2884 3475 3122 3366 
z
" id="DejaVuSans-63" transform="scale(0.015625)"/>
       <path d="M 2194 1759 
Q 1497 1759 1228 1600 
Q 959 1441 959 1056 
Q 959 750 1161 570 
Q 1363 391 1709 391 
Q 2188 391 2477 730 
Q 2766 1069 2766 1631 
L 2766 1759 
L 2194 1759 
z
M 3341 1997 
L 3341 0 
L 2766 0 
L 2766 531 
Q 2569 213 2275 61 
Q 1981 -91 1556 -91 
Q 1019 -91 701 211 
Q 384 513 384 1019 
Q 384 1609 779 1909 
Q 1175 2209 1959 2209 
L 2766 2209 
L 2766 2266 
Q 2766 2663 2505 2880 
Q 2244 3097 1772 3097 
Q 1472 3097 1187 3025 
Q 903 2953 641 2809 
L 641 3341 
Q 956 3463 1253 3523 
Q 1550 3584 1831 3584 
Q 2591 3584 2966 3190 
Q 3341 2797 3341 1997 
z
" id="DejaVuSans-61" transform="scale(0.015625)"/>
       <path d="M 1172 4494 
L 1172 3500 
L 2356 3500 
L 2356 3053 
L 1172 3053 
L 1172 1153 
Q 1172 725 1289 603 
Q 1406 481 1766 481 
L 2356 481 
L 2356 0 
L 1766 0 
Q 1100 0 847 248 
Q 594 497 594 1153 
L 594 3053 
L 172 3053 
L 172 3500 
L 594 3500 
L 594 4494 
L 1172 4494 
z
" id="DejaVuSans-74" transform="scale(0.015625)"/>
       <path id="DejaVuSans-20" transform="scale(0.015625)"/>
       <path d="M 2841 2188 
Q 3044 2119 3236 1894 
Q 3428 1669 3622 1275 
L 4263 0 
L 3584 0 
L 2988 1197 
Q 2756 1666 2539 1819 
Q 2322 1972 1947 1972 
L 1259 1972 
L 1259 0 
L 628 0 
L 628 4666 
L 2053 4666 
Q 2853 4666 3247 4331 
Q 3641 3997 3641 3322 
Q 3641 2881 3436 2590 
Q 3231 2300 2841 2188 
z
M 1259 4147 
L 1259 2491 
L 2053 2491 
Q 2509 2491 2742 2702 
Q 2975 2913 2975 3322 
Q 2975 3731 2742 3939 
Q 2509 4147 2053 4147 
L 1259 4147 
z
" id="DejaVuSans-52" transform="scale(0.015625)"/>
       <path d="M 2906 2969 
L 2906 4863 
L 3481 4863 
L 3481 0 
L 2906 0 
L 2906 525 
Q 2725 213 2448 61 
Q 2172 -91 1784 -91 
Q 1150 -91 751 415 
Q 353 922 353 1747 
Q 353 2572 751 3078 
Q 1150 3584 1784 3584 
Q 2172 3584 2448 3432 
Q 2725 3281 2906 2969 
z
M 947 1747 
Q 947 1113 1208 752 
Q 1469 391 1925 391 
Q 2381 391 2643 752 
Q 2906 1113 2906 1747 
Q 2906 2381 2643 2742 
Q 2381 3103 1925 3103 
Q 1469 3103 1208 2742 
Q 947 2381 947 1747 
z
" id="DejaVuSans-64" transform="scale(0.015625)"/>
      </defs>
      <use xlink:href="#DejaVuSans-43"/>
      <use x="69.824219" xlink:href="#DejaVuSans-6f"/>
      <use x="131.005859" xlink:href="#DejaVuSans-6d"/>
      <use x="228.417969" xlink:href="#DejaVuSans-6d"/>
      <use x="325.830078" xlink:href="#DejaVuSans-75"/>
      <use x="389.208984" xlink:href="#DejaVuSans-6e"/>
      <use x="452.587891" xlink:href="#DejaVuSans-69"/>
      <use x="480.371094" xlink:href="#DejaVuSans-63"/>
      <use x="535.351562" xlink:href="#DejaVuSans-61"/>
      <use x="596.630859" xlink:href="#DejaVuSans-74"/>
      <use x="635.839844" xlink:href="#DejaVuSans-69"/>
      <use x="663.623047" xlink:href="#DejaVuSans-6f"/>
      <use x="724.804688" xlink:href="#DejaVuSans-6e"/>
      <use x="788.183594" xlink:href="#DejaVuSans-20"/>
      <use x="819.970703" xlink:href="#DejaVuSans-52"/>
      <use x="884.953125" xlink:href="#DejaVuSans-6f"/>
      <use x="946.134766" xlink:href="#DejaVuSans-75"/>
      <use x="1009.513672" xlink:href="#DejaVuSans-6e"/>
      <use x="1072.892578" xlink:href="#DejaVuSans-64"/>
     </g>
    </g>
   </g>
   <g id="matplotlib.axis_2">
    <g id="ytick_1">
     <g id="line2d_19">
      <path clip-path="url(#pead9facb01)" d="M 64.125 359.961459 
L 702.72 359.961459 
" style="fill:none;stroke:#b0b0b0;stroke-linecap:square;stroke-width:0.8;"/>
     </g>
     <g id="line2d_20">
      <defs>
       <path d="M 0 0 
L -3.5 0 
" id="m28f129ce92" style="stroke:#000000;stroke-width:0.8;"/>
      </defs>
      <g>
       <use style="stroke:#000000;stroke-width:0.8;" x="64.125" xlink:href="#m28f129ce92" y="359.961459"/>
      </g>
     </g>
     <g id="text_11">
      <!-- 2 -->
      <g transform="translate(46.945 366.040209)scale(0.16 -0.16)">
       <use xlink:href="#DejaVuSans-32"/>
      </g>
     </g>
    </g>
    <g id="ytick_2">
     <g id="line2d_21">
      <path clip-path="url(#pead9facb01)" d="M 64.125 317.907208 
L 702.72 317.907208 
" style="fill:none;stroke:#b0b0b0;stroke-linecap:square;stroke-width:0.8;"/>
     </g>
     <g id="line2d_22">
      <g>
       <use style="stroke:#000000;stroke-width:0.8;" x="64.125" xlink:href="#m28f129ce92" y="317.907208"/>
      </g>
     </g>
     <g id="text_12">
      <!-- 4 -->
      <g transform="translate(46.945 323.985958)scale(0.16 -0.16)">
       <use xlink:href="#DejaVuSans-34"/>
      </g>
     </g>
    </g>
    <g id="ytick_3">
     <g id="line2d_23">
      <path clip-path="url(#pead9facb01)" d="M 64.125 275.852956 
L 702.72 275.852956 
" style="fill:none;stroke:#b0b0b0;stroke-linecap:square;stroke-width:0.8;"/>
     </g>
     <g id="line2d_24">
      <g>
       <use style="stroke:#000000;stroke-width:0.8;" x="64.125" xlink:href="#m28f129ce92" y="275.852956"/>
      </g>
     </g>
     <g id="text_13">
      <!-- 6 -->
      <g transform="translate(46.945 281.931706)scale(0.16 -0.16)">
       <defs>
        <path d="M 2113 2584 
Q 1688 2584 1439 2293 
Q 1191 2003 1191 1497 
Q 1191 994 1439 701 
Q 1688 409 2113 409 
Q 2538 409 2786 701 
Q 3034 994 3034 1497 
Q 3034 2003 2786 2293 
Q 2538 2584 2113 2584 
z
M 3366 4563 
L 3366 3988 
Q 3128 4100 2886 4159 
Q 2644 4219 2406 4219 
Q 1781 4219 1451 3797 
Q 1122 3375 1075 2522 
Q 1259 2794 1537 2939 
Q 1816 3084 2150 3084 
Q 2853 3084 3261 2657 
Q 3669 2231 3669 1497 
Q 3669 778 3244 343 
Q 2819 -91 2113 -91 
Q 1303 -91 875 529 
Q 447 1150 447 2328 
Q 447 3434 972 4092 
Q 1497 4750 2381 4750 
Q 2619 4750 2861 4703 
Q 3103 4656 3366 4563 
z
" id="DejaVuSans-36" transform="scale(0.015625)"/>
       </defs>
       <use xlink:href="#DejaVuSans-36"/>
      </g>
     </g>
    </g>
    <g id="ytick_4">
     <g id="line2d_25">
      <path clip-path="url(#pead9facb01)" d="M 64.125 233.798705 
L 702.72 233.798705 
" style="fill:none;stroke:#b0b0b0;stroke-linecap:square;stroke-width:0.8;"/>
     </g>
     <g id="line2d_26">
      <g>
       <use style="stroke:#000000;stroke-width:0.8;" x="64.125" xlink:href="#m28f129ce92" y="233.798705"/>
      </g>
     </g>
     <g id="text_14">
      <!-- 8 -->
      <g transform="translate(46.945 239.877455)scale(0.16 -0.16)">
       <defs>
        <path d="M 2034 2216 
Q 1584 2216 1326 1975 
Q 1069 1734 1069 1313 
Q 1069 891 1326 650 
Q 1584 409 2034 409 
Q 2484 409 2743 651 
Q 3003 894 3003 1313 
Q 3003 1734 2745 1975 
Q 2488 2216 2034 2216 
z
M 1403 2484 
Q 997 2584 770 2862 
Q 544 3141 544 3541 
Q 544 4100 942 4425 
Q 1341 4750 2034 4750 
Q 2731 4750 3128 4425 
Q 3525 4100 3525 3541 
Q 3525 3141 3298 2862 
Q 3072 2584 2669 2484 
Q 3125 2378 3379 2068 
Q 3634 1759 3634 1313 
Q 3634 634 3220 271 
Q 2806 -91 2034 -91 
Q 1263 -91 848 271 
Q 434 634 434 1313 
Q 434 1759 690 2068 
Q 947 2378 1403 2484 
z
M 1172 3481 
Q 1172 3119 1398 2916 
Q 1625 2713 2034 2713 
Q 2441 2713 2670 2916 
Q 2900 3119 2900 3481 
Q 2900 3844 2670 4047 
Q 2441 4250 2034 4250 
Q 1625 4250 1398 4047 
Q 1172 3844 1172 3481 
z
" id="DejaVuSans-38" transform="scale(0.015625)"/>
       </defs>
       <use xlink:href="#DejaVuSans-38"/>
      </g>
     </g>
    </g>
    <g id="ytick_5">
     <g id="line2d_27">
      <path clip-path="url(#pead9facb01)" d="M 64.125 191.744454 
L 702.72 191.744454 
" style="fill:none;stroke:#b0b0b0;stroke-linecap:square;stroke-width:0.8;"/>
     </g>
     <g id="line2d_28">
      <g>
       <use style="stroke:#000000;stroke-width:0.8;" x="64.125" xlink:href="#m28f129ce92" y="191.744454"/>
      </g>
     </g>
     <g id="text_15">
      <!-- 10 -->
      <g transform="translate(36.765 197.823204)scale(0.16 -0.16)">
       <use xlink:href="#DejaVuSans-31"/>
       <use x="63.623047" xlink:href="#DejaVuSans-30"/>
      </g>
     </g>
    </g>
    <g id="ytick_6">
     <g id="line2d_29">
      <path clip-path="url(#pead9facb01)" d="M 64.125 149.690203 
L 702.72 149.690203 
" style="fill:none;stroke:#b0b0b0;stroke-linecap:square;stroke-width:0.8;"/>
     </g>
     <g id="line2d_30">
      <g>
       <use style="stroke:#000000;stroke-width:0.8;" x="64.125" xlink:href="#m28f129ce92" y="149.690203"/>
      </g>
     </g>
     <g id="text_16">
      <!-- 12 -->
      <g transform="translate(36.765 155.768953)scale(0.16 -0.16)">
       <use xlink:href="#DejaVuSans-31"/>
       <use x="63.623047" xlink:href="#DejaVuSans-32"/>
      </g>
     </g>
    </g>
    <g id="ytick_7">
     <g id="line2d_31">
      <path clip-path="url(#pead9facb01)" d="M 64.125 107.635951 
L 702.72 107.635951 
" style="fill:none;stroke:#b0b0b0;stroke-linecap:square;stroke-width:0.8;"/>
     </g>
     <g id="line2d_32">
      <g>
       <use style="stroke:#000000;stroke-width:0.8;" x="64.125" xlink:href="#m28f129ce92" y="107.635951"/>
      </g>
     </g>
     <g id="text_17">
      <!-- 14 -->
      <g transform="translate(36.765 113.714701)scale(0.16 -0.16)">
       <use xlink:href="#DejaVuSans-31"/>
       <use x="63.623047" xlink:href="#DejaVuSans-34"/>
      </g>
     </g>
    </g>
    <g id="ytick_8">
     <g id="line2d_33">
      <path clip-path="url(#pead9facb01)" d="M 64.125 65.5817 
L 702.72 65.5817 
" style="fill:none;stroke:#b0b0b0;stroke-linecap:square;stroke-width:0.8;"/>
     </g>
     <g id="line2d_34">
      <g>
       <use style="stroke:#000000;stroke-width:0.8;" x="64.125" xlink:href="#m28f129ce92" y="65.5817"/>
      </g>
     </g>
     <g id="text_18">
      <!-- 16 -->
      <g transform="translate(36.765 71.66045)scale(0.16 -0.16)">
       <use xlink:href="#DejaVuSans-31"/>
       <use x="63.623047" xlink:href="#DejaVuSans-36"/>
      </g>
     </g>
    </g>
    <g id="ytick_9">
     <g id="line2d_35">
      <path clip-path="url(#pead9facb01)" d="M 64.125 23.527449 
L 702.72 23.527449 
" style="fill:none;stroke:#b0b0b0;stroke-linecap:square;stroke-width:0.8;"/>
     </g>
     <g id="line2d_36">
      <g>
       <use style="stroke:#000000;stroke-width:0.8;" x="64.125" xlink:href="#m28f129ce92" y="23.527449"/>
      </g>
     </g>
     <g id="text_19">
      <!-- 18 -->
      <g transform="translate(36.765 29.606199)scale(0.16 -0.16)">
       <use xlink:href="#DejaVuSans-31"/>
       <use x="63.623047" xlink:href="#DejaVuSans-38"/>
      </g>
     </g>
    </g>
    <g id="text_20">
     <!-- Validation Loss -->
     <g transform="translate(29.4375 256.566152)rotate(-90)scale(0.16 -0.16)">
      <defs>
       <path d="M 1831 0 
L 50 4666 
L 709 4666 
L 2188 738 
L 3669 4666 
L 4325 4666 
L 2547 0 
L 1831 0 
z
" id="DejaVuSans-56" transform="scale(0.015625)"/>
       <path d="M 603 4863 
L 1178 4863 
L 1178 0 
L 603 0 
L 603 4863 
z
" id="DejaVuSans-6c" transform="scale(0.015625)"/>
       <path d="M 628 4666 
L 1259 4666 
L 1259 531 
L 3531 531 
L 3531 0 
L 628 0 
L 628 4666 
z
" id="DejaVuSans-4c" transform="scale(0.015625)"/>
       <path d="M 2834 3397 
L 2834 2853 
Q 2591 2978 2328 3040 
Q 2066 3103 1784 3103 
Q 1356 3103 1142 2972 
Q 928 2841 928 2578 
Q 928 2378 1081 2264 
Q 1234 2150 1697 2047 
L 1894 2003 
Q 2506 1872 2764 1633 
Q 3022 1394 3022 966 
Q 3022 478 2636 193 
Q 2250 -91 1575 -91 
Q 1294 -91 989 -36 
Q 684 19 347 128 
L 347 722 
Q 666 556 975 473 
Q 1284 391 1588 391 
Q 1994 391 2212 530 
Q 2431 669 2431 922 
Q 2431 1156 2273 1281 
Q 2116 1406 1581 1522 
L 1381 1569 
Q 847 1681 609 1914 
Q 372 2147 372 2553 
Q 372 3047 722 3315 
Q 1072 3584 1716 3584 
Q 2034 3584 2315 3537 
Q 2597 3491 2834 3397 
z
" id="DejaVuSans-73" transform="scale(0.015625)"/>
      </defs>
      <use xlink:href="#DejaVuSans-56"/>
      <use x="60.658203" xlink:href="#DejaVuSans-61"/>
      <use x="121.9375" xlink:href="#DejaVuSans-6c"/>
      <use x="149.720703" xlink:href="#DejaVuSans-69"/>
      <use x="177.503906" xlink:href="#DejaVuSans-64"/>
      <use x="240.980469" xlink:href="#DejaVuSans-61"/>
      <use x="302.259766" xlink:href="#DejaVuSans-74"/>
      <use x="341.46875" xlink:href="#DejaVuSans-69"/>
      <use x="369.251953" xlink:href="#DejaVuSans-6f"/>
      <use x="430.433594" xlink:href="#DejaVuSans-6e"/>
      <use x="493.8125" xlink:href="#DejaVuSans-20"/>
      <use x="525.599609" xlink:href="#DejaVuSans-4c"/>
      <use x="579.5625" xlink:href="#DejaVuSans-6f"/>
      <use x="640.744141" xlink:href="#DejaVuSans-73"/>
      <use x="692.84375" xlink:href="#DejaVuSans-73"/>
     </g>
    </g>
   </g>
   <g id="line2d_37">
    <path clip-path="url(#pead9facb01)" d="M 93.152045 352.812236 
L 673.692955 352.812236 
L 673.692955 352.812236 
" style="fill:none;stroke:#4b0082;stroke-dasharray:3,4.95;stroke-dashoffset:0;stroke-width:3;"/>
   </g>
   <g id="line2d_38">
    <path clip-path="url(#pead9facb01)" d="M 93.152045 37.1722 
L 96.05475 299.945509 
L 98.957455 303.218522 
L 104.762864 304.392292 
L 107.665568 304.473489 
L 110.568273 303.135335 
L 113.470977 304.343122 
L 116.373682 305.182135 
L 119.276386 305.439726 
L 122.179091 305.982956 
L 125.081795 304.440413 
L 127.9845 305.278545 
L 133.789909 307.915479 
L 136.692614 304.428581 
L 139.595318 308.02873 
L 142.498023 307.234252 
L 148.303432 308.169468 
L 151.206136 308.569733 
L 154.108841 310.998705 
L 157.011545 304.704604 
L 159.91425 308.778045 
L 165.719659 310.015798 
L 168.622364 311.466249 
L 171.525068 309.252925 
L 174.427773 307.992606 
L 177.330477 311.991753 
L 180.233182 313.846328 
L 183.135886 309.14373 
L 186.038591 311.215958 
L 188.941295 311.247717 
L 191.844 308.10549 
L 194.746705 309.99688 
L 197.649409 312.60731 
L 200.552114 312.351889 
L 203.454818 313.84663 
L 206.357523 314.076485 
L 209.260227 313.166858 
L 212.162932 315.540624 
L 215.065636 315.932829 
L 217.968341 311.831406 
L 220.871045 315.396786 
L 223.77375 317.169245 
L 226.676455 310.191322 
L 229.579159 318.267874 
L 232.481864 316.320048 
L 235.384568 316.499052 
L 238.287273 310.79527 
L 241.189977 316.968126 
L 244.092682 312.782795 
L 246.995386 320.990373 
L 249.898091 324.088378 
L 252.800795 314.575176 
L 255.7035 315.792223 
L 258.606205 320.07609 
L 261.508909 317.97145 
L 264.411614 324.084772 
L 267.314318 323.212136 
L 270.217023 323.268435 
L 273.119727 316.227196 
L 276.022432 326.531951 
L 278.925136 323.582789 
L 281.827841 326.942352 
L 284.730545 324.916362 
L 287.63325 323.36781 
L 290.535955 316.870422 
L 293.438659 326.815015 
L 296.341364 322.453794 
L 299.244068 324.832258 
L 302.146773 325.095886 
L 305.049477 326.069386 
L 307.952182 326.639514 
L 310.854886 330.263888 
L 313.757591 328.170563 
L 316.660295 328.851005 
L 319.563 318.653652 
L 322.465705 321.000664 
L 325.368409 327.917941 
L 328.271114 329.668289 
L 331.173818 327.2799 
L 334.076523 321.293745 
L 336.979227 327.122955 
L 339.881932 333.3214 
L 342.784636 319.999245 
L 345.687341 330.738426 
L 348.590045 329.079146 
L 351.49275 330.13164 
L 354.395455 330.522978 
L 357.298159 330.500059 
L 360.200864 330.738005 
L 366.006273 332.429524 
L 368.908977 330.976864 
L 371.811682 327.712043 
L 374.714386 335.073146 
L 377.617091 333.227355 
L 380.519795 331.817182 
L 383.4225 326.389779 
L 386.325205 325.664117 
L 389.227909 332.946183 
L 392.130614 335.216665 
L 395.033318 330.853187 
L 397.936023 332.10728 
L 400.838727 328.534072 
L 406.644136 324.571064 
L 409.546841 336.026481 
L 412.449545 333.918938 
L 415.35225 329.829303 
L 418.254955 331.837936 
L 421.157659 334.715158 
L 424.060364 337.424595 
L 426.963068 336.287411 
L 429.865773 334.413892 
L 432.768477 331.834225 
L 435.671182 338.730274 
L 438.573886 337.110004 
L 441.476591 341.254848 
L 444.379295 341.298238 
L 447.282 338.424157 
L 450.184705 331.851701 
L 453.087409 338.834869 
L 455.990114 340.36376 
L 458.892818 342.746529 
L 461.795523 339.530976 
L 464.698227 334.304988 
L 467.600932 337.913365 
L 470.503636 336.670708 
L 473.406341 336.156632 
L 476.309045 336.116505 
L 479.21175 336.777385 
L 482.114455 337.225463 
L 485.017159 331.258232 
L 487.919864 340.493763 
L 490.822568 331.649903 
L 493.725273 340.418194 
L 496.627977 341.610305 
L 499.530682 340.864751 
L 502.433386 344.28608 
L 505.336091 340.165982 
L 508.238795 333.435151 
L 511.1415 337.218493 
L 514.044205 342.504325 
L 516.946909 346.51448 
L 519.849614 344.032694 
L 522.752318 344.435072 
L 525.655023 335.75676 
L 528.557727 337.768733 
L 531.460432 340.747546 
L 534.363136 344.135061 
L 537.265841 343.2793 
L 540.168545 340.702186 
L 543.07125 342.04204 
L 545.973955 338.685143 
L 548.876659 340.534652 
L 551.779364 348.529203 
L 554.682068 342.901911 
L 557.584773 341.828314 
L 560.487477 341.953548 
L 563.390182 344.519438 
L 566.292886 345.606919 
L 569.195591 346.968947 
L 572.098295 347.400254 
L 575.001 344.548603 
L 577.903705 346.302837 
L 580.806409 345.508127 
L 583.709114 340.910126 
L 586.611818 340.940712 
L 589.514523 340.392994 
L 592.417227 341.467269 
L 595.319932 349.310803 
L 598.222636 344.896957 
L 601.125341 351.195802 
L 604.028045 345.209517 
L 606.93075 343.54557 
L 609.833455 342.664871 
L 612.736159 344.066457 
L 615.638864 344.102719 
L 618.541568 346.004203 
L 621.444273 347.557213 
L 624.346977 347.379295 
L 627.249682 343.745426 
L 630.152386 353.445443 
L 633.055091 346.678885 
L 635.957795 346.891226 
L 638.8605 351.059132 
L 641.763205 343.926569 
L 644.665909 344.04656 
L 647.568614 348.949618 
L 650.471318 347.412043 
L 653.374023 349.824072 
L 656.276727 351.595023 
L 659.179432 351.779771 
L 662.082136 348.90814 
L 664.984841 351.809719 
L 667.887545 349.633506 
L 670.79025 349.449718 
L 673.692955 348.142278 
L 673.692955 348.142278 
" style="fill:none;stroke:#ff8c00;stroke-linecap:square;stroke-width:3;"/>
   </g>
   <g id="line2d_39">
    <path clip-path="url(#pead9facb01)" d="M 93.152045 37.1722 
L 98.957455 49.407893 
L 101.860159 55.254343 
L 107.665568 66.254257 
L 113.470977 76.773096 
L 125.081795 96.897741 
L 133.789909 112.008775 
L 139.595318 122.455879 
L 145.400727 133.429754 
L 151.206136 145.110875 
L 157.011545 157.591189 
L 162.816955 170.973149 
L 168.622364 185.3857 
L 174.427773 200.611551 
L 186.038591 232.26354 
L 191.844 246.956992 
L 194.746705 253.881831 
L 197.649409 260.011583 
L 200.552114 265.713458 
L 203.454818 270.954753 
L 206.357523 275.315461 
L 209.260227 279.265222 
L 212.162932 282.765815 
L 215.065636 285.534194 
L 217.968341 288.012746 
L 220.871045 290.158164 
L 223.77375 291.778636 
L 226.676455 293.25649 
L 229.579159 294.512634 
L 235.384568 296.291915 
L 238.287273 297.016971 
L 246.995386 298.463919 
L 255.7035 299.314495 
L 273.119727 300.183318 
L 334.076523 301.256143 
L 345.687341 301.359011 
L 360.200864 301.526693 
L 374.714386 301.633553 
L 395.033318 301.78302 
L 409.546841 301.828345 
L 421.157659 301.90196 
L 435.671182 301.920334 
L 447.282 301.986554 
L 461.795523 301.992908 
L 473.406341 302.036029 
L 496.627977 302.044703 
L 525.655023 302.051211 
L 545.973955 302.000605 
L 560.487477 302.000077 
L 572.098295 301.938056 
L 577.903705 301.966558 
L 583.709114 301.947771 
L 604.028045 301.901677 
L 606.93075 301.810018 
L 612.736159 301.877346 
L 615.638864 301.766396 
L 621.444273 301.851128 
L 624.346977 301.727378 
L 630.152386 301.822933 
L 633.055091 301.68993 
L 638.8605 301.790573 
L 641.763205 301.659263 
L 647.568614 301.758449 
L 650.471318 301.62047 
L 656.276727 301.720678 
L 659.179432 301.58196 
L 664.984841 301.68252 
L 667.887545 301.542753 
L 673.692955 301.641293 
L 673.692955 301.641293 
" style="fill:none;stroke:#32cd32;stroke-linecap:square;stroke-width:3;"/>
   </g>
   <g id="line2d_40">
    <path clip-path="url(#pead9facb01)" d="M 93.152045 37.1722 
L 101.860159 47.647013 
L 110.568273 57.587395 
L 119.276386 67.078875 
L 127.9845 76.190637 
L 136.692614 84.984409 
L 145.400727 93.511836 
L 157.011545 104.540067 
L 168.622364 115.249869 
L 183.135886 128.284499 
L 197.649409 141.019276 
L 220.871045 161.02483 
L 244.092682 180.728013 
L 258.606205 192.946544 
L 287.63325 216.762199 
L 296.341364 223.672193 
L 305.049477 230.412397 
L 313.757591 236.939088 
L 322.465705 243.221136 
L 331.173818 249.209643 
L 339.881932 254.868883 
L 348.590045 260.161932 
L 357.298159 265.064946 
L 366.006273 269.561855 
L 374.714386 273.649942 
L 383.4225 277.330623 
L 392.130614 280.61929 
L 400.838727 283.533469 
L 409.546841 286.099951 
L 418.254955 288.34287 
L 426.963068 290.291926 
L 435.671182 291.976738 
L 444.379295 293.422591 
L 453.087409 294.660699 
L 461.795523 295.717697 
L 470.503636 296.614205 
L 482.114455 297.605603 
L 496.627977 298.555157 
L 511.1415 299.271609 
L 528.557727 299.886075 
L 551.779364 300.416216 
L 577.903705 300.75909 
L 609.833455 300.971007 
L 670.79025 301.110042 
L 673.692955 301.11298 
L 673.692955 301.11298 
" style="fill:none;stroke:#800080;stroke-linecap:square;stroke-width:3;"/>
   </g>
   <g id="patch_3">
    <path d="M 64.125 372.75 
L 64.125 21.192304 
" style="fill:none;stroke:#000000;stroke-linecap:square;stroke-linejoin:miter;stroke-width:0.8;"/>
   </g>
   <g id="patch_4">
    <path d="M 702.72 372.75 
L 702.72 21.192304 
" style="fill:none;stroke:#000000;stroke-linecap:square;stroke-linejoin:miter;stroke-width:0.8;"/>
   </g>
   <g id="patch_5">
    <path d="M 64.125 372.75 
L 702.72 372.75 
" style="fill:none;stroke:#000000;stroke-linecap:square;stroke-linejoin:miter;stroke-width:0.8;"/>
   </g>
   <g id="patch_6">
    <path d="M 64.125 21.192304 
L 702.72 21.192304 
" style="fill:none;stroke:#000000;stroke-linecap:square;stroke-linejoin:miter;stroke-width:0.8;"/>
   </g>
   <g id="legend_1">
    <g id="patch_7">
     <path d="M 549.2175 127.932304 
L 691.52 127.932304 
Q 694.72 127.932304 694.72 124.732304 
L 694.72 32.392304 
Q 694.72 29.192304 691.52 29.192304 
L 549.2175 29.192304 
Q 546.0175 29.192304 546.0175 32.392304 
L 546.0175 124.732304 
Q 546.0175 127.932304 549.2175 127.932304 
z
" style="fill:#ffffff;opacity:0.8;stroke:#cccccc;stroke-linejoin:miter;"/>
    </g>
    <g id="line2d_41">
     <path d="M 552.4175 42.149804 
L 584.4175 42.149804 
" style="fill:none;stroke:#4b0082;stroke-dasharray:3,4.95;stroke-dashoffset:0;stroke-width:3;"/>
    </g>
    <g id="line2d_42"/>
    <g id="text_21">
     <!-- Centralized -->
     <g transform="translate(597.2175 47.749804)scale(0.16 -0.16)">
      <defs>
       <path d="M 3597 1894 
L 3597 1613 
L 953 1613 
Q 991 1019 1311 708 
Q 1631 397 2203 397 
Q 2534 397 2845 478 
Q 3156 559 3463 722 
L 3463 178 
Q 3153 47 2828 -22 
Q 2503 -91 2169 -91 
Q 1331 -91 842 396 
Q 353 884 353 1716 
Q 353 2575 817 3079 
Q 1281 3584 2069 3584 
Q 2775 3584 3186 3129 
Q 3597 2675 3597 1894 
z
M 3022 2063 
Q 3016 2534 2758 2815 
Q 2500 3097 2075 3097 
Q 1594 3097 1305 2825 
Q 1016 2553 972 2059 
L 3022 2063 
z
" id="DejaVuSans-65" transform="scale(0.015625)"/>
       <path d="M 2631 2963 
Q 2534 3019 2420 3045 
Q 2306 3072 2169 3072 
Q 1681 3072 1420 2755 
Q 1159 2438 1159 1844 
L 1159 0 
L 581 0 
L 581 3500 
L 1159 3500 
L 1159 2956 
Q 1341 3275 1631 3429 
Q 1922 3584 2338 3584 
Q 2397 3584 2469 3576 
Q 2541 3569 2628 3553 
L 2631 2963 
z
" id="DejaVuSans-72" transform="scale(0.015625)"/>
       <path d="M 353 3500 
L 3084 3500 
L 3084 2975 
L 922 459 
L 3084 459 
L 3084 0 
L 275 0 
L 275 525 
L 2438 3041 
L 353 3041 
L 353 3500 
z
" id="DejaVuSans-7a" transform="scale(0.015625)"/>
      </defs>
      <use xlink:href="#DejaVuSans-43"/>
      <use x="69.824219" xlink:href="#DejaVuSans-65"/>
      <use x="131.347656" xlink:href="#DejaVuSans-6e"/>
      <use x="194.726562" xlink:href="#DejaVuSans-74"/>
      <use x="233.935547" xlink:href="#DejaVuSans-72"/>
      <use x="275.048828" xlink:href="#DejaVuSans-61"/>
      <use x="336.328125" xlink:href="#DejaVuSans-6c"/>
      <use x="364.111328" xlink:href="#DejaVuSans-69"/>
      <use x="391.894531" xlink:href="#DejaVuSans-7a"/>
      <use x="444.384766" xlink:href="#DejaVuSans-65"/>
      <use x="505.908203" xlink:href="#DejaVuSans-64"/>
     </g>
    </g>
    <g id="line2d_43">
     <path d="M 552.4175 65.634804 
L 584.4175 65.634804 
" style="fill:none;stroke:#ff8c00;stroke-linecap:square;stroke-width:3;"/>
    </g>
    <g id="line2d_44"/>
    <g id="text_22">
     <!-- DiNNO -->
     <g transform="translate(597.2175 71.234804)scale(0.16 -0.16)">
      <defs>
       <path d="M 1259 4147 
L 1259 519 
L 2022 519 
Q 2988 519 3436 956 
Q 3884 1394 3884 2338 
Q 3884 3275 3436 3711 
Q 2988 4147 2022 4147 
L 1259 4147 
z
M 628 4666 
L 1925 4666 
Q 3281 4666 3915 4102 
Q 4550 3538 4550 2338 
Q 4550 1131 3912 565 
Q 3275 0 1925 0 
L 628 0 
L 628 4666 
z
" id="DejaVuSans-44" transform="scale(0.015625)"/>
       <path d="M 628 4666 
L 1478 4666 
L 3547 763 
L 3547 4666 
L 4159 4666 
L 4159 0 
L 3309 0 
L 1241 3903 
L 1241 0 
L 628 0 
L 628 4666 
z
" id="DejaVuSans-4e" transform="scale(0.015625)"/>
       <path d="M 2522 4238 
Q 1834 4238 1429 3725 
Q 1025 3213 1025 2328 
Q 1025 1447 1429 934 
Q 1834 422 2522 422 
Q 3209 422 3611 934 
Q 4013 1447 4013 2328 
Q 4013 3213 3611 3725 
Q 3209 4238 2522 4238 
z
M 2522 4750 
Q 3503 4750 4090 4092 
Q 4678 3434 4678 2328 
Q 4678 1225 4090 567 
Q 3503 -91 2522 -91 
Q 1538 -91 948 565 
Q 359 1222 359 2328 
Q 359 3434 948 4092 
Q 1538 4750 2522 4750 
z
" id="DejaVuSans-4f" transform="scale(0.015625)"/>
      </defs>
      <use xlink:href="#DejaVuSans-44"/>
      <use x="77.001953" xlink:href="#DejaVuSans-69"/>
      <use x="104.785156" xlink:href="#DejaVuSans-4e"/>
      <use x="179.589844" xlink:href="#DejaVuSans-4e"/>
      <use x="254.394531" xlink:href="#DejaVuSans-4f"/>
     </g>
    </g>
    <g id="line2d_45">
     <path d="M 552.4175 89.119804 
L 584.4175 89.119804 
" style="fill:none;stroke:#32cd32;stroke-linecap:square;stroke-width:3;"/>
    </g>
    <g id="line2d_46"/>
    <g id="text_23">
     <!-- DSGT -->
     <g transform="translate(597.2175 94.719804)scale(0.16 -0.16)">
      <defs>
       <path d="M 3425 4513 
L 3425 3897 
Q 3066 4069 2747 4153 
Q 2428 4238 2131 4238 
Q 1616 4238 1336 4038 
Q 1056 3838 1056 3469 
Q 1056 3159 1242 3001 
Q 1428 2844 1947 2747 
L 2328 2669 
Q 3034 2534 3370 2195 
Q 3706 1856 3706 1288 
Q 3706 609 3251 259 
Q 2797 -91 1919 -91 
Q 1588 -91 1214 -16 
Q 841 59 441 206 
L 441 856 
Q 825 641 1194 531 
Q 1563 422 1919 422 
Q 2459 422 2753 634 
Q 3047 847 3047 1241 
Q 3047 1584 2836 1778 
Q 2625 1972 2144 2069 
L 1759 2144 
Q 1053 2284 737 2584 
Q 422 2884 422 3419 
Q 422 4038 858 4394 
Q 1294 4750 2059 4750 
Q 2388 4750 2728 4690 
Q 3069 4631 3425 4513 
z
" id="DejaVuSans-53" transform="scale(0.015625)"/>
       <path d="M 3809 666 
L 3809 1919 
L 2778 1919 
L 2778 2438 
L 4434 2438 
L 4434 434 
Q 4069 175 3628 42 
Q 3188 -91 2688 -91 
Q 1594 -91 976 548 
Q 359 1188 359 2328 
Q 359 3472 976 4111 
Q 1594 4750 2688 4750 
Q 3144 4750 3555 4637 
Q 3966 4525 4313 4306 
L 4313 3634 
Q 3963 3931 3569 4081 
Q 3175 4231 2741 4231 
Q 1884 4231 1454 3753 
Q 1025 3275 1025 2328 
Q 1025 1384 1454 906 
Q 1884 428 2741 428 
Q 3075 428 3337 486 
Q 3600 544 3809 666 
z
" id="DejaVuSans-47" transform="scale(0.015625)"/>
       <path d="M -19 4666 
L 3928 4666 
L 3928 4134 
L 2272 4134 
L 2272 0 
L 1638 0 
L 1638 4134 
L -19 4134 
L -19 4666 
z
" id="DejaVuSans-54" transform="scale(0.015625)"/>
      </defs>
      <use xlink:href="#DejaVuSans-44"/>
      <use x="77.001953" xlink:href="#DejaVuSans-53"/>
      <use x="140.478516" xlink:href="#DejaVuSans-47"/>
      <use x="214.34375" xlink:href="#DejaVuSans-54"/>
     </g>
    </g>
    <g id="line2d_47">
     <path d="M 552.4175 112.604804 
L 584.4175 112.604804 
" style="fill:none;stroke:#800080;stroke-linecap:square;stroke-width:3;"/>
    </g>
    <g id="line2d_48"/>
    <g id="text_24">
     <!-- DSGD -->
     <g transform="translate(597.2175 118.204804)scale(0.16 -0.16)">
      <use xlink:href="#DejaVuSans-44"/>
      <use x="77.001953" xlink:href="#DejaVuSans-53"/>
      <use x="140.478516" xlink:href="#DejaVuSans-47"/>
      <use x="217.96875" xlink:href="#DejaVuSans-44"/>
     </g>
    </g>
   </g>
  </g>
 </g>
 <defs>
  <clipPath id="pead9facb01">
   <rect height="351.557696" width="638.595" x="64.125" y="21.192304"/>
  </clipPath>
 </defs>
</svg>
