<?xml version="1.0" encoding="utf-8" standalone="no"?>
<!DOCTYPE svg PUBLIC "-//W3C//DTD SVG 1.1//EN"
  "http://www.w3.org/Graphics/SVG/1.1/DTD/svg11.dtd">
<svg height="576pt" version="1.1" viewBox="0 0 720 576" width="720pt" xmlns="http://www.w3.org/2000/svg" xmlns:xlink="http://www.w3.org/1999/xlink">
 <metadata>
  <rdf:RDF xmlns:cc="http://creativecommons.org/ns#" xmlns:dc="http://purl.org/dc/elements/1.1/" xmlns:rdf="http://www.w3.org/1999/02/22-rdf-syntax-ns#">
   <cc:Work>
    <dc:type rdf:resource="http://purl.org/dc/dcmitype/StillImage"/>
    <dc:date>2021-09-07T19:20:15.462168</dc:date>
    <dc:format>image/svg+xml</dc:format>
    <dc:creator>
     <cc:Agent>
      <dc:title>Matplotlib v3.4.3, https://matplotlib.org/</dc:title>
     </cc:Agent>
    </dc:creator>
   </cc:Work>
  </rdf:RDF>
 </metadata>
 <defs>
  <style type="text/css">*{stroke-linecap:butt;stroke-linejoin:round;}</style>
 </defs>
 <g id="figure_1">
  <g id="patch_1">
   <path d="M 0 576 
L 720 576 
L 720 0 
L 0 0 
z
" style="fill:none;"/>
  </g>
  <g id="axes_1">
   <g id="patch_2">
    <path d="M 64.125 516.75 
L 702.72 516.75 
L 702.72 20.470156 
L 64.125 20.470156 
z
" style="fill:#ffffff;"/>
   </g>
   <g id="PolyCollection_1">
    <defs>
     <path d="M 93.152045 -532.97167 
L 93.152045 -532.97167 
L 96.05475 -159.616898 
L 98.957455 -156.972146 
L 101.860159 -156.270897 
L 104.762864 -155.603807 
L 107.665568 -154.712409 
L 110.568273 -156.278071 
L 113.470977 -154.570583 
L 116.373682 -154.336758 
L 119.276386 -153.838025 
L 122.179091 -152.589968 
L 125.081795 -152.753562 
L 127.9845 -151.351113 
L 130.887205 -151.206609 
L 133.789909 -149.432694 
L 136.692614 -150.713879 
L 139.595318 -147.138251 
L 142.498023 -149.477175 
L 145.400727 -148.335573 
L 148.303432 -146.958249 
L 151.206136 -146.955712 
L 154.108841 -143.083859 
L 157.011545 -149.547676 
L 159.91425 -147.080978 
L 162.816955 -144.524918 
L 165.719659 -145.630924 
L 168.622364 -141.412755 
L 171.525068 -140.520477 
L 174.427773 -144.361431 
L 177.330477 -140.74223 
L 180.233182 -140.375729 
L 183.135886 -143.566922 
L 186.038591 -140.278527 
L 188.941295 -140.169401 
L 191.844 -140.978937 
L 194.746705 -141.95282 
L 197.649409 -136.740314 
L 200.552114 -138.910819 
L 203.454818 -137.433896 
L 206.357523 -137.813931 
L 209.260227 -136.833234 
L 212.162932 -137.303257 
L 215.065636 -134.413833 
L 217.968341 -137.115389 
L 220.871045 -132.917689 
L 223.77375 -127.897504 
L 226.676455 -138.140057 
L 229.579159 -128.824127 
L 232.481864 -131.618339 
L 235.384568 -126.725839 
L 238.287273 -138.341061 
L 241.189977 -130.538794 
L 244.092682 -134.580768 
L 246.995386 -126.576343 
L 249.898091 -124.763559 
L 252.800795 -127.967434 
L 255.7035 -127.281334 
L 258.606205 -123.610099 
L 261.508909 -130.378648 
L 264.411614 -121.528753 
L 267.314318 -126.414551 
L 270.217023 -123.418035 
L 273.119727 -133.252393 
L 276.022432 -120.753321 
L 278.925136 -119.240721 
L 281.827841 -118.166872 
L 284.730545 -118.472177 
L 287.63325 -121.367198 
L 290.535955 -125.241832 
L 293.438659 -117.994963 
L 296.341364 -122.774635 
L 299.244068 -117.956845 
L 302.146773 -121.883259 
L 305.049477 -112.381186 
L 307.952182 -115.441102 
L 310.854886 -112.699763 
L 313.757591 -114.893185 
L 316.660295 -115.074027 
L 319.563 -122.84959 
L 322.465705 -118.008605 
L 325.368409 -114.271218 
L 328.271114 -109.511321 
L 331.173818 -112.808842 
L 334.076523 -115.692663 
L 336.979227 -109.990769 
L 339.881932 -109.399217 
L 342.784636 -120.881327 
L 345.687341 -109.122999 
L 348.590045 -107.109784 
L 351.49275 -115.206348 
L 354.395455 -109.020981 
L 357.298159 -111.502066 
L 360.200864 -109.350193 
L 363.103568 -112.976608 
L 366.006273 -105.004371 
L 368.908977 -107.801078 
L 371.811682 -109.81091 
L 374.714386 -106.854888 
L 377.617091 -108.495603 
L 380.519795 -108.421427 
L 383.4225 -113.906139 
L 386.325205 -110.792938 
L 389.227909 -109.356294 
L 392.130614 -106.231539 
L 395.033318 -108.362438 
L 397.936023 -106.673925 
L 400.838727 -113.034819 
L 403.741432 -116.447166 
L 406.644136 -115.022177 
L 409.546841 -106.158789 
L 412.449545 -101.962007 
L 415.35225 -107.251497 
L 418.254955 -106.833193 
L 421.157659 -105.805651 
L 424.060364 -101.435045 
L 426.963068 -100.551266 
L 429.865773 -103.781534 
L 432.768477 -103.897671 
L 435.671182 -96.07698 
L 438.573886 -103.73485 
L 441.476591 -96.696498 
L 444.379295 -95.6718 
L 447.282 -99.751083 
L 450.184705 -105.37459 
L 453.087409 -102.817586 
L 455.990114 -101.969428 
L 458.892818 -97.627012 
L 461.795523 -92.688716 
L 464.698227 -98.808482 
L 467.600932 -99.972953 
L 470.503636 -98.324923 
L 473.406341 -106.135283 
L 476.309045 -100.936303 
L 479.21175 -97.77423 
L 482.114455 -97.738669 
L 485.017159 -107.6524 
L 487.919864 -92.098003 
L 490.822568 -105.5405 
L 493.725273 -95.621594 
L 496.627977 -93.907599 
L 499.530682 -95.11321 
L 502.433386 -96.629256 
L 505.336091 -100.740899 
L 508.238795 -98.255491 
L 511.1415 -99.044869 
L 514.044205 -95.517202 
L 516.946909 -91.46448 
L 519.849614 -94.665135 
L 522.752318 -92.043953 
L 525.655023 -101.269841 
L 528.557727 -97.179838 
L 531.460432 -89.863546 
L 534.363136 -93.847863 
L 537.265841 -93.883241 
L 540.168545 -97.988865 
L 543.07125 -93.455383 
L 545.973955 -99.771023 
L 548.876659 -96.190945 
L 551.779364 -88.179773 
L 554.682068 -95.897713 
L 557.584773 -93.243422 
L 560.487477 -95.049062 
L 563.390182 -89.546356 
L 566.292886 -94.006925 
L 569.195591 -90.346182 
L 572.098295 -91.674469 
L 575.001 -92.726884 
L 577.903705 -91.032233 
L 580.806409 -87.223416 
L 583.709114 -97.825693 
L 586.611818 -97.138928 
L 589.514523 -92.54322 
L 592.417227 -99.520839 
L 595.319932 -86.372432 
L 598.222636 -91.677884 
L 601.125341 -86.552796 
L 604.028045 -88.493826 
L 606.93075 -93.871216 
L 609.833455 -96.264923 
L 612.736159 -92.887746 
L 615.638864 -91.797213 
L 618.541568 -90.39267 
L 621.444273 -89.032231 
L 624.346977 -84.620789 
L 627.249682 -91.484634 
L 630.152386 -84.189957 
L 633.055091 -89.924214 
L 635.957795 -88.383183 
L 638.8605 -83.255862 
L 641.763205 -92.120638 
L 644.665909 -89.786438 
L 647.568614 -83.130348 
L 650.471318 -89.951139 
L 653.374023 -85.699788 
L 656.276727 -83.402646 
L 659.179432 -83.488625 
L 662.082136 -86.425943 
L 664.984841 -84.527975 
L 667.887545 -84.258272 
L 670.79025 -85.713861 
L 673.692955 -81.808175 
L 673.692955 -107.366283 
L 673.692955 -107.366283 
L 670.79025 -103.405242 
L 667.887545 -104.98842 
L 664.984841 -92.766149 
L 662.082136 -102.183318 
L 659.179432 -100.423057 
L 656.276727 -95.668924 
L 653.374023 -99.439611 
L 650.471318 -103.034318 
L 647.568614 -104.431376 
L 644.665909 -105.860667 
L 641.763205 -111.792266 
L 638.8605 -106.027577 
L 635.957795 -106.089231 
L 633.055091 -107.714218 
L 630.152386 -88.370706 
L 627.249682 -116.763883 
L 624.346977 -109.690146 
L 621.444273 -107.218017 
L 618.541568 -103.897981 
L 615.638864 -105.358297 
L 612.736159 -109.380195 
L 609.833455 -110.809714 
L 606.93075 -117.952028 
L 604.028045 -106.345024 
L 601.125341 -96.748252 
L 598.222636 -111.52137 
L 595.319932 -104.05795 
L 592.417227 -108.43895 
L 589.514523 -123.735801 
L 586.611818 -110.439556 
L 583.709114 -117.503082 
L 580.806409 -109.990298 
L 577.903705 -100.426821 
L 575.001 -111.042102 
L 572.098295 -99.297142 
L 569.195591 -101.927218 
L 566.292886 -103.720743 
L 563.390182 -107.036686 
L 560.487477 -111.609867 
L 557.584773 -114.748694 
L 554.682068 -110.578184 
L 551.779364 -97.790161 
L 548.876659 -113.311066 
L 545.973955 -118.358308 
L 543.07125 -120.912662 
L 540.168545 -117.581689 
L 537.265841 -104.955899 
L 534.363136 -108.444383 
L 531.460432 -116.411224 
L 528.557727 -123.194445 
L 525.655023 -131.315224 
L 522.752318 -105.465852 
L 519.849614 -109.236113 
L 516.946909 -102.312895 
L 514.044205 -113.551287 
L 511.1415 -125.982797 
L 508.238795 -137.543281 
L 505.336091 -113.03635 
L 502.433386 -102.420419 
L 499.530682 -112.654773 
L 496.627977 -113.009185 
L 493.725273 -113.114772 
L 490.822568 -134.179179 
L 487.919864 -113.988958 
L 485.017159 -135.300081 
L 482.114455 -115.724894 
L 479.21175 -123.212661 
L 476.309045 -122.040774 
L 473.406341 -128.322275 
L 470.503636 -121.48091 
L 467.600932 -121.662153 
L 464.698227 -130.107626 
L 461.795523 -121.657443 
L 458.892818 -106.717787 
L 455.990114 -109.051568 
L 453.087409 -111.987088 
L 450.184705 -121.838282 
L 447.282 -114.741775 
L 444.379295 -110.365145 
L 441.476591 -114.52144 
L 438.573886 -118.046349 
L 435.671182 -118.991375 
L 432.768477 -142.825604 
L 429.865773 -131.455208 
L 426.963068 -117.481572 
L 424.060364 -114.885776 
L 421.157659 -117.567133 
L 418.254955 -129.623647 
L 415.35225 -132.975611 
L 412.449545 -135.681688 
L 409.546841 -123.12925 
L 406.644136 -136.882165 
L 403.741432 -133.6906 
L 400.838727 -142.490642 
L 397.936023 -137.462942 
L 395.033318 -129.34072 
L 392.130614 -120.317237 
L 389.227909 -121.981279 
L 386.325205 -137.507243 
L 383.4225 -140.921634 
L 380.519795 -137.050606 
L 377.617091 -123.896099 
L 374.714386 -117.852093 
L 371.811682 -160.353335 
L 368.908977 -124.158384 
L 366.006273 -136.344068 
L 363.103568 -121.070059 
L 360.200864 -136.717069 
L 357.298159 -127.695819 
L 354.395455 -129.016049 
L 351.49275 -123.767753 
L 348.590045 -127.389719 
L 345.687341 -127.02543 
L 342.784636 -149.753608 
L 339.881932 -118.800176 
L 336.979227 -134.405194 
L 334.076523 -143.989258 
L 331.173818 -129.839975 
L 328.271114 -130.969054 
L 325.368409 -127.158019 
L 322.465705 -149.976205 
L 319.563 -149.756183 
L 316.660295 -131.30554 
L 313.757591 -128.42728 
L 310.854886 -137.395308 
L 307.952182 -133.75081 
L 305.049477 -135.815339 
L 302.146773 -132.860924 
L 299.244068 -133.428532 
L 296.341364 -136.239533 
L 293.438659 -131.728692 
L 290.535955 -150.916831 
L 287.63325 -138.406942 
L 284.730545 -137.265974 
L 281.827841 -132.680055 
L 278.925136 -133.886477 
L 276.022432 -128.178965 
L 273.119727 -145.493245 
L 270.217023 -137.241856 
L 267.314318 -133.513744 
L 264.411614 -139.106255 
L 261.508909 -144.713559 
L 258.606205 -148.685946 
L 255.7035 -161.585862 
L 252.800795 -166.151874 
L 249.898091 -132.242094 
L 246.995386 -143.58133 
L 244.092682 -152.282793 
L 241.189977 -152.829086 
L 238.287273 -155.562271 
L 235.384568 -151.540555 
L 232.481864 -145.84382 
L 229.579159 -145.005423 
L 226.676455 -167.469012 
L 223.77375 -146.199167 
L 220.871045 -144.694912 
L 217.968341 -169.976081 
L 215.065636 -151.996484 
L 212.162932 -144.592507 
L 209.260227 -147.727064 
L 206.357523 -148.442149 
L 203.454818 -147.537022 
L 200.552114 -156.991043 
L 197.649409 -148.954868 
L 194.746705 -152.244666 
L 191.844 -162.954407 
L 188.941295 -152.659324 
L 186.038591 -151.183911 
L 183.135886 -156.813243 
L 180.233182 -146.907291 
L 177.330477 -151.531546 
L 174.427773 -160.413179 
L 171.525068 -165.546116 
L 168.622364 -151.32217 
L 165.719659 -150.463505 
L 162.816955 -157.575714 
L 159.91425 -152.283991 
L 157.011545 -178.001851 
L 154.108841 -150.51714 
L 151.206136 -155.803807 
L 148.303432 -159.566799 
L 145.400727 -154.429921 
L 142.498023 -157.808809 
L 139.595318 -155.101607 
L 136.692614 -162.449065 
L 133.789909 -156.904657 
L 130.887205 -154.237035 
L 127.9845 -160.26724 
L 125.081795 -160.242077 
L 122.179091 -154.604906 
L 119.276386 -154.881086 
L 116.373682 -155.14844 
L 113.470977 -160.144775 
L 110.568273 -159.86108 
L 107.665568 -156.340595 
L 104.762864 -155.963859 
L 101.860159 -157.005226 
L 98.957455 -158.127743 
L 96.05475 -165.689799 
L 93.152045 -532.97167 
z
" id="m206090ca56" style="stroke:#ff8c00;stroke-opacity:0.5;"/>
    </defs>
    <g clip-path="url(#p3a3fcf7fb2)">
     <use style="fill:#ff8c00;fill-opacity:0.5;stroke:#ff8c00;stroke-opacity:0.5;" x="0" xlink:href="#m206090ca56" y="576"/>
    </g>
   </g>
   <g id="PolyCollection_2">
    <defs>
     <path d="M 93.152045 -532.97167 
L 93.152045 -532.97167 
L 96.05475 -523.927445 
L 98.957455 -515.464983 
L 101.860159 -507.217259 
L 104.762864 -499.33891 
L 107.665568 -491.705272 
L 110.568273 -484.170454 
L 113.470977 -476.865281 
L 116.373682 -469.695253 
L 119.276386 -462.531579 
L 122.179091 -455.477629 
L 125.081795 -448.461846 
L 127.9845 -441.386362 
L 130.887205 -434.287234 
L 133.789909 -427.125222 
L 136.692614 -419.814499 
L 139.595318 -412.368856 
L 142.498023 -404.740789 
L 145.400727 -396.863317 
L 148.303432 -388.736093 
L 151.206136 -380.359932 
L 154.108841 -371.702368 
L 157.011545 -362.723974 
L 159.91425 -353.416719 
L 162.816955 -343.817049 
L 165.719659 -333.825458 
L 168.622364 -323.448726 
L 171.525068 -312.870506 
L 174.427773 -301.936952 
L 177.330477 -290.714687 
L 180.233182 -279.625223 
L 183.135886 -268.428078 
L 186.038591 -257.258854 
L 188.941295 -246.749848 
L 191.844 -236.541001 
L 194.746705 -226.786659 
L 197.649409 -218.172925 
L 200.552114 -210.128332 
L 203.454818 -202.754839 
L 206.357523 -196.640077 
L 209.260227 -191.06828 
L 212.162932 -186.149195 
L 215.065636 -182.27153 
L 217.968341 -178.776701 
L 220.871045 -175.764334 
L 223.77375 -173.497798 
L 226.676455 -171.412316 
L 229.579159 -169.649669 
L 232.481864 -168.375272 
L 235.384568 -167.149922 
L 238.287273 -166.133485 
L 241.189977 -165.423068 
L 244.092682 -164.692031 
L 246.995386 -164.101795 
L 249.898091 -163.708436 
L 252.800795 -163.258543 
L 255.7035 -162.907143 
L 258.606205 -162.680733 
L 261.508909 -162.386918 
L 264.411614 -162.170251 
L 267.314318 -162.040284 
L 270.217023 -161.826413 
L 273.119727 -161.685999 
L 276.022432 -161.608312 
L 278.925136 -161.440247 
L 281.827841 -161.33943 
L 284.730545 -161.287407 
L 287.63325 -161.149714 
L 290.535955 -161.071737 
L 293.438659 -161.035478 
L 296.341364 -160.914987 
L 299.244068 -160.850904 
L 302.146773 -160.823553 
L 305.049477 -160.714435 
L 307.952182 -160.657479 
L 310.854886 -160.636791 
L 313.757591 -160.538467 
L 316.660295 -160.484253 
L 319.563 -160.468163 
L 322.465705 -160.375855 
L 325.368409 -160.32373 
L 328.271114 -160.310736 
L 331.173818 -160.225282 
L 334.076523 -160.174198 
L 336.979227 -160.163451 
L 339.881932 -160.086627 
L 342.784636 -160.036551 
L 345.687341 -160.029671 
L 348.590045 -159.957667 
L 351.49275 -159.908797 
L 354.395455 -159.904418 
L 357.298159 -159.840737 
L 360.200864 -159.792652 
L 363.103568 -159.791964 
L 366.006273 -159.735114 
L 368.908977 -159.686831 
L 371.811682 -159.689087 
L 374.714386 -159.639712 
L 377.617091 -159.591097 
L 380.519795 -159.598013 
L 383.4225 -159.555462 
L 386.325205 -159.506107 
L 389.227909 -159.516191 
L 392.130614 -159.481464 
L 395.033318 -159.431135 
L 397.936023 -159.446731 
L 400.838727 -159.418563 
L 403.741432 -159.368882 
L 406.644136 -159.385865 
L 409.546841 -159.365137 
L 412.449545 -159.31355 
L 415.35225 -159.331994 
L 418.254955 -159.317048 
L 421.157659 -159.263272 
L 424.060364 -159.283843 
L 426.963068 -159.273583 
L 429.865773 -159.219666 
L 432.768477 -159.240877 
L 435.671182 -159.235465 
L 438.573886 -159.180303 
L 441.476591 -159.199961 
L 444.379295 -159.197921 
L 447.282 -159.14271 
L 450.184705 -159.163212 
L 453.087409 -159.166477 
L 455.990114 -159.116349 
L 458.892818 -159.132375 
L 461.795523 -159.13479 
L 464.698227 -159.091403 
L 467.600932 -159.106521 
L 470.503636 -159.108175 
L 473.406341 -159.073365 
L 476.309045 -159.087612 
L 479.21175 -159.088997 
L 482.114455 -159.06112 
L 485.017159 -159.074056 
L 487.919864 -159.072982 
L 490.822568 -159.050575 
L 493.725273 -159.066848 
L 496.627977 -159.061686 
L 499.530682 -159.047336 
L 502.433386 -159.060907 
L 505.336091 -159.053613 
L 508.238795 -159.044021 
L 511.1415 -159.061772 
L 514.044205 -159.051578 
L 516.946909 -159.043251 
L 519.849614 -159.066812 
L 522.752318 -159.053289 
L 525.655023 -159.052344 
L 528.557727 -159.083568 
L 531.460432 -159.066657 
L 534.363136 -159.068951 
L 537.265841 -159.101713 
L 540.168545 -159.082153 
L 543.07125 -159.085826 
L 545.973955 -159.123614 
L 548.876659 -159.099102 
L 551.779364 -159.104777 
L 554.682068 -159.146931 
L 557.584773 -159.118913 
L 560.487477 -159.123654 
L 563.390182 -159.176862 
L 566.292886 -159.141291 
L 569.195591 -159.145696 
L 572.098295 -159.21173 
L 575.001 -159.167126 
L 577.903705 -159.170705 
L 580.806409 -159.254103 
L 583.709114 -159.197975 
L 586.611818 -159.199969 
L 589.514523 -159.292511 
L 592.417227 -159.227694 
L 595.319932 -159.226705 
L 598.222636 -159.342806 
L 601.125341 -159.267097 
L 604.028045 -159.262349 
L 606.93075 -159.391232 
L 609.833455 -159.305806 
L 612.736159 -159.296667 
L 615.638864 -159.448019 
L 618.541568 -159.350863 
L 621.444273 -159.333671 
L 624.346977 -159.499591 
L 627.249682 -159.396253 
L 630.152386 -159.374832 
L 633.055091 -159.551659 
L 635.957795 -159.447561 
L 638.8605 -159.42046 
L 641.763205 -159.597838 
L 644.665909 -159.495816 
L 647.568614 -159.46583 
L 650.471318 -159.648037 
L 653.374023 -159.554923 
L 656.276727 -159.519099 
L 659.179432 -159.703749 
L 662.082136 -159.615209 
L 664.984841 -159.572914 
L 667.887545 -159.758136 
L 670.79025 -159.679965 
L 673.692955 -159.630863 
L 673.692955 -159.632294 
L 673.692955 -159.632294 
L 670.79025 -159.689302 
L 667.887545 -159.778639 
L 664.984841 -159.573567 
L 662.082136 -159.623517 
L 659.179432 -159.722771 
L 656.276727 -159.519525 
L 653.374023 -159.561898 
L 650.471318 -159.669472 
L 647.568614 -159.466106 
L 644.665909 -159.50138 
L 641.763205 -159.610755 
L 638.8605 -159.420784 
L 635.957795 -159.452371 
L 633.055091 -159.570205 
L 630.152386 -159.37502 
L 627.249682 -159.40011 
L 624.346977 -159.516583 
L 621.444273 -159.337197 
L 618.541568 -159.354444 
L 615.638864 -159.457665 
L 612.736159 -159.299378 
L 609.833455 -159.308817 
L 606.93075 -159.396333 
L 604.028045 -159.264674 
L 601.125341 -159.269718 
L 598.222636 -159.347114 
L 595.319932 -159.228195 
L 592.417227 -159.229785 
L 589.514523 -159.294833 
L 586.611818 -159.202408 
L 583.709114 -159.199721 
L 580.806409 -159.255025 
L 577.903705 -159.173345 
L 575.001 -159.168478 
L 572.098295 -159.213282 
L 569.195591 -159.147189 
L 566.292886 -159.142294 
L 563.390182 -159.178653 
L 560.487477 -159.125796 
L 557.584773 -159.11969 
L 554.682068 -159.151359 
L 551.779364 -159.106257 
L 548.876659 -159.099742 
L 545.973955 -159.12468 
L 543.07125 -159.086521 
L 540.168545 -159.082667 
L 537.265841 -159.103696 
L 534.363136 -159.07048 
L 531.460432 -159.067051 
L 528.557727 -159.084043 
L 525.655023 -159.052897 
L 522.752318 -159.053494 
L 519.849614 -159.06712 
L 516.946909 -159.043515 
L 514.044205 -159.051685 
L 511.1415 -159.062195 
L 508.238795 -159.044435 
L 505.336091 -159.053796 
L 502.433386 -159.061026 
L 499.530682 -159.048301 
L 496.627977 -159.061915 
L 493.725273 -159.068443 
L 490.822568 -159.051967 
L 487.919864 -159.073362 
L 485.017159 -159.075823 
L 482.114455 -159.062969 
L 479.21175 -159.089424 
L 476.309045 -159.089805 
L 473.406341 -159.075173 
L 470.503636 -159.108506 
L 467.600932 -159.106698 
L 464.698227 -159.094215 
L 461.795523 -159.134984 
L 458.892818 -159.133522 
L 455.990114 -159.119356 
L 453.087409 -159.166587 
L 450.184705 -159.165791 
L 447.282 -159.145737 
L 444.379295 -159.201027 
L 441.476591 -159.201337 
L 438.573886 -159.181339 
L 435.671182 -159.239801 
L 432.768477 -159.243078 
L 429.865773 -159.220042 
L 426.963068 -159.279028 
L 424.060364 -159.286228 
L 421.157659 -159.263452 
L 418.254955 -159.322247 
L 415.35225 -159.333984 
L 412.449545 -159.313723 
L 409.546841 -159.370357 
L 406.644136 -159.387697 
L 403.741432 -159.36906 
L 400.838727 -159.42403 
L 397.936023 -159.448556 
L 395.033318 -159.431402 
L 392.130614 -159.486855 
L 389.227909 -159.516507 
L 386.325205 -159.506512 
L 383.4225 -159.561599 
L 380.519795 -159.598349 
L 377.617091 -159.591665 
L 374.714386 -159.645868 
L 371.811682 -159.689768 
L 368.908977 -159.687521 
L 366.006273 -159.741171 
L 363.103568 -159.792571 
L 360.200864 -159.79362 
L 357.298159 -159.846995 
L 354.395455 -159.905364 
L 351.49275 -159.910144 
L 348.590045 -159.963794 
L 345.687341 -160.029921 
L 342.784636 -160.038252 
L 339.881932 -160.092927 
L 336.979227 -160.164364 
L 334.076523 -160.176298 
L 331.173818 -160.232001 
L 328.271114 -160.311111 
L 325.368409 -160.325923 
L 322.465705 -160.382968 
L 319.563 -160.4691 
L 316.660295 -160.486613 
L 313.757591 -160.544905 
L 310.854886 -160.638553 
L 307.952182 -160.660128 
L 305.049477 -160.721868 
L 302.146773 -160.825947 
L 299.244068 -160.853903 
L 296.341364 -160.922686 
L 293.438659 -161.038299 
L 290.535955 -161.075833 
L 287.63325 -161.158345 
L 284.730545 -161.292194 
L 281.827841 -161.345187 
L 278.925136 -161.45101 
L 276.022432 -161.613623 
L 273.119727 -161.694501 
L 270.217023 -161.840098 
L 267.314318 -162.050508 
L 264.411614 -162.183533 
L 261.508909 -162.404914 
L 258.606205 -162.696696 
L 255.7035 -162.929015 
L 252.800795 -163.287783 
L 249.898091 -163.734469 
L 246.995386 -164.138799 
L 244.092682 -164.740539 
L 241.189977 -165.468364 
L 238.287273 -166.197662 
L 235.384568 -167.232106 
L 232.481864 -168.455014 
L 229.579159 -169.761049 
L 226.676455 -171.551404 
L 223.77375 -173.637415 
L 220.871045 -175.956259 
L 217.968341 -179.010359 
L 215.065636 -182.514951 
L 212.162932 -186.467187 
L 209.260227 -191.443257 
L 206.357523 -197.025735 
L 203.454818 -203.240902 
L 200.552114 -210.678153 
L 197.649409 -218.734011 
L 194.746705 -227.446109 
L 191.844 -237.2514 
L 188.941295 -247.460096 
L 186.038591 -258.03119 
L 183.135886 -269.219512 
L 180.233182 -280.391019 
L 177.330477 -291.503245 
L 174.427773 -302.716758 
L 171.525068 -313.617148 
L 168.622364 -324.184117 
L 165.719659 -334.53963 
L 162.816955 -344.495964 
L 159.91425 -354.077094 
L 157.011545 -363.363121 
L 154.108841 -372.319917 
L 151.206136 -380.953359 
L 148.303432 -389.312085 
L 145.400727 -397.423436 
L 142.498023 -405.280991 
L 139.595318 -412.894047 
L 136.692614 -420.33072 
L 133.789909 -427.628633 
L 130.887205 -434.784643 
L 127.9845 -441.882158 
L 125.081795 -448.952652 
L 122.179091 -455.968286 
L 119.276386 -463.033355 
L 116.373682 -470.1942 
L 113.470977 -477.370666 
L 110.568273 -484.693772 
L 107.665568 -492.233186 
L 104.762864 -499.88143 
L 101.860159 -507.785578 
L 98.957455 -516.046838 
L 96.05475 -524.533527 
L 93.152045 -532.97167 
z
" id="m496ea360d1" style="stroke:#32cd32;stroke-opacity:0.5;"/>
    </defs>
    <g clip-path="url(#p3a3fcf7fb2)">
     <use style="fill:#32cd32;fill-opacity:0.5;stroke:#32cd32;stroke-opacity:0.5;" x="0" xlink:href="#m496ea360d1" y="576"/>
    </g>
   </g>
   <g id="PolyCollection_3">
    <defs>
     <path d="M 93.152045 -532.97167 
L 93.152045 -532.97167 
L 96.05475 -527.95463 
L 98.957455 -523.04161 
L 101.860159 -518.178555 
L 104.762864 -513.433031 
L 107.665568 -508.769864 
L 110.568273 -504.146416 
L 113.470977 -499.621761 
L 116.373682 -495.16818 
L 119.276386 -490.747889 
L 122.179091 -486.408689 
L 125.081795 -482.133145 
L 127.9845 -477.883937 
L 130.887205 -473.703854 
L 133.789909 -469.576651 
L 136.692614 -465.469351 
L 139.595318 -461.420406 
L 142.498023 -457.415565 
L 145.400727 -453.433046 
L 148.303432 -449.491528 
L 151.206136 -445.590842 
L 154.108841 -441.713197 
L 157.011545 -437.863207 
L 159.91425 -434.047782 
L 162.816955 -430.254365 
L 165.719659 -426.484203 
L 168.622364 -422.743268 
L 171.525068 -419.025183 
L 174.427773 -415.322909 
L 177.330477 -411.644422 
L 180.233182 -407.987235 
L 183.135886 -404.341693 
L 186.038591 -400.714367 
L 188.941295 -397.110285 
L 191.844 -393.515981 
L 194.746705 -389.930415 
L 197.649409 -386.36819 
L 200.552114 -382.811705 
L 203.454818 -379.252181 
L 206.357523 -375.716151 
L 209.260227 -372.189131 
L 212.162932 -368.652553 
L 215.065636 -365.139495 
L 217.968341 -361.638647 
L 220.871045 -358.123026 
L 223.77375 -354.626219 
L 226.676455 -351.148218 
L 229.579159 -347.649404 
L 232.481864 -344.169169 
L 235.384568 -340.704858 
L 238.287273 -337.217418 
L 241.189977 -333.747272 
L 244.092682 -330.30789 
L 246.995386 -326.835185 
L 249.898091 -323.37929 
L 252.800795 -319.963663 
L 255.7035 -316.50589 
L 258.606205 -313.062623 
L 261.508909 -309.681264 
L 264.411614 -306.245126 
L 267.314318 -302.826143 
L 270.217023 -299.485617 
L 273.119727 -296.076313 
L 276.022432 -292.685158 
L 278.925136 -289.393484 
L 281.827841 -286.029746 
L 284.730545 -282.68658 
L 287.63325 -279.444364 
L 290.535955 -276.142874 
L 293.438659 -272.863711 
L 296.341364 -269.69129 
L 299.244068 -266.467101 
L 302.146773 -263.268735 
L 305.049477 -260.175128 
L 307.952182 -257.051965 
L 310.854886 -253.951756 
L 313.757591 -250.960903 
L 316.660295 -247.947155 
L 319.563 -244.963535 
L 322.465705 -242.093408 
L 325.368409 -239.212556 
L 328.271114 -236.368718 
L 331.173818 -233.637861 
L 334.076523 -230.907993 
L 336.979227 -228.223481 
L 339.881932 -225.64567 
L 342.784636 -223.087993 
L 345.687341 -220.580826 
L 348.590045 -218.170198 
L 351.49275 -215.796794 
L 354.395455 -213.478401 
L 357.298159 -211.247576 
L 360.200864 -209.069545 
L 363.103568 -206.941526 
L 366.006273 -204.899002 
L 368.908977 -202.912158 
L 371.811682 -200.978745 
L 374.714386 -199.122327 
L 377.617091 -197.335218 
L 380.519795 -195.589871 
L 383.4225 -193.926074 
L 386.325205 -192.323897 
L 389.227909 -190.766461 
L 392.130614 -189.282826 
L 395.033318 -187.856842 
L 397.936023 -186.47883 
L 400.838727 -185.168316 
L 403.741432 -183.908602 
L 406.644136 -182.698808 
L 409.546841 -181.545028 
L 412.449545 -180.439725 
L 415.35225 -179.38619 
L 418.254955 -178.378526 
L 421.157659 -177.415832 
L 424.060364 -176.502569 
L 426.963068 -175.6286 
L 429.865773 -174.790752 
L 432.768477 -174.003304 
L 435.671182 -173.250739 
L 438.573886 -172.529156 
L 441.476591 -171.855657 
L 444.379295 -171.212741 
L 447.282 -170.589383 
L 450.184705 -170.013273 
L 453.087409 -169.463124 
L 455.990114 -168.931142 
L 458.892818 -168.439684 
L 461.795523 -167.972551 
L 464.698227 -167.52072 
L 467.600932 -167.10387 
L 470.503636 -166.708638 
L 473.406341 -166.321368 
L 476.309045 -165.971046 
L 479.21175 -165.637805 
L 482.114455 -165.310469 
L 485.017159 -165.014595 
L 487.919864 -164.734756 
L 490.822568 -164.454934 
L 493.725273 -164.208153 
L 496.627977 -163.973972 
L 499.530682 -163.739326 
L 502.433386 -163.530704 
L 505.336091 -163.335685 
L 508.238795 -163.138417 
L 511.1415 -162.963747 
L 514.044205 -162.80217 
L 516.946909 -162.639042 
L 519.849614 -162.491569 
L 522.752318 -162.359034 
L 525.655023 -162.220663 
L 528.557727 -162.098199 
L 531.460432 -161.988486 
L 534.363136 -161.874198 
L 537.265841 -161.772591 
L 540.168545 -161.681947 
L 543.07125 -161.589128 
L 545.973955 -161.50444 
L 548.876659 -161.429446 
L 551.779364 -161.353746 
L 554.682068 -161.283599 
L 557.584773 -161.221134 
L 560.487477 -161.160281 
L 563.390182 -161.102118 
L 566.292886 -161.051341 
L 569.195591 -161.00181 
L 572.098295 -160.953352 
L 575.001 -160.912183 
L 577.903705 -160.872563 
L 580.806409 -160.832326 
L 583.709114 -160.799304 
L 586.611818 -160.767867 
L 589.514523 -160.734326 
L 592.417227 -160.708087 
L 595.319932 -160.683086 
L 598.222636 -160.655561 
L 601.125341 -160.634439 
L 604.028045 -160.615009 
L 606.93075 -160.592065 
L 609.833455 -160.574988 
L 612.736159 -160.559854 
L 615.638864 -160.541085 
L 618.541568 -160.527001 
L 621.444273 -160.514984 
L 624.346977 -160.50085 
L 627.249682 -160.488628 
L 630.152386 -160.478247 
L 633.055091 -160.466933 
L 635.957795 -160.457628 
L 638.8605 -160.449293 
L 641.763205 -160.439512 
L 644.665909 -160.432461 
L 647.568614 -160.42524 
L 650.471318 -160.417438 
L 653.374023 -160.41181 
L 656.276727 -160.405613 
L 659.179432 -160.398825 
L 662.082136 -160.394326 
L 664.984841 -160.389181 
L 667.887545 -160.383306 
L 670.79025 -160.379623 
L 673.692955 -160.375281 
L 673.692955 -160.378514 
L 673.692955 -160.378514 
L 670.79025 -160.382554 
L 667.887545 -160.38804 
L 664.984841 -160.392017 
L 662.082136 -160.396853 
L 659.179432 -160.403187 
L 656.276727 -160.408182 
L 653.374023 -160.41391 
L 650.471318 -160.420627 
L 647.568614 -160.427327 
L 644.665909 -160.434404 
L 641.763205 -160.441957 
L 638.8605 -160.451375 
L 635.957795 -160.459997 
L 633.055091 -160.468463 
L 630.152386 -160.480834 
L 627.249682 -160.491467 
L 624.346977 -160.501839 
L 621.444273 -160.516434 
L 618.541568 -160.530255 
L 615.638864 -160.544018 
L 612.736159 -160.561967 
L 609.833455 -160.578831 
L 606.93075 -160.596042 
L 604.028045 -160.61822 
L 601.125341 -160.639185 
L 598.222636 -160.660657 
L 595.319932 -160.687905 
L 592.417227 -160.713834 
L 589.514523 -160.740529 
L 586.611818 -160.774244 
L 583.709114 -160.806461 
L 580.806409 -160.839679 
L 577.903705 -160.880647 
L 575.001 -160.920888 
L 572.098295 -160.961969 
L 569.195591 -161.011738 
L 566.292886 -161.061727 
L 563.390182 -161.112168 
L 560.487477 -161.172251 
L 557.584773 -161.233275 
L 554.682068 -161.295245 
L 551.779364 -161.367027 
L 548.876659 -161.442052 
L 545.973955 -161.518232 
L 543.07125 -161.604789 
L 540.168545 -161.695807 
L 537.265841 -161.788391 
L 534.363136 -161.892714 
L 531.460432 -162.003897 
L 528.557727 -162.116077 
L 525.655023 -162.241912 
L 522.752318 -162.376227 
L 519.849614 -162.511666 
L 516.946909 -162.661533 
L 514.044205 -162.822306 
L 511.1415 -162.985022 
L 508.238795 -163.164238 
L 505.336091 -163.358387 
L 502.433386 -163.553902 
L 499.530682 -163.768743 
L 496.627977 -163.999166 
L 493.725273 -164.23347 
L 490.822568 -164.486802 
L 487.919864 -164.762439 
L 485.017159 -165.042171 
L 482.114455 -165.344525 
L 479.21175 -165.66917 
L 476.309045 -166.001594 
L 473.406341 -166.357666 
L 470.503636 -166.742968 
L 467.600932 -167.137344 
L 464.698227 -167.558591 
L 461.795523 -168.009679 
L 458.892818 -168.475837 
L 455.990114 -168.972019 
L 453.087409 -169.502876 
L 450.184705 -170.051825 
L 447.282 -170.634855 
L 444.379295 -171.253954 
L 441.476591 -171.896365 
L 438.573886 -172.573631 
L 435.671182 -173.295965 
L 432.768477 -174.045946 
L 429.865773 -174.83417 
L 426.963068 -175.675654 
L 424.060364 -176.546686 
L 421.157659 -177.460865 
L 418.254955 -178.428655 
L 415.35225 -179.431413 
L 412.449545 -180.484824 
L 409.546841 -181.594145 
L 406.644136 -182.747955 
L 403.741432 -183.953262 
L 400.838727 -185.218442 
L 397.936023 -186.528686 
L 395.033318 -187.900493 
L 392.130614 -189.331277 
L 389.227909 -190.815879 
L 386.325205 -192.366207 
L 383.4225 -193.974138 
L 380.519795 -195.637784 
L 377.617091 -197.376222 
L 374.714386 -199.168484 
L 371.811682 -201.020437 
L 368.908977 -202.95233 
L 366.006273 -204.93779 
L 363.103568 -206.981026 
L 360.200864 -209.107938 
L 357.298159 -211.282556 
L 354.395455 -213.514583 
L 351.49275 -215.83511 
L 348.590045 -218.205984 
L 345.687341 -220.616433 
L 342.784636 -223.123946 
L 339.881932 -225.677486 
L 336.979227 -228.257716 
L 334.076523 -230.940727 
L 331.173818 -233.663435 
L 328.271114 -236.400295 
L 325.368409 -239.241072 
L 322.465705 -242.114316 
L 319.563 -244.991688 
L 316.660295 -247.971527 
L 313.757591 -250.982369 
L 310.854886 -253.976115 
L 307.952182 -257.074129 
L 305.049477 -260.194418 
L 302.146773 -263.290382 
L 299.244068 -266.489888 
L 296.341364 -269.708183 
L 293.438659 -272.885555 
L 290.535955 -276.165075 
L 287.63325 -279.461282 
L 284.730545 -282.708995 
L 281.827841 -286.0523 
L 278.925136 -289.40838 
L 276.022432 -292.708139 
L 273.119727 -296.099374 
L 270.217023 -299.502342 
L 267.314318 -302.840758 
L 264.411614 -306.268862 
L 261.508909 -309.706514 
L 258.606205 -313.078582 
L 255.7035 -316.529659 
L 252.800795 -319.987412 
L 249.898091 -323.39342 
L 246.995386 -326.858695 
L 244.092682 -330.331149 
L 241.189977 -333.763229 
L 238.287273 -337.240611 
L 235.384568 -340.727832 
L 232.481864 -344.183718 
L 229.579159 -347.672895 
L 226.676455 -351.169722 
L 223.77375 -354.643445 
L 220.871045 -358.145892 
L 217.968341 -361.659552 
L 215.065636 -365.155197 
L 212.162932 -368.674636 
L 209.260227 -372.209431 
L 206.357523 -375.730444 
L 203.454818 -379.273983 
L 200.552114 -382.831699 
L 197.649409 -386.383053 
L 194.746705 -389.950608 
L 191.844 -393.53634 
L 188.941295 -397.125827 
L 186.038591 -400.734511 
L 183.135886 -404.360891 
L 180.233182 -408.005606 
L 177.330477 -411.663525 
L 174.427773 -415.340687 
L 171.525068 -419.042301 
L 168.622364 -422.761347 
L 165.719659 -426.501108 
L 162.816955 -430.273455 
L 159.91425 -434.065587 
L 157.011545 -437.879782 
L 154.108841 -441.731427 
L 151.206136 -445.607872 
L 148.303432 -449.507248 
L 145.400727 -453.451682 
L 142.498023 -457.431926 
L 139.595318 -461.435284 
L 136.692614 -465.489243 
L 133.789909 -469.592088 
L 130.887205 -473.717926 
L 127.9845 -477.902551 
L 125.081795 -482.147012 
L 122.179091 -486.423342 
L 119.276386 -490.765172 
L 116.373682 -495.182229 
L 113.470977 -499.637017 
L 110.568273 -504.164487 
L 107.665568 -508.784154 
L 104.762864 -513.449114 
L 101.860159 -518.196894 
L 98.957455 -523.056026 
L 96.05475 -527.97143 
L 93.152045 -532.97167 
z
" id="m65165bcf0b" style="stroke:#800080;stroke-opacity:0.5;"/>
    </defs>
    <g clip-path="url(#p3a3fcf7fb2)">
     <use style="fill:#800080;fill-opacity:0.5;stroke:#800080;stroke-opacity:0.5;" x="0" xlink:href="#m65165bcf0b" y="576"/>
    </g>
   </g>
   <g id="matplotlib.axis_1">
    <g id="xtick_1">
     <g id="line2d_1">
      <path clip-path="url(#p3a3fcf7fb2)" d="M 93.152045 516.75 
L 93.152045 20.470156 
" style="fill:none;stroke:#b0b0b0;stroke-linecap:square;stroke-width:0.8;"/>
     </g>
     <g id="line2d_2">
      <defs>
       <path d="M 0 0 
L 0 3.5 
" id="ma3a1feec56" style="stroke:#000000;stroke-width:0.8;"/>
      </defs>
      <g>
       <use style="stroke:#000000;stroke-width:0.8;" x="93.152045" xlink:href="#ma3a1feec56" y="516.75"/>
      </g>
     </g>
     <g id="text_1">
      <!-- 0 -->
      <g transform="translate(88.062045 535.9075)scale(0.16 -0.16)">
       <defs>
        <path d="M 2034 4250 
Q 1547 4250 1301 3770 
Q 1056 3291 1056 2328 
Q 1056 1369 1301 889 
Q 1547 409 2034 409 
Q 2525 409 2770 889 
Q 3016 1369 3016 2328 
Q 3016 3291 2770 3770 
Q 2525 4250 2034 4250 
z
M 2034 4750 
Q 2819 4750 3233 4129 
Q 3647 3509 3647 2328 
Q 3647 1150 3233 529 
Q 2819 -91 2034 -91 
Q 1250 -91 836 529 
Q 422 1150 422 2328 
Q 422 3509 836 4129 
Q 1250 4750 2034 4750 
z
" id="DejaVuSans-30" transform="scale(0.015625)"/>
       </defs>
       <use xlink:href="#DejaVuSans-30"/>
      </g>
     </g>
    </g>
    <g id="xtick_2">
     <g id="line2d_3">
      <path clip-path="url(#p3a3fcf7fb2)" d="M 165.719659 516.75 
L 165.719659 20.470156 
" style="fill:none;stroke:#b0b0b0;stroke-linecap:square;stroke-width:0.8;"/>
     </g>
     <g id="line2d_4">
      <g>
       <use style="stroke:#000000;stroke-width:0.8;" x="165.719659" xlink:href="#ma3a1feec56" y="516.75"/>
      </g>
     </g>
     <g id="text_2">
      <!-- 500 -->
      <g transform="translate(150.449659 535.9075)scale(0.16 -0.16)">
       <defs>
        <path d="M 691 4666 
L 3169 4666 
L 3169 4134 
L 1269 4134 
L 1269 2991 
Q 1406 3038 1543 3061 
Q 1681 3084 1819 3084 
Q 2600 3084 3056 2656 
Q 3513 2228 3513 1497 
Q 3513 744 3044 326 
Q 2575 -91 1722 -91 
Q 1428 -91 1123 -41 
Q 819 9 494 109 
L 494 744 
Q 775 591 1075 516 
Q 1375 441 1709 441 
Q 2250 441 2565 725 
Q 2881 1009 2881 1497 
Q 2881 1984 2565 2268 
Q 2250 2553 1709 2553 
Q 1456 2553 1204 2497 
Q 953 2441 691 2322 
L 691 4666 
z
" id="DejaVuSans-35" transform="scale(0.015625)"/>
       </defs>
       <use xlink:href="#DejaVuSans-35"/>
       <use x="63.623047" xlink:href="#DejaVuSans-30"/>
       <use x="127.246094" xlink:href="#DejaVuSans-30"/>
      </g>
     </g>
    </g>
    <g id="xtick_3">
     <g id="line2d_5">
      <path clip-path="url(#p3a3fcf7fb2)" d="M 238.287273 516.75 
L 238.287273 20.470156 
" style="fill:none;stroke:#b0b0b0;stroke-linecap:square;stroke-width:0.8;"/>
     </g>
     <g id="line2d_6">
      <g>
       <use style="stroke:#000000;stroke-width:0.8;" x="238.287273" xlink:href="#ma3a1feec56" y="516.75"/>
      </g>
     </g>
     <g id="text_3">
      <!-- 1000 -->
      <g transform="translate(217.927273 535.9075)scale(0.16 -0.16)">
       <defs>
        <path d="M 794 531 
L 1825 531 
L 1825 4091 
L 703 3866 
L 703 4441 
L 1819 4666 
L 2450 4666 
L 2450 531 
L 3481 531 
L 3481 0 
L 794 0 
L 794 531 
z
" id="DejaVuSans-31" transform="scale(0.015625)"/>
       </defs>
       <use xlink:href="#DejaVuSans-31"/>
       <use x="63.623047" xlink:href="#DejaVuSans-30"/>
       <use x="127.246094" xlink:href="#DejaVuSans-30"/>
       <use x="190.869141" xlink:href="#DejaVuSans-30"/>
      </g>
     </g>
    </g>
    <g id="xtick_4">
     <g id="line2d_7">
      <path clip-path="url(#p3a3fcf7fb2)" d="M 310.854886 516.75 
L 310.854886 20.470156 
" style="fill:none;stroke:#b0b0b0;stroke-linecap:square;stroke-width:0.8;"/>
     </g>
     <g id="line2d_8">
      <g>
       <use style="stroke:#000000;stroke-width:0.8;" x="310.854886" xlink:href="#ma3a1feec56" y="516.75"/>
      </g>
     </g>
     <g id="text_4">
      <!-- 1500 -->
      <g transform="translate(290.494886 535.9075)scale(0.16 -0.16)">
       <use xlink:href="#DejaVuSans-31"/>
       <use x="63.623047" xlink:href="#DejaVuSans-35"/>
       <use x="127.246094" xlink:href="#DejaVuSans-30"/>
       <use x="190.869141" xlink:href="#DejaVuSans-30"/>
      </g>
     </g>
    </g>
    <g id="xtick_5">
     <g id="line2d_9">
      <path clip-path="url(#p3a3fcf7fb2)" d="M 383.4225 516.75 
L 383.4225 20.470156 
" style="fill:none;stroke:#b0b0b0;stroke-linecap:square;stroke-width:0.8;"/>
     </g>
     <g id="line2d_10">
      <g>
       <use style="stroke:#000000;stroke-width:0.8;" x="383.4225" xlink:href="#ma3a1feec56" y="516.75"/>
      </g>
     </g>
     <g id="text_5">
      <!-- 2000 -->
      <g transform="translate(363.0625 535.9075)scale(0.16 -0.16)">
       <defs>
        <path d="M 1228 531 
L 3431 531 
L 3431 0 
L 469 0 
L 469 531 
Q 828 903 1448 1529 
Q 2069 2156 2228 2338 
Q 2531 2678 2651 2914 
Q 2772 3150 2772 3378 
Q 2772 3750 2511 3984 
Q 2250 4219 1831 4219 
Q 1534 4219 1204 4116 
Q 875 4013 500 3803 
L 500 4441 
Q 881 4594 1212 4672 
Q 1544 4750 1819 4750 
Q 2544 4750 2975 4387 
Q 3406 4025 3406 3419 
Q 3406 3131 3298 2873 
Q 3191 2616 2906 2266 
Q 2828 2175 2409 1742 
Q 1991 1309 1228 531 
z
" id="DejaVuSans-32" transform="scale(0.015625)"/>
       </defs>
       <use xlink:href="#DejaVuSans-32"/>
       <use x="63.623047" xlink:href="#DejaVuSans-30"/>
       <use x="127.246094" xlink:href="#DejaVuSans-30"/>
       <use x="190.869141" xlink:href="#DejaVuSans-30"/>
      </g>
     </g>
    </g>
    <g id="xtick_6">
     <g id="line2d_11">
      <path clip-path="url(#p3a3fcf7fb2)" d="M 455.990114 516.75 
L 455.990114 20.470156 
" style="fill:none;stroke:#b0b0b0;stroke-linecap:square;stroke-width:0.8;"/>
     </g>
     <g id="line2d_12">
      <g>
       <use style="stroke:#000000;stroke-width:0.8;" x="455.990114" xlink:href="#ma3a1feec56" y="516.75"/>
      </g>
     </g>
     <g id="text_6">
      <!-- 2500 -->
      <g transform="translate(435.630114 535.9075)scale(0.16 -0.16)">
       <use xlink:href="#DejaVuSans-32"/>
       <use x="63.623047" xlink:href="#DejaVuSans-35"/>
       <use x="127.246094" xlink:href="#DejaVuSans-30"/>
       <use x="190.869141" xlink:href="#DejaVuSans-30"/>
      </g>
     </g>
    </g>
    <g id="xtick_7">
     <g id="line2d_13">
      <path clip-path="url(#p3a3fcf7fb2)" d="M 528.557727 516.75 
L 528.557727 20.470156 
" style="fill:none;stroke:#b0b0b0;stroke-linecap:square;stroke-width:0.8;"/>
     </g>
     <g id="line2d_14">
      <g>
       <use style="stroke:#000000;stroke-width:0.8;" x="528.557727" xlink:href="#ma3a1feec56" y="516.75"/>
      </g>
     </g>
     <g id="text_7">
      <!-- 3000 -->
      <g transform="translate(508.197727 535.9075)scale(0.16 -0.16)">
       <defs>
        <path d="M 2597 2516 
Q 3050 2419 3304 2112 
Q 3559 1806 3559 1356 
Q 3559 666 3084 287 
Q 2609 -91 1734 -91 
Q 1441 -91 1130 -33 
Q 819 25 488 141 
L 488 750 
Q 750 597 1062 519 
Q 1375 441 1716 441 
Q 2309 441 2620 675 
Q 2931 909 2931 1356 
Q 2931 1769 2642 2001 
Q 2353 2234 1838 2234 
L 1294 2234 
L 1294 2753 
L 1863 2753 
Q 2328 2753 2575 2939 
Q 2822 3125 2822 3475 
Q 2822 3834 2567 4026 
Q 2313 4219 1838 4219 
Q 1578 4219 1281 4162 
Q 984 4106 628 3988 
L 628 4550 
Q 988 4650 1302 4700 
Q 1616 4750 1894 4750 
Q 2613 4750 3031 4423 
Q 3450 4097 3450 3541 
Q 3450 3153 3228 2886 
Q 3006 2619 2597 2516 
z
" id="DejaVuSans-33" transform="scale(0.015625)"/>
       </defs>
       <use xlink:href="#DejaVuSans-33"/>
       <use x="63.623047" xlink:href="#DejaVuSans-30"/>
       <use x="127.246094" xlink:href="#DejaVuSans-30"/>
       <use x="190.869141" xlink:href="#DejaVuSans-30"/>
      </g>
     </g>
    </g>
    <g id="xtick_8">
     <g id="line2d_15">
      <path clip-path="url(#p3a3fcf7fb2)" d="M 601.125341 516.75 
L 601.125341 20.470156 
" style="fill:none;stroke:#b0b0b0;stroke-linecap:square;stroke-width:0.8;"/>
     </g>
     <g id="line2d_16">
      <g>
       <use style="stroke:#000000;stroke-width:0.8;" x="601.125341" xlink:href="#ma3a1feec56" y="516.75"/>
      </g>
     </g>
     <g id="text_8">
      <!-- 3500 -->
      <g transform="translate(580.765341 535.9075)scale(0.16 -0.16)">
       <use xlink:href="#DejaVuSans-33"/>
       <use x="63.623047" xlink:href="#DejaVuSans-35"/>
       <use x="127.246094" xlink:href="#DejaVuSans-30"/>
       <use x="190.869141" xlink:href="#DejaVuSans-30"/>
      </g>
     </g>
    </g>
    <g id="xtick_9">
     <g id="line2d_17">
      <path clip-path="url(#p3a3fcf7fb2)" d="M 673.692955 516.75 
L 673.692955 20.470156 
" style="fill:none;stroke:#b0b0b0;stroke-linecap:square;stroke-width:0.8;"/>
     </g>
     <g id="line2d_18">
      <g>
       <use style="stroke:#000000;stroke-width:0.8;" x="673.692955" xlink:href="#ma3a1feec56" y="516.75"/>
      </g>
     </g>
     <g id="text_9">
      <!-- 4000 -->
      <g transform="translate(653.332955 535.9075)scale(0.16 -0.16)">
       <defs>
        <path d="M 2419 4116 
L 825 1625 
L 2419 1625 
L 2419 4116 
z
M 2253 4666 
L 3047 4666 
L 3047 1625 
L 3713 1625 
L 3713 1100 
L 3047 1100 
L 3047 0 
L 2419 0 
L 2419 1100 
L 313 1100 
L 313 1709 
L 2253 4666 
z
" id="DejaVuSans-34" transform="scale(0.015625)"/>
       </defs>
       <use xlink:href="#DejaVuSans-34"/>
       <use x="63.623047" xlink:href="#DejaVuSans-30"/>
       <use x="127.246094" xlink:href="#DejaVuSans-30"/>
       <use x="190.869141" xlink:href="#DejaVuSans-30"/>
      </g>
     </g>
    </g>
    <g id="text_10">
     <!-- Communication Round -->
     <g transform="translate(292.51375 555.3925)scale(0.16 -0.16)">
      <defs>
       <path d="M 4122 4306 
L 4122 3641 
Q 3803 3938 3442 4084 
Q 3081 4231 2675 4231 
Q 1875 4231 1450 3742 
Q 1025 3253 1025 2328 
Q 1025 1406 1450 917 
Q 1875 428 2675 428 
Q 3081 428 3442 575 
Q 3803 722 4122 1019 
L 4122 359 
Q 3791 134 3420 21 
Q 3050 -91 2638 -91 
Q 1578 -91 968 557 
Q 359 1206 359 2328 
Q 359 3453 968 4101 
Q 1578 4750 2638 4750 
Q 3056 4750 3426 4639 
Q 3797 4528 4122 4306 
z
" id="DejaVuSans-43" transform="scale(0.015625)"/>
       <path d="M 1959 3097 
Q 1497 3097 1228 2736 
Q 959 2375 959 1747 
Q 959 1119 1226 758 
Q 1494 397 1959 397 
Q 2419 397 2687 759 
Q 2956 1122 2956 1747 
Q 2956 2369 2687 2733 
Q 2419 3097 1959 3097 
z
M 1959 3584 
Q 2709 3584 3137 3096 
Q 3566 2609 3566 1747 
Q 3566 888 3137 398 
Q 2709 -91 1959 -91 
Q 1206 -91 779 398 
Q 353 888 353 1747 
Q 353 2609 779 3096 
Q 1206 3584 1959 3584 
z
" id="DejaVuSans-6f" transform="scale(0.015625)"/>
       <path d="M 3328 2828 
Q 3544 3216 3844 3400 
Q 4144 3584 4550 3584 
Q 5097 3584 5394 3201 
Q 5691 2819 5691 2113 
L 5691 0 
L 5113 0 
L 5113 2094 
Q 5113 2597 4934 2840 
Q 4756 3084 4391 3084 
Q 3944 3084 3684 2787 
Q 3425 2491 3425 1978 
L 3425 0 
L 2847 0 
L 2847 2094 
Q 2847 2600 2669 2842 
Q 2491 3084 2119 3084 
Q 1678 3084 1418 2786 
Q 1159 2488 1159 1978 
L 1159 0 
L 581 0 
L 581 3500 
L 1159 3500 
L 1159 2956 
Q 1356 3278 1631 3431 
Q 1906 3584 2284 3584 
Q 2666 3584 2933 3390 
Q 3200 3197 3328 2828 
z
" id="DejaVuSans-6d" transform="scale(0.015625)"/>
       <path d="M 544 1381 
L 544 3500 
L 1119 3500 
L 1119 1403 
Q 1119 906 1312 657 
Q 1506 409 1894 409 
Q 2359 409 2629 706 
Q 2900 1003 2900 1516 
L 2900 3500 
L 3475 3500 
L 3475 0 
L 2900 0 
L 2900 538 
Q 2691 219 2414 64 
Q 2138 -91 1772 -91 
Q 1169 -91 856 284 
Q 544 659 544 1381 
z
M 1991 3584 
L 1991 3584 
z
" id="DejaVuSans-75" transform="scale(0.015625)"/>
       <path d="M 3513 2113 
L 3513 0 
L 2938 0 
L 2938 2094 
Q 2938 2591 2744 2837 
Q 2550 3084 2163 3084 
Q 1697 3084 1428 2787 
Q 1159 2491 1159 1978 
L 1159 0 
L 581 0 
L 581 3500 
L 1159 3500 
L 1159 2956 
Q 1366 3272 1645 3428 
Q 1925 3584 2291 3584 
Q 2894 3584 3203 3211 
Q 3513 2838 3513 2113 
z
" id="DejaVuSans-6e" transform="scale(0.015625)"/>
       <path d="M 603 3500 
L 1178 3500 
L 1178 0 
L 603 0 
L 603 3500 
z
M 603 4863 
L 1178 4863 
L 1178 4134 
L 603 4134 
L 603 4863 
z
" id="DejaVuSans-69" transform="scale(0.015625)"/>
       <path d="M 3122 3366 
L 3122 2828 
Q 2878 2963 2633 3030 
Q 2388 3097 2138 3097 
Q 1578 3097 1268 2742 
Q 959 2388 959 1747 
Q 959 1106 1268 751 
Q 1578 397 2138 397 
Q 2388 397 2633 464 
Q 2878 531 3122 666 
L 3122 134 
Q 2881 22 2623 -34 
Q 2366 -91 2075 -91 
Q 1284 -91 818 406 
Q 353 903 353 1747 
Q 353 2603 823 3093 
Q 1294 3584 2113 3584 
Q 2378 3584 2631 3529 
Q 2884 3475 3122 3366 
z
" id="DejaVuSans-63" transform="scale(0.015625)"/>
       <path d="M 2194 1759 
Q 1497 1759 1228 1600 
Q 959 1441 959 1056 
Q 959 750 1161 570 
Q 1363 391 1709 391 
Q 2188 391 2477 730 
Q 2766 1069 2766 1631 
L 2766 1759 
L 2194 1759 
z
M 3341 1997 
L 3341 0 
L 2766 0 
L 2766 531 
Q 2569 213 2275 61 
Q 1981 -91 1556 -91 
Q 1019 -91 701 211 
Q 384 513 384 1019 
Q 384 1609 779 1909 
Q 1175 2209 1959 2209 
L 2766 2209 
L 2766 2266 
Q 2766 2663 2505 2880 
Q 2244 3097 1772 3097 
Q 1472 3097 1187 3025 
Q 903 2953 641 2809 
L 641 3341 
Q 956 3463 1253 3523 
Q 1550 3584 1831 3584 
Q 2591 3584 2966 3190 
Q 3341 2797 3341 1997 
z
" id="DejaVuSans-61" transform="scale(0.015625)"/>
       <path d="M 1172 4494 
L 1172 3500 
L 2356 3500 
L 2356 3053 
L 1172 3053 
L 1172 1153 
Q 1172 725 1289 603 
Q 1406 481 1766 481 
L 2356 481 
L 2356 0 
L 1766 0 
Q 1100 0 847 248 
Q 594 497 594 1153 
L 594 3053 
L 172 3053 
L 172 3500 
L 594 3500 
L 594 4494 
L 1172 4494 
z
" id="DejaVuSans-74" transform="scale(0.015625)"/>
       <path id="DejaVuSans-20" transform="scale(0.015625)"/>
       <path d="M 2841 2188 
Q 3044 2119 3236 1894 
Q 3428 1669 3622 1275 
L 4263 0 
L 3584 0 
L 2988 1197 
Q 2756 1666 2539 1819 
Q 2322 1972 1947 1972 
L 1259 1972 
L 1259 0 
L 628 0 
L 628 4666 
L 2053 4666 
Q 2853 4666 3247 4331 
Q 3641 3997 3641 3322 
Q 3641 2881 3436 2590 
Q 3231 2300 2841 2188 
z
M 1259 4147 
L 1259 2491 
L 2053 2491 
Q 2509 2491 2742 2702 
Q 2975 2913 2975 3322 
Q 2975 3731 2742 3939 
Q 2509 4147 2053 4147 
L 1259 4147 
z
" id="DejaVuSans-52" transform="scale(0.015625)"/>
       <path d="M 2906 2969 
L 2906 4863 
L 3481 4863 
L 3481 0 
L 2906 0 
L 2906 525 
Q 2725 213 2448 61 
Q 2172 -91 1784 -91 
Q 1150 -91 751 415 
Q 353 922 353 1747 
Q 353 2572 751 3078 
Q 1150 3584 1784 3584 
Q 2172 3584 2448 3432 
Q 2725 3281 2906 2969 
z
M 947 1747 
Q 947 1113 1208 752 
Q 1469 391 1925 391 
Q 2381 391 2643 752 
Q 2906 1113 2906 1747 
Q 2906 2381 2643 2742 
Q 2381 3103 1925 3103 
Q 1469 3103 1208 2742 
Q 947 2381 947 1747 
z
" id="DejaVuSans-64" transform="scale(0.015625)"/>
      </defs>
      <use xlink:href="#DejaVuSans-43"/>
      <use x="69.824219" xlink:href="#DejaVuSans-6f"/>
      <use x="131.005859" xlink:href="#DejaVuSans-6d"/>
      <use x="228.417969" xlink:href="#DejaVuSans-6d"/>
      <use x="325.830078" xlink:href="#DejaVuSans-75"/>
      <use x="389.208984" xlink:href="#DejaVuSans-6e"/>
      <use x="452.587891" xlink:href="#DejaVuSans-69"/>
      <use x="480.371094" xlink:href="#DejaVuSans-63"/>
      <use x="535.351562" xlink:href="#DejaVuSans-61"/>
      <use x="596.630859" xlink:href="#DejaVuSans-74"/>
      <use x="635.839844" xlink:href="#DejaVuSans-69"/>
      <use x="663.623047" xlink:href="#DejaVuSans-6f"/>
      <use x="724.804688" xlink:href="#DejaVuSans-6e"/>
      <use x="788.183594" xlink:href="#DejaVuSans-20"/>
      <use x="819.970703" xlink:href="#DejaVuSans-52"/>
      <use x="884.953125" xlink:href="#DejaVuSans-6f"/>
      <use x="946.134766" xlink:href="#DejaVuSans-75"/>
      <use x="1009.513672" xlink:href="#DejaVuSans-6e"/>
      <use x="1072.892578" xlink:href="#DejaVuSans-64"/>
     </g>
    </g>
   </g>
   <g id="matplotlib.axis_2">
    <g id="ytick_1">
     <g id="line2d_19">
      <path clip-path="url(#p3a3fcf7fb2)" d="M 64.125 498.696932 
L 702.72 498.696932 
" style="fill:none;stroke:#b0b0b0;stroke-linecap:square;stroke-width:0.8;"/>
     </g>
     <g id="line2d_20">
      <defs>
       <path d="M 0 0 
L -3.5 0 
" id="mdd4028af2b" style="stroke:#000000;stroke-width:0.8;"/>
      </defs>
      <g>
       <use style="stroke:#000000;stroke-width:0.8;" x="64.125" xlink:href="#mdd4028af2b" y="498.696932"/>
      </g>
     </g>
     <g id="text_11">
      <!-- 2 -->
      <g transform="translate(46.945 504.775682)scale(0.16 -0.16)">
       <use xlink:href="#DejaVuSans-32"/>
      </g>
     </g>
    </g>
    <g id="ytick_2">
     <g id="line2d_21">
      <path clip-path="url(#p3a3fcf7fb2)" d="M 64.125 439.330638 
L 702.72 439.330638 
" style="fill:none;stroke:#b0b0b0;stroke-linecap:square;stroke-width:0.8;"/>
     </g>
     <g id="line2d_22">
      <g>
       <use style="stroke:#000000;stroke-width:0.8;" x="64.125" xlink:href="#mdd4028af2b" y="439.330638"/>
      </g>
     </g>
     <g id="text_12">
      <!-- 4 -->
      <g transform="translate(46.945 445.409388)scale(0.16 -0.16)">
       <use xlink:href="#DejaVuSans-34"/>
      </g>
     </g>
    </g>
    <g id="ytick_3">
     <g id="line2d_23">
      <path clip-path="url(#p3a3fcf7fb2)" d="M 64.125 379.964345 
L 702.72 379.964345 
" style="fill:none;stroke:#b0b0b0;stroke-linecap:square;stroke-width:0.8;"/>
     </g>
     <g id="line2d_24">
      <g>
       <use style="stroke:#000000;stroke-width:0.8;" x="64.125" xlink:href="#mdd4028af2b" y="379.964345"/>
      </g>
     </g>
     <g id="text_13">
      <!-- 6 -->
      <g transform="translate(46.945 386.043095)scale(0.16 -0.16)">
       <defs>
        <path d="M 2113 2584 
Q 1688 2584 1439 2293 
Q 1191 2003 1191 1497 
Q 1191 994 1439 701 
Q 1688 409 2113 409 
Q 2538 409 2786 701 
Q 3034 994 3034 1497 
Q 3034 2003 2786 2293 
Q 2538 2584 2113 2584 
z
M 3366 4563 
L 3366 3988 
Q 3128 4100 2886 4159 
Q 2644 4219 2406 4219 
Q 1781 4219 1451 3797 
Q 1122 3375 1075 2522 
Q 1259 2794 1537 2939 
Q 1816 3084 2150 3084 
Q 2853 3084 3261 2657 
Q 3669 2231 3669 1497 
Q 3669 778 3244 343 
Q 2819 -91 2113 -91 
Q 1303 -91 875 529 
Q 447 1150 447 2328 
Q 447 3434 972 4092 
Q 1497 4750 2381 4750 
Q 2619 4750 2861 4703 
Q 3103 4656 3366 4563 
z
" id="DejaVuSans-36" transform="scale(0.015625)"/>
       </defs>
       <use xlink:href="#DejaVuSans-36"/>
      </g>
     </g>
    </g>
    <g id="ytick_4">
     <g id="line2d_25">
      <path clip-path="url(#p3a3fcf7fb2)" d="M 64.125 320.598052 
L 702.72 320.598052 
" style="fill:none;stroke:#b0b0b0;stroke-linecap:square;stroke-width:0.8;"/>
     </g>
     <g id="line2d_26">
      <g>
       <use style="stroke:#000000;stroke-width:0.8;" x="64.125" xlink:href="#mdd4028af2b" y="320.598052"/>
      </g>
     </g>
     <g id="text_14">
      <!-- 8 -->
      <g transform="translate(46.945 326.676802)scale(0.16 -0.16)">
       <defs>
        <path d="M 2034 2216 
Q 1584 2216 1326 1975 
Q 1069 1734 1069 1313 
Q 1069 891 1326 650 
Q 1584 409 2034 409 
Q 2484 409 2743 651 
Q 3003 894 3003 1313 
Q 3003 1734 2745 1975 
Q 2488 2216 2034 2216 
z
M 1403 2484 
Q 997 2584 770 2862 
Q 544 3141 544 3541 
Q 544 4100 942 4425 
Q 1341 4750 2034 4750 
Q 2731 4750 3128 4425 
Q 3525 4100 3525 3541 
Q 3525 3141 3298 2862 
Q 3072 2584 2669 2484 
Q 3125 2378 3379 2068 
Q 3634 1759 3634 1313 
Q 3634 634 3220 271 
Q 2806 -91 2034 -91 
Q 1263 -91 848 271 
Q 434 634 434 1313 
Q 434 1759 690 2068 
Q 947 2378 1403 2484 
z
M 1172 3481 
Q 1172 3119 1398 2916 
Q 1625 2713 2034 2713 
Q 2441 2713 2670 2916 
Q 2900 3119 2900 3481 
Q 2900 3844 2670 4047 
Q 2441 4250 2034 4250 
Q 1625 4250 1398 4047 
Q 1172 3844 1172 3481 
z
" id="DejaVuSans-38" transform="scale(0.015625)"/>
       </defs>
       <use xlink:href="#DejaVuSans-38"/>
      </g>
     </g>
    </g>
    <g id="ytick_5">
     <g id="line2d_27">
      <path clip-path="url(#p3a3fcf7fb2)" d="M 64.125 261.231758 
L 702.72 261.231758 
" style="fill:none;stroke:#b0b0b0;stroke-linecap:square;stroke-width:0.8;"/>
     </g>
     <g id="line2d_28">
      <g>
       <use style="stroke:#000000;stroke-width:0.8;" x="64.125" xlink:href="#mdd4028af2b" y="261.231758"/>
      </g>
     </g>
     <g id="text_15">
      <!-- 10 -->
      <g transform="translate(36.765 267.310508)scale(0.16 -0.16)">
       <use xlink:href="#DejaVuSans-31"/>
       <use x="63.623047" xlink:href="#DejaVuSans-30"/>
      </g>
     </g>
    </g>
    <g id="ytick_6">
     <g id="line2d_29">
      <path clip-path="url(#p3a3fcf7fb2)" d="M 64.125 201.865465 
L 702.72 201.865465 
" style="fill:none;stroke:#b0b0b0;stroke-linecap:square;stroke-width:0.8;"/>
     </g>
     <g id="line2d_30">
      <g>
       <use style="stroke:#000000;stroke-width:0.8;" x="64.125" xlink:href="#mdd4028af2b" y="201.865465"/>
      </g>
     </g>
     <g id="text_16">
      <!-- 12 -->
      <g transform="translate(36.765 207.944215)scale(0.16 -0.16)">
       <use xlink:href="#DejaVuSans-31"/>
       <use x="63.623047" xlink:href="#DejaVuSans-32"/>
      </g>
     </g>
    </g>
    <g id="ytick_7">
     <g id="line2d_31">
      <path clip-path="url(#p3a3fcf7fb2)" d="M 64.125 142.499172 
L 702.72 142.499172 
" style="fill:none;stroke:#b0b0b0;stroke-linecap:square;stroke-width:0.8;"/>
     </g>
     <g id="line2d_32">
      <g>
       <use style="stroke:#000000;stroke-width:0.8;" x="64.125" xlink:href="#mdd4028af2b" y="142.499172"/>
      </g>
     </g>
     <g id="text_17">
      <!-- 14 -->
      <g transform="translate(36.765 148.577922)scale(0.16 -0.16)">
       <use xlink:href="#DejaVuSans-31"/>
       <use x="63.623047" xlink:href="#DejaVuSans-34"/>
      </g>
     </g>
    </g>
    <g id="ytick_8">
     <g id="line2d_33">
      <path clip-path="url(#p3a3fcf7fb2)" d="M 64.125 83.132878 
L 702.72 83.132878 
" style="fill:none;stroke:#b0b0b0;stroke-linecap:square;stroke-width:0.8;"/>
     </g>
     <g id="line2d_34">
      <g>
       <use style="stroke:#000000;stroke-width:0.8;" x="64.125" xlink:href="#mdd4028af2b" y="83.132878"/>
      </g>
     </g>
     <g id="text_18">
      <!-- 16 -->
      <g transform="translate(36.765 89.211628)scale(0.16 -0.16)">
       <use xlink:href="#DejaVuSans-31"/>
       <use x="63.623047" xlink:href="#DejaVuSans-36"/>
      </g>
     </g>
    </g>
    <g id="ytick_9">
     <g id="line2d_35">
      <path clip-path="url(#p3a3fcf7fb2)" d="M 64.125 23.766585 
L 702.72 23.766585 
" style="fill:none;stroke:#b0b0b0;stroke-linecap:square;stroke-width:0.8;"/>
     </g>
     <g id="line2d_36">
      <g>
       <use style="stroke:#000000;stroke-width:0.8;" x="64.125" xlink:href="#mdd4028af2b" y="23.766585"/>
      </g>
     </g>
     <g id="text_19">
      <!-- 18 -->
      <g transform="translate(36.765 29.845335)scale(0.16 -0.16)">
       <use xlink:href="#DejaVuSans-31"/>
       <use x="63.623047" xlink:href="#DejaVuSans-38"/>
      </g>
     </g>
    </g>
    <g id="text_20">
     <!-- Validation Loss -->
     <g transform="translate(29.4375 328.205078)rotate(-90)scale(0.16 -0.16)">
      <defs>
       <path d="M 1831 0 
L 50 4666 
L 709 4666 
L 2188 738 
L 3669 4666 
L 4325 4666 
L 2547 0 
L 1831 0 
z
" id="DejaVuSans-56" transform="scale(0.015625)"/>
       <path d="M 603 4863 
L 1178 4863 
L 1178 0 
L 603 0 
L 603 4863 
z
" id="DejaVuSans-6c" transform="scale(0.015625)"/>
       <path d="M 628 4666 
L 1259 4666 
L 1259 531 
L 3531 531 
L 3531 0 
L 628 0 
L 628 4666 
z
" id="DejaVuSans-4c" transform="scale(0.015625)"/>
       <path d="M 2834 3397 
L 2834 2853 
Q 2591 2978 2328 3040 
Q 2066 3103 1784 3103 
Q 1356 3103 1142 2972 
Q 928 2841 928 2578 
Q 928 2378 1081 2264 
Q 1234 2150 1697 2047 
L 1894 2003 
Q 2506 1872 2764 1633 
Q 3022 1394 3022 966 
Q 3022 478 2636 193 
Q 2250 -91 1575 -91 
Q 1294 -91 989 -36 
Q 684 19 347 128 
L 347 722 
Q 666 556 975 473 
Q 1284 391 1588 391 
Q 1994 391 2212 530 
Q 2431 669 2431 922 
Q 2431 1156 2273 1281 
Q 2116 1406 1581 1522 
L 1381 1569 
Q 847 1681 609 1914 
Q 372 2147 372 2553 
Q 372 3047 722 3315 
Q 1072 3584 1716 3584 
Q 2034 3584 2315 3537 
Q 2597 3491 2834 3397 
z
" id="DejaVuSans-73" transform="scale(0.015625)"/>
      </defs>
      <use xlink:href="#DejaVuSans-56"/>
      <use x="60.658203" xlink:href="#DejaVuSans-61"/>
      <use x="121.9375" xlink:href="#DejaVuSans-6c"/>
      <use x="149.720703" xlink:href="#DejaVuSans-69"/>
      <use x="177.503906" xlink:href="#DejaVuSans-64"/>
      <use x="240.980469" xlink:href="#DejaVuSans-61"/>
      <use x="302.259766" xlink:href="#DejaVuSans-74"/>
      <use x="341.46875" xlink:href="#DejaVuSans-69"/>
      <use x="369.251953" xlink:href="#DejaVuSans-6f"/>
      <use x="430.433594" xlink:href="#DejaVuSans-6e"/>
      <use x="493.8125" xlink:href="#DejaVuSans-20"/>
      <use x="525.599609" xlink:href="#DejaVuSans-4c"/>
      <use x="579.5625" xlink:href="#DejaVuSans-6f"/>
      <use x="640.744141" xlink:href="#DejaVuSans-73"/>
      <use x="692.84375" xlink:href="#DejaVuSans-73"/>
     </g>
    </g>
   </g>
   <g id="line2d_37">
    <path clip-path="url(#p3a3fcf7fb2)" d="M 93.152045 488.604662 
L 673.692955 488.604662 
L 673.692955 488.604662 
" style="fill:none;stroke:#4b0082;stroke-dasharray:3,4.95;stroke-dashoffset:0;stroke-width:3;"/>
   </g>
   <g id="line2d_38">
    <path clip-path="url(#p3a3fcf7fb2)" d="M 93.152045 43.02833 
L 96.05475 413.974831 
L 98.957455 418.595211 
L 104.762864 420.252176 
L 107.665568 420.366798 
L 110.568273 418.477781 
L 113.470977 420.182764 
L 116.373682 421.367165 
L 119.276386 421.730796 
L 122.179091 422.497652 
L 125.081795 420.320106 
L 127.9845 421.503264 
L 133.789909 425.225717 
L 136.692614 420.303404 
L 139.595318 425.38559 
L 142.498023 424.264057 
L 148.303432 425.584264 
L 151.206136 426.149302 
L 154.108841 429.578184 
L 157.011545 420.693055 
L 159.91425 426.443367 
L 165.719659 428.190653 
L 168.622364 430.238196 
L 171.525068 427.113736 
L 174.427773 425.334594 
L 177.330477 430.980029 
L 180.233182 433.598058 
L 183.135886 426.95959 
L 186.038591 429.88487 
L 188.941295 429.929703 
L 191.844 425.493948 
L 194.746705 428.163947 
L 197.649409 431.848985 
L 200.552114 431.488419 
L 203.454818 433.598484 
L 206.357523 433.922961 
L 209.260227 432.638878 
L 212.162932 435.989827 
L 215.065636 436.543488 
L 217.968341 430.753673 
L 220.871045 435.786777 
L 223.77375 438.288886 
L 226.676455 428.438433 
L 229.579159 439.839776 
L 232.481864 437.090108 
L 235.384568 437.342802 
L 238.287273 429.291002 
L 241.189977 438.004974 
L 244.092682 432.096711 
L 246.995386 443.683019 
L 249.898091 448.056348 
L 252.800795 434.626943 
L 255.7035 436.345 
L 258.606205 442.392361 
L 261.508909 439.421326 
L 264.411614 448.051257 
L 267.314318 446.819392 
L 270.217023 446.898867 
L 273.119727 436.959033 
L 276.022432 451.505842 
L 278.925136 447.342628 
L 281.827841 452.085188 
L 284.730545 449.225179 
L 287.63325 447.039151 
L 290.535955 437.86705 
L 293.438659 451.905431 
L 296.341364 445.748871 
L 299.244068 449.106452 
L 302.146773 449.478607 
L 305.049477 450.852857 
L 307.952182 451.657683 
L 310.854886 456.774067 
L 313.757591 453.819004 
L 316.660295 454.779557 
L 319.563 440.384363 
L 322.465705 443.697546 
L 325.368409 453.462387 
L 328.271114 455.933283 
L 331.173818 452.561691 
L 334.076523 444.111277 
L 336.979227 452.340138 
L 339.881932 461.090233 
L 342.784636 442.283882 
L 345.687341 457.443953 
L 348.590045 455.101614 
L 351.49275 456.587377 
L 354.395455 457.139813 
L 357.298159 457.10746 
L 360.200864 457.443359 
L 366.006273 459.831208 
L 368.908977 457.780545 
L 371.811682 453.171729 
L 374.714386 463.563102 
L 377.617091 460.957473 
L 380.519795 458.966789 
L 383.4225 451.305143 
L 386.325205 450.280755 
L 389.227909 460.560554 
L 392.130614 463.765703 
L 395.033318 457.605956 
L 397.936023 459.376308 
L 400.838727 454.332155 
L 406.644136 448.737736 
L 409.546841 464.908886 
L 412.449545 461.933754 
L 415.35225 456.160581 
L 418.254955 458.996086 
L 421.157659 463.057746 
L 424.060364 466.882548 
L 426.963068 465.277231 
L 429.865773 462.63246 
L 432.768477 458.990848 
L 435.671182 468.725723 
L 438.573886 466.438453 
L 441.476591 472.289562 
L 444.379295 472.350814 
L 447.282 468.293589 
L 450.184705 459.015518 
L 453.087409 468.873375 
L 455.990114 471.031649 
L 458.892818 474.395309 
L 461.795523 469.856041 
L 464.698227 462.478725 
L 467.600932 467.572525 
L 470.503636 465.818316 
L 473.406341 465.092615 
L 476.309045 465.03597 
L 479.21175 465.968908 
L 482.114455 466.601441 
L 485.017159 458.177742 
L 487.919864 471.215169 
L 490.822568 458.730647 
L 493.725273 471.108491 
L 496.627977 472.791347 
L 499.530682 471.738878 
L 502.433386 476.56863 
L 505.336091 470.752454 
L 508.238795 461.25081 
L 511.1415 466.591602 
L 514.044205 474.053398 
L 516.946909 479.714373 
L 519.849614 476.210935 
L 522.752318 476.778956 
L 525.655023 464.528133 
L 528.557727 467.368354 
L 531.460432 471.573425 
L 534.363136 476.355443 
L 537.265841 475.147399 
L 540.168545 471.509391 
L 543.07125 473.400809 
L 545.973955 468.662013 
L 548.876659 471.27289 
L 551.779364 482.558476 
L 554.682068 474.614655 
L 557.584773 473.0991 
L 560.487477 473.275889 
L 563.390182 476.898052 
L 566.292886 478.433205 
L 569.195591 480.355925 
L 572.098295 480.964784 
L 575.001 476.939224 
L 577.903705 479.415605 
L 580.806409 478.293745 
L 583.709114 471.802932 
L 586.611818 471.846109 
L 589.514523 471.072917 
L 592.417227 472.589428 
L 595.319932 483.661829 
L 598.222636 477.43098 
L 601.125341 486.322807 
L 604.028045 477.872209 
L 606.93075 475.523282 
L 609.833455 474.280035 
L 612.736159 476.258597 
L 615.638864 476.309786 
L 618.541568 478.994036 
L 621.444273 481.186356 
L 624.346977 480.935198 
L 627.249682 475.805411 
L 630.152386 489.498535 
L 633.055091 479.946457 
L 635.957795 480.24621 
L 638.8605 486.129876 
L 641.763205 476.061123 
L 644.665909 476.23051 
L 647.568614 483.151959 
L 650.471318 480.981426 
L 653.374023 484.386391 
L 656.276727 486.886371 
L 659.179432 487.147171 
L 662.082136 483.093406 
L 664.984841 487.189448 
L 667.887545 484.117376 
L 670.79025 483.85793 
L 673.692955 482.012269 
L 673.692955 482.012269 
" style="fill:none;stroke:#ff8c00;stroke-linecap:square;stroke-width:3;"/>
   </g>
   <g id="line2d_39">
    <path clip-path="url(#p3a3fcf7fb2)" d="M 93.152045 43.02833 
L 98.957455 60.300966 
L 101.860159 68.554164 
L 107.665568 84.082301 
L 113.470977 98.931321 
L 125.081795 127.340472 
L 133.789909 148.67211 
L 139.595318 163.419866 
L 145.400727 178.911245 
L 151.206136 195.401013 
L 157.011545 213.018969 
L 162.816955 231.909744 
L 168.622364 252.255361 
L 174.427773 273.749083 
L 186.038591 318.430921 
L 191.844 339.173076 
L 194.746705 348.948592 
L 197.649409 357.601715 
L 200.552114 365.650824 
L 203.454818 373.049748 
L 206.357523 379.205585 
L 209.260227 384.781303 
L 212.162932 389.722949 
L 215.065636 393.630958 
L 217.968341 397.12983 
L 220.871045 400.158431 
L 223.77375 402.445986 
L 226.676455 404.532212 
L 229.579159 406.305461 
L 235.384568 408.8172 
L 238.287273 409.840733 
L 246.995386 411.88333 
L 255.7035 413.084055 
L 270.217023 414.168264 
L 281.827841 414.658197 
L 287.63325 414.846742 
L 307.952182 415.341481 
L 319.563 415.531422 
L 325.368409 415.67546 
L 336.979227 415.836112 
L 348.590045 416.039888 
L 368.908977 416.31287 
L 380.519795 416.401755 
L 403.741432 416.631052 
L 415.35225 416.666837 
L 490.822568 416.948885 
L 511.1415 416.937937 
L 534.363136 416.930177 
L 545.973955 416.875928 
L 557.584773 416.880779 
L 586.611818 416.798731 
L 589.514523 416.706472 
L 595.319932 416.772542 
L 598.222636 416.655377 
L 604.028045 416.736275 
L 606.93075 416.606884 
L 612.736159 416.701927 
L 615.638864 416.545304 
L 621.444273 416.664917 
L 624.346977 416.490225 
L 630.152386 416.625115 
L 633.055091 416.43736 
L 638.8605 416.579433 
L 641.763205 416.394069 
L 647.568614 416.534085 
L 650.471318 416.339306 
L 656.276727 416.480766 
L 659.179432 416.284943 
L 664.984841 416.426899 
L 667.887545 416.229596 
L 673.692955 416.368702 
L 673.692955 416.368702 
" style="fill:none;stroke:#32cd32;stroke-linecap:square;stroke-width:3;"/>
   </g>
   <g id="line2d_40">
    <path clip-path="url(#p3a3fcf7fb2)" d="M 93.152045 43.02833 
L 98.957455 52.953801 
L 104.762864 62.561687 
L 113.470977 76.373275 
L 122.179091 89.58637 
L 130.887205 102.290671 
L 139.595318 114.573218 
L 151.206136 130.400815 
L 162.816955 145.739237 
L 174.427773 160.667453 
L 188.941295 178.88346 
L 206.357523 200.277414 
L 232.481864 231.824231 
L 267.314318 273.165819 
L 293.438659 303.123724 
L 310.854886 322.035603 
L 322.465705 333.899318 
L 328.271114 339.612604 
L 336.979227 347.755563 
L 345.687341 355.397239 
L 351.49275 360.178667 
L 357.298159 364.735345 
L 363.103568 369.03449 
L 368.908977 373.062456 
L 374.714386 376.854439 
L 380.519795 380.378698 
L 386.325205 383.649707 
L 392.130614 386.692786 
L 397.936023 389.489617 
L 403.741432 392.06432 
L 409.546841 394.429614 
L 415.35225 396.585227 
L 421.157659 398.557183 
L 429.865773 401.183462 
L 438.573886 403.444063 
L 447.282 405.387098 
L 455.990114 407.047785 
L 464.698227 408.459605 
L 473.406341 409.659387 
L 485.017159 410.968814 
L 496.627977 412.012128 
L 508.238795 412.847538 
L 522.752318 413.631703 
L 537.265841 414.217726 
L 557.584773 414.771649 
L 580.806409 415.162748 
L 615.638864 415.457096 
L 673.692955 415.622903 
L 673.692955 415.622903 
" style="fill:none;stroke:#800080;stroke-linecap:square;stroke-width:3;"/>
   </g>
   <g id="patch_3">
    <path d="M 64.125 516.75 
L 64.125 20.470156 
" style="fill:none;stroke:#000000;stroke-linecap:square;stroke-linejoin:miter;stroke-width:0.8;"/>
   </g>
   <g id="patch_4">
    <path d="M 702.72 516.75 
L 702.72 20.470156 
" style="fill:none;stroke:#000000;stroke-linecap:square;stroke-linejoin:miter;stroke-width:0.8;"/>
   </g>
   <g id="patch_5">
    <path d="M 64.125 516.75 
L 702.72 516.75 
" style="fill:none;stroke:#000000;stroke-linecap:square;stroke-linejoin:miter;stroke-width:0.8;"/>
   </g>
   <g id="patch_6">
    <path d="M 64.125 20.470156 
L 702.72 20.470156 
" style="fill:none;stroke:#000000;stroke-linecap:square;stroke-linejoin:miter;stroke-width:0.8;"/>
   </g>
   <g id="legend_1">
    <g id="patch_7">
     <path d="M 549.2175 127.210156 
L 691.52 127.210156 
Q 694.72 127.210156 694.72 124.010156 
L 694.72 31.670156 
Q 694.72 28.470156 691.52 28.470156 
L 549.2175 28.470156 
Q 546.0175 28.470156 546.0175 31.670156 
L 546.0175 124.010156 
Q 546.0175 127.210156 549.2175 127.210156 
z
" style="fill:#ffffff;opacity:0.8;stroke:#cccccc;stroke-linejoin:miter;"/>
    </g>
    <g id="line2d_41">
     <path d="M 552.4175 41.427656 
L 584.4175 41.427656 
" style="fill:none;stroke:#4b0082;stroke-dasharray:3,4.95;stroke-dashoffset:0;stroke-width:3;"/>
    </g>
    <g id="line2d_42"/>
    <g id="text_21">
     <!-- Centralized -->
     <g transform="translate(597.2175 47.027656)scale(0.16 -0.16)">
      <defs>
       <path d="M 3597 1894 
L 3597 1613 
L 953 1613 
Q 991 1019 1311 708 
Q 1631 397 2203 397 
Q 2534 397 2845 478 
Q 3156 559 3463 722 
L 3463 178 
Q 3153 47 2828 -22 
Q 2503 -91 2169 -91 
Q 1331 -91 842 396 
Q 353 884 353 1716 
Q 353 2575 817 3079 
Q 1281 3584 2069 3584 
Q 2775 3584 3186 3129 
Q 3597 2675 3597 1894 
z
M 3022 2063 
Q 3016 2534 2758 2815 
Q 2500 3097 2075 3097 
Q 1594 3097 1305 2825 
Q 1016 2553 972 2059 
L 3022 2063 
z
" id="DejaVuSans-65" transform="scale(0.015625)"/>
       <path d="M 2631 2963 
Q 2534 3019 2420 3045 
Q 2306 3072 2169 3072 
Q 1681 3072 1420 2755 
Q 1159 2438 1159 1844 
L 1159 0 
L 581 0 
L 581 3500 
L 1159 3500 
L 1159 2956 
Q 1341 3275 1631 3429 
Q 1922 3584 2338 3584 
Q 2397 3584 2469 3576 
Q 2541 3569 2628 3553 
L 2631 2963 
z
" id="DejaVuSans-72" transform="scale(0.015625)"/>
       <path d="M 353 3500 
L 3084 3500 
L 3084 2975 
L 922 459 
L 3084 459 
L 3084 0 
L 275 0 
L 275 525 
L 2438 3041 
L 353 3041 
L 353 3500 
z
" id="DejaVuSans-7a" transform="scale(0.015625)"/>
      </defs>
      <use xlink:href="#DejaVuSans-43"/>
      <use x="69.824219" xlink:href="#DejaVuSans-65"/>
      <use x="131.347656" xlink:href="#DejaVuSans-6e"/>
      <use x="194.726562" xlink:href="#DejaVuSans-74"/>
      <use x="233.935547" xlink:href="#DejaVuSans-72"/>
      <use x="275.048828" xlink:href="#DejaVuSans-61"/>
      <use x="336.328125" xlink:href="#DejaVuSans-6c"/>
      <use x="364.111328" xlink:href="#DejaVuSans-69"/>
      <use x="391.894531" xlink:href="#DejaVuSans-7a"/>
      <use x="444.384766" xlink:href="#DejaVuSans-65"/>
      <use x="505.908203" xlink:href="#DejaVuSans-64"/>
     </g>
    </g>
    <g id="line2d_43">
     <path d="M 552.4175 64.912656 
L 584.4175 64.912656 
" style="fill:none;stroke:#ff8c00;stroke-linecap:square;stroke-width:3;"/>
    </g>
    <g id="line2d_44"/>
    <g id="text_22">
     <!-- DiNNO -->
     <g transform="translate(597.2175 70.512656)scale(0.16 -0.16)">
      <defs>
       <path d="M 1259 4147 
L 1259 519 
L 2022 519 
Q 2988 519 3436 956 
Q 3884 1394 3884 2338 
Q 3884 3275 3436 3711 
Q 2988 4147 2022 4147 
L 1259 4147 
z
M 628 4666 
L 1925 4666 
Q 3281 4666 3915 4102 
Q 4550 3538 4550 2338 
Q 4550 1131 3912 565 
Q 3275 0 1925 0 
L 628 0 
L 628 4666 
z
" id="DejaVuSans-44" transform="scale(0.015625)"/>
       <path d="M 628 4666 
L 1478 4666 
L 3547 763 
L 3547 4666 
L 4159 4666 
L 4159 0 
L 3309 0 
L 1241 3903 
L 1241 0 
L 628 0 
L 628 4666 
z
" id="DejaVuSans-4e" transform="scale(0.015625)"/>
       <path d="M 2522 4238 
Q 1834 4238 1429 3725 
Q 1025 3213 1025 2328 
Q 1025 1447 1429 934 
Q 1834 422 2522 422 
Q 3209 422 3611 934 
Q 4013 1447 4013 2328 
Q 4013 3213 3611 3725 
Q 3209 4238 2522 4238 
z
M 2522 4750 
Q 3503 4750 4090 4092 
Q 4678 3434 4678 2328 
Q 4678 1225 4090 567 
Q 3503 -91 2522 -91 
Q 1538 -91 948 565 
Q 359 1222 359 2328 
Q 359 3434 948 4092 
Q 1538 4750 2522 4750 
z
" id="DejaVuSans-4f" transform="scale(0.015625)"/>
      </defs>
      <use xlink:href="#DejaVuSans-44"/>
      <use x="77.001953" xlink:href="#DejaVuSans-69"/>
      <use x="104.785156" xlink:href="#DejaVuSans-4e"/>
      <use x="179.589844" xlink:href="#DejaVuSans-4e"/>
      <use x="254.394531" xlink:href="#DejaVuSans-4f"/>
     </g>
    </g>
    <g id="line2d_45">
     <path d="M 552.4175 88.397656 
L 584.4175 88.397656 
" style="fill:none;stroke:#32cd32;stroke-linecap:square;stroke-width:3;"/>
    </g>
    <g id="line2d_46"/>
    <g id="text_23">
     <!-- DSGT -->
     <g transform="translate(597.2175 93.997656)scale(0.16 -0.16)">
      <defs>
       <path d="M 3425 4513 
L 3425 3897 
Q 3066 4069 2747 4153 
Q 2428 4238 2131 4238 
Q 1616 4238 1336 4038 
Q 1056 3838 1056 3469 
Q 1056 3159 1242 3001 
Q 1428 2844 1947 2747 
L 2328 2669 
Q 3034 2534 3370 2195 
Q 3706 1856 3706 1288 
Q 3706 609 3251 259 
Q 2797 -91 1919 -91 
Q 1588 -91 1214 -16 
Q 841 59 441 206 
L 441 856 
Q 825 641 1194 531 
Q 1563 422 1919 422 
Q 2459 422 2753 634 
Q 3047 847 3047 1241 
Q 3047 1584 2836 1778 
Q 2625 1972 2144 2069 
L 1759 2144 
Q 1053 2284 737 2584 
Q 422 2884 422 3419 
Q 422 4038 858 4394 
Q 1294 4750 2059 4750 
Q 2388 4750 2728 4690 
Q 3069 4631 3425 4513 
z
" id="DejaVuSans-53" transform="scale(0.015625)"/>
       <path d="M 3809 666 
L 3809 1919 
L 2778 1919 
L 2778 2438 
L 4434 2438 
L 4434 434 
Q 4069 175 3628 42 
Q 3188 -91 2688 -91 
Q 1594 -91 976 548 
Q 359 1188 359 2328 
Q 359 3472 976 4111 
Q 1594 4750 2688 4750 
Q 3144 4750 3555 4637 
Q 3966 4525 4313 4306 
L 4313 3634 
Q 3963 3931 3569 4081 
Q 3175 4231 2741 4231 
Q 1884 4231 1454 3753 
Q 1025 3275 1025 2328 
Q 1025 1384 1454 906 
Q 1884 428 2741 428 
Q 3075 428 3337 486 
Q 3600 544 3809 666 
z
" id="DejaVuSans-47" transform="scale(0.015625)"/>
       <path d="M -19 4666 
L 3928 4666 
L 3928 4134 
L 2272 4134 
L 2272 0 
L 1638 0 
L 1638 4134 
L -19 4134 
L -19 4666 
z
" id="DejaVuSans-54" transform="scale(0.015625)"/>
      </defs>
      <use xlink:href="#DejaVuSans-44"/>
      <use x="77.001953" xlink:href="#DejaVuSans-53"/>
      <use x="140.478516" xlink:href="#DejaVuSans-47"/>
      <use x="214.34375" xlink:href="#DejaVuSans-54"/>
     </g>
    </g>
    <g id="line2d_47">
     <path d="M 552.4175 111.882656 
L 584.4175 111.882656 
" style="fill:none;stroke:#800080;stroke-linecap:square;stroke-width:3;"/>
    </g>
    <g id="line2d_48"/>
    <g id="text_24">
     <!-- DSGD -->
     <g transform="translate(597.2175 117.482656)scale(0.16 -0.16)">
      <use xlink:href="#DejaVuSans-44"/>
      <use x="77.001953" xlink:href="#DejaVuSans-53"/>
      <use x="140.478516" xlink:href="#DejaVuSans-47"/>
      <use x="217.96875" xlink:href="#DejaVuSans-44"/>
     </g>
    </g>
   </g>
  </g>
 </g>
 <defs>
  <clipPath id="p3a3fcf7fb2">
   <rect height="496.279844" width="638.595" x="64.125" y="20.470156"/>
  </clipPath>
 </defs>
</svg>
