<?xml version="1.0" encoding="utf-8" standalone="no"?>
<!DOCTYPE svg PUBLIC "-//W3C//DTD SVG 1.1//EN"
  "http://www.w3.org/Graphics/SVG/1.1/DTD/svg11.dtd">
<!-- Created with matplotlib (https://matplotlib.org/) -->
<svg height="288pt" version="1.1" viewBox="0 0 720 288" width="720pt" xmlns="http://www.w3.org/2000/svg" xmlns:xlink="http://www.w3.org/1999/xlink">
 <metadata>
  <rdf:RDF xmlns:cc="http://creativecommons.org/ns#" xmlns:dc="http://purl.org/dc/elements/1.1/" xmlns:rdf="http://www.w3.org/1999/02/22-rdf-syntax-ns#">
   <cc:Work>
    <dc:type rdf:resource="http://purl.org/dc/dcmitype/StillImage"/>
    <dc:date>2021-11-28T06:53:57.814459</dc:date>
    <dc:format>image/svg+xml</dc:format>
    <dc:creator>
     <cc:Agent>
      <dc:title>Matplotlib v3.3.4, https://matplotlib.org/</dc:title>
     </cc:Agent>
    </dc:creator>
   </cc:Work>
  </rdf:RDF>
 </metadata>
 <defs>
  <style type="text/css">*{stroke-linecap:butt;stroke-linejoin:round;}</style>
 </defs>
 <g id="figure_1">
  <g id="patch_1">
   <path d="M 0 288 
L 720 288 
L 720 0 
L 0 0 
z
" style="fill:none;"/>
  </g>
  <g id="axes_1">
   <g id="patch_2">
    <path d="M 84.485 228.75 
L 348.861171 228.75 
L 348.861171 17.28 
L 84.485 17.28 
z
" style="fill:#ffffff;"/>
   </g>
   <g id="matplotlib.axis_1">
    <g id="xtick_1">
     <g id="line2d_1">
      <path clip-path="url(#pa52bbfa9a2)" d="M 123.206762 228.75 
L 123.206762 17.28 
" style="fill:none;stroke:#b0b0b0;stroke-linecap:square;stroke-width:0.8;"/>
     </g>
     <g id="line2d_2">
      <defs>
       <path d="M 0 0 
L 0 3.5 
" id="m55c5e6026e" style="stroke:#000000;stroke-width:0.8;"/>
      </defs>
      <g>
       <use style="stroke:#000000;stroke-width:0.8;" x="123.206762" xlink:href="#m55c5e6026e" y="228.75"/>
      </g>
     </g>
     <g id="text_1">
      <!-- 20 -->
      <g transform="translate(113.026762 247.9075)scale(0.16 -0.16)">
       <defs>
        <path d="M 19.1875 8.296875 
L 53.609375 8.296875 
L 53.609375 0 
L 7.328125 0 
L 7.328125 8.296875 
Q 12.9375 14.109375 22.625 23.890625 
Q 32.328125 33.6875 34.8125 36.53125 
Q 39.546875 41.84375 41.421875 45.53125 
Q 43.3125 49.21875 43.3125 52.78125 
Q 43.3125 58.59375 39.234375 62.25 
Q 35.15625 65.921875 28.609375 65.921875 
Q 23.96875 65.921875 18.8125 64.3125 
Q 13.671875 62.703125 7.8125 59.421875 
L 7.8125 69.390625 
Q 13.765625 71.78125 18.9375 73 
Q 24.125 74.21875 28.421875 74.21875 
Q 39.75 74.21875 46.484375 68.546875 
Q 53.21875 62.890625 53.21875 53.421875 
Q 53.21875 48.921875 51.53125 44.890625 
Q 49.859375 40.875 45.40625 35.40625 
Q 44.1875 33.984375 37.640625 27.21875 
Q 31.109375 20.453125 19.1875 8.296875 
z
" id="DejaVuSans-50"/>
        <path d="M 31.78125 66.40625 
Q 24.171875 66.40625 20.328125 58.90625 
Q 16.5 51.421875 16.5 36.375 
Q 16.5 21.390625 20.328125 13.890625 
Q 24.171875 6.390625 31.78125 6.390625 
Q 39.453125 6.390625 43.28125 13.890625 
Q 47.125 21.390625 47.125 36.375 
Q 47.125 51.421875 43.28125 58.90625 
Q 39.453125 66.40625 31.78125 66.40625 
z
M 31.78125 74.21875 
Q 44.046875 74.21875 50.515625 64.515625 
Q 56.984375 54.828125 56.984375 36.375 
Q 56.984375 17.96875 50.515625 8.265625 
Q 44.046875 -1.421875 31.78125 -1.421875 
Q 19.53125 -1.421875 13.0625 8.265625 
Q 6.59375 17.96875 6.59375 36.375 
Q 6.59375 54.828125 13.0625 64.515625 
Q 19.53125 74.21875 31.78125 74.21875 
z
" id="DejaVuSans-48"/>
       </defs>
       <use xlink:href="#DejaVuSans-50"/>
       <use x="63.623047" xlink:href="#DejaVuSans-48"/>
      </g>
     </g>
    </g>
    <g id="xtick_2">
     <g id="line2d_3">
      <path clip-path="url(#pa52bbfa9a2)" d="M 176.61609 228.75 
L 176.61609 17.28 
" style="fill:none;stroke:#b0b0b0;stroke-linecap:square;stroke-width:0.8;"/>
     </g>
     <g id="line2d_4">
      <g>
       <use style="stroke:#000000;stroke-width:0.8;" x="176.61609" xlink:href="#m55c5e6026e" y="228.75"/>
      </g>
     </g>
     <g id="text_2">
      <!-- 40 -->
      <g transform="translate(166.43609 247.9075)scale(0.16 -0.16)">
       <defs>
        <path d="M 37.796875 64.3125 
L 12.890625 25.390625 
L 37.796875 25.390625 
z
M 35.203125 72.90625 
L 47.609375 72.90625 
L 47.609375 25.390625 
L 58.015625 25.390625 
L 58.015625 17.1875 
L 47.609375 17.1875 
L 47.609375 0 
L 37.796875 0 
L 37.796875 17.1875 
L 4.890625 17.1875 
L 4.890625 26.703125 
z
" id="DejaVuSans-52"/>
       </defs>
       <use xlink:href="#DejaVuSans-52"/>
       <use x="63.623047" xlink:href="#DejaVuSans-48"/>
      </g>
     </g>
    </g>
    <g id="xtick_3">
     <g id="line2d_5">
      <path clip-path="url(#pa52bbfa9a2)" d="M 230.025418 228.75 
L 230.025418 17.28 
" style="fill:none;stroke:#b0b0b0;stroke-linecap:square;stroke-width:0.8;"/>
     </g>
     <g id="line2d_6">
      <g>
       <use style="stroke:#000000;stroke-width:0.8;" x="230.025418" xlink:href="#m55c5e6026e" y="228.75"/>
      </g>
     </g>
     <g id="text_3">
      <!-- 60 -->
      <g transform="translate(219.845418 247.9075)scale(0.16 -0.16)">
       <defs>
        <path d="M 33.015625 40.375 
Q 26.375 40.375 22.484375 35.828125 
Q 18.609375 31.296875 18.609375 23.390625 
Q 18.609375 15.53125 22.484375 10.953125 
Q 26.375 6.390625 33.015625 6.390625 
Q 39.65625 6.390625 43.53125 10.953125 
Q 47.40625 15.53125 47.40625 23.390625 
Q 47.40625 31.296875 43.53125 35.828125 
Q 39.65625 40.375 33.015625 40.375 
z
M 52.59375 71.296875 
L 52.59375 62.3125 
Q 48.875 64.0625 45.09375 64.984375 
Q 41.3125 65.921875 37.59375 65.921875 
Q 27.828125 65.921875 22.671875 59.328125 
Q 17.53125 52.734375 16.796875 39.40625 
Q 19.671875 43.65625 24.015625 45.921875 
Q 28.375 48.1875 33.59375 48.1875 
Q 44.578125 48.1875 50.953125 41.515625 
Q 57.328125 34.859375 57.328125 23.390625 
Q 57.328125 12.15625 50.6875 5.359375 
Q 44.046875 -1.421875 33.015625 -1.421875 
Q 20.359375 -1.421875 13.671875 8.265625 
Q 6.984375 17.96875 6.984375 36.375 
Q 6.984375 53.65625 15.1875 63.9375 
Q 23.390625 74.21875 37.203125 74.21875 
Q 40.921875 74.21875 44.703125 73.484375 
Q 48.484375 72.75 52.59375 71.296875 
z
" id="DejaVuSans-54"/>
       </defs>
       <use xlink:href="#DejaVuSans-54"/>
       <use x="63.623047" xlink:href="#DejaVuSans-48"/>
      </g>
     </g>
    </g>
    <g id="xtick_4">
     <g id="line2d_7">
      <path clip-path="url(#pa52bbfa9a2)" d="M 283.434745 228.75 
L 283.434745 17.28 
" style="fill:none;stroke:#b0b0b0;stroke-linecap:square;stroke-width:0.8;"/>
     </g>
     <g id="line2d_8">
      <g>
       <use style="stroke:#000000;stroke-width:0.8;" x="283.434745" xlink:href="#m55c5e6026e" y="228.75"/>
      </g>
     </g>
     <g id="text_4">
      <!-- 80 -->
      <g transform="translate(273.254745 247.9075)scale(0.16 -0.16)">
       <defs>
        <path d="M 31.78125 34.625 
Q 24.75 34.625 20.71875 30.859375 
Q 16.703125 27.09375 16.703125 20.515625 
Q 16.703125 13.921875 20.71875 10.15625 
Q 24.75 6.390625 31.78125 6.390625 
Q 38.8125 6.390625 42.859375 10.171875 
Q 46.921875 13.96875 46.921875 20.515625 
Q 46.921875 27.09375 42.890625 30.859375 
Q 38.875 34.625 31.78125 34.625 
z
M 21.921875 38.8125 
Q 15.578125 40.375 12.03125 44.71875 
Q 8.5 49.078125 8.5 55.328125 
Q 8.5 64.0625 14.71875 69.140625 
Q 20.953125 74.21875 31.78125 74.21875 
Q 42.671875 74.21875 48.875 69.140625 
Q 55.078125 64.0625 55.078125 55.328125 
Q 55.078125 49.078125 51.53125 44.71875 
Q 48 40.375 41.703125 38.8125 
Q 48.828125 37.15625 52.796875 32.3125 
Q 56.78125 27.484375 56.78125 20.515625 
Q 56.78125 9.90625 50.3125 4.234375 
Q 43.84375 -1.421875 31.78125 -1.421875 
Q 19.734375 -1.421875 13.25 4.234375 
Q 6.78125 9.90625 6.78125 20.515625 
Q 6.78125 27.484375 10.78125 32.3125 
Q 14.796875 37.15625 21.921875 38.8125 
z
M 18.3125 54.390625 
Q 18.3125 48.734375 21.84375 45.5625 
Q 25.390625 42.390625 31.78125 42.390625 
Q 38.140625 42.390625 41.71875 45.5625 
Q 45.3125 48.734375 45.3125 54.390625 
Q 45.3125 60.0625 41.71875 63.234375 
Q 38.140625 66.40625 31.78125 66.40625 
Q 25.390625 66.40625 21.84375 63.234375 
Q 18.3125 60.0625 18.3125 54.390625 
z
" id="DejaVuSans-56"/>
       </defs>
       <use xlink:href="#DejaVuSans-56"/>
       <use x="63.623047" xlink:href="#DejaVuSans-48"/>
      </g>
     </g>
    </g>
    <g id="xtick_5">
     <g id="line2d_9">
      <path clip-path="url(#pa52bbfa9a2)" d="M 336.844073 228.75 
L 336.844073 17.28 
" style="fill:none;stroke:#b0b0b0;stroke-linecap:square;stroke-width:0.8;"/>
     </g>
     <g id="line2d_10">
      <g>
       <use style="stroke:#000000;stroke-width:0.8;" x="336.844073" xlink:href="#m55c5e6026e" y="228.75"/>
      </g>
     </g>
     <g id="text_5">
      <!-- 100 -->
      <g transform="translate(321.574073 247.9075)scale(0.16 -0.16)">
       <defs>
        <path d="M 12.40625 8.296875 
L 28.515625 8.296875 
L 28.515625 63.921875 
L 10.984375 60.40625 
L 10.984375 69.390625 
L 28.421875 72.90625 
L 38.28125 72.90625 
L 38.28125 8.296875 
L 54.390625 8.296875 
L 54.390625 0 
L 12.40625 0 
z
" id="DejaVuSans-49"/>
       </defs>
       <use xlink:href="#DejaVuSans-49"/>
       <use x="63.623047" xlink:href="#DejaVuSans-48"/>
       <use x="127.246094" xlink:href="#DejaVuSans-48"/>
      </g>
     </g>
    </g>
    <g id="text_6">
     <!-- Number of Robots -->
     <g transform="translate(144.368086 267.3925)scale(0.16 -0.16)">
      <defs>
       <path d="M 9.8125 72.90625 
L 23.09375 72.90625 
L 55.421875 11.921875 
L 55.421875 72.90625 
L 64.984375 72.90625 
L 64.984375 0 
L 51.703125 0 
L 19.390625 60.984375 
L 19.390625 0 
L 9.8125 0 
z
" id="DejaVuSans-78"/>
       <path d="M 8.5 21.578125 
L 8.5 54.6875 
L 17.484375 54.6875 
L 17.484375 21.921875 
Q 17.484375 14.15625 20.5 10.265625 
Q 23.53125 6.390625 29.59375 6.390625 
Q 36.859375 6.390625 41.078125 11.03125 
Q 45.3125 15.671875 45.3125 23.6875 
L 45.3125 54.6875 
L 54.296875 54.6875 
L 54.296875 0 
L 45.3125 0 
L 45.3125 8.40625 
Q 42.046875 3.421875 37.71875 1 
Q 33.40625 -1.421875 27.6875 -1.421875 
Q 18.265625 -1.421875 13.375 4.4375 
Q 8.5 10.296875 8.5 21.578125 
z
M 31.109375 56 
z
" id="DejaVuSans-117"/>
       <path d="M 52 44.1875 
Q 55.375 50.25 60.0625 53.125 
Q 64.75 56 71.09375 56 
Q 79.640625 56 84.28125 50.015625 
Q 88.921875 44.046875 88.921875 33.015625 
L 88.921875 0 
L 79.890625 0 
L 79.890625 32.71875 
Q 79.890625 40.578125 77.09375 44.375 
Q 74.3125 48.1875 68.609375 48.1875 
Q 61.625 48.1875 57.5625 43.546875 
Q 53.515625 38.921875 53.515625 30.90625 
L 53.515625 0 
L 44.484375 0 
L 44.484375 32.71875 
Q 44.484375 40.625 41.703125 44.40625 
Q 38.921875 48.1875 33.109375 48.1875 
Q 26.21875 48.1875 22.15625 43.53125 
Q 18.109375 38.875 18.109375 30.90625 
L 18.109375 0 
L 9.078125 0 
L 9.078125 54.6875 
L 18.109375 54.6875 
L 18.109375 46.1875 
Q 21.1875 51.21875 25.484375 53.609375 
Q 29.78125 56 35.6875 56 
Q 41.65625 56 45.828125 52.96875 
Q 50 49.953125 52 44.1875 
z
" id="DejaVuSans-109"/>
       <path d="M 48.6875 27.296875 
Q 48.6875 37.203125 44.609375 42.84375 
Q 40.53125 48.484375 33.40625 48.484375 
Q 26.265625 48.484375 22.1875 42.84375 
Q 18.109375 37.203125 18.109375 27.296875 
Q 18.109375 17.390625 22.1875 11.75 
Q 26.265625 6.109375 33.40625 6.109375 
Q 40.53125 6.109375 44.609375 11.75 
Q 48.6875 17.390625 48.6875 27.296875 
z
M 18.109375 46.390625 
Q 20.953125 51.265625 25.265625 53.625 
Q 29.59375 56 35.59375 56 
Q 45.5625 56 51.78125 48.09375 
Q 58.015625 40.1875 58.015625 27.296875 
Q 58.015625 14.40625 51.78125 6.484375 
Q 45.5625 -1.421875 35.59375 -1.421875 
Q 29.59375 -1.421875 25.265625 0.953125 
Q 20.953125 3.328125 18.109375 8.203125 
L 18.109375 0 
L 9.078125 0 
L 9.078125 75.984375 
L 18.109375 75.984375 
z
" id="DejaVuSans-98"/>
       <path d="M 56.203125 29.59375 
L 56.203125 25.203125 
L 14.890625 25.203125 
Q 15.484375 15.921875 20.484375 11.0625 
Q 25.484375 6.203125 34.421875 6.203125 
Q 39.59375 6.203125 44.453125 7.46875 
Q 49.3125 8.734375 54.109375 11.28125 
L 54.109375 2.78125 
Q 49.265625 0.734375 44.1875 -0.34375 
Q 39.109375 -1.421875 33.890625 -1.421875 
Q 20.796875 -1.421875 13.15625 6.1875 
Q 5.515625 13.8125 5.515625 26.8125 
Q 5.515625 40.234375 12.765625 48.109375 
Q 20.015625 56 32.328125 56 
Q 43.359375 56 49.78125 48.890625 
Q 56.203125 41.796875 56.203125 29.59375 
z
M 47.21875 32.234375 
Q 47.125 39.59375 43.09375 43.984375 
Q 39.0625 48.390625 32.421875 48.390625 
Q 24.90625 48.390625 20.390625 44.140625 
Q 15.875 39.890625 15.1875 32.171875 
z
" id="DejaVuSans-101"/>
       <path d="M 41.109375 46.296875 
Q 39.59375 47.171875 37.8125 47.578125 
Q 36.03125 48 33.890625 48 
Q 26.265625 48 22.1875 43.046875 
Q 18.109375 38.09375 18.109375 28.8125 
L 18.109375 0 
L 9.078125 0 
L 9.078125 54.6875 
L 18.109375 54.6875 
L 18.109375 46.1875 
Q 20.953125 51.171875 25.484375 53.578125 
Q 30.03125 56 36.53125 56 
Q 37.453125 56 38.578125 55.875 
Q 39.703125 55.765625 41.0625 55.515625 
z
" id="DejaVuSans-114"/>
       <path id="DejaVuSans-32"/>
       <path d="M 30.609375 48.390625 
Q 23.390625 48.390625 19.1875 42.75 
Q 14.984375 37.109375 14.984375 27.296875 
Q 14.984375 17.484375 19.15625 11.84375 
Q 23.34375 6.203125 30.609375 6.203125 
Q 37.796875 6.203125 41.984375 11.859375 
Q 46.1875 17.53125 46.1875 27.296875 
Q 46.1875 37.015625 41.984375 42.703125 
Q 37.796875 48.390625 30.609375 48.390625 
z
M 30.609375 56 
Q 42.328125 56 49.015625 48.375 
Q 55.71875 40.765625 55.71875 27.296875 
Q 55.71875 13.875 49.015625 6.21875 
Q 42.328125 -1.421875 30.609375 -1.421875 
Q 18.84375 -1.421875 12.171875 6.21875 
Q 5.515625 13.875 5.515625 27.296875 
Q 5.515625 40.765625 12.171875 48.375 
Q 18.84375 56 30.609375 56 
z
" id="DejaVuSans-111"/>
       <path d="M 37.109375 75.984375 
L 37.109375 68.5 
L 28.515625 68.5 
Q 23.6875 68.5 21.796875 66.546875 
Q 19.921875 64.59375 19.921875 59.515625 
L 19.921875 54.6875 
L 34.71875 54.6875 
L 34.71875 47.703125 
L 19.921875 47.703125 
L 19.921875 0 
L 10.890625 0 
L 10.890625 47.703125 
L 2.296875 47.703125 
L 2.296875 54.6875 
L 10.890625 54.6875 
L 10.890625 58.5 
Q 10.890625 67.625 15.140625 71.796875 
Q 19.390625 75.984375 28.609375 75.984375 
z
" id="DejaVuSans-102"/>
       <path d="M 44.390625 34.1875 
Q 47.5625 33.109375 50.5625 29.59375 
Q 53.5625 26.078125 56.59375 19.921875 
L 66.609375 0 
L 56 0 
L 46.6875 18.703125 
Q 43.0625 26.03125 39.671875 28.421875 
Q 36.28125 30.8125 30.421875 30.8125 
L 19.671875 30.8125 
L 19.671875 0 
L 9.8125 0 
L 9.8125 72.90625 
L 32.078125 72.90625 
Q 44.578125 72.90625 50.734375 67.671875 
Q 56.890625 62.453125 56.890625 51.90625 
Q 56.890625 45.015625 53.6875 40.46875 
Q 50.484375 35.9375 44.390625 34.1875 
z
M 19.671875 64.796875 
L 19.671875 38.921875 
L 32.078125 38.921875 
Q 39.203125 38.921875 42.84375 42.21875 
Q 46.484375 45.515625 46.484375 51.90625 
Q 46.484375 58.296875 42.84375 61.546875 
Q 39.203125 64.796875 32.078125 64.796875 
z
" id="DejaVuSans-82"/>
       <path d="M 18.3125 70.21875 
L 18.3125 54.6875 
L 36.8125 54.6875 
L 36.8125 47.703125 
L 18.3125 47.703125 
L 18.3125 18.015625 
Q 18.3125 11.328125 20.140625 9.421875 
Q 21.96875 7.515625 27.59375 7.515625 
L 36.8125 7.515625 
L 36.8125 0 
L 27.59375 0 
Q 17.1875 0 13.234375 3.875 
Q 9.28125 7.765625 9.28125 18.015625 
L 9.28125 47.703125 
L 2.6875 47.703125 
L 2.6875 54.6875 
L 9.28125 54.6875 
L 9.28125 70.21875 
z
" id="DejaVuSans-116"/>
       <path d="M 44.28125 53.078125 
L 44.28125 44.578125 
Q 40.484375 46.53125 36.375 47.5 
Q 32.28125 48.484375 27.875 48.484375 
Q 21.1875 48.484375 17.84375 46.4375 
Q 14.5 44.390625 14.5 40.28125 
Q 14.5 37.15625 16.890625 35.375 
Q 19.28125 33.59375 26.515625 31.984375 
L 29.59375 31.296875 
Q 39.15625 29.25 43.1875 25.515625 
Q 47.21875 21.78125 47.21875 15.09375 
Q 47.21875 7.46875 41.1875 3.015625 
Q 35.15625 -1.421875 24.609375 -1.421875 
Q 20.21875 -1.421875 15.453125 -0.5625 
Q 10.6875 0.296875 5.421875 2 
L 5.421875 11.28125 
Q 10.40625 8.6875 15.234375 7.390625 
Q 20.0625 6.109375 24.8125 6.109375 
Q 31.15625 6.109375 34.5625 8.28125 
Q 37.984375 10.453125 37.984375 14.40625 
Q 37.984375 18.0625 35.515625 20.015625 
Q 33.0625 21.96875 24.703125 23.78125 
L 21.578125 24.515625 
Q 13.234375 26.265625 9.515625 29.90625 
Q 5.8125 33.546875 5.8125 39.890625 
Q 5.8125 47.609375 11.28125 51.796875 
Q 16.75 56 26.8125 56 
Q 31.78125 56 36.171875 55.265625 
Q 40.578125 54.546875 44.28125 53.078125 
z
" id="DejaVuSans-115"/>
      </defs>
      <use xlink:href="#DejaVuSans-78"/>
      <use x="74.804688" xlink:href="#DejaVuSans-117"/>
      <use x="138.183594" xlink:href="#DejaVuSans-109"/>
      <use x="235.595703" xlink:href="#DejaVuSans-98"/>
      <use x="299.072266" xlink:href="#DejaVuSans-101"/>
      <use x="360.595703" xlink:href="#DejaVuSans-114"/>
      <use x="401.708984" xlink:href="#DejaVuSans-32"/>
      <use x="433.496094" xlink:href="#DejaVuSans-111"/>
      <use x="494.677734" xlink:href="#DejaVuSans-102"/>
      <use x="529.882812" xlink:href="#DejaVuSans-32"/>
      <use x="561.669922" xlink:href="#DejaVuSans-82"/>
      <use x="626.652344" xlink:href="#DejaVuSans-111"/>
      <use x="687.833984" xlink:href="#DejaVuSans-98"/>
      <use x="751.310547" xlink:href="#DejaVuSans-111"/>
      <use x="812.492188" xlink:href="#DejaVuSans-116"/>
      <use x="851.701172" xlink:href="#DejaVuSans-115"/>
     </g>
    </g>
   </g>
   <g id="matplotlib.axis_2">
    <g id="ytick_1">
     <g id="line2d_11">
      <path clip-path="url(#pa52bbfa9a2)" d="M 84.485 195.107045 
L 348.861171 195.107045 
" style="fill:none;stroke:#b0b0b0;stroke-linecap:square;stroke-width:0.8;"/>
     </g>
     <g id="line2d_12">
      <defs>
       <path d="M 0 0 
L -3.5 0 
" id="m854c81adf0" style="stroke:#000000;stroke-width:0.8;"/>
      </defs>
      <g>
       <use style="stroke:#000000;stroke-width:0.8;" x="84.485" xlink:href="#m854c81adf0" y="195.107045"/>
      </g>
     </g>
     <g id="text_7">
      <!-- 250 -->
      <g transform="translate(46.945 201.185795)scale(0.16 -0.16)">
       <defs>
        <path d="M 10.796875 72.90625 
L 49.515625 72.90625 
L 49.515625 64.59375 
L 19.828125 64.59375 
L 19.828125 46.734375 
Q 21.96875 47.46875 24.109375 47.828125 
Q 26.265625 48.1875 28.421875 48.1875 
Q 40.625 48.1875 47.75 41.5 
Q 54.890625 34.8125 54.890625 23.390625 
Q 54.890625 11.625 47.5625 5.09375 
Q 40.234375 -1.421875 26.90625 -1.421875 
Q 22.3125 -1.421875 17.546875 -0.640625 
Q 12.796875 0.140625 7.71875 1.703125 
L 7.71875 11.625 
Q 12.109375 9.234375 16.796875 8.0625 
Q 21.484375 6.890625 26.703125 6.890625 
Q 35.15625 6.890625 40.078125 11.328125 
Q 45.015625 15.765625 45.015625 23.390625 
Q 45.015625 31 40.078125 35.4375 
Q 35.15625 39.890625 26.703125 39.890625 
Q 22.75 39.890625 18.8125 39.015625 
Q 14.890625 38.140625 10.796875 36.28125 
z
" id="DejaVuSans-53"/>
       </defs>
       <use xlink:href="#DejaVuSans-50"/>
       <use x="63.623047" xlink:href="#DejaVuSans-53"/>
       <use x="127.246094" xlink:href="#DejaVuSans-48"/>
      </g>
     </g>
    </g>
    <g id="ytick_2">
     <g id="line2d_13">
      <path clip-path="url(#pa52bbfa9a2)" d="M 84.485 155.055909 
L 348.861171 155.055909 
" style="fill:none;stroke:#b0b0b0;stroke-linecap:square;stroke-width:0.8;"/>
     </g>
     <g id="line2d_14">
      <g>
       <use style="stroke:#000000;stroke-width:0.8;" x="84.485" xlink:href="#m854c81adf0" y="155.055909"/>
      </g>
     </g>
     <g id="text_8">
      <!-- 500 -->
      <g transform="translate(46.945 161.134659)scale(0.16 -0.16)">
       <use xlink:href="#DejaVuSans-53"/>
       <use x="63.623047" xlink:href="#DejaVuSans-48"/>
       <use x="127.246094" xlink:href="#DejaVuSans-48"/>
      </g>
     </g>
    </g>
    <g id="ytick_3">
     <g id="line2d_15">
      <path clip-path="url(#pa52bbfa9a2)" d="M 84.485 115.004773 
L 348.861171 115.004773 
" style="fill:none;stroke:#b0b0b0;stroke-linecap:square;stroke-width:0.8;"/>
     </g>
     <g id="line2d_16">
      <g>
       <use style="stroke:#000000;stroke-width:0.8;" x="84.485" xlink:href="#m854c81adf0" y="115.004773"/>
      </g>
     </g>
     <g id="text_9">
      <!-- 750 -->
      <g transform="translate(46.945 121.083523)scale(0.16 -0.16)">
       <defs>
        <path d="M 8.203125 72.90625 
L 55.078125 72.90625 
L 55.078125 68.703125 
L 28.609375 0 
L 18.3125 0 
L 43.21875 64.59375 
L 8.203125 64.59375 
z
" id="DejaVuSans-55"/>
       </defs>
       <use xlink:href="#DejaVuSans-55"/>
       <use x="63.623047" xlink:href="#DejaVuSans-53"/>
       <use x="127.246094" xlink:href="#DejaVuSans-48"/>
      </g>
     </g>
    </g>
    <g id="ytick_4">
     <g id="line2d_17">
      <path clip-path="url(#pa52bbfa9a2)" d="M 84.485 74.953636 
L 348.861171 74.953636 
" style="fill:none;stroke:#b0b0b0;stroke-linecap:square;stroke-width:0.8;"/>
     </g>
     <g id="line2d_18">
      <g>
       <use style="stroke:#000000;stroke-width:0.8;" x="84.485" xlink:href="#m854c81adf0" y="74.953636"/>
      </g>
     </g>
     <g id="text_10">
      <!-- 1000 -->
      <g transform="translate(36.765 81.032386)scale(0.16 -0.16)">
       <use xlink:href="#DejaVuSans-49"/>
       <use x="63.623047" xlink:href="#DejaVuSans-48"/>
       <use x="127.246094" xlink:href="#DejaVuSans-48"/>
       <use x="190.869141" xlink:href="#DejaVuSans-48"/>
      </g>
     </g>
    </g>
    <g id="ytick_5">
     <g id="line2d_19">
      <path clip-path="url(#pa52bbfa9a2)" d="M 84.485 34.9025 
L 348.861171 34.9025 
" style="fill:none;stroke:#b0b0b0;stroke-linecap:square;stroke-width:0.8;"/>
     </g>
     <g id="line2d_20">
      <g>
       <use style="stroke:#000000;stroke-width:0.8;" x="84.485" xlink:href="#m854c81adf0" y="34.9025"/>
      </g>
     </g>
     <g id="text_11">
      <!-- 1250 -->
      <g transform="translate(36.765 40.98125)scale(0.16 -0.16)">
       <use xlink:href="#DejaVuSans-49"/>
       <use x="63.623047" xlink:href="#DejaVuSans-50"/>
       <use x="127.246094" xlink:href="#DejaVuSans-53"/>
       <use x="190.869141" xlink:href="#DejaVuSans-48"/>
      </g>
     </g>
    </g>
    <g id="text_12">
     <!-- Iterations to Reach -->
     <g transform="translate(29.4375 198.725)rotate(-90)scale(0.16 -0.16)">
      <defs>
       <path d="M 9.8125 72.90625 
L 19.671875 72.90625 
L 19.671875 0 
L 9.8125 0 
z
" id="DejaVuSans-73"/>
       <path d="M 34.28125 27.484375 
Q 23.390625 27.484375 19.1875 25 
Q 14.984375 22.515625 14.984375 16.5 
Q 14.984375 11.71875 18.140625 8.90625 
Q 21.296875 6.109375 26.703125 6.109375 
Q 34.1875 6.109375 38.703125 11.40625 
Q 43.21875 16.703125 43.21875 25.484375 
L 43.21875 27.484375 
z
M 52.203125 31.203125 
L 52.203125 0 
L 43.21875 0 
L 43.21875 8.296875 
Q 40.140625 3.328125 35.546875 0.953125 
Q 30.953125 -1.421875 24.3125 -1.421875 
Q 15.921875 -1.421875 10.953125 3.296875 
Q 6 8.015625 6 15.921875 
Q 6 25.140625 12.171875 29.828125 
Q 18.359375 34.515625 30.609375 34.515625 
L 43.21875 34.515625 
L 43.21875 35.40625 
Q 43.21875 41.609375 39.140625 45 
Q 35.0625 48.390625 27.6875 48.390625 
Q 23 48.390625 18.546875 47.265625 
Q 14.109375 46.140625 10.015625 43.890625 
L 10.015625 52.203125 
Q 14.9375 54.109375 19.578125 55.046875 
Q 24.21875 56 28.609375 56 
Q 40.484375 56 46.34375 49.84375 
Q 52.203125 43.703125 52.203125 31.203125 
z
" id="DejaVuSans-97"/>
       <path d="M 9.421875 54.6875 
L 18.40625 54.6875 
L 18.40625 0 
L 9.421875 0 
z
M 9.421875 75.984375 
L 18.40625 75.984375 
L 18.40625 64.59375 
L 9.421875 64.59375 
z
" id="DejaVuSans-105"/>
       <path d="M 54.890625 33.015625 
L 54.890625 0 
L 45.90625 0 
L 45.90625 32.71875 
Q 45.90625 40.484375 42.875 44.328125 
Q 39.84375 48.1875 33.796875 48.1875 
Q 26.515625 48.1875 22.3125 43.546875 
Q 18.109375 38.921875 18.109375 30.90625 
L 18.109375 0 
L 9.078125 0 
L 9.078125 54.6875 
L 18.109375 54.6875 
L 18.109375 46.1875 
Q 21.34375 51.125 25.703125 53.5625 
Q 30.078125 56 35.796875 56 
Q 45.21875 56 50.046875 50.171875 
Q 54.890625 44.34375 54.890625 33.015625 
z
" id="DejaVuSans-110"/>
       <path d="M 48.78125 52.59375 
L 48.78125 44.1875 
Q 44.96875 46.296875 41.140625 47.34375 
Q 37.3125 48.390625 33.40625 48.390625 
Q 24.65625 48.390625 19.8125 42.84375 
Q 14.984375 37.3125 14.984375 27.296875 
Q 14.984375 17.28125 19.8125 11.734375 
Q 24.65625 6.203125 33.40625 6.203125 
Q 37.3125 6.203125 41.140625 7.25 
Q 44.96875 8.296875 48.78125 10.40625 
L 48.78125 2.09375 
Q 45.015625 0.34375 40.984375 -0.53125 
Q 36.96875 -1.421875 32.421875 -1.421875 
Q 20.0625 -1.421875 12.78125 6.34375 
Q 5.515625 14.109375 5.515625 27.296875 
Q 5.515625 40.671875 12.859375 48.328125 
Q 20.21875 56 33.015625 56 
Q 37.15625 56 41.109375 55.140625 
Q 45.0625 54.296875 48.78125 52.59375 
z
" id="DejaVuSans-99"/>
       <path d="M 54.890625 33.015625 
L 54.890625 0 
L 45.90625 0 
L 45.90625 32.71875 
Q 45.90625 40.484375 42.875 44.328125 
Q 39.84375 48.1875 33.796875 48.1875 
Q 26.515625 48.1875 22.3125 43.546875 
Q 18.109375 38.921875 18.109375 30.90625 
L 18.109375 0 
L 9.078125 0 
L 9.078125 75.984375 
L 18.109375 75.984375 
L 18.109375 46.1875 
Q 21.34375 51.125 25.703125 53.5625 
Q 30.078125 56 35.796875 56 
Q 45.21875 56 50.046875 50.171875 
Q 54.890625 44.34375 54.890625 33.015625 
z
" id="DejaVuSans-104"/>
      </defs>
      <use xlink:href="#DejaVuSans-73"/>
      <use x="29.492188" xlink:href="#DejaVuSans-116"/>
      <use x="68.701172" xlink:href="#DejaVuSans-101"/>
      <use x="130.224609" xlink:href="#DejaVuSans-114"/>
      <use x="171.337891" xlink:href="#DejaVuSans-97"/>
      <use x="232.617188" xlink:href="#DejaVuSans-116"/>
      <use x="271.826172" xlink:href="#DejaVuSans-105"/>
      <use x="299.609375" xlink:href="#DejaVuSans-111"/>
      <use x="360.791016" xlink:href="#DejaVuSans-110"/>
      <use x="424.169922" xlink:href="#DejaVuSans-115"/>
      <use x="476.269531" xlink:href="#DejaVuSans-32"/>
      <use x="508.056641" xlink:href="#DejaVuSans-116"/>
      <use x="547.265625" xlink:href="#DejaVuSans-111"/>
      <use x="608.447266" xlink:href="#DejaVuSans-32"/>
      <use x="640.234375" xlink:href="#DejaVuSans-82"/>
      <use x="705.216797" xlink:href="#DejaVuSans-101"/>
      <use x="766.740234" xlink:href="#DejaVuSans-97"/>
      <use x="828.019531" xlink:href="#DejaVuSans-99"/>
      <use x="883" xlink:href="#DejaVuSans-104"/>
     </g>
    </g>
   </g>
   <g id="line2d_21">
    <path clip-path="url(#pa52bbfa9a2)" d="M 96.502099 219.137727 
L 123.206762 219.137727 
L 149.911426 219.137727 
L 176.61609 219.137727 
L 203.320754 219.137727 
L 230.025418 219.137727 
L 256.730081 219.137727 
L 283.434745 219.137727 
L 310.139409 219.137727 
L 336.844073 219.137727 
" style="fill:none;stroke:#a9a9a9;stroke-linecap:square;stroke-width:1.5;"/>
    <defs>
     <path d="M -3 3 
L 3 3 
L 3 -3 
L -3 -3 
z
" id="mc935689f3f" style="stroke:#a9a9a9;stroke-linejoin:miter;"/>
    </defs>
    <g clip-path="url(#pa52bbfa9a2)">
     <use style="fill:#a9a9a9;stroke:#a9a9a9;stroke-linejoin:miter;" x="96.502099" xlink:href="#mc935689f3f" y="219.137727"/>
     <use style="fill:#a9a9a9;stroke:#a9a9a9;stroke-linejoin:miter;" x="123.206762" xlink:href="#mc935689f3f" y="219.137727"/>
     <use style="fill:#a9a9a9;stroke:#a9a9a9;stroke-linejoin:miter;" x="149.911426" xlink:href="#mc935689f3f" y="219.137727"/>
     <use style="fill:#a9a9a9;stroke:#a9a9a9;stroke-linejoin:miter;" x="176.61609" xlink:href="#mc935689f3f" y="219.137727"/>
     <use style="fill:#a9a9a9;stroke:#a9a9a9;stroke-linejoin:miter;" x="203.320754" xlink:href="#mc935689f3f" y="219.137727"/>
     <use style="fill:#a9a9a9;stroke:#a9a9a9;stroke-linejoin:miter;" x="230.025418" xlink:href="#mc935689f3f" y="219.137727"/>
     <use style="fill:#a9a9a9;stroke:#a9a9a9;stroke-linejoin:miter;" x="256.730081" xlink:href="#mc935689f3f" y="219.137727"/>
     <use style="fill:#a9a9a9;stroke:#a9a9a9;stroke-linejoin:miter;" x="283.434745" xlink:href="#mc935689f3f" y="219.137727"/>
     <use style="fill:#a9a9a9;stroke:#a9a9a9;stroke-linejoin:miter;" x="310.139409" xlink:href="#mc935689f3f" y="219.137727"/>
     <use style="fill:#a9a9a9;stroke:#a9a9a9;stroke-linejoin:miter;" x="336.844073" xlink:href="#mc935689f3f" y="219.137727"/>
    </g>
   </g>
   <g id="line2d_22">
    <path clip-path="url(#pa52bbfa9a2)" d="M 96.502099 187.096818 
L 123.206762 187.096818 
L 149.911426 171.076364 
L 176.61609 187.096818 
L 203.320754 171.076364 
L 230.025418 171.076364 
L 256.730081 171.076364 
L 283.434745 187.096818 
L 310.139409 187.096818 
L 336.844073 187.096818 
" style="fill:none;stroke:#696969;stroke-linecap:square;stroke-width:1.5;"/>
    <defs>
     <path d="M 0 3 
C 0.795609 3 1.55874 2.683901 2.12132 2.12132 
C 2.683901 1.55874 3 0.795609 3 0 
C 3 -0.795609 2.683901 -1.55874 2.12132 -2.12132 
C 1.55874 -2.683901 0.795609 -3 0 -3 
C -0.795609 -3 -1.55874 -2.683901 -2.12132 -2.12132 
C -2.683901 -1.55874 -3 -0.795609 -3 0 
C -3 0.795609 -2.683901 1.55874 -2.12132 2.12132 
C -1.55874 2.683901 -0.795609 3 0 3 
z
" id="m1cbb593af6" style="stroke:#696969;"/>
    </defs>
    <g clip-path="url(#pa52bbfa9a2)">
     <use style="fill:#696969;stroke:#696969;" x="96.502099" xlink:href="#m1cbb593af6" y="187.096818"/>
     <use style="fill:#696969;stroke:#696969;" x="123.206762" xlink:href="#m1cbb593af6" y="187.096818"/>
     <use style="fill:#696969;stroke:#696969;" x="149.911426" xlink:href="#m1cbb593af6" y="171.076364"/>
     <use style="fill:#696969;stroke:#696969;" x="176.61609" xlink:href="#m1cbb593af6" y="187.096818"/>
     <use style="fill:#696969;stroke:#696969;" x="203.320754" xlink:href="#m1cbb593af6" y="171.076364"/>
     <use style="fill:#696969;stroke:#696969;" x="230.025418" xlink:href="#m1cbb593af6" y="171.076364"/>
     <use style="fill:#696969;stroke:#696969;" x="256.730081" xlink:href="#m1cbb593af6" y="171.076364"/>
     <use style="fill:#696969;stroke:#696969;" x="283.434745" xlink:href="#m1cbb593af6" y="187.096818"/>
     <use style="fill:#696969;stroke:#696969;" x="310.139409" xlink:href="#m1cbb593af6" y="187.096818"/>
     <use style="fill:#696969;stroke:#696969;" x="336.844073" xlink:href="#m1cbb593af6" y="187.096818"/>
    </g>
   </g>
   <g id="line2d_23">
    <path clip-path="url(#pa52bbfa9a2)" d="M 96.502099 139.035455 
L 123.206762 123.015 
L 149.911426 90.974091 
L 176.61609 74.953636 
L 203.320754 90.974091 
L 230.025418 42.912727 
L 256.730081 58.933182 
L 283.434745 58.933182 
L 310.139409 58.933182 
L 336.844073 26.892273 
" style="fill:none;stroke:#000000;stroke-linecap:square;stroke-width:1.5;"/>
    <defs>
     <path d="M 0 -3 
L -3 3 
L 3 3 
z
" id="m8c17a20d98" style="stroke:#000000;stroke-linejoin:miter;"/>
    </defs>
    <g clip-path="url(#pa52bbfa9a2)">
     <use style="stroke:#000000;stroke-linejoin:miter;" x="96.502099" xlink:href="#m8c17a20d98" y="139.035455"/>
     <use style="stroke:#000000;stroke-linejoin:miter;" x="123.206762" xlink:href="#m8c17a20d98" y="123.015"/>
     <use style="stroke:#000000;stroke-linejoin:miter;" x="149.911426" xlink:href="#m8c17a20d98" y="90.974091"/>
     <use style="stroke:#000000;stroke-linejoin:miter;" x="176.61609" xlink:href="#m8c17a20d98" y="74.953636"/>
     <use style="stroke:#000000;stroke-linejoin:miter;" x="203.320754" xlink:href="#m8c17a20d98" y="90.974091"/>
     <use style="stroke:#000000;stroke-linejoin:miter;" x="230.025418" xlink:href="#m8c17a20d98" y="42.912727"/>
     <use style="stroke:#000000;stroke-linejoin:miter;" x="256.730081" xlink:href="#m8c17a20d98" y="58.933182"/>
     <use style="stroke:#000000;stroke-linejoin:miter;" x="283.434745" xlink:href="#m8c17a20d98" y="58.933182"/>
     <use style="stroke:#000000;stroke-linejoin:miter;" x="310.139409" xlink:href="#m8c17a20d98" y="58.933182"/>
     <use style="stroke:#000000;stroke-linejoin:miter;" x="336.844073" xlink:href="#m8c17a20d98" y="26.892273"/>
    </g>
   </g>
   <g id="patch_3">
    <path d="M 84.485 228.75 
L 84.485 17.28 
" style="fill:none;stroke:#000000;stroke-linecap:square;stroke-linejoin:miter;stroke-width:0.8;"/>
   </g>
   <g id="patch_4">
    <path d="M 348.861171 228.75 
L 348.861171 17.28 
" style="fill:none;stroke:#000000;stroke-linecap:square;stroke-linejoin:miter;stroke-width:0.8;"/>
   </g>
   <g id="patch_5">
    <path d="M 84.485 228.75 
L 348.861171 228.75 
" style="fill:none;stroke:#000000;stroke-linecap:square;stroke-linejoin:miter;stroke-width:0.8;"/>
   </g>
   <g id="patch_6">
    <path d="M 84.485 17.28 
L 348.861171 17.28 
" style="fill:none;stroke:#000000;stroke-linecap:square;stroke-linejoin:miter;stroke-width:0.8;"/>
   </g>
   <g id="legend_1">
    <g id="patch_7">
     <path d="M 250.898671 160.6425 
L 337.661171 160.6425 
Q 340.861171 160.6425 340.861171 157.4425 
L 340.861171 88.5875 
Q 340.861171 85.3875 337.661171 85.3875 
L 250.898671 85.3875 
Q 247.698671 85.3875 247.698671 88.5875 
L 247.698671 157.4425 
Q 247.698671 160.6425 250.898671 160.6425 
z
" style="fill:#ffffff;opacity:0.8;stroke:#cccccc;stroke-linejoin:miter;"/>
    </g>
    <g id="line2d_24">
     <path d="M 254.098671 98.345 
L 286.098671 98.345 
" style="fill:none;stroke:#a9a9a9;stroke-linecap:square;stroke-width:1.5;"/>
    </g>
    <g id="line2d_25">
     <g>
      <use style="fill:#a9a9a9;stroke:#a9a9a9;stroke-linejoin:miter;" x="270.098671" xlink:href="#mc935689f3f" y="98.345"/>
     </g>
    </g>
    <g id="text_13">
     <!-- 50% -->
     <g transform="translate(298.898671 103.945)scale(0.16 -0.16)">
      <defs>
       <path d="M 72.703125 32.078125 
Q 68.453125 32.078125 66.03125 28.46875 
Q 63.625 24.859375 63.625 18.40625 
Q 63.625 12.0625 66.03125 8.421875 
Q 68.453125 4.78125 72.703125 4.78125 
Q 76.859375 4.78125 79.265625 8.421875 
Q 81.6875 12.0625 81.6875 18.40625 
Q 81.6875 24.8125 79.265625 28.4375 
Q 76.859375 32.078125 72.703125 32.078125 
z
M 72.703125 38.28125 
Q 80.421875 38.28125 84.953125 32.90625 
Q 89.5 27.546875 89.5 18.40625 
Q 89.5 9.28125 84.9375 3.921875 
Q 80.375 -1.421875 72.703125 -1.421875 
Q 64.890625 -1.421875 60.34375 3.921875 
Q 55.8125 9.28125 55.8125 18.40625 
Q 55.8125 27.59375 60.375 32.9375 
Q 64.9375 38.28125 72.703125 38.28125 
z
M 22.3125 68.015625 
Q 18.109375 68.015625 15.6875 64.375 
Q 13.28125 60.75 13.28125 54.390625 
Q 13.28125 47.953125 15.671875 44.328125 
Q 18.0625 40.71875 22.3125 40.71875 
Q 26.5625 40.71875 28.96875 44.328125 
Q 31.390625 47.953125 31.390625 54.390625 
Q 31.390625 60.6875 28.953125 64.34375 
Q 26.515625 68.015625 22.3125 68.015625 
z
M 66.40625 74.21875 
L 74.21875 74.21875 
L 28.609375 -1.421875 
L 20.796875 -1.421875 
z
M 22.3125 74.21875 
Q 30.03125 74.21875 34.609375 68.875 
Q 39.203125 63.53125 39.203125 54.390625 
Q 39.203125 45.171875 34.640625 39.84375 
Q 30.078125 34.515625 22.3125 34.515625 
Q 14.546875 34.515625 10.03125 39.859375 
Q 5.515625 45.21875 5.515625 54.390625 
Q 5.515625 63.484375 10.046875 68.84375 
Q 14.59375 74.21875 22.3125 74.21875 
z
" id="DejaVuSans-37"/>
      </defs>
      <use xlink:href="#DejaVuSans-53"/>
      <use x="63.623047" xlink:href="#DejaVuSans-48"/>
      <use x="127.246094" xlink:href="#DejaVuSans-37"/>
     </g>
    </g>
    <g id="line2d_26">
     <path d="M 254.098671 121.83 
L 286.098671 121.83 
" style="fill:none;stroke:#696969;stroke-linecap:square;stroke-width:1.5;"/>
    </g>
    <g id="line2d_27">
     <g>
      <use style="fill:#696969;stroke:#696969;" x="270.098671" xlink:href="#m1cbb593af6" y="121.83"/>
     </g>
    </g>
    <g id="text_14">
     <!-- 90% -->
     <g transform="translate(298.898671 127.43)scale(0.16 -0.16)">
      <defs>
       <path d="M 10.984375 1.515625 
L 10.984375 10.5 
Q 14.703125 8.734375 18.5 7.8125 
Q 22.3125 6.890625 25.984375 6.890625 
Q 35.75 6.890625 40.890625 13.453125 
Q 46.046875 20.015625 46.78125 33.40625 
Q 43.953125 29.203125 39.59375 26.953125 
Q 35.25 24.703125 29.984375 24.703125 
Q 19.046875 24.703125 12.671875 31.3125 
Q 6.296875 37.9375 6.296875 49.421875 
Q 6.296875 60.640625 12.9375 67.421875 
Q 19.578125 74.21875 30.609375 74.21875 
Q 43.265625 74.21875 49.921875 64.515625 
Q 56.59375 54.828125 56.59375 36.375 
Q 56.59375 19.140625 48.40625 8.859375 
Q 40.234375 -1.421875 26.421875 -1.421875 
Q 22.703125 -1.421875 18.890625 -0.6875 
Q 15.09375 0.046875 10.984375 1.515625 
z
M 30.609375 32.421875 
Q 37.25 32.421875 41.125 36.953125 
Q 45.015625 41.5 45.015625 49.421875 
Q 45.015625 57.28125 41.125 61.84375 
Q 37.25 66.40625 30.609375 66.40625 
Q 23.96875 66.40625 20.09375 61.84375 
Q 16.21875 57.28125 16.21875 49.421875 
Q 16.21875 41.5 20.09375 36.953125 
Q 23.96875 32.421875 30.609375 32.421875 
z
" id="DejaVuSans-57"/>
      </defs>
      <use xlink:href="#DejaVuSans-57"/>
      <use x="63.623047" xlink:href="#DejaVuSans-48"/>
      <use x="127.246094" xlink:href="#DejaVuSans-37"/>
     </g>
    </g>
    <g id="line2d_28">
     <path d="M 254.098671 145.315 
L 286.098671 145.315 
" style="fill:none;stroke:#000000;stroke-linecap:square;stroke-width:1.5;"/>
    </g>
    <g id="line2d_29">
     <g>
      <use style="stroke:#000000;stroke-linejoin:miter;" x="270.098671" xlink:href="#m8c17a20d98" y="145.315"/>
     </g>
    </g>
    <g id="text_15">
     <!-- 97% -->
     <g transform="translate(298.898671 150.915)scale(0.16 -0.16)">
      <use xlink:href="#DejaVuSans-57"/>
      <use x="63.623047" xlink:href="#DejaVuSans-55"/>
      <use x="127.246094" xlink:href="#DejaVuSans-37"/>
     </g>
    </g>
   </g>
  </g>
  <g id="axes_2">
   <g id="patch_8">
    <path d="M 437.087246 228.75 
L 701.463417 228.75 
L 701.463417 17.28 
L 437.087246 17.28 
z
" style="fill:#ffffff;"/>
   </g>
   <g id="matplotlib.axis_3">
    <g id="xtick_6">
     <g id="line2d_30">
      <path clip-path="url(#p7e508eb57e)" d="M 499.562532 228.75 
L 499.562532 17.28 
" style="fill:none;stroke:#b0b0b0;stroke-linecap:square;stroke-width:0.8;"/>
     </g>
     <g id="line2d_31">
      <g>
       <use style="stroke:#000000;stroke-width:0.8;" x="499.562532" xlink:href="#m55c5e6026e" y="228.75"/>
      </g>
     </g>
     <g id="text_16">
      <!-- 0.5 -->
      <g transform="translate(486.840032 247.9075)scale(0.16 -0.16)">
       <defs>
        <path d="M 10.6875 12.40625 
L 21 12.40625 
L 21 0 
L 10.6875 0 
z
" id="DejaVuSans-46"/>
       </defs>
       <use xlink:href="#DejaVuSans-48"/>
       <use x="63.623047" xlink:href="#DejaVuSans-46"/>
       <use x="95.410156" xlink:href="#DejaVuSans-53"/>
      </g>
     </g>
    </g>
    <g id="xtick_7">
     <g id="line2d_32">
      <path clip-path="url(#p7e508eb57e)" d="M 562.87902 228.75 
L 562.87902 17.28 
" style="fill:none;stroke:#b0b0b0;stroke-linecap:square;stroke-width:0.8;"/>
     </g>
     <g id="line2d_33">
      <g>
       <use style="stroke:#000000;stroke-width:0.8;" x="562.87902" xlink:href="#m55c5e6026e" y="228.75"/>
      </g>
     </g>
     <g id="text_17">
      <!-- 1.0 -->
      <g transform="translate(550.15652 247.9075)scale(0.16 -0.16)">
       <use xlink:href="#DejaVuSans-49"/>
       <use x="63.623047" xlink:href="#DejaVuSans-46"/>
       <use x="95.410156" xlink:href="#DejaVuSans-48"/>
      </g>
     </g>
    </g>
    <g id="xtick_8">
     <g id="line2d_34">
      <path clip-path="url(#p7e508eb57e)" d="M 626.195507 228.75 
L 626.195507 17.28 
" style="fill:none;stroke:#b0b0b0;stroke-linecap:square;stroke-width:0.8;"/>
     </g>
     <g id="line2d_35">
      <g>
       <use style="stroke:#000000;stroke-width:0.8;" x="626.195507" xlink:href="#m55c5e6026e" y="228.75"/>
      </g>
     </g>
     <g id="text_18">
      <!-- 1.5 -->
      <g transform="translate(613.473007 247.9075)scale(0.16 -0.16)">
       <use xlink:href="#DejaVuSans-49"/>
       <use x="63.623047" xlink:href="#DejaVuSans-46"/>
       <use x="95.410156" xlink:href="#DejaVuSans-53"/>
      </g>
     </g>
    </g>
    <g id="xtick_9">
     <g id="line2d_36">
      <path clip-path="url(#p7e508eb57e)" d="M 689.511995 228.75 
L 689.511995 17.28 
" style="fill:none;stroke:#b0b0b0;stroke-linecap:square;stroke-width:0.8;"/>
     </g>
     <g id="line2d_37">
      <g>
       <use style="stroke:#000000;stroke-width:0.8;" x="689.511995" xlink:href="#m55c5e6026e" y="228.75"/>
      </g>
     </g>
     <g id="text_19">
      <!-- 2.0 -->
      <g transform="translate(676.789495 247.9075)scale(0.16 -0.16)">
       <use xlink:href="#DejaVuSans-50"/>
       <use x="63.623047" xlink:href="#DejaVuSans-46"/>
       <use x="95.410156" xlink:href="#DejaVuSans-48"/>
      </g>
     </g>
    </g>
    <g id="text_20">
     <!-- Fiedler Value -->
     <g transform="translate(518.084081 267.3925)scale(0.16 -0.16)">
      <defs>
       <path d="M 9.8125 72.90625 
L 51.703125 72.90625 
L 51.703125 64.59375 
L 19.671875 64.59375 
L 19.671875 43.109375 
L 48.578125 43.109375 
L 48.578125 34.8125 
L 19.671875 34.8125 
L 19.671875 0 
L 9.8125 0 
z
" id="DejaVuSans-70"/>
       <path d="M 45.40625 46.390625 
L 45.40625 75.984375 
L 54.390625 75.984375 
L 54.390625 0 
L 45.40625 0 
L 45.40625 8.203125 
Q 42.578125 3.328125 38.25 0.953125 
Q 33.9375 -1.421875 27.875 -1.421875 
Q 17.96875 -1.421875 11.734375 6.484375 
Q 5.515625 14.40625 5.515625 27.296875 
Q 5.515625 40.1875 11.734375 48.09375 
Q 17.96875 56 27.875 56 
Q 33.9375 56 38.25 53.625 
Q 42.578125 51.265625 45.40625 46.390625 
z
M 14.796875 27.296875 
Q 14.796875 17.390625 18.875 11.75 
Q 22.953125 6.109375 30.078125 6.109375 
Q 37.203125 6.109375 41.296875 11.75 
Q 45.40625 17.390625 45.40625 27.296875 
Q 45.40625 37.203125 41.296875 42.84375 
Q 37.203125 48.484375 30.078125 48.484375 
Q 22.953125 48.484375 18.875 42.84375 
Q 14.796875 37.203125 14.796875 27.296875 
z
" id="DejaVuSans-100"/>
       <path d="M 9.421875 75.984375 
L 18.40625 75.984375 
L 18.40625 0 
L 9.421875 0 
z
" id="DejaVuSans-108"/>
       <path d="M 28.609375 0 
L 0.78125 72.90625 
L 11.078125 72.90625 
L 34.1875 11.53125 
L 57.328125 72.90625 
L 67.578125 72.90625 
L 39.796875 0 
z
" id="DejaVuSans-86"/>
      </defs>
      <use xlink:href="#DejaVuSans-70"/>
      <use x="50.269531" xlink:href="#DejaVuSans-105"/>
      <use x="78.052734" xlink:href="#DejaVuSans-101"/>
      <use x="139.576172" xlink:href="#DejaVuSans-100"/>
      <use x="203.052734" xlink:href="#DejaVuSans-108"/>
      <use x="230.835938" xlink:href="#DejaVuSans-101"/>
      <use x="292.359375" xlink:href="#DejaVuSans-114"/>
      <use x="333.472656" xlink:href="#DejaVuSans-32"/>
      <use x="365.259766" xlink:href="#DejaVuSans-86"/>
      <use x="425.917969" xlink:href="#DejaVuSans-97"/>
      <use x="487.197266" xlink:href="#DejaVuSans-108"/>
      <use x="514.980469" xlink:href="#DejaVuSans-117"/>
      <use x="578.359375" xlink:href="#DejaVuSans-101"/>
     </g>
    </g>
   </g>
   <g id="matplotlib.axis_4">
    <g id="ytick_6">
     <g id="line2d_38">
      <path clip-path="url(#p7e508eb57e)" d="M 437.087246 222.697828 
L 701.463417 222.697828 
" style="fill:none;stroke:#b0b0b0;stroke-linecap:square;stroke-width:0.8;"/>
     </g>
     <g id="line2d_39">
      <g>
       <use style="stroke:#000000;stroke-width:0.8;" x="437.087246" xlink:href="#m854c81adf0" y="222.697828"/>
      </g>
     </g>
     <g id="text_21">
      <!-- 0 -->
      <g transform="translate(419.907246 228.776578)scale(0.16 -0.16)">
       <use xlink:href="#DejaVuSans-48"/>
      </g>
     </g>
    </g>
    <g id="ytick_7">
     <g id="line2d_40">
      <path clip-path="url(#p7e508eb57e)" d="M 437.087246 187.096818 
L 701.463417 187.096818 
" style="fill:none;stroke:#b0b0b0;stroke-linecap:square;stroke-width:0.8;"/>
     </g>
     <g id="line2d_41">
      <g>
       <use style="stroke:#000000;stroke-width:0.8;" x="437.087246" xlink:href="#m854c81adf0" y="187.096818"/>
      </g>
     </g>
     <g id="text_22">
      <!-- 200 -->
      <g transform="translate(399.547246 193.175568)scale(0.16 -0.16)">
       <use xlink:href="#DejaVuSans-50"/>
       <use x="63.623047" xlink:href="#DejaVuSans-48"/>
       <use x="127.246094" xlink:href="#DejaVuSans-48"/>
      </g>
     </g>
    </g>
    <g id="ytick_8">
     <g id="line2d_42">
      <path clip-path="url(#p7e508eb57e)" d="M 437.087246 151.495808 
L 701.463417 151.495808 
" style="fill:none;stroke:#b0b0b0;stroke-linecap:square;stroke-width:0.8;"/>
     </g>
     <g id="line2d_43">
      <g>
       <use style="stroke:#000000;stroke-width:0.8;" x="437.087246" xlink:href="#m854c81adf0" y="151.495808"/>
      </g>
     </g>
     <g id="text_23">
      <!-- 400 -->
      <g transform="translate(399.547246 157.574558)scale(0.16 -0.16)">
       <use xlink:href="#DejaVuSans-52"/>
       <use x="63.623047" xlink:href="#DejaVuSans-48"/>
       <use x="127.246094" xlink:href="#DejaVuSans-48"/>
      </g>
     </g>
    </g>
    <g id="ytick_9">
     <g id="line2d_44">
      <path clip-path="url(#p7e508eb57e)" d="M 437.087246 115.894798 
L 701.463417 115.894798 
" style="fill:none;stroke:#b0b0b0;stroke-linecap:square;stroke-width:0.8;"/>
     </g>
     <g id="line2d_45">
      <g>
       <use style="stroke:#000000;stroke-width:0.8;" x="437.087246" xlink:href="#m854c81adf0" y="115.894798"/>
      </g>
     </g>
     <g id="text_24">
      <!-- 600 -->
      <g transform="translate(399.547246 121.973548)scale(0.16 -0.16)">
       <use xlink:href="#DejaVuSans-54"/>
       <use x="63.623047" xlink:href="#DejaVuSans-48"/>
       <use x="127.246094" xlink:href="#DejaVuSans-48"/>
      </g>
     </g>
    </g>
    <g id="ytick_10">
     <g id="line2d_46">
      <path clip-path="url(#p7e508eb57e)" d="M 437.087246 80.293788 
L 701.463417 80.293788 
" style="fill:none;stroke:#b0b0b0;stroke-linecap:square;stroke-width:0.8;"/>
     </g>
     <g id="line2d_47">
      <g>
       <use style="stroke:#000000;stroke-width:0.8;" x="437.087246" xlink:href="#m854c81adf0" y="80.293788"/>
      </g>
     </g>
     <g id="text_25">
      <!-- 800 -->
      <g transform="translate(399.547246 86.372538)scale(0.16 -0.16)">
       <use xlink:href="#DejaVuSans-56"/>
       <use x="63.623047" xlink:href="#DejaVuSans-48"/>
       <use x="127.246094" xlink:href="#DejaVuSans-48"/>
      </g>
     </g>
    </g>
    <g id="ytick_11">
     <g id="line2d_48">
      <path clip-path="url(#p7e508eb57e)" d="M 437.087246 44.692778 
L 701.463417 44.692778 
" style="fill:none;stroke:#b0b0b0;stroke-linecap:square;stroke-width:0.8;"/>
     </g>
     <g id="line2d_49">
      <g>
       <use style="stroke:#000000;stroke-width:0.8;" x="437.087246" xlink:href="#m854c81adf0" y="44.692778"/>
      </g>
     </g>
     <g id="text_26">
      <!-- 1000 -->
      <g transform="translate(389.367246 50.771528)scale(0.16 -0.16)">
       <use xlink:href="#DejaVuSans-49"/>
       <use x="63.623047" xlink:href="#DejaVuSans-48"/>
       <use x="127.246094" xlink:href="#DejaVuSans-48"/>
       <use x="190.869141" xlink:href="#DejaVuSans-48"/>
      </g>
     </g>
    </g>
    <g id="text_27">
     <!-- Iterations to Reach -->
     <g transform="translate(382.039746 198.725)rotate(-90)scale(0.16 -0.16)">
      <use xlink:href="#DejaVuSans-73"/>
      <use x="29.492188" xlink:href="#DejaVuSans-116"/>
      <use x="68.701172" xlink:href="#DejaVuSans-101"/>
      <use x="130.224609" xlink:href="#DejaVuSans-114"/>
      <use x="171.337891" xlink:href="#DejaVuSans-97"/>
      <use x="232.617188" xlink:href="#DejaVuSans-116"/>
      <use x="271.826172" xlink:href="#DejaVuSans-105"/>
      <use x="299.609375" xlink:href="#DejaVuSans-111"/>
      <use x="360.791016" xlink:href="#DejaVuSans-110"/>
      <use x="424.169922" xlink:href="#DejaVuSans-115"/>
      <use x="476.269531" xlink:href="#DejaVuSans-32"/>
      <use x="508.056641" xlink:href="#DejaVuSans-116"/>
      <use x="547.265625" xlink:href="#DejaVuSans-111"/>
      <use x="608.447266" xlink:href="#DejaVuSans-32"/>
      <use x="640.234375" xlink:href="#DejaVuSans-82"/>
      <use x="705.216797" xlink:href="#DejaVuSans-101"/>
      <use x="766.740234" xlink:href="#DejaVuSans-97"/>
      <use x="828.019531" xlink:href="#DejaVuSans-99"/>
      <use x="883" xlink:href="#DejaVuSans-104"/>
     </g>
    </g>
   </g>
   <g id="line2d_50">
    <path clip-path="url(#p7e508eb57e)" d="M 449.104344 212.017525 
L 466.680972 212.017525 
L 482.9612 212.017525 
L 499.778362 215.577626 
L 517.625437 215.577626 
L 535.702684 215.577626 
L 551.681958 215.577626 
L 569.064658 215.577626 
L 585.134323 215.577626 
L 602.624174 215.577626 
L 621.444851 215.577626 
L 637.258071 215.577626 
L 656.211039 219.137727 
L 672.99873 219.137727 
L 689.446318 215.577626 
" style="fill:none;stroke:#a9a9a9;stroke-linecap:square;stroke-width:1.5;"/>
    <g clip-path="url(#p7e508eb57e)">
     <use style="fill:#a9a9a9;stroke:#a9a9a9;stroke-linejoin:miter;" x="449.104344" xlink:href="#mc935689f3f" y="212.017525"/>
     <use style="fill:#a9a9a9;stroke:#a9a9a9;stroke-linejoin:miter;" x="466.680972" xlink:href="#mc935689f3f" y="212.017525"/>
     <use style="fill:#a9a9a9;stroke:#a9a9a9;stroke-linejoin:miter;" x="482.9612" xlink:href="#mc935689f3f" y="212.017525"/>
     <use style="fill:#a9a9a9;stroke:#a9a9a9;stroke-linejoin:miter;" x="499.778362" xlink:href="#mc935689f3f" y="215.577626"/>
     <use style="fill:#a9a9a9;stroke:#a9a9a9;stroke-linejoin:miter;" x="517.625437" xlink:href="#mc935689f3f" y="215.577626"/>
     <use style="fill:#a9a9a9;stroke:#a9a9a9;stroke-linejoin:miter;" x="535.702684" xlink:href="#mc935689f3f" y="215.577626"/>
     <use style="fill:#a9a9a9;stroke:#a9a9a9;stroke-linejoin:miter;" x="551.681958" xlink:href="#mc935689f3f" y="215.577626"/>
     <use style="fill:#a9a9a9;stroke:#a9a9a9;stroke-linejoin:miter;" x="569.064658" xlink:href="#mc935689f3f" y="215.577626"/>
     <use style="fill:#a9a9a9;stroke:#a9a9a9;stroke-linejoin:miter;" x="585.134323" xlink:href="#mc935689f3f" y="215.577626"/>
     <use style="fill:#a9a9a9;stroke:#a9a9a9;stroke-linejoin:miter;" x="602.624174" xlink:href="#mc935689f3f" y="215.577626"/>
     <use style="fill:#a9a9a9;stroke:#a9a9a9;stroke-linejoin:miter;" x="621.444851" xlink:href="#mc935689f3f" y="215.577626"/>
     <use style="fill:#a9a9a9;stroke:#a9a9a9;stroke-linejoin:miter;" x="637.258071" xlink:href="#mc935689f3f" y="215.577626"/>
     <use style="fill:#a9a9a9;stroke:#a9a9a9;stroke-linejoin:miter;" x="656.211039" xlink:href="#mc935689f3f" y="219.137727"/>
     <use style="fill:#a9a9a9;stroke:#a9a9a9;stroke-linejoin:miter;" x="672.99873" xlink:href="#mc935689f3f" y="219.137727"/>
     <use style="fill:#a9a9a9;stroke:#a9a9a9;stroke-linejoin:miter;" x="689.446318" xlink:href="#mc935689f3f" y="215.577626"/>
    </g>
   </g>
   <g id="line2d_51">
    <path clip-path="url(#p7e508eb57e)" d="M 449.104344 130.135202 
L 466.680972 147.935707 
L 482.9612 158.61601 
L 499.778362 183.536717 
L 517.625437 162.176111 
L 535.702684 183.536717 
L 551.681958 190.656919 
L 569.064658 190.656919 
L 585.134323 197.777121 
L 602.624174 194.21702 
L 621.444851 197.777121 
L 637.258071 197.777121 
L 656.211039 194.21702 
L 672.99873 194.21702 
L 689.446318 194.21702 
" style="fill:none;stroke:#696969;stroke-linecap:square;stroke-width:1.5;"/>
    <g clip-path="url(#p7e508eb57e)">
     <use style="fill:#696969;stroke:#696969;" x="449.104344" xlink:href="#m1cbb593af6" y="130.135202"/>
     <use style="fill:#696969;stroke:#696969;" x="466.680972" xlink:href="#m1cbb593af6" y="147.935707"/>
     <use style="fill:#696969;stroke:#696969;" x="482.9612" xlink:href="#m1cbb593af6" y="158.61601"/>
     <use style="fill:#696969;stroke:#696969;" x="499.778362" xlink:href="#m1cbb593af6" y="183.536717"/>
     <use style="fill:#696969;stroke:#696969;" x="517.625437" xlink:href="#m1cbb593af6" y="162.176111"/>
     <use style="fill:#696969;stroke:#696969;" x="535.702684" xlink:href="#m1cbb593af6" y="183.536717"/>
     <use style="fill:#696969;stroke:#696969;" x="551.681958" xlink:href="#m1cbb593af6" y="190.656919"/>
     <use style="fill:#696969;stroke:#696969;" x="569.064658" xlink:href="#m1cbb593af6" y="190.656919"/>
     <use style="fill:#696969;stroke:#696969;" x="585.134323" xlink:href="#m1cbb593af6" y="197.777121"/>
     <use style="fill:#696969;stroke:#696969;" x="602.624174" xlink:href="#m1cbb593af6" y="194.21702"/>
     <use style="fill:#696969;stroke:#696969;" x="621.444851" xlink:href="#m1cbb593af6" y="197.777121"/>
     <use style="fill:#696969;stroke:#696969;" x="637.258071" xlink:href="#m1cbb593af6" y="197.777121"/>
     <use style="fill:#696969;stroke:#696969;" x="656.211039" xlink:href="#m1cbb593af6" y="194.21702"/>
     <use style="fill:#696969;stroke:#696969;" x="672.99873" xlink:href="#m1cbb593af6" y="194.21702"/>
     <use style="fill:#696969;stroke:#696969;" x="689.446318" xlink:href="#m1cbb593af6" y="194.21702"/>
    </g>
   </g>
   <g id="line2d_52">
    <path clip-path="url(#p7e508eb57e)" d="M 449.104344 26.892273 
L 466.680972 58.933182 
L 482.9612 73.173586 
L 499.778362 119.454899 
L 517.625437 73.173586 
L 535.702684 115.894798 
L 551.681958 115.894798 
L 569.064658 126.575101 
L 585.134323 115.894798 
L 602.624174 119.454899 
L 621.444851 126.575101 
L 637.258071 123.015 
L 656.211039 126.575101 
L 672.99873 123.015 
L 689.446318 123.015 
" style="fill:none;stroke:#000000;stroke-linecap:square;stroke-width:1.5;"/>
    <g clip-path="url(#p7e508eb57e)">
     <use style="stroke:#000000;stroke-linejoin:miter;" x="449.104344" xlink:href="#m8c17a20d98" y="26.892273"/>
     <use style="stroke:#000000;stroke-linejoin:miter;" x="466.680972" xlink:href="#m8c17a20d98" y="58.933182"/>
     <use style="stroke:#000000;stroke-linejoin:miter;" x="482.9612" xlink:href="#m8c17a20d98" y="73.173586"/>
     <use style="stroke:#000000;stroke-linejoin:miter;" x="499.778362" xlink:href="#m8c17a20d98" y="119.454899"/>
     <use style="stroke:#000000;stroke-linejoin:miter;" x="517.625437" xlink:href="#m8c17a20d98" y="73.173586"/>
     <use style="stroke:#000000;stroke-linejoin:miter;" x="535.702684" xlink:href="#m8c17a20d98" y="115.894798"/>
     <use style="stroke:#000000;stroke-linejoin:miter;" x="551.681958" xlink:href="#m8c17a20d98" y="115.894798"/>
     <use style="stroke:#000000;stroke-linejoin:miter;" x="569.064658" xlink:href="#m8c17a20d98" y="126.575101"/>
     <use style="stroke:#000000;stroke-linejoin:miter;" x="585.134323" xlink:href="#m8c17a20d98" y="115.894798"/>
     <use style="stroke:#000000;stroke-linejoin:miter;" x="602.624174" xlink:href="#m8c17a20d98" y="119.454899"/>
     <use style="stroke:#000000;stroke-linejoin:miter;" x="621.444851" xlink:href="#m8c17a20d98" y="126.575101"/>
     <use style="stroke:#000000;stroke-linejoin:miter;" x="637.258071" xlink:href="#m8c17a20d98" y="123.015"/>
     <use style="stroke:#000000;stroke-linejoin:miter;" x="656.211039" xlink:href="#m8c17a20d98" y="126.575101"/>
     <use style="stroke:#000000;stroke-linejoin:miter;" x="672.99873" xlink:href="#m8c17a20d98" y="123.015"/>
     <use style="stroke:#000000;stroke-linejoin:miter;" x="689.446318" xlink:href="#m8c17a20d98" y="123.015"/>
    </g>
   </g>
   <g id="patch_9">
    <path d="M 437.087246 228.75 
L 437.087246 17.28 
" style="fill:none;stroke:#000000;stroke-linecap:square;stroke-linejoin:miter;stroke-width:0.8;"/>
   </g>
   <g id="patch_10">
    <path d="M 701.463417 228.75 
L 701.463417 17.28 
" style="fill:none;stroke:#000000;stroke-linecap:square;stroke-linejoin:miter;stroke-width:0.8;"/>
   </g>
   <g id="patch_11">
    <path d="M 437.087246 228.75 
L 701.463417 228.75 
" style="fill:none;stroke:#000000;stroke-linecap:square;stroke-linejoin:miter;stroke-width:0.8;"/>
   </g>
   <g id="patch_12">
    <path d="M 437.087246 17.28 
L 701.463417 17.28 
" style="fill:none;stroke:#000000;stroke-linecap:square;stroke-linejoin:miter;stroke-width:0.8;"/>
   </g>
   <g id="legend_2">
    <g id="patch_13">
     <path d="M 603.500917 100.535 
L 690.263417 100.535 
Q 693.463417 100.535 693.463417 97.335 
L 693.463417 28.48 
Q 693.463417 25.28 690.263417 25.28 
L 603.500917 25.28 
Q 600.300917 25.28 600.300917 28.48 
L 600.300917 97.335 
Q 600.300917 100.535 603.500917 100.535 
z
" style="fill:#ffffff;opacity:0.8;stroke:#cccccc;stroke-linejoin:miter;"/>
    </g>
    <g id="line2d_53">
     <path d="M 606.700917 38.2375 
L 638.700917 38.2375 
" style="fill:none;stroke:#a9a9a9;stroke-linecap:square;stroke-width:1.5;"/>
    </g>
    <g id="line2d_54">
     <g>
      <use style="fill:#a9a9a9;stroke:#a9a9a9;stroke-linejoin:miter;" x="622.700917" xlink:href="#mc935689f3f" y="38.2375"/>
     </g>
    </g>
    <g id="text_28">
     <!-- 50% -->
     <g transform="translate(651.500917 43.8375)scale(0.16 -0.16)">
      <use xlink:href="#DejaVuSans-53"/>
      <use x="63.623047" xlink:href="#DejaVuSans-48"/>
      <use x="127.246094" xlink:href="#DejaVuSans-37"/>
     </g>
    </g>
    <g id="line2d_55">
     <path d="M 606.700917 61.7225 
L 638.700917 61.7225 
" style="fill:none;stroke:#696969;stroke-linecap:square;stroke-width:1.5;"/>
    </g>
    <g id="line2d_56">
     <g>
      <use style="fill:#696969;stroke:#696969;" x="622.700917" xlink:href="#m1cbb593af6" y="61.7225"/>
     </g>
    </g>
    <g id="text_29">
     <!-- 90% -->
     <g transform="translate(651.500917 67.3225)scale(0.16 -0.16)">
      <use xlink:href="#DejaVuSans-57"/>
      <use x="63.623047" xlink:href="#DejaVuSans-48"/>
      <use x="127.246094" xlink:href="#DejaVuSans-37"/>
     </g>
    </g>
    <g id="line2d_57">
     <path d="M 606.700917 85.2075 
L 638.700917 85.2075 
" style="fill:none;stroke:#000000;stroke-linecap:square;stroke-width:1.5;"/>
    </g>
    <g id="line2d_58">
     <g>
      <use style="stroke:#000000;stroke-linejoin:miter;" x="622.700917" xlink:href="#m8c17a20d98" y="85.2075"/>
     </g>
    </g>
    <g id="text_30">
     <!-- 97% -->
     <g transform="translate(651.500917 90.8075)scale(0.16 -0.16)">
      <use xlink:href="#DejaVuSans-57"/>
      <use x="63.623047" xlink:href="#DejaVuSans-55"/>
      <use x="127.246094" xlink:href="#DejaVuSans-37"/>
     </g>
    </g>
   </g>
  </g>
 </g>
 <defs>
  <clipPath id="pa52bbfa9a2">
   <rect height="211.47" width="264.376171" x="84.485" y="17.28"/>
  </clipPath>
  <clipPath id="p7e508eb57e">
   <rect height="211.47" width="264.376171" x="437.087246" y="17.28"/>
  </clipPath>
 </defs>
</svg>
