<?xml version="1.0" encoding="utf-8" standalone="no"?>
<!DOCTYPE svg PUBLIC "-//W3C//DTD SVG 1.1//EN"
  "http://www.w3.org/Graphics/SVG/1.1/DTD/svg11.dtd">
<!-- Created with matplotlib (https://matplotlib.org/) -->
<svg height="487.44pt" version="1.1" viewBox="0 0 720 487.44" width="720pt" xmlns="http://www.w3.org/2000/svg" xmlns:xlink="http://www.w3.org/1999/xlink">
 <metadata>
  <rdf:RDF xmlns:cc="http://creativecommons.org/ns#" xmlns:dc="http://purl.org/dc/elements/1.1/" xmlns:rdf="http://www.w3.org/1999/02/22-rdf-syntax-ns#">
   <cc:Work>
    <dc:type rdf:resource="http://purl.org/dc/dcmitype/StillImage"/>
    <dc:date>2021-09-05T18:04:07.851150</dc:date>
    <dc:format>image/svg+xml</dc:format>
    <dc:creator>
     <cc:Agent>
      <dc:title>Matplotlib v3.3.1, https://matplotlib.org/</dc:title>
     </cc:Agent>
    </dc:creator>
   </cc:Work>
  </rdf:RDF>
 </metadata>
 <defs>
  <style type="text/css">*{stroke-linecap:butt;stroke-linejoin:round;}</style>
 </defs>
 <g id="figure_1">
  <g id="patch_1">
   <path d="M 0 487.44 
L 720 487.44 
L 720 0 
L 0 0 
z
" style="fill:#ffffff;"/>
  </g>
  <g id="axes_1">
   <g id="patch_2">
    <path d="M 121.111899 447.675 
L 598.888101 447.675 
L 598.888101 17.28 
L 121.111899 17.28 
z
" style="fill:#ffffff;"/>
   </g>
   <g id="patch_3">
    <path clip-path="url(#p66c2862970)" d="M 267.789123 300.390935 
C 273.866829 300.390935 279.696426 297.976236 283.994013 293.678649 
C 288.291601 289.381062 290.706299 283.551465 290.706299 277.473759 
C 290.706299 271.396052 288.291601 265.566455 283.994013 261.268868 
C 279.696426 256.971281 273.866829 254.556582 267.789123 254.556582 
C 261.711417 254.556582 255.881819 256.971281 251.584232 261.268868 
C 247.286645 265.566455 244.871947 271.396052 244.871947 277.473759 
C 244.871947 283.551465 247.286645 289.381062 251.584232 293.678649 
C 255.881819 297.976236 261.711417 300.390935 267.789123 300.390935 
z
" style="fill:#404040;"/>
   </g>
   <g id="patch_4">
    <path clip-path="url(#p66c2862970)" d="M 416.750768 357.683875 
C 422.828474 357.683875 428.658071 355.269177 432.955658 350.97159 
C 437.253246 346.674002 439.667944 340.844405 439.667944 334.766699 
C 439.667944 328.688993 437.253246 322.859396 432.955658 318.561808 
C 428.658071 314.264221 422.828474 311.849523 416.750768 311.849523 
C 410.673062 311.849523 404.843464 314.264221 400.545877 318.561808 
C 396.24829 322.859396 393.833592 328.688993 393.833592 334.766699 
C 393.833592 340.844405 396.24829 346.674002 400.545877 350.97159 
C 404.843464 355.269177 410.673062 357.683875 416.750768 357.683875 
z
" style="fill:#404040;"/>
   </g>
   <g id="patch_5">
    <path clip-path="url(#p66c2862970)" d="M 370.916415 185.805054 
C 376.994122 185.805054 382.823719 183.390356 387.121306 179.092769 
C 391.418893 174.795181 393.833592 168.965584 393.833592 162.887878 
C 393.833592 156.810172 391.418893 150.980574 387.121306 146.682987 
C 382.823719 142.3854 376.994122 139.970702 370.916415 139.970702 
C 364.838709 139.970702 359.009112 142.3854 354.711525 146.682987 
C 350.413938 150.980574 347.999239 156.810172 347.999239 162.887878 
C 347.999239 168.965584 350.413938 174.795181 354.711525 179.092769 
C 359.009112 183.390356 364.838709 185.805054 370.916415 185.805054 
z
" style="fill:#404040;"/>
   </g>
   <g id="patch_6">
    <path clip-path="url(#p66c2862970)" d="M 508.419472 145.699996 
C 514.497178 145.699996 520.326776 143.285298 524.624363 138.98771 
C 528.92195 134.690123 531.336648 128.860526 531.336648 122.78282 
C 531.336648 116.705113 528.92195 110.875516 524.624363 106.577929 
C 520.326776 102.280342 514.497178 99.865643 508.419472 99.865643 
C 502.341766 99.865643 496.512169 102.280342 492.214582 106.577929 
C 487.916994 110.875516 485.502296 116.705113 485.502296 122.78282 
C 485.502296 128.860526 487.916994 134.690123 492.214582 138.98771 
C 496.512169 143.285298 502.341766 145.699996 508.419472 145.699996 
z
" style="fill:#404040;"/>
   </g>
   <g id="patch_7">
    <path clip-path="url(#p66c2862970)" d="M 302.164887 94.136349 
C 308.242593 94.136349 314.07219 91.721651 318.369778 87.424064 
C 322.667365 83.126477 325.082063 77.296879 325.082063 71.219173 
C 325.082063 65.141467 322.667365 59.31187 318.369778 55.014283 
C 314.07219 50.716695 308.242593 48.301997 302.164887 48.301997 
C 296.087181 48.301997 290.257584 50.716695 285.959996 55.014283 
C 281.662409 59.31187 279.247711 65.141467 279.247711 71.219173 
C 279.247711 77.296879 281.662409 83.126477 285.959996 87.424064 
C 290.257584 91.721651 296.087181 94.136349 302.164887 94.136349 
z
" style="fill:#404040;"/>
   </g>
   <g id="patch_8">
    <path clip-path="url(#p66c2862970)" d="M 393.833592 82.677761 
C 399.911298 82.677761 405.740895 80.263063 410.038482 75.965476 
C 414.336069 71.667889 416.750768 65.838291 416.750768 59.760585 
C 416.750768 53.682879 414.336069 47.853282 410.038482 43.555695 
C 405.740895 39.258107 399.911298 36.843409 393.833592 36.843409 
C 387.755885 36.843409 381.926288 39.258107 377.628701 43.555695 
C 373.331114 47.853282 370.916415 53.682879 370.916415 59.760585 
C 370.916415 65.838291 373.331114 71.667889 377.628701 75.965476 
C 381.926288 80.263063 387.755885 82.677761 393.833592 82.677761 
z
" style="fill:#404040;"/>
   </g>
   <g id="patch_9">
    <path clip-path="url(#p66c2862970)" d="M 267.789123 231.639406 
C 273.866829 231.639406 279.696426 229.224708 283.994013 224.927121 
C 288.291601 220.629534 290.706299 214.799936 290.706299 208.72223 
C 290.706299 202.644524 288.291601 196.814927 283.994013 192.517339 
C 279.696426 188.219752 273.866829 185.805054 267.789123 185.805054 
C 261.711417 185.805054 255.881819 188.219752 251.584232 192.517339 
C 247.286645 196.814927 244.871947 202.644524 244.871947 208.72223 
C 244.871947 214.799936 247.286645 220.629534 251.584232 224.927121 
C 255.881819 229.224708 261.711417 231.639406 267.789123 231.639406 
z
" style="fill:#404040;"/>
   </g>
   <g id="patch_10">
    <path clip-path="url(#p66c2862970)" d="M 554.253825 231.639406 
C 560.331531 231.639406 566.161128 229.224708 570.458715 224.927121 
C 574.756302 220.629534 577.171001 214.799936 577.171001 208.72223 
C 577.171001 202.644524 574.756302 196.814927 570.458715 192.517339 
C 566.161128 188.219752 560.331531 185.805054 554.253825 185.805054 
C 548.176118 185.805054 542.346521 188.219752 538.048934 192.517339 
C 533.751347 196.814927 531.336648 202.644524 531.336648 208.72223 
C 531.336648 214.799936 533.751347 220.629534 538.048934 224.927121 
C 542.346521 229.224708 548.176118 231.639406 554.253825 231.639406 
z
" style="fill:#404040;"/>
   </g>
   <g id="patch_11">
    <path clip-path="url(#p66c2862970)" d="M 304.036624 231.590893 
C 305.55605 231.590893 307.01345 230.987218 308.087847 229.912821 
C 309.162243 228.838425 309.765918 227.381025 309.765918 225.861599 
C 309.765918 224.342172 309.162243 222.884773 308.087847 221.810376 
C 307.01345 220.735979 305.55605 220.132305 304.036624 220.132305 
C 302.517197 220.132305 301.059798 220.735979 299.985401 221.810376 
C 298.911004 222.884773 298.30733 224.342172 298.30733 225.861599 
C 298.30733 227.381025 298.911004 228.838425 299.985401 229.912821 
C 301.059798 230.987218 302.517197 231.590893 304.036624 231.590893 
z
" style="fill:none;opacity:0;"/>
   </g>
   <g id="patch_12">
    <path clip-path="url(#p66c2862970)" d="M 382.398971 213.898338 
C 384.678111 213.898338 386.86421 212.992826 388.475805 211.381231 
C 390.0874 209.769636 390.992912 207.583537 390.992912 205.304397 
C 390.992912 203.025257 390.0874 200.839158 388.475805 199.227563 
C 386.86421 197.615968 384.678111 196.710456 382.398971 196.710456 
C 380.119831 196.710456 377.933732 197.615968 376.322137 199.227563 
C 374.710542 200.839158 373.80503 203.025257 373.80503 205.304397 
C 373.80503 207.583537 374.710542 209.769636 376.322137 211.381231 
C 377.933732 212.992826 380.119831 213.898338 382.398971 213.898338 
z
" style="fill:none;opacity:0;"/>
   </g>
   <g id="patch_13">
    <path clip-path="url(#p66c2862970)" d="M 507.877145 160.74168 
C 510.156285 160.74168 512.342384 159.836168 513.953979 158.224573 
C 515.565574 156.612978 516.471086 154.426879 516.471086 152.147739 
C 516.471086 149.868599 515.565574 147.6825 513.953979 146.070905 
C 512.342384 144.45931 510.156285 143.553798 507.877145 143.553798 
C 505.598005 143.553798 503.411906 144.45931 501.800311 146.070905 
C 500.188716 147.6825 499.283204 149.868599 499.283204 152.147739 
C 499.283204 154.426879 500.188716 156.612978 501.800311 158.224573 
C 503.411906 159.836168 505.598005 160.74168 507.877145 160.74168 
z
" style="fill:none;opacity:0;"/>
   </g>
   <g id="patch_14">
    <path clip-path="url(#p66c2862970)" d="M 466.195304 134.464365 
C 468.474444 134.464365 470.660543 133.558854 472.272138 131.947258 
C 473.883733 130.335663 474.789245 128.149564 474.789245 125.870424 
C 474.789245 123.591285 473.883733 121.405186 472.272138 119.79359 
C 470.660543 118.181995 468.474444 117.276483 466.195304 117.276483 
C 463.916164 117.276483 461.730065 118.181995 460.11847 119.79359 
C 458.506875 121.405186 457.601363 123.591285 457.601363 125.870424 
C 457.601363 128.149564 458.506875 130.335663 460.11847 131.947258 
C 461.730065 133.558854 463.916164 134.464365 466.195304 134.464365 
z
" style="fill:none;opacity:0;"/>
   </g>
   <g id="patch_15">
    <path clip-path="url(#p66c2862970)" d="M 269.223973 242.945965 
C 270.7434 242.945965 272.200799 242.342291 273.275196 241.267894 
C 274.349593 240.193497 274.953267 238.736098 274.953267 237.216671 
C 274.953267 235.697245 274.349593 234.239845 273.275196 233.165449 
C 272.200799 232.091052 270.7434 231.487377 269.223973 231.487377 
C 267.704547 231.487377 266.247147 232.091052 265.172751 233.165449 
C 264.098354 234.239845 263.494679 235.697245 263.494679 237.216671 
C 263.494679 238.736098 264.098354 240.193497 265.172751 241.267894 
C 266.247147 242.342291 267.704547 242.945965 269.223973 242.945965 
z
" style="fill:#59d959;opacity:0.081633;"/>
   </g>
   <g id="patch_16">
    <path clip-path="url(#p66c2862970)" d="M 355.596618 218.371898 
C 357.875758 218.371898 360.061857 217.466387 361.673452 215.854791 
C 363.285048 214.243196 364.190559 212.057097 364.190559 209.777957 
C 364.190559 207.498818 363.285048 205.312719 361.673452 203.701123 
C 360.061857 202.089528 357.875758 201.184016 355.596618 201.184016 
C 353.317479 201.184016 351.13138 202.089528 349.519784 203.701123 
C 347.908189 205.312719 347.002677 207.498818 347.002677 209.777957 
C 347.002677 212.057097 347.908189 214.243196 349.519784 215.854791 
C 351.13138 217.466387 353.317479 218.371898 355.596618 218.371898 
z
" style="fill:#d95959;opacity:0.081633;"/>
   </g>
   <g id="patch_17">
    <path clip-path="url(#p66c2862970)" d="M 480.96668 183.81629 
C 483.245819 183.81629 485.431918 182.910778 487.043514 181.299183 
C 488.655109 179.687587 489.560621 177.501488 489.560621 175.222349 
C 489.560621 172.943209 488.655109 170.75711 487.043514 169.145515 
C 485.431918 167.533919 483.245819 166.628407 480.96668 166.628407 
C 478.68754 166.628407 476.501441 167.533919 474.889846 169.145515 
C 473.27825 170.75711 472.372739 172.943209 472.372739 175.222349 
C 472.372739 177.501488 473.27825 179.687587 474.889846 181.299183 
C 476.501441 182.910778 478.68754 183.81629 480.96668 183.81629 
z
" style="fill:#d95959;opacity:0.081633;"/>
   </g>
   <g id="patch_18">
    <path clip-path="url(#p66c2862970)" d="M 440.690128 159.969541 
C 442.969268 159.969541 445.155367 159.06403 446.766962 157.452434 
C 448.378557 155.840839 449.284069 153.65474 449.284069 151.3756 
C 449.284069 149.096461 448.378557 146.910362 446.766962 145.298766 
C 445.155367 143.687171 442.969268 142.781659 440.690128 142.781659 
C 438.410988 142.781659 436.224889 143.687171 434.613294 145.298766 
C 433.001699 146.910362 432.096187 149.096461 432.096187 151.3756 
C 432.096187 153.65474 433.001699 155.840839 434.613294 157.452434 
C 436.224889 159.06403 438.410988 159.969541 440.690128 159.969541 
z
" style="fill:#d95959;opacity:0.081633;"/>
   </g>
   <g id="patch_19">
    <path clip-path="url(#p66c2862970)" d="M 232.904412 265.654635 
C 234.423838 265.654635 235.881238 265.05096 236.955634 263.976564 
C 238.030031 262.902167 238.633706 261.444767 238.633706 259.925341 
C 238.633706 258.405914 238.030031 256.948515 236.955634 255.874118 
C 235.881238 254.799721 234.423838 254.196047 232.904412 254.196047 
C 231.384985 254.196047 229.927586 254.799721 228.853189 255.874118 
C 227.778792 256.948515 227.175118 258.405914 227.175118 259.925341 
C 227.175118 261.444767 227.778792 262.902167 228.853189 263.976564 
C 229.927586 265.05096 231.384985 265.654635 232.904412 265.654635 
z
" style="fill:#59d959;opacity:0.163265;"/>
   </g>
   <g id="patch_20">
    <path clip-path="url(#p66c2862970)" d="M 314.765411 238.287132 
C 317.044551 238.287132 319.23065 237.38162 320.842245 235.770025 
C 322.45384 234.15843 323.359352 231.972331 323.359352 229.693191 
C 323.359352 227.414051 322.45384 225.227952 320.842245 223.616357 
C 319.23065 222.004762 317.044551 221.09925 314.765411 221.09925 
C 312.486271 221.09925 310.300172 222.004762 308.688577 223.616357 
C 307.076982 225.227952 306.17147 227.414051 306.17147 229.693191 
C 306.17147 231.972331 307.076982 234.15843 308.688577 235.770025 
C 310.300172 237.38162 312.486271 238.287132 314.765411 238.287132 
z
" style="fill:#d95959;opacity:0.163265;"/>
   </g>
   <g id="patch_21">
    <path clip-path="url(#p66c2862970)" d="M 441.479877 207.084724 
C 443.759017 207.084724 445.945116 206.179213 447.556711 204.567617 
C 449.168306 202.956022 450.073818 200.769923 450.073818 198.490783 
C 450.073818 196.211644 449.168306 194.025545 447.556711 192.413949 
C 445.945116 190.802354 443.759017 189.896842 441.479877 189.896842 
C 439.200737 189.896842 437.014638 190.802354 435.403043 192.413949 
C 433.791448 194.025545 432.885936 196.211644 432.885936 198.490783 
C 432.885936 200.769923 433.791448 202.956022 435.403043 204.567617 
C 437.014638 206.179213 439.200737 207.084724 441.479877 207.084724 
z
" style="fill:#d95959;opacity:0.163265;"/>
   </g>
   <g id="patch_22">
    <path clip-path="url(#p66c2862970)" d="M 408.280347 192.379322 
C 410.559487 192.379322 412.745586 191.473811 414.357181 189.862215 
C 415.968776 188.25062 416.874288 186.064521 416.874288 183.785381 
C 416.874288 181.506242 415.968776 179.320143 414.357181 177.708547 
C 412.745586 176.096952 410.559487 175.19144 408.280347 175.19144 
C 406.001207 175.19144 403.815108 176.096952 402.203513 177.708547 
C 400.591918 179.320143 399.686406 181.506242 399.686406 183.785381 
C 399.686406 186.064521 400.591918 188.25062 402.203513 189.862215 
C 403.815108 191.473811 406.001207 192.379322 408.280347 192.379322 
z
" style="fill:#d95959;opacity:0.163265;"/>
   </g>
   <g id="patch_23">
    <path clip-path="url(#p66c2862970)" d="M 221.412682 291.937376 
C 222.932109 291.937376 224.389508 291.333701 225.463905 290.259304 
C 226.538302 289.184908 227.141977 287.727508 227.141977 286.208082 
C 227.141977 284.688655 226.538302 283.231256 225.463905 282.156859 
C 224.389508 281.082462 222.932109 280.478788 221.412682 280.478788 
C 219.893256 280.478788 218.435857 281.082462 217.36146 282.156859 
C 216.287063 283.231256 215.683388 284.688655 215.683388 286.208082 
C 215.683388 287.727508 216.287063 289.184908 217.36146 290.259304 
C 218.435857 291.333701 219.893256 291.937376 221.412682 291.937376 
z
" style="fill:#59d959;opacity:0.244898;"/>
   </g>
   <g id="patch_24">
    <path clip-path="url(#p66c2862970)" d="M 278.846755 266.666658 
C 281.125895 266.666658 283.311994 265.761146 284.923589 264.149551 
C 286.535184 262.537955 287.440696 260.351856 287.440696 258.072717 
C 287.440696 255.793577 286.535184 253.607478 284.923589 251.995883 
C 283.311994 250.384287 281.125895 249.478776 278.846755 249.478776 
C 276.567615 249.478776 274.381516 250.384287 272.769921 251.995883 
C 271.158326 253.607478 270.252814 255.793577 270.252814 258.072717 
C 270.252814 260.351856 271.158326 262.537955 272.769921 264.149551 
C 274.381516 265.761146 276.567615 266.666658 278.846755 266.666658 
z
" style="fill:#d95959;opacity:0.244898;"/>
   </g>
   <g id="patch_25">
    <path clip-path="url(#p66c2862970)" d="M 403.050473 232.030659 
C 405.329613 232.030659 407.515712 231.125148 409.127307 229.513552 
C 410.738902 227.901957 411.644414 225.715858 411.644414 223.436718 
C 411.644414 221.157579 410.738902 218.97148 409.127307 217.359884 
C 407.515712 215.748289 405.329613 214.842777 403.050473 214.842777 
C 400.771333 214.842777 398.585234 215.748289 396.973639 217.359884 
C 395.362044 218.97148 394.456532 221.157579 394.456532 223.436718 
C 394.456532 225.715858 395.362044 227.901957 396.973639 229.513552 
C 398.585234 231.125148 400.771333 232.030659 403.050473 232.030659 
z
" style="fill:#d95959;opacity:0.244898;"/>
   </g>
   <g id="patch_26">
    <path clip-path="url(#p66c2862970)" d="M 375.870566 224.789104 
C 378.149706 224.789104 380.335805 223.883592 381.9474 222.271997 
C 383.558995 220.660401 384.464507 218.474302 384.464507 216.195163 
C 384.464507 213.916023 383.558995 211.729924 381.9474 210.118329 
C 380.335805 208.506733 378.149706 207.601221 375.870566 207.601221 
C 373.591426 207.601221 371.405327 208.506733 369.793732 210.118329 
C 368.182137 211.729924 367.276625 213.916023 367.276625 216.195163 
C 367.276625 218.474302 368.182137 220.660401 369.793732 222.271997 
C 371.405327 223.883592 373.591426 224.789104 375.870566 224.789104 
z
" style="fill:#d95959;opacity:0.244898;"/>
   </g>
   <g id="patch_27">
    <path clip-path="url(#p66c2862970)" d="M 217.77662 330.827823 
C 219.296047 330.827823 220.753446 330.224148 221.827843 329.149752 
C 222.90224 328.075355 223.505914 326.617955 223.505914 325.098529 
C 223.505914 323.579102 222.90224 322.121703 221.827843 321.047306 
C 220.753446 319.972909 219.296047 319.369235 217.77662 319.369235 
C 216.257194 319.369235 214.799794 319.972909 213.725398 321.047306 
C 212.651001 322.121703 212.047326 323.579102 212.047326 325.098529 
C 212.047326 326.617955 212.651001 328.075355 213.725398 329.149752 
C 214.799794 330.224148 216.257194 330.827823 217.77662 330.827823 
z
" style="fill:#59d959;opacity:0.326531;"/>
   </g>
   <g id="patch_28">
    <path clip-path="url(#p66c2862970)" d="M 267.321682 252.995175 
C 269.600822 252.995175 271.786921 252.089663 273.398516 250.478068 
C 275.010112 248.866472 275.915623 246.680373 275.915623 244.401234 
C 275.915623 242.122094 275.010112 239.935995 273.398516 238.3244 
C 271.786921 236.712804 269.600822 235.807293 267.321682 235.807293 
C 265.042543 235.807293 262.856444 236.712804 261.244848 238.3244 
C 259.633253 239.935995 258.727741 242.122094 258.727741 244.401234 
C 258.727741 246.680373 259.633253 248.866472 261.244848 250.478068 
C 262.856444 252.089663 265.042543 252.995175 267.321682 252.995175 
z
" style="fill:#d95959;opacity:0.326531;"/>
   </g>
   <g id="patch_29">
    <path clip-path="url(#p66c2862970)" d="M 368.317222 261.890396 
C 370.596362 261.890396 372.782461 260.984884 374.394056 259.373289 
C 376.005651 257.761694 376.911163 255.575595 376.911163 253.296455 
C 376.911163 251.017315 376.005651 248.831216 374.394056 247.219621 
C 372.782461 245.608026 370.596362 244.702514 368.317222 244.702514 
C 366.038082 244.702514 363.851983 245.608026 362.240388 247.219621 
C 360.628793 248.831216 359.723281 251.017315 359.723281 253.296455 
C 359.723281 255.575595 360.628793 257.761694 362.240388 259.373289 
C 363.851983 260.984884 366.038082 261.890396 368.317222 261.890396 
z
" style="fill:#d95959;opacity:0.326531;"/>
   </g>
   <g id="patch_30">
    <path clip-path="url(#p66c2862970)" d="M 343.460783 257.198886 
C 345.739923 257.198886 347.926022 256.293375 349.537617 254.681779 
C 351.149212 253.070184 352.054724 250.884085 352.054724 248.604945 
C 352.054724 246.325806 351.149212 244.139707 349.537617 242.528111 
C 347.926022 240.916516 345.739923 240.011004 343.460783 240.011004 
C 341.181643 240.011004 338.995544 240.916516 337.383949 242.528111 
C 335.772354 244.139707 334.866842 246.325806 334.866842 248.604945 
C 334.866842 250.884085 335.772354 253.070184 337.383949 254.681779 
C 338.995544 256.293375 341.181643 257.198886 343.460783 257.198886 
z
" style="fill:#d95959;opacity:0.326531;"/>
   </g>
   <g id="patch_31">
    <path clip-path="url(#p66c2862970)" d="M 216.631241 379.152814 
C 218.150667 379.152814 219.608066 378.54914 220.682463 377.474743 
C 221.75686 376.400346 222.360535 374.942947 222.360535 373.42352 
C 222.360535 371.904094 221.75686 370.446694 220.682463 369.372297 
C 219.608066 368.297901 218.150667 367.694226 216.631241 367.694226 
C 215.111814 367.694226 213.654415 368.297901 212.580018 369.372297 
C 211.505621 370.446694 210.901947 371.904094 210.901947 373.42352 
C 210.901947 374.942947 211.505621 376.400346 212.580018 377.474743 
C 213.654415 378.54914 215.111814 379.152814 216.631241 379.152814 
z
" style="fill:#59d959;opacity:0.408163;"/>
   </g>
   <g id="patch_32">
    <path clip-path="url(#p66c2862970)" d="M 237.344102 274.57739 
C 239.623241 274.57739 241.80934 273.671878 243.420936 272.060283 
C 245.032531 270.448688 245.938043 268.262589 245.938043 265.983449 
C 245.938043 263.704309 245.032531 261.51821 243.420936 259.906615 
C 241.80934 258.29502 239.623241 257.389508 237.344102 257.389508 
C 235.064962 257.389508 232.878863 258.29502 231.267268 259.906615 
C 229.655672 261.51821 228.750161 263.704309 228.750161 265.983449 
C 228.750161 268.262589 229.655672 270.448688 231.267268 272.060283 
C 232.878863 273.671878 235.064962 274.57739 237.344102 274.57739 
z
" style="fill:#d95959;opacity:0.408163;"/>
   </g>
   <g id="patch_33">
    <path clip-path="url(#p66c2862970)" d="M 335.504314 293.89077 
C 337.783454 293.89077 339.969553 292.985259 341.581148 291.373663 
C 343.192743 289.762068 344.098255 287.575969 344.098255 285.296829 
C 344.098255 283.01769 343.192743 280.831591 341.581148 279.219995 
C 339.969553 277.6084 337.783454 276.702888 335.504314 276.702888 
C 333.225174 276.702888 331.039075 277.6084 329.42748 279.219995 
C 327.815885 280.831591 326.910373 283.01769 326.910373 285.296829 
C 326.910373 287.575969 327.815885 289.762068 329.42748 291.373663 
C 331.039075 292.985259 333.225174 293.89077 335.504314 293.89077 
z
" style="fill:#d95959;opacity:0.408163;"/>
   </g>
   <g id="patch_34">
    <path clip-path="url(#p66c2862970)" d="M 311.051004 289.608666 
C 313.330143 289.608666 315.516242 288.703154 317.127838 287.091559 
C 318.739433 285.479964 319.644945 283.293865 319.644945 281.014725 
C 319.644945 278.735585 318.739433 276.549486 317.127838 274.937891 
C 315.516242 273.326296 313.330143 272.420784 311.051004 272.420784 
C 308.771864 272.420784 306.585765 273.326296 304.97417 274.937891 
C 303.362574 276.549486 302.457063 278.735585 302.457063 281.014725 
C 302.457063 283.293865 303.362574 285.479964 304.97417 287.091559 
C 306.585765 288.703154 308.771864 289.608666 311.051004 289.608666 
z
" style="fill:#d95959;opacity:0.408163;"/>
   </g>
   <g id="patch_35">
    <path clip-path="url(#p66c2862970)" d="M 216.26975 396.332703 
C 217.789177 396.332703 219.246576 395.729028 220.320973 394.654631 
C 221.39537 393.580234 221.999044 392.122835 221.999044 390.603409 
C 221.999044 389.083982 221.39537 387.626583 220.320973 386.552186 
C 219.246576 385.477789 217.789177 384.874115 216.26975 384.874115 
C 214.750324 384.874115 213.292924 385.477789 212.218528 386.552186 
C 211.144131 387.626583 210.540456 389.083982 210.540456 390.603409 
C 210.540456 392.122835 211.144131 393.580234 212.218528 394.654631 
C 213.292924 395.729028 214.750324 396.332703 216.26975 396.332703 
z
" style="fill:#59d959;opacity:0.489796;"/>
   </g>
   <g id="patch_36">
    <path clip-path="url(#p66c2862970)" d="M 230.468464 317.29492 
C 232.747603 317.29492 234.933702 316.389409 236.545298 314.777813 
C 238.156893 313.166218 239.062405 310.980119 239.062405 308.700979 
C 239.062405 306.42184 238.156893 304.235741 236.545298 302.624145 
C 234.933702 301.01255 232.747603 300.107038 230.468464 300.107038 
C 228.189324 300.107038 226.003225 301.01255 224.39163 302.624145 
C 222.780034 304.235741 221.874522 306.42184 221.874522 308.700979 
C 221.874522 310.980119 222.780034 313.166218 224.39163 314.777813 
C 226.003225 316.389409 228.189324 317.29492 230.468464 317.29492 
z
" style="fill:#d95959;opacity:0.489796;"/>
   </g>
   <g id="patch_37">
    <path clip-path="url(#p66c2862970)" d="M 303.027008 326.232852 
C 305.306148 326.232852 307.492247 325.327341 309.103842 323.715745 
C 310.715437 322.10415 311.620949 319.918051 311.620949 317.638911 
C 311.620949 315.359771 310.715437 313.173673 309.103842 311.562077 
C 307.492247 309.950482 305.306148 309.04497 303.027008 309.04497 
C 300.747868 309.04497 298.561769 309.950482 296.950174 311.562077 
C 295.338579 313.173673 294.433067 315.359771 294.433067 317.638911 
C 294.433067 319.918051 295.338579 322.10415 296.950174 323.715745 
C 298.561769 325.327341 300.747868 326.232852 303.027008 326.232852 
z
" style="fill:#d95959;opacity:0.489796;"/>
   </g>
   <g id="patch_38">
    <path clip-path="url(#p66c2862970)" d="M 278.641217 322.018445 
C 280.920357 322.018445 283.106456 321.112933 284.718051 319.501338 
C 286.329647 317.889743 287.235158 315.703644 287.235158 313.424504 
C 287.235158 311.145364 286.329647 308.959265 284.718051 307.34767 
C 283.106456 305.736075 280.920357 304.830563 278.641217 304.830563 
C 276.362078 304.830563 274.175979 305.736075 272.564383 307.34767 
C 270.952788 308.959265 270.047276 311.145364 270.047276 313.424504 
C 270.047276 315.703644 270.952788 317.889743 272.564383 319.501338 
C 274.175979 321.112933 276.362078 322.018445 278.641217 322.018445 
z
" style="fill:#d95959;opacity:0.489796;"/>
   </g>
   <g id="patch_39">
    <path clip-path="url(#p66c2862970)" d="M 216.155378 401.768526 
C 217.674804 401.768526 219.132203 401.164852 220.2066 400.090455 
C 221.280997 399.016058 221.884672 397.558659 221.884672 396.039232 
C 221.884672 394.519806 221.280997 393.062406 220.2066 391.988009 
C 219.132203 390.913613 217.674804 390.309938 216.155378 390.309938 
C 214.635951 390.309938 213.178552 390.913613 212.104155 391.988009 
C 211.029758 393.062406 210.426084 394.519806 210.426084 396.039232 
C 210.426084 397.558659 211.029758 399.016058 212.104155 400.090455 
C 213.178552 401.164852 214.635951 401.768526 216.155378 401.768526 
z
" style="fill:#59d959;opacity:0.571429;"/>
   </g>
   <g id="patch_40">
    <path clip-path="url(#p66c2862970)" d="M 230.498542 363.123362 
C 232.777682 363.123362 234.963781 362.21785 236.575376 360.606255 
C 238.186971 358.99466 239.092483 356.808561 239.092483 354.529421 
C 239.092483 352.250281 238.186971 350.064182 236.575376 348.452587 
C 234.963781 346.840992 232.777682 345.93548 230.498542 345.93548 
C 228.219402 345.93548 226.033303 346.840992 224.421708 348.452587 
C 222.810113 350.064182 221.904601 352.250281 221.904601 354.529421 
C 221.904601 356.808561 222.810113 358.99466 224.421708 360.606255 
C 226.033303 362.21785 228.219402 363.123362 230.498542 363.123362 
z
" style="fill:#d95959;opacity:0.571429;"/>
   </g>
   <g id="patch_41">
    <path clip-path="url(#p66c2862970)" d="M 270.542613 358.567483 
C 272.821752 358.567483 275.007851 357.661971 276.619447 356.050376 
C 278.231042 354.438781 279.136554 352.252682 279.136554 349.973542 
C 279.136554 347.694402 278.231042 345.508303 276.619447 343.896708 
C 275.007851 342.285113 272.821752 341.379601 270.542613 341.379601 
C 268.263473 341.379601 266.077374 342.285113 264.465779 343.896708 
C 262.854183 345.508303 261.948672 347.694402 261.948672 349.973542 
C 261.948672 352.252682 262.854183 354.438781 264.465779 356.050376 
C 266.077374 357.661971 268.263473 358.567483 270.542613 358.567483 
z
" style="fill:#d95959;opacity:0.571429;"/>
   </g>
   <g id="patch_42">
    <path clip-path="url(#p66c2862970)" d="M 246.383559 354.577539 
C 248.662699 354.577539 250.848798 353.672027 252.460393 352.060432 
C 254.071988 350.448836 254.9775 348.262738 254.9775 345.983598 
C 254.9775 343.704458 254.071988 341.518359 252.460393 339.906764 
C 250.848798 338.295168 248.662699 337.389657 246.383559 337.389657 
C 244.104419 337.389657 241.91832 338.295168 240.306725 339.906764 
C 238.69513 341.518359 237.789618 343.704458 237.789618 345.983598 
C 237.789618 348.262738 238.69513 350.448836 240.306725 352.060432 
C 241.91832 353.672027 244.104419 354.577539 246.383559 354.577539 
z
" style="fill:#d95959;opacity:0.571429;"/>
   </g>
   <g id="patch_43">
    <path clip-path="url(#p66c2862970)" d="M 216.119193 403.48846 
C 217.63862 403.48846 219.096019 402.884786 220.170416 401.810389 
C 221.244813 400.735992 221.848487 399.278593 221.848487 397.759166 
C 221.848487 396.23974 221.244813 394.78234 220.170416 393.707943 
C 219.096019 392.633547 217.63862 392.029872 216.119193 392.029872 
C 214.599767 392.029872 213.142367 392.633547 212.06797 393.707943 
C 210.993574 394.78234 210.389899 396.23974 210.389899 397.759166 
C 210.389899 399.278593 210.993574 400.735992 212.06797 401.810389 
C 213.142367 402.884786 214.599767 403.48846 216.119193 403.48846 
z
" style="fill:#59d959;opacity:0.653061;"/>
   </g>
   <g id="patch_44">
    <path clip-path="url(#p66c2862970)" d="M 225.690805 399.011468 
C 227.969945 399.011468 230.156044 398.105957 231.767639 396.494361 
C 233.379235 394.882766 234.284746 392.696667 234.284746 390.417527 
C 234.284746 388.138388 233.379235 385.952289 231.767639 384.340693 
C 230.156044 382.729098 227.969945 381.823586 225.690805 381.823586 
C 223.411666 381.823586 221.225567 382.729098 219.613971 384.340693 
C 218.002376 385.952289 217.096864 388.138388 217.096864 390.417527 
C 217.096864 392.696667 218.002376 394.882766 219.613971 396.494361 
C 221.225567 398.105957 223.411666 399.011468 225.690805 399.011468 
z
" style="fill:#d95959;opacity:0.653061;"/>
   </g>
   <g id="patch_45">
    <path clip-path="url(#p66c2862970)" d="M 240.988947 385.687427 
C 243.268087 385.687427 245.454186 384.781915 247.065781 383.17032 
C 248.677376 381.558725 249.582888 379.372626 249.582888 377.093486 
C 249.582888 374.814346 248.677376 372.628247 247.065781 371.016652 
C 245.454186 369.405057 243.268087 368.499545 240.988947 368.499545 
C 238.709807 368.499545 236.523708 369.405057 234.912113 371.016652 
C 233.300518 372.628247 232.395006 374.814346 232.395006 377.093486 
C 232.395006 379.372626 233.300518 381.558725 234.912113 383.17032 
C 236.523708 384.781915 238.709807 385.687427 240.988947 385.687427 
z
" style="fill:#d95959;opacity:0.653061;"/>
   </g>
   <g id="patch_46">
    <path clip-path="url(#p66c2862970)" d="M 226.995321 380.805272 
C 229.27446 380.805272 231.460559 379.89976 233.072155 378.288165 
C 234.68375 376.67657 235.589262 374.490471 235.589262 372.211331 
C 235.589262 369.932191 234.68375 367.746092 233.072155 366.134497 
C 231.460559 364.522902 229.27446 363.61739 226.995321 363.61739 
C 224.716181 363.61739 222.530082 364.522902 220.918487 366.134497 
C 219.306891 367.746092 218.401379 369.932191 218.401379 372.211331 
C 218.401379 374.490471 219.306891 376.67657 220.918487 378.288165 
C 222.530082 379.89976 224.716181 380.805272 226.995321 380.805272 
z
" style="fill:#d95959;opacity:0.653061;"/>
   </g>
   <g id="patch_47">
    <path clip-path="url(#p66c2862970)" d="M 206.887858 408.524696 
C 208.407284 408.524696 209.864683 407.921022 210.93908 406.846625 
C 212.013477 405.772228 212.617152 404.314829 212.617152 402.795402 
C 212.617152 401.275976 212.013477 399.818577 210.93908 398.74418 
C 209.864683 397.669783 208.407284 397.066108 206.887858 397.066108 
C 205.368431 397.066108 203.911032 397.669783 202.836635 398.74418 
C 201.762238 399.818577 201.158564 401.275976 201.158564 402.795402 
C 201.158564 404.314829 201.762238 405.772228 202.836635 406.846625 
C 203.911032 407.921022 205.368431 408.524696 206.887858 408.524696 
z
" style="fill:#59d959;opacity:0.734694;"/>
   </g>
   <g id="patch_48">
    <path clip-path="url(#p66c2862970)" d="M 219.44809 416.543449 
C 221.727229 416.543449 223.913328 415.637937 225.524924 414.026342 
C 227.136519 412.414747 228.042031 410.228648 228.042031 407.949508 
C 228.042031 405.670368 227.136519 403.484269 225.524924 401.872674 
C 223.913328 400.261079 221.727229 399.355567 219.44809 399.355567 
C 217.16895 399.355567 214.982851 400.261079 213.371256 401.872674 
C 211.75966 403.484269 210.854149 405.670368 210.854149 407.949508 
C 210.854149 410.228648 211.75966 412.414747 213.371256 414.026342 
C 214.982851 415.637937 217.16895 416.543449 219.44809 416.543449 
z
" style="fill:#d95959;opacity:0.734694;"/>
   </g>
   <g id="patch_49">
    <path clip-path="url(#p66c2862970)" d="M 228.297623 399.466623 
C 230.576763 399.466623 232.762862 398.561111 234.374457 396.949516 
C 235.986052 395.337921 236.891564 393.151822 236.891564 390.872682 
C 236.891564 388.593542 235.986052 386.407443 234.374457 384.795848 
C 232.762862 383.184253 230.576763 382.278741 228.297623 382.278741 
C 226.018483 382.278741 223.832384 383.184253 222.220789 384.795848 
C 220.609194 386.407443 219.703682 388.593542 219.703682 390.872682 
C 219.703682 393.151822 220.609194 395.337921 222.220789 396.949516 
C 223.832384 398.561111 226.018483 399.466623 228.297623 399.466623 
z
" style="fill:#d95959;opacity:0.734694;"/>
   </g>
   <g id="patch_50">
    <path clip-path="url(#p66c2862970)" d="M 208.964214 400.867453 
C 211.243354 400.867453 213.429453 399.961941 215.041048 398.350346 
C 216.652643 396.738751 217.558155 394.552652 217.558155 392.273512 
C 217.558155 389.994372 216.652643 387.808273 215.041048 386.196678 
C 213.429453 384.585083 211.243354 383.679571 208.964214 383.679571 
C 206.685074 383.679571 204.498975 384.585083 202.88738 386.196678 
C 201.275785 387.808273 200.370273 389.994372 200.370273 392.273512 
C 200.370273 394.552652 201.275785 396.738751 202.88738 398.350346 
C 204.498975 399.961941 206.685074 400.867453 208.964214 400.867453 
z
" style="fill:#d95959;opacity:0.734694;"/>
   </g>
   <g id="patch_51">
    <path clip-path="url(#p66c2862970)" d="M 188.656418 417.202978 
C 190.175844 417.202978 191.633244 416.599303 192.707641 415.524907 
C 193.782037 414.45051 194.385712 412.99311 194.385712 411.473684 
C 194.385712 409.954257 193.782037 408.496858 192.707641 407.422461 
C 191.633244 406.348064 190.175844 405.74439 188.656418 405.74439 
C 187.136991 405.74439 185.679592 406.348064 184.605195 407.422461 
C 183.530798 408.496858 182.927124 409.954257 182.927124 411.473684 
C 182.927124 412.99311 183.530798 414.45051 184.605195 415.524907 
C 185.679592 416.599303 187.136991 417.202978 188.656418 417.202978 
z
" style="fill:#59d959;opacity:0.816327;"/>
   </g>
   <g id="patch_52">
    <path clip-path="url(#p66c2862970)" d="M 197.854752 426.526874 
C 200.133891 426.526874 202.31999 425.621362 203.931586 424.009767 
C 205.543181 422.398172 206.448693 420.212073 206.448693 417.932933 
C 206.448693 415.653793 205.543181 413.467694 203.931586 411.856099 
C 202.31999 410.244504 200.133891 409.338992 197.854752 409.338992 
C 195.575612 409.338992 193.389513 410.244504 191.777918 411.856099 
C 190.166322 413.467694 189.260811 415.653793 189.260811 417.932933 
C 189.260811 420.212073 190.166322 422.398172 191.777918 424.009767 
C 193.389513 425.621362 195.575612 426.526874 197.854752 426.526874 
z
" style="fill:#d95959;opacity:0.816327;"/>
   </g>
   <g id="patch_53">
    <path clip-path="url(#p66c2862970)" d="M 205.427444 411.66057 
C 207.706584 411.66057 209.892683 410.755059 211.504278 409.143463 
C 213.115873 407.531868 214.021385 405.345769 214.021385 403.066629 
C 214.021385 400.78749 213.115873 398.601391 211.504278 396.989795 
C 209.892683 395.3782 207.706584 394.472688 205.427444 394.472688 
C 203.148304 394.472688 200.962205 395.3782 199.35061 396.989795 
C 197.739015 398.601391 196.833503 400.78749 196.833503 403.066629 
C 196.833503 405.345769 197.739015 407.531868 199.35061 409.143463 
C 200.962205 410.755059 203.148304 411.66057 205.427444 411.66057 
z
" style="fill:#d95959;opacity:0.816327;"/>
   </g>
   <g id="patch_54">
    <path clip-path="url(#p66c2862970)" d="M 190.679406 405.083178 
C 192.958546 405.083178 195.144645 404.177667 196.75624 402.566071 
C 198.367835 400.954476 199.273347 398.768377 199.273347 396.489237 
C 199.273347 394.210097 198.367835 392.023999 196.75624 390.412403 
C 195.144645 388.800808 192.958546 387.895296 190.679406 387.895296 
C 188.400266 387.895296 186.214167 388.800808 184.602572 390.412403 
C 182.990977 392.023999 182.085465 394.210097 182.085465 396.489237 
C 182.085465 398.768377 182.990977 400.954476 184.602572 402.566071 
C 186.214167 404.177667 188.400266 405.083178 190.679406 405.083178 
z
" style="fill:#d95959;opacity:0.816327;"/>
   </g>
   <g id="patch_55">
    <path clip-path="url(#p66c2862970)" d="M 165.911786 414.613112 
C 167.431212 414.613112 168.888612 414.009438 169.963008 412.935041 
C 171.037405 411.860644 171.64108 410.403245 171.64108 408.883818 
C 171.64108 407.364392 171.037405 405.906992 169.963008 404.832596 
C 168.888612 403.758199 167.431212 403.154524 165.911786 403.154524 
C 164.392359 403.154524 162.93496 403.758199 161.860563 404.832596 
C 160.786166 405.906992 160.182492 407.364392 160.182492 408.883818 
C 160.182492 410.403245 160.786166 411.860644 161.860563 412.935041 
C 162.93496 414.009438 164.392359 414.613112 165.911786 414.613112 
z
" style="fill:#59d959;opacity:0.897959;"/>
   </g>
   <g id="patch_56">
    <path clip-path="url(#p66c2862970)" d="M 174.035729 428.111591 
C 176.314869 428.111591 178.500968 427.206079 180.112563 425.594484 
C 181.724158 423.982889 182.62967 421.79679 182.62967 419.51765 
C 182.62967 417.23851 181.724158 415.052411 180.112563 413.440816 
C 178.500968 411.829221 176.314869 410.923709 174.035729 410.923709 
C 171.756589 410.923709 169.57049 411.829221 167.958895 413.440816 
C 166.3473 415.052411 165.441788 417.23851 165.441788 419.51765 
C 165.441788 421.79679 166.3473 423.982889 167.958895 425.594484 
C 169.57049 427.206079 171.756589 428.111591 174.035729 428.111591 
z
" style="fill:#d95959;opacity:0.897959;"/>
   </g>
   <g id="patch_57">
    <path clip-path="url(#p66c2862970)" d="M 181.86562 413.052958 
C 184.14476 413.052958 186.330859 412.147447 187.942454 410.535851 
C 189.55405 408.924256 190.459561 406.738157 190.459561 404.459017 
C 190.459561 402.179878 189.55405 399.993779 187.942454 398.382183 
C 186.330859 396.770588 184.14476 395.865076 181.86562 395.865076 
C 179.586481 395.865076 177.400382 396.770588 175.788786 398.382183 
C 174.177191 399.993779 173.271679 402.179878 173.271679 404.459017 
C 173.271679 406.738157 174.177191 408.924256 175.788786 410.535851 
C 177.400382 412.147447 179.586481 413.052958 181.86562 413.052958 
z
" style="fill:#d95959;opacity:0.897959;"/>
   </g>
   <g id="patch_58">
    <path clip-path="url(#p66c2862970)" d="M 165.427713 400.067418 
C 167.706853 400.067418 169.892952 399.161906 171.504547 397.550311 
C 173.116142 395.938716 174.021654 393.752617 174.021654 391.473477 
C 174.021654 389.194337 173.116142 387.008238 171.504547 385.396643 
C 169.892952 383.785048 167.706853 382.879536 165.427713 382.879536 
C 163.148573 382.879536 160.962474 383.785048 159.350879 385.396643 
C 157.739284 387.008238 156.833772 389.194337 156.833772 391.473477 
C 156.833772 393.752617 157.739284 395.938716 159.350879 397.550311 
C 160.962474 399.161906 163.148573 400.067418 165.427713 400.067418 
z
" style="fill:#d95959;opacity:0.897959;"/>
   </g>
   <g id="patch_59">
    <path clip-path="url(#p66c2862970)" d="M 149.375706 403.706141 
C 150.895133 403.706141 152.352532 403.102467 153.426929 402.02807 
C 154.501326 400.953673 155.105 399.496274 155.105 397.976847 
C 155.105 396.457421 154.501326 395.000021 153.426929 393.925624 
C 152.352532 392.851228 150.895133 392.247553 149.375706 392.247553 
C 147.85628 392.247553 146.39888 392.851228 145.324484 393.925624 
C 144.250087 395.000021 143.646412 396.457421 143.646412 397.976847 
C 143.646412 399.496274 144.250087 400.953673 145.324484 402.02807 
C 146.39888 403.102467 147.85628 403.706141 149.375706 403.706141 
z
" style="fill:#59d959;opacity:0.979592;"/>
   </g>
   <g id="patch_60">
    <path clip-path="url(#p66c2862970)" d="M 155.083576 422.078073 
C 157.362716 422.078073 159.548815 421.172562 161.16041 419.560966 
C 162.772006 417.949371 163.677518 415.763272 163.677518 413.484132 
C 163.677518 411.204993 162.772006 409.018894 161.16041 407.407298 
C 159.548815 405.795703 157.362716 404.890191 155.083576 404.890191 
C 152.804437 404.890191 150.618338 405.795703 149.006742 407.407298 
C 147.395147 409.018894 146.489635 411.204993 146.489635 413.484132 
C 146.489635 415.763272 147.395147 417.949371 149.006742 419.560966 
C 150.618338 421.172562 152.804437 422.078073 155.083576 422.078073 
z
" style="fill:#d95959;opacity:0.979592;"/>
   </g>
   <g id="patch_61">
    <path clip-path="url(#p66c2862970)" d="M 165.898508 401.870253 
C 168.177648 401.870253 170.363747 400.964741 171.975342 399.353146 
C 173.586938 397.74155 174.49245 395.555451 174.49245 393.276312 
C 174.49245 390.997172 173.586938 388.811073 171.975342 387.199478 
C 170.363747 385.587882 168.177648 384.682371 165.898508 384.682371 
C 163.619369 384.682371 161.43327 385.587882 159.821674 387.199478 
C 158.210079 388.811073 157.304567 390.997172 157.304567 393.276312 
C 157.304567 395.555451 158.210079 397.74155 159.821674 399.353146 
C 161.43327 400.964741 163.619369 401.870253 165.898508 401.870253 
z
" style="fill:#d95959;opacity:0.979592;"/>
   </g>
   <g id="patch_62">
    <path clip-path="url(#p66c2862970)" d="M 151.42294 396.202583 
C 153.70208 396.202583 155.888179 395.297071 157.499774 393.685476 
C 159.11137 392.073881 160.016881 389.887782 160.016881 387.608642 
C 160.016881 385.329502 159.11137 383.143403 157.499774 381.531808 
C 155.888179 379.920213 153.70208 379.014701 151.42294 379.014701 
C 149.143801 379.014701 146.957702 379.920213 145.346106 381.531808 
C 143.734511 383.143403 142.828999 385.329502 142.828999 387.608642 
C 142.828999 389.887782 143.734511 392.073881 145.346106 393.685476 
C 146.957702 395.297071 149.143801 396.202583 151.42294 396.202583 
z
" style="fill:#d95959;opacity:0.979592;"/>
   </g>
   <g id="matplotlib.axis_1">
    <g id="xtick_1">
     <g id="line2d_1">
      <defs>
       <path d="M 0 0 
L 0 3.5 
" id="mcdd1924a69" style="stroke:#000000;stroke-width:0.8;"/>
      </defs>
      <g>
       <use style="stroke:#000000;stroke-width:0.8;" x="176.120418" xlink:href="#mcdd1924a69" y="447.675"/>
      </g>
     </g>
     <g id="text_1">
      <!-- −2.0 -->
      <g transform="translate(156.694168 466.8325)scale(0.16 -0.16)">
       <defs>
        <path d="M 10.59375 35.5 
L 73.1875 35.5 
L 73.1875 27.203125 
L 10.59375 27.203125 
z
" id="DejaVuSans-8722"/>
        <path d="M 19.1875 8.296875 
L 53.609375 8.296875 
L 53.609375 0 
L 7.328125 0 
L 7.328125 8.296875 
Q 12.9375 14.109375 22.625 23.890625 
Q 32.328125 33.6875 34.8125 36.53125 
Q 39.546875 41.84375 41.421875 45.53125 
Q 43.3125 49.21875 43.3125 52.78125 
Q 43.3125 58.59375 39.234375 62.25 
Q 35.15625 65.921875 28.609375 65.921875 
Q 23.96875 65.921875 18.8125 64.3125 
Q 13.671875 62.703125 7.8125 59.421875 
L 7.8125 69.390625 
Q 13.765625 71.78125 18.9375 73 
Q 24.125 74.21875 28.421875 74.21875 
Q 39.75 74.21875 46.484375 68.546875 
Q 53.21875 62.890625 53.21875 53.421875 
Q 53.21875 48.921875 51.53125 44.890625 
Q 49.859375 40.875 45.40625 35.40625 
Q 44.1875 33.984375 37.640625 27.21875 
Q 31.109375 20.453125 19.1875 8.296875 
z
" id="DejaVuSans-50"/>
        <path d="M 10.6875 12.40625 
L 21 12.40625 
L 21 0 
L 10.6875 0 
z
" id="DejaVuSans-46"/>
        <path d="M 31.78125 66.40625 
Q 24.171875 66.40625 20.328125 58.90625 
Q 16.5 51.421875 16.5 36.375 
Q 16.5 21.390625 20.328125 13.890625 
Q 24.171875 6.390625 31.78125 6.390625 
Q 39.453125 6.390625 43.28125 13.890625 
Q 47.125 21.390625 47.125 36.375 
Q 47.125 51.421875 43.28125 58.90625 
Q 39.453125 66.40625 31.78125 66.40625 
z
M 31.78125 74.21875 
Q 44.046875 74.21875 50.515625 64.515625 
Q 56.984375 54.828125 56.984375 36.375 
Q 56.984375 17.96875 50.515625 8.265625 
Q 44.046875 -1.421875 31.78125 -1.421875 
Q 19.53125 -1.421875 13.0625 8.265625 
Q 6.59375 17.96875 6.59375 36.375 
Q 6.59375 54.828125 13.0625 64.515625 
Q 19.53125 74.21875 31.78125 74.21875 
z
" id="DejaVuSans-48"/>
       </defs>
       <use xlink:href="#DejaVuSans-8722"/>
       <use x="83.789062" xlink:href="#DejaVuSans-50"/>
       <use x="147.412109" xlink:href="#DejaVuSans-46"/>
       <use x="179.199219" xlink:href="#DejaVuSans-48"/>
      </g>
     </g>
    </g>
    <g id="xtick_2">
     <g id="line2d_2">
      <g>
       <use style="stroke:#000000;stroke-width:0.8;" x="233.413359" xlink:href="#mcdd1924a69" y="447.675"/>
      </g>
     </g>
     <g id="text_2">
      <!-- −1.5 -->
      <g transform="translate(213.987109 466.8325)scale(0.16 -0.16)">
       <defs>
        <path d="M 12.40625 8.296875 
L 28.515625 8.296875 
L 28.515625 63.921875 
L 10.984375 60.40625 
L 10.984375 69.390625 
L 28.421875 72.90625 
L 38.28125 72.90625 
L 38.28125 8.296875 
L 54.390625 8.296875 
L 54.390625 0 
L 12.40625 0 
z
" id="DejaVuSans-49"/>
        <path d="M 10.796875 72.90625 
L 49.515625 72.90625 
L 49.515625 64.59375 
L 19.828125 64.59375 
L 19.828125 46.734375 
Q 21.96875 47.46875 24.109375 47.828125 
Q 26.265625 48.1875 28.421875 48.1875 
Q 40.625 48.1875 47.75 41.5 
Q 54.890625 34.8125 54.890625 23.390625 
Q 54.890625 11.625 47.5625 5.09375 
Q 40.234375 -1.421875 26.90625 -1.421875 
Q 22.3125 -1.421875 17.546875 -0.640625 
Q 12.796875 0.140625 7.71875 1.703125 
L 7.71875 11.625 
Q 12.109375 9.234375 16.796875 8.0625 
Q 21.484375 6.890625 26.703125 6.890625 
Q 35.15625 6.890625 40.078125 11.328125 
Q 45.015625 15.765625 45.015625 23.390625 
Q 45.015625 31 40.078125 35.4375 
Q 35.15625 39.890625 26.703125 39.890625 
Q 22.75 39.890625 18.8125 39.015625 
Q 14.890625 38.140625 10.796875 36.28125 
z
" id="DejaVuSans-53"/>
       </defs>
       <use xlink:href="#DejaVuSans-8722"/>
       <use x="83.789062" xlink:href="#DejaVuSans-49"/>
       <use x="147.412109" xlink:href="#DejaVuSans-46"/>
       <use x="179.199219" xlink:href="#DejaVuSans-53"/>
      </g>
     </g>
    </g>
    <g id="xtick_3">
     <g id="line2d_3">
      <g>
       <use style="stroke:#000000;stroke-width:0.8;" x="290.706299" xlink:href="#mcdd1924a69" y="447.675"/>
      </g>
     </g>
     <g id="text_3">
      <!-- −1.0 -->
      <g transform="translate(271.280049 466.8325)scale(0.16 -0.16)">
       <use xlink:href="#DejaVuSans-8722"/>
       <use x="83.789062" xlink:href="#DejaVuSans-49"/>
       <use x="147.412109" xlink:href="#DejaVuSans-46"/>
       <use x="179.199219" xlink:href="#DejaVuSans-48"/>
      </g>
     </g>
    </g>
    <g id="xtick_4">
     <g id="line2d_4">
      <g>
       <use style="stroke:#000000;stroke-width:0.8;" x="347.999239" xlink:href="#mcdd1924a69" y="447.675"/>
      </g>
     </g>
     <g id="text_4">
      <!-- −0.5 -->
      <g transform="translate(328.572989 466.8325)scale(0.16 -0.16)">
       <use xlink:href="#DejaVuSans-8722"/>
       <use x="83.789062" xlink:href="#DejaVuSans-48"/>
       <use x="147.412109" xlink:href="#DejaVuSans-46"/>
       <use x="179.199219" xlink:href="#DejaVuSans-53"/>
      </g>
     </g>
    </g>
    <g id="xtick_5">
     <g id="line2d_5">
      <g>
       <use style="stroke:#000000;stroke-width:0.8;" x="405.29218" xlink:href="#mcdd1924a69" y="447.675"/>
      </g>
     </g>
     <g id="text_5">
      <!-- 0.0 -->
      <g transform="translate(392.56968 466.8325)scale(0.16 -0.16)">
       <use xlink:href="#DejaVuSans-48"/>
       <use x="63.623047" xlink:href="#DejaVuSans-46"/>
       <use x="95.410156" xlink:href="#DejaVuSans-48"/>
      </g>
     </g>
    </g>
    <g id="xtick_6">
     <g id="line2d_6">
      <g>
       <use style="stroke:#000000;stroke-width:0.8;" x="462.58512" xlink:href="#mcdd1924a69" y="447.675"/>
      </g>
     </g>
     <g id="text_6">
      <!-- 0.5 -->
      <g transform="translate(449.86262 466.8325)scale(0.16 -0.16)">
       <use xlink:href="#DejaVuSans-48"/>
       <use x="63.623047" xlink:href="#DejaVuSans-46"/>
       <use x="95.410156" xlink:href="#DejaVuSans-53"/>
      </g>
     </g>
    </g>
    <g id="xtick_7">
     <g id="line2d_7">
      <g>
       <use style="stroke:#000000;stroke-width:0.8;" x="519.87806" xlink:href="#mcdd1924a69" y="447.675"/>
      </g>
     </g>
     <g id="text_7">
      <!-- 1.0 -->
      <g transform="translate(507.15556 466.8325)scale(0.16 -0.16)">
       <use xlink:href="#DejaVuSans-49"/>
       <use x="63.623047" xlink:href="#DejaVuSans-46"/>
       <use x="95.410156" xlink:href="#DejaVuSans-48"/>
      </g>
     </g>
    </g>
    <g id="xtick_8">
     <g id="line2d_8">
      <g>
       <use style="stroke:#000000;stroke-width:0.8;" x="577.171001" xlink:href="#mcdd1924a69" y="447.675"/>
      </g>
     </g>
     <g id="text_8">
      <!-- 1.5 -->
      <g transform="translate(564.448501 466.8325)scale(0.16 -0.16)">
       <use xlink:href="#DejaVuSans-49"/>
       <use x="63.623047" xlink:href="#DejaVuSans-46"/>
       <use x="95.410156" xlink:href="#DejaVuSans-53"/>
      </g>
     </g>
    </g>
   </g>
   <g id="matplotlib.axis_2">
    <g id="ytick_1">
     <g id="line2d_9">
      <defs>
       <path d="M 0 0 
L -3.5 0 
" id="m547285a02c" style="stroke:#000000;stroke-width:0.8;"/>
      </defs>
      <g>
       <use style="stroke:#000000;stroke-width:0.8;" x="121.111899" xlink:href="#m547285a02c" y="437.893992"/>
      </g>
     </g>
     <g id="text_9">
      <!-- −2.0 -->
      <g transform="translate(75.259399 443.972742)scale(0.16 -0.16)">
       <use xlink:href="#DejaVuSans-8722"/>
       <use x="83.789062" xlink:href="#DejaVuSans-50"/>
       <use x="147.412109" xlink:href="#DejaVuSans-46"/>
       <use x="179.199219" xlink:href="#DejaVuSans-48"/>
      </g>
     </g>
    </g>
    <g id="ytick_2">
     <g id="line2d_10">
      <g>
       <use style="stroke:#000000;stroke-width:0.8;" x="121.111899" xlink:href="#m547285a02c" y="380.601051"/>
      </g>
     </g>
     <g id="text_10">
      <!-- −1.5 -->
      <g transform="translate(75.259399 386.679801)scale(0.16 -0.16)">
       <use xlink:href="#DejaVuSans-8722"/>
       <use x="83.789062" xlink:href="#DejaVuSans-49"/>
       <use x="147.412109" xlink:href="#DejaVuSans-46"/>
       <use x="179.199219" xlink:href="#DejaVuSans-53"/>
      </g>
     </g>
    </g>
    <g id="ytick_3">
     <g id="line2d_11">
      <g>
       <use style="stroke:#000000;stroke-width:0.8;" x="121.111899" xlink:href="#m547285a02c" y="323.308111"/>
      </g>
     </g>
     <g id="text_11">
      <!-- −1.0 -->
      <g transform="translate(75.259399 329.386861)scale(0.16 -0.16)">
       <use xlink:href="#DejaVuSans-8722"/>
       <use x="83.789062" xlink:href="#DejaVuSans-49"/>
       <use x="147.412109" xlink:href="#DejaVuSans-46"/>
       <use x="179.199219" xlink:href="#DejaVuSans-48"/>
      </g>
     </g>
    </g>
    <g id="ytick_4">
     <g id="line2d_12">
      <g>
       <use style="stroke:#000000;stroke-width:0.8;" x="121.111899" xlink:href="#m547285a02c" y="266.01517"/>
      </g>
     </g>
     <g id="text_12">
      <!-- −0.5 -->
      <g transform="translate(75.259399 272.09392)scale(0.16 -0.16)">
       <use xlink:href="#DejaVuSans-8722"/>
       <use x="83.789062" xlink:href="#DejaVuSans-48"/>
       <use x="147.412109" xlink:href="#DejaVuSans-46"/>
       <use x="179.199219" xlink:href="#DejaVuSans-53"/>
      </g>
     </g>
    </g>
    <g id="ytick_5">
     <g id="line2d_13">
      <g>
       <use style="stroke:#000000;stroke-width:0.8;" x="121.111899" xlink:href="#m547285a02c" y="208.72223"/>
      </g>
     </g>
     <g id="text_13">
      <!-- 0.0 -->
      <g transform="translate(88.666899 214.80098)scale(0.16 -0.16)">
       <use xlink:href="#DejaVuSans-48"/>
       <use x="63.623047" xlink:href="#DejaVuSans-46"/>
       <use x="95.410156" xlink:href="#DejaVuSans-48"/>
      </g>
     </g>
    </g>
    <g id="ytick_6">
     <g id="line2d_14">
      <g>
       <use style="stroke:#000000;stroke-width:0.8;" x="121.111899" xlink:href="#m547285a02c" y="151.42929"/>
      </g>
     </g>
     <g id="text_14">
      <!-- 0.5 -->
      <g transform="translate(88.666899 157.50804)scale(0.16 -0.16)">
       <use xlink:href="#DejaVuSans-48"/>
       <use x="63.623047" xlink:href="#DejaVuSans-46"/>
       <use x="95.410156" xlink:href="#DejaVuSans-53"/>
      </g>
     </g>
    </g>
    <g id="ytick_7">
     <g id="line2d_15">
      <g>
       <use style="stroke:#000000;stroke-width:0.8;" x="121.111899" xlink:href="#m547285a02c" y="94.136349"/>
      </g>
     </g>
     <g id="text_15">
      <!-- 1.0 -->
      <g transform="translate(88.666899 100.215099)scale(0.16 -0.16)">
       <use xlink:href="#DejaVuSans-49"/>
       <use x="63.623047" xlink:href="#DejaVuSans-46"/>
       <use x="95.410156" xlink:href="#DejaVuSans-48"/>
      </g>
     </g>
    </g>
    <g id="ytick_8">
     <g id="line2d_16">
      <g>
       <use style="stroke:#000000;stroke-width:0.8;" x="121.111899" xlink:href="#m547285a02c" y="36.843409"/>
      </g>
     </g>
     <g id="text_16">
      <!-- 1.5 -->
      <g transform="translate(88.666899 42.922159)scale(0.16 -0.16)">
       <use xlink:href="#DejaVuSans-49"/>
       <use x="63.623047" xlink:href="#DejaVuSans-46"/>
       <use x="95.410156" xlink:href="#DejaVuSans-53"/>
      </g>
     </g>
    </g>
   </g>
   <g id="line2d_17">
    <path clip-path="url(#p66c2862970)" d="M 304.036624 225.861599 
L 302.422788 226.22837 
L 280.919064 232.047053 
L 277.880222 233.27277 
L 272.624609 235.68544 
L 267.464937 237.959317 
L 253.431223 243.875631 
L 250.085195 245.68611 
L 246.751002 247.752054 
L 243.136875 250.263868 
L 240.069154 252.658204 
L 237.445106 254.985007 
L 235.122009 257.342979 
L 232.978132 259.83352 
L 230.965175 262.513261 
L 229.157863 265.288932 
L 227.515258 268.219869 
L 226.008916 271.37036 
L 224.639469 274.756253 
L 223.406131 278.401837 
L 222.290944 282.39698 
L 221.271053 286.893127 
L 220.367316 291.894805 
L 219.596053 297.432193 
L 218.970924 303.560913 
L 218.41799 311.3044 
L 217.900694 321.893405 
L 217.416583 336.57175 
L 216.913904 360.083844 
L 216.226586 397.50452 
L 216.294896 397.539896 
L 216.253779 397.617031 
L 215.713624 398.119708 
L 212.348446 400.868543 
L 210.809617 401.5501 
L 209.537846 401.888787 
L 207.649758 402.295216 
L 206.946111 402.74631 
L 206.132303 403.566241 
L 203.029391 406.950818 
L 202.091401 407.519199 
L 201.077759 407.874047 
L 199.980654 408.022379 
L 198.710062 407.968042 
L 195.207198 407.654611 
L 194.277724 407.875974 
L 193.449441 408.305816 
L 192.432782 409.119782 
L 190.223361 410.963759 
L 189.371885 411.360466 
L 188.615112 411.473612 
L 187.817253 411.349186 
L 186.773713 410.938216 
L 182.615997 409.035252 
L 181.791371 409.034481 
L 180.899507 409.274267 
L 179.724214 409.847384 
L 177.91672 410.740163 
L 177.244998 410.830513 
L 176.717752 410.696375 
L 176.138675 410.306311 
L 175.325372 409.446474 
L 173.461639 407.386732 
L 172.743366 406.950931 
L 172.101063 406.802657 
L 171.360631 406.866134 
L 170.361688 407.190431 
L 168.359813 408.143742 
L 166.843157 408.738542 
L 165.915204 408.883748 
L 165.076403 408.784304 
L 164.224534 408.454356 
L 163.273964 407.840381 
L 162.121118 406.811857 
L 158.148861 402.99466 
L 156.711615 402.080211 
L 155.25517 401.193147 
L 155.25517 401.193147 
" style="fill:none;stroke:#59d959;stroke-linecap:square;stroke-opacity:0.5;stroke-width:1.5;"/>
   </g>
   <g id="line2d_18">
    <path clip-path="url(#p66c2862970)" d="M 382.398971 205.304397 
L 369.895989 206.938182 
L 360.38221 208.607879 
L 356.590971 209.499139 
L 353.289321 210.503318 
L 349.176684 212.003004 
L 343.334039 214.395184 
L 336.873898 217.257943 
L 331.471184 219.894252 
L 326.165577 222.736882 
L 320.882962 225.820849 
L 315.310211 229.336056 
L 309.465199 233.288447 
L 303.559213 237.55439 
L 295.013629 244.054282 
L 289.402693 248.503242 
L 285.611817 251.798667 
L 279.136518 257.807629 
L 277.205941 259.436596 
L 276.615961 259.68566 
L 276.31882 259.590064 
L 276.102632 259.259083 
L 275.874073 258.410289 
L 275.547824 256.111653 
L 274.930311 252.00545 
L 274.334414 249.591372 
L 273.671698 247.808753 
L 272.9741 246.54715 
L 272.271558 245.70648 
L 271.463939 245.089823 
L 270.557072 244.675042 
L 269.461863 244.424694 
L 268.107428 244.357558 
L 266.407186 244.507112 
L 264.451685 244.902624 
L 262.314583 245.568539 
L 260.089795 246.501927 
L 257.741856 247.737604 
L 254.790832 249.554864 
L 249.774461 252.952825 
L 246.264866 255.535833 
L 243.89188 257.547521 
L 242.023426 259.413172 
L 240.283569 261.470452 
L 238.732497 263.650257 
L 237.327221 266.014639 
L 236.079039 268.562324 
L 234.958429 271.373124 
L 233.973305 274.455393 
L 233.086855 277.986569 
L 232.31717 281.99628 
L 231.63063 286.796166 
L 231.061072 292.331098 
L 230.686521 298.152369 
L 230.503345 304.646279 
L 230.473353 314.571357 
L 230.649539 324.900581 
L 230.848001 337.157368 
L 230.717885 343.621481 
L 230.453552 353.357227 
L 230.638937 356.400927 
L 230.89986 360.453076 
L 230.780547 362.344859 
L 230.444643 364.083395 
L 229.851728 365.928941 
L 228.719159 368.662972 
L 226.728107 373.434106 
L 226.322926 374.990053 
L 226.204026 376.35549 
L 226.3141 377.826512 
L 226.736873 381.66694 
L 226.581946 383.272585 
L 226.032512 386.190313 
L 225.603377 388.89216 
L 225.62591 390.114469 
L 225.848925 390.816569 
L 226.237084 391.325501 
L 226.861014 391.763962 
L 228.528586 392.772229 
L 228.555088 393.127687 
L 228.338975 393.695818 
L 227.68155 394.688373 
L 225.983942 396.74566 
L 224.648619 398.499604 
L 224.221545 399.431994 
L 222.992375 402.981687 
L 221.816957 404.940178 
L 220.412039 406.865925 
L 219.18717 408.202684 
L 218.119403 409.048544 
L 217.05252 409.616761 
L 215.720929 410.058666 
L 213.489493 410.779107 
L 212.12844 411.487327 
L 210.576461 412.559024 
L 205.229541 416.511503 
L 203.842646 417.173003 
L 202.625063 417.510134 
L 201.145184 417.674586 
L 197.860758 417.931079 
L 197.014104 418.305178 
L 195.849112 419.099233 
L 194.051051 420.311076 
L 192.926275 420.78838 
L 191.605843 421.085253 
L 189.73283 421.260565 
L 178.868575 421.679369 
L 177.893579 421.381888 
L 176.667506 420.751422 
L 174.687137 419.722216 
L 173.575453 419.422958 
L 172.057308 419.283986 
L 168.189496 419.016261 
L 166.851804 418.653723 
L 165.511056 418.055308 
L 164.030792 417.145587 
L 162.317198 415.814143 
L 160.036972 413.726604 
L 157.763748 411.710794 
L 157.322238 411.427118 
L 157.322238 411.427118 
" style="fill:none;stroke:#d95959;stroke-linecap:square;stroke-opacity:0.5;stroke-width:1.5;"/>
   </g>
   <g id="line2d_19">
    <path clip-path="url(#p66c2862970)" d="M 507.877145 152.147739 
L 507.171822 153.58903 
L 506.108493 155.243258 
L 504.60052 157.163762 
L 502.584643 159.356886 
L 500.008981 161.819437 
L 496.83687 164.535766 
L 493.368144 167.217926 
L 489.635866 169.820942 
L 484.907396 172.818749 
L 468.296045 182.897391 
L 451.857848 192.431335 
L 435.722735 201.92111 
L 425.961806 207.927023 
L 417.375968 213.46904 
L 409.633364 218.72767 
L 402.56924 223.790842 
L 396.33286 228.528752 
L 390.917291 232.91922 
L 384.76107 238.21181 
L 377.090354 245.107504 
L 368.08568 253.51593 
L 356.381088 264.767794 
L 339.887247 280.958141 
L 311.78013 308.902595 
L 268.634464 351.787753 
L 264.317375 355.695827 
L 260.692757 358.682844 
L 255.421215 362.678625 
L 250.262382 366.680313 
L 247.214675 369.321702 
L 245.193276 371.34731 
L 243.712368 373.141653 
L 242.017925 375.580579 
L 239.76118 378.766937 
L 236.45633 383.322832 
L 235.143636 385.367812 
L 234.189285 386.256284 
L 232.031053 387.89486 
L 229.907534 389.589495 
L 228.515064 390.736399 
L 226.761493 391.736035 
L 224.566347 393.091256 
L 222.877441 394.390809 
L 220.903211 396.230682 
L 216.88174 400.039996 
L 215.669656 400.849415 
L 214.549653 401.332971 
L 213.342398 401.601011 
L 211.5254 401.73816 
L 208.890895 401.981875 
L 207.228579 402.358479 
L 205.719901 402.926881 
L 204.231929 403.731732 
L 199.706996 406.348064 
L 198.564192 406.674041 
L 197.548934 406.734729 
L 196.360345 406.577644 
L 194.350186 406.043322 
L 192.11886 405.525114 
L 190.573487 405.393036 
L 188.672341 405.477225 
L 185.715603 405.866109 
L 183.044625 406.160201 
L 182.362038 406.038901 
L 182.050792 405.782289 
L 181.935737 405.38834 
L 181.784985 404.44099 
L 181.345823 404.521016 
L 178.266706 405.339769 
L 177.090906 405.34336 
L 175.810446 405.121032 
L 174.274511 404.618007 
L 172.48994 403.791621 
L 170.269689 402.504631 
L 167.19804 400.438675 
L 165.38056 399.163793 
L 165.38056 399.163793 
" style="fill:none;stroke:#d95959;stroke-linecap:square;stroke-opacity:0.5;stroke-width:1.5;"/>
   </g>
   <g id="line2d_20">
    <path clip-path="url(#p66c2862970)" d="M 466.195304 125.870424 
L 248.054183 344.166629 
L 244.379878 348.256586 
L 241.965168 351.254844 
L 240.500655 353.403104 
L 239.67056 354.990813 
L 239.286924 356.193088 
L 239.143556 357.410696 
L 238.927578 360.708158 
L 238.521362 361.754864 
L 237.756686 363.053118 
L 236.501583 364.71325 
L 234.759786 366.633862 
L 232.754748 368.51231 
L 231.019446 369.851052 
L 229.374814 370.836751 
L 226.975233 372.227927 
L 226.147096 373.057435 
L 224.548602 375.074116 
L 222.941601 376.92205 
L 218.350138 381.796326 
L 217.857684 382.776767 
L 217.623653 383.74568 
L 217.517853 385.318734 
L 217.340364 386.67579 
L 216.994461 387.552576 
L 216.47158 388.283611 
L 215.64049 389.049127 
L 214.317108 389.951494 
L 212.449679 390.94572 
L 210.22624 391.876225 
L 208.543201 392.363417 
L 207.84248 392.370948 
L 207.494457 392.158892 
L 207.246393 392.114495 
L 206.726976 392.330982 
L 205.094452 393.322323 
L 199.221195 396.968985 
L 197.739956 397.584196 
L 196.610864 397.826383 
L 195.670352 397.809646 
L 194.68563 397.556861 
L 191.311059 396.470084 
L 190.388136 396.534454 
L 189.295143 396.854201 
L 184.644986 398.479914 
L 183.677307 398.457773 
L 182.672316 398.200804 
L 181.360929 397.616887 
L 178.504229 396.267038 
L 177.573022 396.105144 
L 176.700172 396.186536 
L 175.579777 396.533271 
L 172.924358 397.448818 
L 172.086069 397.455704 
L 171.351948 397.230618 
L 170.572784 396.727466 
L 169.596039 395.80717 
L 167.640306 393.562601 
L 166.154667 392.039264 
L 165.089172 391.260764 
L 164.038137 390.77923 
L 162.848817 390.485927 
L 161.434283 390.37845 
L 159.399344 390.480092 
L 157.353793 390.532587 
L 156.087876 390.345777 
L 155.108383 389.979858 
L 154.265816 389.419594 
L 153.285076 388.464437 
L 152.593905 387.732945 
L 152.593905 387.732945 
" style="fill:none;stroke:#d95959;stroke-linecap:square;stroke-opacity:0.5;stroke-width:1.5;"/>
   </g>
   <g id="patch_63">
    <path d="M 121.111899 447.675 
L 121.111899 17.28 
" style="fill:none;stroke:#000000;stroke-linecap:square;stroke-linejoin:miter;stroke-width:0.8;"/>
   </g>
   <g id="patch_64">
    <path d="M 598.888101 447.675 
L 598.888101 17.28 
" style="fill:none;stroke:#000000;stroke-linecap:square;stroke-linejoin:miter;stroke-width:0.8;"/>
   </g>
   <g id="patch_65">
    <path d="M 121.111899 447.675 
L 598.888101 447.675 
" style="fill:none;stroke:#000000;stroke-linecap:square;stroke-linejoin:miter;stroke-width:0.8;"/>
   </g>
   <g id="patch_66">
    <path d="M 121.111899 17.28 
L 598.888101 17.28 
" style="fill:none;stroke:#000000;stroke-linecap:square;stroke-linejoin:miter;stroke-width:0.8;"/>
   </g>
  </g>
 </g>
 <defs>
  <clipPath id="p66c2862970">
   <rect height="430.395" width="477.776201" x="121.111899" y="17.28"/>
  </clipPath>
 </defs>
</svg>
