<?xml version="1.0" encoding="utf-8" standalone="no"?>
<!DOCTYPE svg PUBLIC "-//W3C//DTD SVG 1.1//EN"
  "http://www.w3.org/Graphics/SVG/1.1/DTD/svg11.dtd">
<!-- Created with matplotlib (https://matplotlib.org/) -->
<svg height="487.44pt" version="1.1" viewBox="0 0 720 487.44" width="720pt" xmlns="http://www.w3.org/2000/svg" xmlns:xlink="http://www.w3.org/1999/xlink">
 <metadata>
  <rdf:RDF xmlns:cc="http://creativecommons.org/ns#" xmlns:dc="http://purl.org/dc/elements/1.1/" xmlns:rdf="http://www.w3.org/1999/02/22-rdf-syntax-ns#">
   <cc:Work>
    <dc:type rdf:resource="http://purl.org/dc/dcmitype/StillImage"/>
    <dc:date>2021-09-09T12:14:41.837991</dc:date>
    <dc:format>image/svg+xml</dc:format>
    <dc:creator>
     <cc:Agent>
      <dc:title>Matplotlib v3.3.1, https://matplotlib.org/</dc:title>
     </cc:Agent>
    </dc:creator>
   </cc:Work>
  </rdf:RDF>
 </metadata>
 <defs>
  <style type="text/css">*{stroke-linecap:butt;stroke-linejoin:round;}</style>
 </defs>
 <g id="figure_1">
  <g id="patch_1">
   <path d="M 0 487.44 
L 720 487.44 
L 720 0 
L 0 0 
z
" style="fill:#ffffff;"/>
  </g>
  <g id="axes_1">
   <g id="patch_2">
    <path d="M 167.767054 447.675 
L 552.232946 447.675 
L 552.232946 17.28 
L 167.767054 17.28 
z
" style="fill:#ffffff;"/>
   </g>
   <g id="patch_3">
    <path clip-path="url(#pda207986ed)" d="M 237.158103 373.000643 
C 243.00434 373.000643 248.611918 370.677908 252.745833 366.543993 
C 256.879747 362.410079 259.202482 356.802501 259.202482 350.956263 
C 259.202482 345.110025 256.879747 339.502447 252.745833 335.368533 
C 248.611918 331.234619 243.00434 328.911884 237.158103 328.911884 
C 231.311865 328.911884 225.704287 331.234619 221.570373 335.368533 
C 217.436458 339.502447 215.113723 345.110025 215.113723 350.956263 
C 215.113723 356.802501 217.436458 362.410079 221.570373 366.543993 
C 225.704287 370.677908 231.311865 373.000643 237.158103 373.000643 
z
" style="fill:#404040;"/>
   </g>
   <g id="patch_4">
    <path clip-path="url(#pda207986ed)" d="M 380.446568 428.111591 
C 386.292806 428.111591 391.900384 425.788856 396.034299 421.654942 
C 400.168213 417.521027 402.490948 411.913449 402.490948 406.067212 
C 402.490948 400.220974 400.168213 394.613396 396.034299 390.479481 
C 391.900384 386.345567 386.292806 384.022832 380.446568 384.022832 
C 374.600331 384.022832 368.992753 386.345567 364.858838 390.479481 
C 360.724924 394.613396 358.402189 400.220974 358.402189 406.067212 
C 358.402189 411.913449 360.724924 417.521027 364.858838 421.654942 
C 368.992753 425.788856 374.600331 428.111591 380.446568 428.111591 
z
" style="fill:#404040;"/>
   </g>
   <g id="patch_5">
    <path clip-path="url(#pda207986ed)" d="M 336.35781 262.778746 
C 342.204047 262.778746 347.811626 260.456011 351.94554 256.322097 
C 356.079454 252.188182 358.402189 246.580604 358.402189 240.734366 
C 358.402189 234.888129 356.079454 229.280551 351.94554 225.146636 
C 347.811626 221.012722 342.204047 218.689987 336.35781 218.689987 
C 330.511572 218.689987 324.903994 221.012722 320.77008 225.146636 
C 316.636165 229.280551 314.31343 234.888129 314.31343 240.734366 
C 314.31343 246.580604 316.636165 252.188182 320.77008 256.322097 
C 324.903994 260.456011 330.511572 262.778746 336.35781 262.778746 
z
" style="fill:#404040;"/>
   </g>
   <g id="patch_6">
    <path clip-path="url(#pda207986ed)" d="M 468.624086 224.201082 
C 474.470324 224.201082 480.077902 221.878347 484.211816 217.744433 
C 488.34573 213.610518 490.668465 208.00294 490.668465 202.156703 
C 490.668465 196.310465 488.34573 190.702887 484.211816 186.568973 
C 480.077902 182.435058 474.470324 180.112323 468.624086 180.112323 
C 462.777848 180.112323 457.17027 182.435058 453.036356 186.568973 
C 448.902441 190.702887 446.579706 196.310465 446.579706 202.156703 
C 446.579706 208.00294 448.902441 213.610518 453.036356 217.744433 
C 457.17027 221.878347 462.777848 224.201082 468.624086 224.201082 
z
" style="fill:#404040;"/>
   </g>
   <g id="patch_7">
    <path clip-path="url(#pda207986ed)" d="M 270.224672 174.601228 
C 276.070909 174.601228 281.678487 172.278494 285.812402 168.144579 
C 289.946316 164.010665 292.269051 158.403087 292.269051 152.556849 
C 292.269051 146.710611 289.946316 141.103033 285.812402 136.969119 
C 281.678487 132.835205 276.070909 130.51247 270.224672 130.51247 
C 264.378434 130.51247 258.770856 132.835205 254.636942 136.969119 
C 250.503027 141.103033 248.180292 146.710611 248.180292 152.556849 
C 248.180292 158.403087 250.503027 164.010665 254.636942 168.144579 
C 258.770856 172.278494 264.378434 174.601228 270.224672 174.601228 
z
" style="fill:#404040;"/>
   </g>
   <g id="patch_8">
    <path clip-path="url(#pda207986ed)" d="M 358.402189 163.579039 
C 364.248427 163.579039 369.856005 161.256304 373.989919 157.12239 
C 378.123834 152.988475 380.446568 147.380897 380.446568 141.534659 
C 380.446568 135.688422 378.123834 130.080844 373.989919 125.946929 
C 369.856005 121.813015 364.248427 119.49028 358.402189 119.49028 
C 352.555951 119.49028 346.948373 121.813015 342.814459 125.946929 
C 338.680545 130.080844 336.35781 135.688422 336.35781 141.534659 
C 336.35781 147.380897 338.680545 152.988475 342.814459 157.12239 
C 346.948373 161.256304 352.555951 163.579039 358.402189 163.579039 
z
" style="fill:#404040;"/>
   </g>
   <g id="patch_9">
    <path clip-path="url(#pda207986ed)" d="M 237.158103 306.867505 
C 243.00434 306.867505 248.611918 304.54477 252.745833 300.410855 
C 256.879747 296.276941 259.202482 290.669363 259.202482 284.823125 
C 259.202482 278.976887 256.879747 273.369309 252.745833 269.235395 
C 248.611918 265.101481 243.00434 262.778746 237.158103 262.778746 
C 231.311865 262.778746 225.704287 265.101481 221.570373 269.235395 
C 217.436458 273.369309 215.113723 278.976887 215.113723 284.823125 
C 215.113723 290.669363 217.436458 296.276941 221.570373 300.410855 
C 225.704287 304.54477 231.311865 306.867505 237.158103 306.867505 
z
" style="fill:#404040;"/>
   </g>
   <g id="patch_10">
    <path clip-path="url(#pda207986ed)" d="M 512.712845 306.867505 
C 518.559082 306.867505 524.16666 304.54477 528.300575 300.410855 
C 532.434489 296.276941 534.757224 290.669363 534.757224 284.823125 
C 534.757224 278.976887 532.434489 273.369309 528.300575 269.235395 
C 524.16666 265.101481 518.559082 262.778746 512.712845 262.778746 
C 506.866607 262.778746 501.259029 265.101481 497.125114 269.235395 
C 492.9912 273.369309 490.668465 278.976887 490.668465 284.823125 
C 490.668465 290.669363 492.9912 296.276941 497.125114 300.410855 
C 501.259029 304.54477 506.866607 306.867505 512.712845 306.867505 
z
" style="fill:#404040;"/>
   </g>
   <g id="matplotlib.axis_1">
    <g id="xtick_1">
     <g id="line2d_1">
      <defs>
       <path d="M 0 0 
L 0 3.5 
" id="me0f0145620" style="stroke:#000000;stroke-width:0.8;"/>
      </defs>
      <g>
       <use style="stroke:#000000;stroke-width:0.8;" x="204.091534" xlink:href="#me0f0145620" y="447.675"/>
      </g>
     </g>
     <g id="text_1">
      <!-- −1.5 -->
      <g transform="translate(184.665284 466.8325)scale(0.16 -0.16)">
       <defs>
        <path d="M 10.59375 35.5 
L 73.1875 35.5 
L 73.1875 27.203125 
L 10.59375 27.203125 
z
" id="DejaVuSans-8722"/>
        <path d="M 12.40625 8.296875 
L 28.515625 8.296875 
L 28.515625 63.921875 
L 10.984375 60.40625 
L 10.984375 69.390625 
L 28.421875 72.90625 
L 38.28125 72.90625 
L 38.28125 8.296875 
L 54.390625 8.296875 
L 54.390625 0 
L 12.40625 0 
z
" id="DejaVuSans-49"/>
        <path d="M 10.6875 12.40625 
L 21 12.40625 
L 21 0 
L 10.6875 0 
z
" id="DejaVuSans-46"/>
        <path d="M 10.796875 72.90625 
L 49.515625 72.90625 
L 49.515625 64.59375 
L 19.828125 64.59375 
L 19.828125 46.734375 
Q 21.96875 47.46875 24.109375 47.828125 
Q 26.265625 48.1875 28.421875 48.1875 
Q 40.625 48.1875 47.75 41.5 
Q 54.890625 34.8125 54.890625 23.390625 
Q 54.890625 11.625 47.5625 5.09375 
Q 40.234375 -1.421875 26.90625 -1.421875 
Q 22.3125 -1.421875 17.546875 -0.640625 
Q 12.796875 0.140625 7.71875 1.703125 
L 7.71875 11.625 
Q 12.109375 9.234375 16.796875 8.0625 
Q 21.484375 6.890625 26.703125 6.890625 
Q 35.15625 6.890625 40.078125 11.328125 
Q 45.015625 15.765625 45.015625 23.390625 
Q 45.015625 31 40.078125 35.4375 
Q 35.15625 39.890625 26.703125 39.890625 
Q 22.75 39.890625 18.8125 39.015625 
Q 14.890625 38.140625 10.796875 36.28125 
z
" id="DejaVuSans-53"/>
       </defs>
       <use xlink:href="#DejaVuSans-8722"/>
       <use x="83.789062" xlink:href="#DejaVuSans-49"/>
       <use x="147.412109" xlink:href="#DejaVuSans-46"/>
       <use x="179.199219" xlink:href="#DejaVuSans-53"/>
      </g>
     </g>
    </g>
    <g id="xtick_2">
     <g id="line2d_2">
      <g>
       <use style="stroke:#000000;stroke-width:0.8;" x="259.202482" xlink:href="#me0f0145620" y="447.675"/>
      </g>
     </g>
     <g id="text_2">
      <!-- −1.0 -->
      <g transform="translate(239.776232 466.8325)scale(0.16 -0.16)">
       <defs>
        <path d="M 31.78125 66.40625 
Q 24.171875 66.40625 20.328125 58.90625 
Q 16.5 51.421875 16.5 36.375 
Q 16.5 21.390625 20.328125 13.890625 
Q 24.171875 6.390625 31.78125 6.390625 
Q 39.453125 6.390625 43.28125 13.890625 
Q 47.125 21.390625 47.125 36.375 
Q 47.125 51.421875 43.28125 58.90625 
Q 39.453125 66.40625 31.78125 66.40625 
z
M 31.78125 74.21875 
Q 44.046875 74.21875 50.515625 64.515625 
Q 56.984375 54.828125 56.984375 36.375 
Q 56.984375 17.96875 50.515625 8.265625 
Q 44.046875 -1.421875 31.78125 -1.421875 
Q 19.53125 -1.421875 13.0625 8.265625 
Q 6.59375 17.96875 6.59375 36.375 
Q 6.59375 54.828125 13.0625 64.515625 
Q 19.53125 74.21875 31.78125 74.21875 
z
" id="DejaVuSans-48"/>
       </defs>
       <use xlink:href="#DejaVuSans-8722"/>
       <use x="83.789062" xlink:href="#DejaVuSans-49"/>
       <use x="147.412109" xlink:href="#DejaVuSans-46"/>
       <use x="179.199219" xlink:href="#DejaVuSans-48"/>
      </g>
     </g>
    </g>
    <g id="xtick_3">
     <g id="line2d_3">
      <g>
       <use style="stroke:#000000;stroke-width:0.8;" x="314.31343" xlink:href="#me0f0145620" y="447.675"/>
      </g>
     </g>
     <g id="text_3">
      <!-- −0.5 -->
      <g transform="translate(294.88718 466.8325)scale(0.16 -0.16)">
       <use xlink:href="#DejaVuSans-8722"/>
       <use x="83.789062" xlink:href="#DejaVuSans-48"/>
       <use x="147.412109" xlink:href="#DejaVuSans-46"/>
       <use x="179.199219" xlink:href="#DejaVuSans-53"/>
      </g>
     </g>
    </g>
    <g id="xtick_4">
     <g id="line2d_4">
      <g>
       <use style="stroke:#000000;stroke-width:0.8;" x="369.424379" xlink:href="#me0f0145620" y="447.675"/>
      </g>
     </g>
     <g id="text_4">
      <!-- 0.0 -->
      <g transform="translate(356.701879 466.8325)scale(0.16 -0.16)">
       <use xlink:href="#DejaVuSans-48"/>
       <use x="63.623047" xlink:href="#DejaVuSans-46"/>
       <use x="95.410156" xlink:href="#DejaVuSans-48"/>
      </g>
     </g>
    </g>
    <g id="xtick_5">
     <g id="line2d_5">
      <g>
       <use style="stroke:#000000;stroke-width:0.8;" x="424.535327" xlink:href="#me0f0145620" y="447.675"/>
      </g>
     </g>
     <g id="text_5">
      <!-- 0.5 -->
      <g transform="translate(411.812827 466.8325)scale(0.16 -0.16)">
       <use xlink:href="#DejaVuSans-48"/>
       <use x="63.623047" xlink:href="#DejaVuSans-46"/>
       <use x="95.410156" xlink:href="#DejaVuSans-53"/>
      </g>
     </g>
    </g>
    <g id="xtick_6">
     <g id="line2d_6">
      <g>
       <use style="stroke:#000000;stroke-width:0.8;" x="479.646275" xlink:href="#me0f0145620" y="447.675"/>
      </g>
     </g>
     <g id="text_6">
      <!-- 1.0 -->
      <g transform="translate(466.923775 466.8325)scale(0.16 -0.16)">
       <use xlink:href="#DejaVuSans-49"/>
       <use x="63.623047" xlink:href="#DejaVuSans-46"/>
       <use x="95.410156" xlink:href="#DejaVuSans-48"/>
      </g>
     </g>
    </g>
    <g id="xtick_7">
     <g id="line2d_7">
      <g>
       <use style="stroke:#000000;stroke-width:0.8;" x="534.757224" xlink:href="#me0f0145620" y="447.675"/>
      </g>
     </g>
     <g id="text_7">
      <!-- 1.5 -->
      <g transform="translate(522.034724 466.8325)scale(0.16 -0.16)">
       <use xlink:href="#DejaVuSans-49"/>
       <use x="63.623047" xlink:href="#DejaVuSans-46"/>
       <use x="95.410156" xlink:href="#DejaVuSans-53"/>
      </g>
     </g>
    </g>
   </g>
   <g id="matplotlib.axis_2">
    <g id="ytick_1">
     <g id="line2d_8">
      <defs>
       <path d="M 0 0 
L -3.5 0 
" id="mb51e9faa64" style="stroke:#000000;stroke-width:0.8;"/>
      </defs>
      <g>
       <use style="stroke:#000000;stroke-width:0.8;" x="167.767054" xlink:href="#mb51e9faa64" y="395.045022"/>
      </g>
     </g>
     <g id="text_8">
      <!-- −1.0 -->
      <g transform="translate(121.914554 401.123772)scale(0.16 -0.16)">
       <use xlink:href="#DejaVuSans-8722"/>
       <use x="83.789062" xlink:href="#DejaVuSans-49"/>
       <use x="147.412109" xlink:href="#DejaVuSans-46"/>
       <use x="179.199219" xlink:href="#DejaVuSans-48"/>
      </g>
     </g>
    </g>
    <g id="ytick_2">
     <g id="line2d_9">
      <g>
       <use style="stroke:#000000;stroke-width:0.8;" x="167.767054" xlink:href="#mb51e9faa64" y="339.934074"/>
      </g>
     </g>
     <g id="text_9">
      <!-- −0.5 -->
      <g transform="translate(121.914554 346.012824)scale(0.16 -0.16)">
       <use xlink:href="#DejaVuSans-8722"/>
       <use x="83.789062" xlink:href="#DejaVuSans-48"/>
       <use x="147.412109" xlink:href="#DejaVuSans-46"/>
       <use x="179.199219" xlink:href="#DejaVuSans-53"/>
      </g>
     </g>
    </g>
    <g id="ytick_3">
     <g id="line2d_10">
      <g>
       <use style="stroke:#000000;stroke-width:0.8;" x="167.767054" xlink:href="#mb51e9faa64" y="284.823125"/>
      </g>
     </g>
     <g id="text_10">
      <!-- 0.0 -->
      <g transform="translate(135.322054 290.901875)scale(0.16 -0.16)">
       <use xlink:href="#DejaVuSans-48"/>
       <use x="63.623047" xlink:href="#DejaVuSans-46"/>
       <use x="95.410156" xlink:href="#DejaVuSans-48"/>
      </g>
     </g>
    </g>
    <g id="ytick_4">
     <g id="line2d_11">
      <g>
       <use style="stroke:#000000;stroke-width:0.8;" x="167.767054" xlink:href="#mb51e9faa64" y="229.712177"/>
      </g>
     </g>
     <g id="text_11">
      <!-- 0.5 -->
      <g transform="translate(135.322054 235.790927)scale(0.16 -0.16)">
       <use xlink:href="#DejaVuSans-48"/>
       <use x="63.623047" xlink:href="#DejaVuSans-46"/>
       <use x="95.410156" xlink:href="#DejaVuSans-53"/>
      </g>
     </g>
    </g>
    <g id="ytick_5">
     <g id="line2d_12">
      <g>
       <use style="stroke:#000000;stroke-width:0.8;" x="167.767054" xlink:href="#mb51e9faa64" y="174.601228"/>
      </g>
     </g>
     <g id="text_12">
      <!-- 1.0 -->
      <g transform="translate(135.322054 180.679978)scale(0.16 -0.16)">
       <use xlink:href="#DejaVuSans-49"/>
       <use x="63.623047" xlink:href="#DejaVuSans-46"/>
       <use x="95.410156" xlink:href="#DejaVuSans-48"/>
      </g>
     </g>
    </g>
    <g id="ytick_6">
     <g id="line2d_13">
      <g>
       <use style="stroke:#000000;stroke-width:0.8;" x="167.767054" xlink:href="#mb51e9faa64" y="119.49028"/>
      </g>
     </g>
     <g id="text_13">
      <!-- 1.5 -->
      <g transform="translate(135.322054 125.56903)scale(0.16 -0.16)">
       <use xlink:href="#DejaVuSans-49"/>
       <use x="63.623047" xlink:href="#DejaVuSans-46"/>
       <use x="95.410156" xlink:href="#DejaVuSans-53"/>
      </g>
     </g>
    </g>
    <g id="ytick_7">
     <g id="line2d_14">
      <g>
       <use style="stroke:#000000;stroke-width:0.8;" x="167.767054" xlink:href="#mb51e9faa64" y="64.379332"/>
      </g>
     </g>
     <g id="text_14">
      <!-- 2.0 -->
      <g transform="translate(135.322054 70.458082)scale(0.16 -0.16)">
       <defs>
        <path d="M 19.1875 8.296875 
L 53.609375 8.296875 
L 53.609375 0 
L 7.328125 0 
L 7.328125 8.296875 
Q 12.9375 14.109375 22.625 23.890625 
Q 32.328125 33.6875 34.8125 36.53125 
Q 39.546875 41.84375 41.421875 45.53125 
Q 43.3125 49.21875 43.3125 52.78125 
Q 43.3125 58.59375 39.234375 62.25 
Q 35.15625 65.921875 28.609375 65.921875 
Q 23.96875 65.921875 18.8125 64.3125 
Q 13.671875 62.703125 7.8125 59.421875 
L 7.8125 69.390625 
Q 13.765625 71.78125 18.9375 73 
Q 24.125 74.21875 28.421875 74.21875 
Q 39.75 74.21875 46.484375 68.546875 
Q 53.21875 62.890625 53.21875 53.421875 
Q 53.21875 48.921875 51.53125 44.890625 
Q 49.859375 40.875 45.40625 35.40625 
Q 44.1875 33.984375 37.640625 27.21875 
Q 31.109375 20.453125 19.1875 8.296875 
z
" id="DejaVuSans-50"/>
       </defs>
       <use xlink:href="#DejaVuSans-50"/>
       <use x="63.623047" xlink:href="#DejaVuSans-46"/>
       <use x="95.410156" xlink:href="#DejaVuSans-48"/>
      </g>
     </g>
    </g>
   </g>
   <g id="line2d_15">
    <path clip-path="url(#pda207986ed)" d="M 274.5291 281.477864 
L 271.664929 273.885454 
L 268.555277 266.280694 
L 265.170306 258.5856 
L 261.334088 250.427849 
L 257.083758 241.908755 
L 252.600145 233.415193 
L 247.260102 223.813707 
L 240.990523 212.96194 
L 237.322622 207.07516 
L 232.832984 199.876833 
L 230.896026 196.317846 
L 229.224652 192.754373 
L 227.603321 188.767181 
L 225.919229 184.023891 
L 224.129527 178.305551 
L 222.493703 172.319158 
L 221.053616 166.209383 
L 219.820714 160.022156 
L 218.727789 153.38389 
L 217.333336 143.301499 
L 215.145515 127.787382 
L 211.055373 99.589835 
L 210.322832 98.72317 
L 208.661281 96.379068 
L 208.483536 95.817994 
L 207.991669 95.125349 
L 206.831197 93.936692 
L 203.274834 90.717815 
L 200.657444 88.202672 
L 199.297637 86.603035 
L 198.766635 85.698043 
L 198.666394 85.106627 
L 198.804315 84.583525 
L 199.195291 84.027783 
L 199.949275 83.370743 
L 201.045687 82.706573 
L 202.201516 82.257532 
L 203.112568 82.120563 
L 203.800547 82.228512 
L 204.41401 82.557202 
L 204.86937 83.047295 
L 204.960121 83.401851 
L 204.818765 83.426713 
L 204.441453 83.194905 
L 203.785615 82.524199 
L 203.192 81.615967 
L 202.848987 80.711057 
L 202.754922 79.875908 
L 202.880591 79.114585 
L 203.242493 78.349811 
L 203.948833 77.425812 
L 205.41893 75.937922 
L 207.498564 73.783176 
L 208.377984 72.551064 
L 208.911107 71.429639 
L 209.259452 70.162378 
L 209.440137 68.605123 
L 209.424259 66.61811 
L 209.155893 59.861392 
L 209.476505 56.655304 
L 209.691676 53.639787 
L 209.96224 49.845279 
L 210.296747 48.477182 
L 210.756591 47.495346 
L 211.366859 46.699439 
L 212.354328 45.813371 
L 215.457744 43.219775 
L 216.202085 42.216879 
L 216.690758 41.191397 
L 216.973488 40.087586 
L 217.025717 39.681719 
L 217.025717 39.681719 
" style="fill:none;stroke:#59d959;stroke-linecap:square;stroke-opacity:0.5;stroke-width:1.5;"/>
   </g>
   <g id="line2d_16">
    <path clip-path="url(#pda207986ed)" d="M 437.186689 281.626674 
L 436.028415 281.509233 
L 433.956824 281.062676 
L 431.246477 280.246366 
L 428.203561 279.097229 
L 424.995697 277.649424 
L 421.566638 275.856671 
L 417.877585 273.675327 
L 413.610368 270.891607 
L 409.07982 267.670485 
L 404.208772 263.923375 
L 398.46357 259.210597 
L 392.000309 253.614113 
L 384.446567 246.765904 
L 375.277085 238.144113 
L 362.396031 225.694786 
L 356.783652 220.001585 
L 353.138604 215.99198 
L 340.43972 201.592555 
L 329.593544 190.100745 
L 316.727066 176.855964 
L 299.883069 159.940922 
L 295.909653 156.186288 
L 294.220857 154.274848 
L 293.135448 152.72894 
L 292.337425 151.21318 
L 291.769803 149.64595 
L 291.437923 148.088022 
L 291.304945 146.376442 
L 291.386313 144.568629 
L 291.72872 142.303142 
L 292.649242 138.096562 
L 293.284943 134.706247 
L 293.46645 132.584948 
L 293.418842 130.463224 
L 293.147182 128.342969 
L 292.644031 126.146667 
L 291.860564 123.731417 
L 290.805293 121.195586 
L 289.589252 118.852751 
L 288.229264 116.709717 
L 286.742116 114.76994 
L 285.043151 112.918245 
L 283.132143 111.167227 
L 281.011287 109.529502 
L 278.684448 108.016398 
L 276.084834 106.598811 
L 273.281015 105.324438 
L 270.201263 104.169417 
L 266.90053 103.171169 
L 263.353596 102.331645 
L 259.295991 101.609639 
L 254.571772 101.001845 
L 249.346777 100.555395 
L 245.0728 100.40192 
L 241.297078 100.487496 
L 236.044727 100.629278 
L 234.695809 100.421458 
L 233.460539 99.996437 
L 232.128873 99.561073 
L 231.032457 99.495386 
L 227.094613 99.460295 
L 226.144624 99.115876 
L 222.970701 97.703489 
L 220.198778 96.988097 
L 219.920952 96.624211 
L 219.846041 96.174888 
L 219.973815 95.537027 
L 220.457275 94.41618 
L 221.876495 91.851335 
L 223.093799 89.463485 
L 223.574064 88.05341 
L 223.749671 86.837381 
L 223.684975 85.684631 
L 223.38823 84.542805 
L 222.814944 83.285178 
L 221.870957 81.770727 
L 220.872233 80.579142 
L 219.817808 79.664337 
L 218.658958 78.954103 
L 217.165298 78.324987 
L 213.979586 77.072261 
L 214.119877 76.936615 
L 214.569948 76.860506 
L 215.226668 76.968814 
L 215.821589 77.285963 
L 216.337434 77.821459 
L 216.646682 78.446527 
L 216.641154 78.860068 
L 216.446453 79.051704 
L 216.068738 79.094857 
L 215.308487 78.934838 
L 214.326673 78.504948 
L 214.118462 78.265006 
L 214.128018 78.254428 
L 214.347959 78.214435 
L 215.483581 78.329828 
L 218.349782 78.601677 
L 219.453533 78.498421 
L 220.061264 78.229542 
L 220.415602 77.831685 
L 220.577081 77.314385 
L 220.557709 76.595935 
L 220.292288 75.582126 
L 219.550215 73.812278 
L 218.809489 71.845473 
L 218.537508 70.504422 
L 218.510814 69.293415 
L 218.716388 67.778416 
L 219.708906 62.087865 
L 219.622705 60.334806 
L 219.246601 57.836209 
L 218.864769 55.045249 
L 218.930033 53.928942 
L 219.1851 53.190537 
L 219.581268 52.686929 
L 220.17234 52.310074 
L 220.98673 52.072038 
L 222.12401 51.984714 
L 222.26926 51.986075 
L 222.26926 51.986075 
" style="fill:none;stroke:#d95959;stroke-linecap:square;stroke-opacity:0.5;stroke-width:1.5;"/>
   </g>
   <g id="line2d_17">
    <path clip-path="url(#pda207986ed)" d="M 301.333292 353.849637 
L 302.314001 352.433582 
L 303.651299 350.105075 
L 305.022593 347.275337 
L 306.274734 344.17978 
L 307.270646 341.127928 
L 307.985985 338.21321 
L 308.44567 335.398542 
L 308.685779 332.514216 
L 308.704757 329.576046 
L 308.503905 326.599133 
L 308.064227 323.439993 
L 307.38771 320.2081 
L 306.474536 316.934703 
L 305.303154 313.567313 
L 303.850059 310.062715 
L 302.123131 306.476684 
L 300.086998 302.767421 
L 297.64101 298.778953 
L 294.615899 294.284294 
L 291.249778 289.685596 
L 287.266958 284.635731 
L 272.822333 266.664264 
L 269.07547 261.436661 
L 265.778688 256.456557 
L 262.872478 251.664742 
L 260.020473 246.522143 
L 257.102528 240.790338 
L 254.221732 234.632315 
L 251.277734 227.798065 
L 247.500711 218.424722 
L 240.508765 200.345645 
L 236.906205 190.609292 
L 234.660295 183.901143 
L 232.944223 178.086369 
L 231.543439 172.563323 
L 230.425642 167.253379 
L 229.584864 162.179744 
L 228.982383 157.177379 
L 228.478897 151.031618 
L 228.03503 142.714293 
L 227.725814 132.547916 
L 227.298264 118.732414 
L 226.948368 114.164183 
L 226.610245 112.496202 
L 226.046168 110.968423 
L 225.023385 108.79555 
L 224.561456 108.517341 
L 223.91265 108.395972 
L 222.760188 108.436267 
L 220.750119 108.7592 
L 217.307175 109.542007 
L 214.437224 110.233808 
L 213.587771 110.209331 
L 213.086518 109.997306 
L 212.770087 109.623305 
L 212.620417 109.079373 
L 212.649812 108.263911 
L 212.952898 106.836228 
L 214.077164 102.196682 
L 213.898262 102.093904 
L 213.553109 102.226799 
L 212.844054 102.781675 
L 211.6382 104.037152 
L 210.349187 105.692889 
L 209.797819 106.700594 
L 209.802047 107.05013 
L 210.002147 107.138361 
L 210.431129 107.029224 
L 211.137916 106.594674 
L 211.798421 105.942714 
L 212.153013 105.316638 
L 212.247193 104.698618 
L 212.118778 104.024595 
L 211.715443 103.179582 
L 210.842374 101.936851 
L 208.023663 98.131387 
L 207.259682 96.629063 
L 206.790557 95.217161 
L 206.525828 93.672996 
L 206.474403 92.083014 
L 206.633144 90.948262 
L 206.874221 90.503067 
L 207.082672 90.48509 
L 207.340187 90.744022 
L 207.733946 91.505716 
L 208.287593 93.103975 
L 208.782343 95.204558 
L 208.912281 96.587215 
L 208.776563 97.322012 
L 208.552586 97.550539 
L 208.502608 97.469008 
L 208.510826 97.433907 
L 208.703404 97.200628 
L 210.852248 95.288272 
L 211.214592 94.507658 
L 211.438373 93.438139 
L 211.542726 91.676785 
L 211.721266 88.793045 
L 212.023829 85.322985 
L 211.913164 83.605305 
L 211.491896 81.079121 
L 210.503642 75.429059 
L 210.197744 72.129978 
L 210.13684 69.119797 
L 210.301897 66.344204 
L 210.662126 63.926269 
L 211.209883 61.74979 
L 211.591178 60.646118 
L 211.591178 60.646118 
" style="fill:none;stroke:#d95959;stroke-linecap:square;stroke-opacity:0.5;stroke-width:1.5;"/>
   </g>
   <g id="line2d_18">
    <path clip-path="url(#pda207986ed)" d="M 429.500084 383.619888 
L 240.234355 194.198779 
L 235.908948 189.439159 
L 232.18014 185.011054 
L 228.802015 180.653735 
L 225.771138 176.383253 
L 222.873826 171.910463 
L 220.115083 167.240672 
L 217.731469 162.782249 
L 215.720406 158.552484 
L 214.069799 154.566031 
L 212.760236 150.83406 
L 211.7134 147.192779 
L 210.664676 142.690814 
L 208.971163 134.210278 
L 208.352774 130.135967 
L 208.045246 126.606833 
L 207.532498 119.453835 
L 207.156882 117.772971 
L 206.703335 116.673976 
L 206.17312 115.934122 
L 205.458962 115.321842 
L 204.49414 114.804146 
L 202.128829 113.680548 
L 201.885255 113.252283 
L 201.788477 112.589991 
L 201.607538 109.191992 
L 201.230172 108.409402 
L 200.652672 107.706895 
L 199.713242 106.944995 
L 198.135939 105.986747 
L 191.469885 102.234594 
L 190.324499 101.194763 
L 189.375443 100.019775 
L 188.624944 98.727 
L 188.043157 97.2766 
L 187.608611 95.58131 
L 187.304362 93.444685 
L 187.239515 91.47409 
L 187.400085 89.850276 
L 187.758474 88.422745 
L 188.283983 87.213593 
L 188.913575 86.306165 
L 189.661496 85.621961 
L 190.505354 85.152716 
L 191.466605 84.869389 
L 192.673032 84.751373 
L 194.199277 84.828306 
L 195.750638 85.122575 
L 196.755837 85.516877 
L 197.04098 85.831828 
L 196.997777 86.088712 
L 196.712417 86.327629 
L 196.38812 86.360392 
L 196.426476 86.21366 
L 196.888254 85.707683 
L 201.104995 81.485397 
L 202.341873 79.786157 
L 203.427721 77.90532 
L 204.369619 75.818028 
L 205.069024 73.727168 
L 205.498011 71.757321 
L 205.673944 69.905872 
L 205.610537 68.217769 
L 205.296385 66.318564 
L 204.579174 63.557893 
L 203.838616 60.5212 
L 203.683359 58.9648 
L 203.753269 57.432102 
L 204.048169 55.825793 
L 204.607223 54.042529 
L 205.715003 51.387988 
L 206.209951 49.921485 
L 206.226348 49.240565 
L 206.115486 48.941054 
L 206.115486 48.941054 
" style="fill:none;stroke:#d95959;stroke-linecap:square;stroke-opacity:0.5;stroke-width:1.5;"/>
   </g>
   <g id="line2d_19">
    <path clip-path="url(#pda207986ed)" d="M 274.5291 281.477864 
L 271.616038 273.757917 
L 268.458804 266.034152 
L 265.018942 258.205554 
L 261.128314 249.912278 
L 256.827763 241.262685 
L 252.245613 232.547114 
L 246.586564 222.310312 
L 240.822391 212.266203 
L 237.108715 206.266076 
L 233.172571 199.850369 
L 231.249975 196.283351 
L 229.590732 192.714402 
L 227.981964 188.722625 
L 226.31211 183.974825 
L 224.538245 178.251457 
L 222.916652 172.260363 
L 221.463991 166.031391 
L 220.224026 159.723003 
L 219.14682 153.078454 
L 217.743141 142.787909 
L 215.521219 126.860439 
L 211.593129 99.402908 
L 209.814427 97.499139 
L 208.618979 95.882724 
L 207.363793 93.794212 
L 205.748812 92.138268 
L 201.433762 88.102647 
L 197.75065 84.548138 
L 196.920705 83.501139 
L 196.679705 82.866295 
L 196.714706 82.350099 
L 196.968653 81.874783 
L 197.517806 81.342747 
L 198.609579 80.627271 
L 200.197895 79.859255 
L 201.002163 79.641208 
L 201.002235 79.653503 
L 200.847728 79.76526 
L 200.450989 79.818377 
L 200.202074 79.65187 
L 200.102474 79.307938 
L 200.142035 78.420429 
L 200.26064 76.147448 
L 200.088119 75.164327 
L 199.734246 74.398255 
L 199.027668 73.457886 
L 198.104908 72.194621 
L 197.944597 71.589211 
L 198.035186 71.041649 
L 198.373363 70.444763 
L 199.199105 69.496472 
L 201.706568 66.762259 
L 202.325946 65.704182 
L 202.617272 64.764659 
L 202.69028 63.72618 
L 202.547522 62.471002 
L 202.056308 60.445677 
L 201.595307 58.309801 
L 201.571555 57.17383 
L 201.776041 56.11381 
L 202.189998 55.128598 
L 202.828552 54.173175 
L 203.741008 53.217872 
L 204.951511 52.285229 
L 206.694737 51.255224 
L 210.780922 48.93206 
L 212.016626 47.930937 
L 213.067777 46.773241 
L 214.060424 45.33359 
L 215.06472 43.470956 
L 217.970966 37.714501 
L 218.667921 37.030877 
L 218.955301 36.843409 
L 218.955301 36.843409 
" style="fill:none;stroke:#9acd32;stroke-linecap:square;stroke-opacity:0.5;stroke-width:1.5;"/>
   </g>
   <g id="line2d_20">
    <path clip-path="url(#pda207986ed)" d="M 437.186689 281.626674 
L 436.02856 281.502171 
L 433.95683 281.04159 
L 431.246334 280.206598 
L 428.203549 279.036797 
L 424.933341 277.536617 
L 421.497593 275.712399 
L 417.726571 273.449414 
L 413.379022 270.573557 
L 408.788257 267.269034 
L 403.866468 263.4445 
L 397.998517 258.5911 
L 391.41609 252.85069 
L 383.678732 245.795395 
L 374.060184 236.712176 
L 361.266054 224.304464 
L 355.572684 218.56371 
L 351.859159 214.492408 
L 342.358284 203.885545 
L 331.606453 192.558044 
L 318.411699 178.997429 
L 300.459726 160.909193 
L 295.290636 156.053401 
L 293.763387 154.274196 
L 292.772736 152.799838 
L 292.061925 151.360813 
L 291.572372 149.876972 
L 291.295474 148.334575 
L 291.224101 146.640952 
L 291.37819 144.768357 
L 291.818704 142.430679 
L 293.73668 133.543962 
L 293.809165 131.482091 
L 293.662832 129.413964 
L 293.289955 127.261956 
L 292.665784 124.957403 
L 291.728023 122.368211 
L 290.623761 119.961947 
L 289.369715 117.745079 
L 287.935925 115.660495 
L 286.326802 113.719193 
L 284.500279 111.871175 
L 282.458538 110.131254 
L 280.270495 108.556828 
L 277.814008 107.06689 
L 275.152447 105.713322 
L 272.215375 104.470413 
L 269.067354 103.378035 
L 265.610947 102.41697 
L 261.822087 101.59886 
L 257.48003 100.89555 
L 252.619404 100.338094 
L 247.843436 100.005548 
L 243.514854 99.922976 
L 234.571662 99.901197 
L 232.834042 99.536849 
L 229.932095 98.85697 
L 225.747775 98.262791 
L 224.676844 97.790379 
L 221.657863 96.29423 
L 219.634204 95.550514 
L 219.123282 95.11035 
L 218.879232 94.625214 
L 218.826204 94.034812 
L 218.994992 93.154929 
L 219.561133 91.587519 
L 220.973469 87.834233 
L 221.216777 86.492295 
L 221.207228 85.247021 
L 220.971403 84.035079 
L 220.488742 82.756259 
L 219.682816 81.282776 
L 218.433837 79.472274 
L 217.31091 78.222193 
L 216.154773 77.259866 
L 214.899494 76.504172 
L 213.266495 75.806557 
L 210.121722 74.511914 
L 209.889891 74.17632 
L 209.955807 73.878177 
L 210.286187 73.510977 
L 211.018113 73.057138 
L 211.876675 72.76479 
L 211.999463 72.810518 
L 211.98693 72.864237 
L 211.711532 73.181271 
L 210.393786 74.455069 
L 210.508228 74.46411 
L 210.955718 74.26724 
L 211.443309 73.837019 
L 211.651267 73.390954 
L 211.613064 72.969092 
L 211.319271 72.486635 
L 210.561171 71.731923 
L 209.336025 70.506803 
L 209.37972 70.288926 
L 209.684276 70.163952 
L 210.685135 70.059266 
L 213.180073 69.805738 
L 214.092213 69.490682 
L 214.639141 69.077497 
L 215.011151 68.528668 
L 215.248236 67.776281 
L 215.332272 66.700711 
L 215.211158 65.137812 
L 214.556023 59.255161 
L 214.750221 58.238433 
L 215.090028 57.563529 
L 215.650494 56.96569 
L 216.523697 56.394062 
L 218.241784 55.599168 
L 220.029014 54.686886 
L 221.091762 53.889433 
L 221.878994 53.021422 
L 222.476149 52.039394 
L 222.93797 50.830606 
L 223.223935 49.449029 
L 223.307791 48.612883 
L 223.307791 48.612883 
" style="fill:none;stroke:#cd5c5c;stroke-linecap:square;stroke-opacity:0.5;stroke-width:1.5;"/>
   </g>
   <g id="line2d_21">
    <path clip-path="url(#pda207986ed)" d="M 301.333292 353.849637 
L 302.328043 352.346987 
L 303.648993 349.941081 
L 304.94452 347.123602 
L 306.083243 344.121652 
L 306.984916 341.127796 
L 307.632014 338.213125 
L 308.033773 335.398744 
L 308.223092 332.514711 
L 308.197153 329.576403 
L 307.94654 326.51661 
L 307.463287 323.353996 
L 306.726335 320.035033 
L 305.746914 316.677174 
L 304.505476 313.231249 
L 302.980057 309.655709 
L 301.180837 306.006782 
L 299.071649 302.236054 
L 296.500576 298.109029 
L 293.445629 293.632843 
L 290.051146 289.055116 
L 285.812589 283.739678 
L 274.49968 269.731952 
L 270.518316 264.334563 
L 267.043068 259.252876 
L 263.960808 254.353434 
L 261.168203 249.494379 
L 258.34319 244.128046 
L 255.463176 238.172728 
L 252.628207 231.792129 
L 249.415001 223.974581 
L 244.653 211.730969 
L 237.228109 192.047063 
L 234.792007 184.91802 
L 232.980646 178.940007 
L 231.514983 173.339694 
L 230.35458 168.039183 
L 229.470561 162.970299 
L 228.840445 158.06191 
L 228.344643 152.38857 
L 227.91374 144.708843 
L 227.600293 135.016026 
L 227.087377 117.783136 
L 226.737048 113.68263 
L 226.385232 112.019254 
L 225.810166 110.466785 
L 224.90396 108.627658 
L 224.41822 108.209975 
L 223.741629 107.93685 
L 222.754683 107.793254 
L 221.639762 107.850311 
L 220.637006 108.118054 
L 219.686601 108.622277 
L 218.248231 109.4044 
L 217.690952 109.427744 
L 216.647239 109.181533 
L 215.578634 109.032066 
L 214.423338 109.127783 
L 213.192397 109.168656 
L 212.61768 108.973143 
L 212.273123 108.616991 
L 212.079825 108.071868 
L 212.033251 107.190088 
L 212.196773 105.529125 
L 212.565662 102.146097 
L 212.415973 101.750565 
L 212.177516 101.700487 
L 211.768891 101.888254 
L 211.018905 102.523864 
L 209.810702 103.874842 
L 209.302439 104.548236 
L 209.923647 103.564594 
L 210.362099 102.469486 
L 210.496357 101.576088 
L 210.391727 100.715374 
L 210.038775 99.750525 
L 209.326388 98.508701 
L 207.854461 96.464763 
L 204.799339 92.229652 
L 203.873962 90.577605 
L 203.510885 89.507386 
L 203.455289 88.682676 
L 203.619101 88.109928 
L 203.899041 87.852533 
L 204.133896 87.892028 
L 204.317468 88.161331 
L 204.476094 88.866772 
L 204.541839 90.301942 
L 204.510864 90.763807 
L 204.428943 90.622001 
L 203.844267 89.655665 
L 202.983269 88.695815 
L 201.465051 87.012633 
L 201.028473 86.209109 
L 200.906577 85.568933 
L 201.010298 84.997541 
L 201.372073 84.317136 
L 202.19751 83.30316 
L 203.638608 81.540102 
L 203.993724 80.75481 
L 204.091761 79.981569 
L 203.976158 79.039967 
L 203.505223 77.401287 
L 202.976752 75.359902 
L 202.823495 73.842588 
L 202.870961 72.116716 
L 203.146134 70.277472 
L 203.609532 68.633398 
L 204.218894 67.276068 
L 204.987886 66.122786 
L 206.017118 65.000855 
L 208.111317 63.150834 
L 209.291948 61.931379 
L 210.070334 60.806483 
L 210.616411 59.632036 
L 210.79528 59.096606 
L 210.79528 59.096606 
" style="fill:none;stroke:#cd5c5c;stroke-linecap:square;stroke-opacity:0.5;stroke-width:1.5;"/>
   </g>
   <g id="line2d_22">
    <path clip-path="url(#pda207986ed)" d="M 429.500084 383.619888 
L 239.714535 193.679251 
L 235.456757 188.982255 
L 231.735046 184.548301 
L 228.420169 180.258393 
L 225.394559 175.983614 
L 222.502706 171.506808 
L 219.79931 166.912547 
L 217.424155 162.450951 
L 215.37251 158.136162 
L 213.715767 154.148276 
L 212.440009 150.50207 
L 211.437201 146.950063 
L 210.279577 141.916903 
L 207.347392 127.934766 
L 206.9608 123.935206 
L 206.503926 119.824465 
L 206.072794 117.862698 
L 205.577782 116.579559 
L 204.970644 115.611621 
L 204.153403 114.722781 
L 202.785801 113.61167 
L 201.750232 112.671472 
L 201.333398 112.001097 
L 201.076186 111.127194 
L 200.357557 108.006639 
L 199.818005 107.078122 
L 199.090445 106.274529 
L 197.974047 105.402681 
L 196.047134 104.218025 
L 190.89071 101.165575 
L 189.492344 100.024231 
L 188.419394 98.857367 
L 187.526985 97.565215 
L 186.78121 96.098278 
L 186.15083 94.348389 
L 185.604592 92.122376 
L 185.287424 89.983181 
L 185.262038 88.338445 
L 185.453643 87.016796 
L 185.833368 85.881916 
L 186.438663 84.788666 
L 187.335849 83.630522 
L 188.536316 82.445066 
L 189.625439 81.646061 
L 189.83226 81.46791 
L 191.05024 79.762538 
L 191.455948 78.863233 
L 191.428498 78.46307 
L 191.156947 78.103663 
L 190.524939 77.312359 
L 190.26207 76.580613 
L 190.116104 75.446346 
L 190.121856 73.662771 
L 190.364172 71.100165 
L 190.881737 68.040918 
L 191.554309 65.370778 
L 192.342513 63.127864 
L 193.248027 61.21758 
L 194.370637 59.390658 
L 195.905547 57.339798 
L 198.578952 54.207189 
L 204.312313 47.83201 
L 210.23973 41.539641 
L 210.23973 41.539641 
" style="fill:none;stroke:#cd5c5c;stroke-linecap:square;stroke-opacity:0.5;stroke-width:1.5;"/>
   </g>
   <g id="line2d_23">
    <path clip-path="url(#pda207986ed)" d="M 274.5291 281.477864 
L 271.616038 273.757917 
L 268.458804 266.034152 
L 265.018942 258.205554 
L 261.128314 249.912278 
L 256.827763 241.262685 
L 252.245613 232.547114 
L 246.586564 222.310312 
L 240.822391 212.266203 
L 237.108715 206.266076 
L 233.172571 199.850369 
L 231.249975 196.283351 
L 229.590732 192.714402 
L 227.981964 188.722625 
L 226.31211 183.974825 
L 224.538245 178.251457 
L 222.916652 172.260363 
L 221.463991 166.031391 
L 220.224026 159.723003 
L 219.14682 153.078454 
L 217.743141 142.787909 
L 215.521219 126.860439 
L 211.593129 99.402908 
L 209.814427 97.499139 
L 208.618979 95.882724 
L 207.363793 93.794212 
L 205.748812 92.138268 
L 201.433762 88.102647 
L 197.75065 84.548138 
L 196.920705 83.501139 
L 196.679705 82.866295 
L 196.714706 82.350099 
L 196.968653 81.874783 
L 197.517806 81.342747 
L 198.609579 80.627271 
L 200.197895 79.859255 
L 201.002163 79.641208 
L 201.002235 79.653503 
L 200.847728 79.76526 
L 200.450989 79.818377 
L 200.202074 79.65187 
L 200.102474 79.307938 
L 200.142035 78.420429 
L 200.26064 76.147448 
L 200.088119 75.164327 
L 199.734246 74.398255 
L 199.027668 73.457886 
L 198.104908 72.194621 
L 197.944597 71.589211 
L 198.035186 71.041649 
L 198.373363 70.444763 
L 199.199105 69.496472 
L 201.706568 66.762259 
L 202.325946 65.704182 
L 202.617272 64.764659 
L 202.69028 63.72618 
L 202.547522 62.471002 
L 202.056308 60.445677 
L 201.595307 58.309801 
L 201.571555 57.17383 
L 201.776041 56.11381 
L 202.189998 55.128598 
L 202.828552 54.173175 
L 203.741008 53.217872 
L 204.951511 52.285229 
L 206.694737 51.255224 
L 210.780922 48.93206 
L 212.016626 47.930937 
L 213.067777 46.773241 
L 214.060424 45.33359 
L 215.06472 43.470956 
L 217.970966 37.714501 
L 218.667921 37.030877 
L 218.955301 36.843409 
L 218.955301 36.843409 
" style="fill:none;stroke:#006400;stroke-linecap:square;stroke-opacity:0.5;stroke-width:1.5;"/>
   </g>
   <g id="line2d_24">
    <path clip-path="url(#pda207986ed)" d="M 437.186689 281.626674 
L 436.02856 281.502171 
L 433.95683 281.04159 
L 431.246334 280.206598 
L 428.203549 279.036797 
L 424.933341 277.536617 
L 421.497593 275.712399 
L 417.726571 273.449414 
L 413.379022 270.573557 
L 408.788257 267.269034 
L 403.866468 263.4445 
L 397.998517 258.5911 
L 391.41609 252.85069 
L 383.678732 245.795395 
L 374.060184 236.712176 
L 361.266054 224.304464 
L 355.572684 218.56371 
L 351.859159 214.492408 
L 342.358284 203.885545 
L 331.606453 192.558044 
L 318.411699 178.997429 
L 300.459726 160.909193 
L 295.290636 156.053401 
L 293.763387 154.274196 
L 292.772736 152.799838 
L 292.061925 151.360813 
L 291.572372 149.876972 
L 291.295474 148.334575 
L 291.224101 146.640952 
L 291.37819 144.768357 
L 291.818704 142.430679 
L 293.73668 133.543962 
L 293.809165 131.482091 
L 293.662832 129.413964 
L 293.289955 127.261956 
L 292.665784 124.957403 
L 291.728023 122.368211 
L 290.623761 119.961947 
L 289.369715 117.745079 
L 287.935925 115.660495 
L 286.326802 113.719193 
L 284.500279 111.871175 
L 282.458538 110.131254 
L 280.270495 108.556828 
L 277.814008 107.06689 
L 275.152447 105.713322 
L 272.215375 104.470413 
L 269.067354 103.378035 
L 265.610947 102.41697 
L 261.822087 101.59886 
L 257.48003 100.89555 
L 252.619404 100.338094 
L 247.843436 100.005548 
L 243.514854 99.922976 
L 234.571662 99.901197 
L 232.834042 99.536849 
L 229.932095 98.85697 
L 225.747775 98.262791 
L 224.676844 97.790379 
L 221.657863 96.29423 
L 219.634204 95.550514 
L 219.123282 95.11035 
L 218.879232 94.625214 
L 218.826204 94.034812 
L 218.994992 93.154929 
L 219.561133 91.587519 
L 220.973469 87.834233 
L 221.216777 86.492295 
L 221.207228 85.247021 
L 220.971403 84.035079 
L 220.488742 82.756259 
L 219.682816 81.282776 
L 218.433837 79.472274 
L 217.31091 78.222193 
L 216.154773 77.259866 
L 214.899494 76.504172 
L 213.266495 75.806557 
L 210.121722 74.511914 
L 209.889891 74.17632 
L 209.955807 73.878177 
L 210.286187 73.510977 
L 211.018113 73.057138 
L 211.876675 72.76479 
L 211.999463 72.810518 
L 211.98693 72.864237 
L 211.711532 73.181271 
L 210.393786 74.455069 
L 210.508228 74.46411 
L 210.955718 74.26724 
L 211.443309 73.837019 
L 211.651267 73.390954 
L 211.613064 72.969092 
L 211.319271 72.486635 
L 210.561171 71.731923 
L 209.336025 70.506803 
L 209.37972 70.288926 
L 209.684276 70.163952 
L 210.685135 70.059266 
L 213.180073 69.805738 
L 214.092213 69.490682 
L 214.639141 69.077497 
L 215.011151 68.528668 
L 215.248236 67.776281 
L 215.332272 66.700711 
L 215.211158 65.137812 
L 214.556023 59.255161 
L 214.750221 58.238433 
L 215.090028 57.563529 
L 215.650494 56.96569 
L 216.523697 56.394062 
L 218.241784 55.599168 
L 220.029014 54.686886 
L 221.091762 53.889433 
L 221.878994 53.021422 
L 222.476149 52.039394 
L 222.93797 50.830606 
L 223.223935 49.449029 
L 223.307791 48.612883 
L 223.307791 48.612883 
" style="fill:none;stroke:#b22222;stroke-linecap:square;stroke-opacity:0.5;stroke-width:1.5;"/>
   </g>
   <g id="line2d_25">
    <path clip-path="url(#pda207986ed)" d="M 301.333292 353.849637 
L 302.328043 352.346987 
L 303.648993 349.941081 
L 304.94452 347.123602 
L 306.083243 344.121652 
L 306.984916 341.127796 
L 307.632014 338.213125 
L 308.033773 335.398744 
L 308.223092 332.514711 
L 308.197153 329.576403 
L 307.94654 326.51661 
L 307.463287 323.353996 
L 306.726335 320.035033 
L 305.746914 316.677174 
L 304.505476 313.231249 
L 302.980057 309.655709 
L 301.180837 306.006782 
L 299.071649 302.236054 
L 296.500576 298.109029 
L 293.445629 293.632843 
L 290.051146 289.055116 
L 285.812589 283.739678 
L 274.49968 269.731952 
L 270.518316 264.334563 
L 267.043068 259.252876 
L 263.960808 254.353434 
L 261.168203 249.494379 
L 258.34319 244.128046 
L 255.463176 238.172728 
L 252.628207 231.792129 
L 249.415001 223.974581 
L 244.653 211.730969 
L 237.228109 192.047063 
L 234.792007 184.91802 
L 232.980646 178.940007 
L 231.514983 173.339694 
L 230.35458 168.039183 
L 229.470561 162.970299 
L 228.840445 158.06191 
L 228.344643 152.38857 
L 227.91374 144.708843 
L 227.600293 135.016026 
L 227.087377 117.783136 
L 226.737048 113.68263 
L 226.385232 112.019254 
L 225.810166 110.466785 
L 224.90396 108.627658 
L 224.41822 108.209975 
L 223.741629 107.93685 
L 222.754683 107.793254 
L 221.639762 107.850311 
L 220.637006 108.118054 
L 219.686601 108.622277 
L 218.248231 109.4044 
L 217.690952 109.427744 
L 216.647239 109.181533 
L 215.578634 109.032066 
L 214.423338 109.127783 
L 213.192397 109.168656 
L 212.61768 108.973143 
L 212.273123 108.616991 
L 212.079825 108.071868 
L 212.033251 107.190088 
L 212.196773 105.529125 
L 212.565662 102.146097 
L 212.415973 101.750565 
L 212.177516 101.700487 
L 211.768891 101.888254 
L 211.018905 102.523864 
L 209.810702 103.874842 
L 209.302439 104.548236 
L 209.923647 103.564594 
L 210.362099 102.469486 
L 210.496357 101.576088 
L 210.391727 100.715374 
L 210.038775 99.750525 
L 209.326388 98.508701 
L 207.854461 96.464763 
L 204.799339 92.229652 
L 203.873962 90.577605 
L 203.510885 89.507386 
L 203.455289 88.682676 
L 203.619101 88.109928 
L 203.899041 87.852533 
L 204.133896 87.892028 
L 204.317468 88.161331 
L 204.476094 88.866772 
L 204.541839 90.301942 
L 204.510864 90.763807 
L 204.428943 90.622001 
L 203.844267 89.655665 
L 202.983269 88.695815 
L 201.465051 87.012633 
L 201.028473 86.209109 
L 200.906577 85.568933 
L 201.010298 84.997541 
L 201.372073 84.317136 
L 202.19751 83.30316 
L 203.638608 81.540102 
L 203.993724 80.75481 
L 204.091761 79.981569 
L 203.976158 79.039967 
L 203.505223 77.401287 
L 202.976752 75.359902 
L 202.823495 73.842588 
L 202.870961 72.116716 
L 203.146134 70.277472 
L 203.609532 68.633398 
L 204.218894 67.276068 
L 204.987886 66.122786 
L 206.017118 65.000855 
L 208.111317 63.150834 
L 209.291948 61.931379 
L 210.070334 60.806483 
L 210.616411 59.632036 
L 210.79528 59.096606 
L 210.79528 59.096606 
" style="fill:none;stroke:#b22222;stroke-linecap:square;stroke-opacity:0.5;stroke-width:1.5;"/>
   </g>
   <g id="line2d_26">
    <path clip-path="url(#pda207986ed)" d="M 429.500084 383.619888 
L 239.714535 193.679251 
L 235.456757 188.982255 
L 231.735046 184.548301 
L 228.420169 180.258393 
L 225.394559 175.983614 
L 222.502706 171.506808 
L 219.79931 166.912547 
L 217.424155 162.450951 
L 215.37251 158.136162 
L 213.715767 154.148276 
L 212.440009 150.50207 
L 211.437201 146.950063 
L 210.279577 141.916903 
L 207.347392 127.934766 
L 206.9608 123.935206 
L 206.503926 119.824465 
L 206.072794 117.862698 
L 205.577782 116.579559 
L 204.970644 115.611621 
L 204.153403 114.722781 
L 202.785801 113.61167 
L 201.750232 112.671472 
L 201.333398 112.001097 
L 201.076186 111.127194 
L 200.357557 108.006639 
L 199.818005 107.078122 
L 199.090445 106.274529 
L 197.974047 105.402681 
L 196.047134 104.218025 
L 190.89071 101.165575 
L 189.492344 100.024231 
L 188.419394 98.857367 
L 187.526985 97.565215 
L 186.78121 96.098278 
L 186.15083 94.348389 
L 185.604592 92.122376 
L 185.287424 89.983181 
L 185.262038 88.338445 
L 185.453643 87.016796 
L 185.833368 85.881916 
L 186.438663 84.788666 
L 187.335849 83.630522 
L 188.536316 82.445066 
L 189.625439 81.646061 
L 189.83226 81.46791 
L 191.05024 79.762538 
L 191.455948 78.863233 
L 191.428498 78.46307 
L 191.156947 78.103663 
L 190.524939 77.312359 
L 190.26207 76.580613 
L 190.116104 75.446346 
L 190.121856 73.662771 
L 190.364172 71.100165 
L 190.881737 68.040918 
L 191.554309 65.370778 
L 192.342513 63.127864 
L 193.248027 61.21758 
L 194.370637 59.390658 
L 195.905547 57.339798 
L 198.578952 54.207189 
L 204.312313 47.83201 
L 210.23973 41.539641 
L 210.23973 41.539641 
" style="fill:none;stroke:#b22222;stroke-linecap:square;stroke-opacity:0.5;stroke-width:1.5;"/>
   </g>
   <g id="patch_11">
    <path d="M 167.767054 447.675 
L 167.767054 17.28 
" style="fill:none;stroke:#000000;stroke-linecap:square;stroke-linejoin:miter;stroke-width:0.8;"/>
   </g>
   <g id="patch_12">
    <path d="M 552.232946 447.675 
L 552.232946 17.28 
" style="fill:none;stroke:#000000;stroke-linecap:square;stroke-linejoin:miter;stroke-width:0.8;"/>
   </g>
   <g id="patch_13">
    <path d="M 167.767054 447.675 
L 552.232946 447.675 
" style="fill:none;stroke:#000000;stroke-linecap:square;stroke-linejoin:miter;stroke-width:0.8;"/>
   </g>
   <g id="patch_14">
    <path d="M 167.767054 17.28 
L 552.232946 17.28 
" style="fill:none;stroke:#000000;stroke-linecap:square;stroke-linejoin:miter;stroke-width:0.8;"/>
   </g>
  </g>
 </g>
 <defs>
  <clipPath id="pda207986ed">
   <rect height="430.395" width="384.465892" x="167.767054" y="17.28"/>
  </clipPath>
 </defs>
</svg>
